<svg fill="none" height="25" viewBox="0 0 115 25" width="115" xmlns="http://www.w3.org/2000/svg"><g clip-rule="evenodd" fill-rule="evenodd"><g fill="#222"><path d="m49 6.25h-3.5v1.45236c-1.1465-.75983-2.5216-1.20236-4-1.20236-4.0041 0-7.25 3.24594-7.25 7.25 0 4.0041 3.2459 7.25 7.25 7.25 1.4784 0 2.8535-.4425 4-1.2024v1.0024h3.5zm-11.25 7.5c0-2.0711 1.6789-3.75 3.75-3.75s3.75 1.6789 3.75 3.75-1.6789 3.75-3.75 3.75-3.75-1.6789-3.75-3.75z"></path><path d="m65.75 1h-3.5v6.70236c-1.1465-.75983-2.5216-1.20236-4-1.20236-4.0041 0-7.25 3.24594-7.25 7.25 0 4.0041 3.2459 7.25 7.25 7.25 1.4784 0 2.8535-.4425 4-1.2024v1.0024h3.5zm-11.25 12.75c0-2.0711 1.6789-3.75 3.75-3.75s3.75 1.6789 3.75 3.75-1.6789 3.75-3.75 3.75-3.75-1.6789-3.75-3.75z"></path><path d="m75 10c-2.0711 0-3.75 1.6789-3.75 3.75s1.6789 3.75 3.75 3.75 3.75-1.6789 3.75-3.75-1.6789-3.75-3.75-3.75zm-7.25 3.75c0-4.00406 3.2459-7.25 7.25-7.25s7.25 3.24594 7.25 7.25c0 4.0041-3.2459 7.25-7.25 7.25s-7.25-3.2459-7.25-7.25z"></path><path d="m88.3624 10.6124c-.306.3061-.6124.9074-.6124 2.1376v8h-3.5v-8c0-1.7698.4436-3.4185 1.6376-4.61244 1.1939-1.19394 2.8426-1.63756 4.6124-1.63756h1.5v3.5h-1.5c-1.2302 0-1.8315.3064-2.1376.6124z"></path><path d="m107.251 10c-2.071 0-3.75 1.6789-3.75 3.75s1.679 3.75 3.75 3.75c1.455 0 2.719-.828 3.342-2.0465l3.116 1.593c-1.197 2.3432-3.638 3.9535-6.458 3.9535-4.004 0-7.25-3.2459-7.25-7.25 0-4.00406 3.246-7.25 7.25-7.25 2.82 0 5.261 1.61032 6.458 3.9535l-3.116 1.593c-.623-1.2185-1.887-2.0465-3.342-2.0465z"></path><path d="m96 4c1.1046 0 2-.89543 2-2 0-1.104569-.8954-2-2-2s-2 .895431-2 2c0 1.10457.8954 2 2 2zm1.75 16.7844v-14.2844h-3.5v14.2844z"></path></g><path d="m25.2378 19.5372c-1.945-2.4025-3.6155-4.8773-5.2519-7.787-1.6201-2.88195-2.8795-5.62126-3.9666-8.63493-.4924-1.28522-1.677-2.11527-3.0193-2.11527-1.3406 0-2.5252.83005-3.02572 2.13061-1.07903 2.99833-2.33827 5.73666-3.96011 8.61959-1.63472 2.9067-3.30358 5.3825-5.250372 7.7855-.500481.6152-.763798 1.3506-.763798 2.1297 0 1.8389 1.45762 3.3346 3.25007 3.3346.21611 0 .42575-.0233.60943-.0599 3.03865-.5349 5.85614-1.0312 9.1403-1.0312 3.2841 0 6.1037.4963 9.1213 1.0262.2032.0416.4127.0649.6289.0649 1.7924 0 3.25-1.4957 3.25-3.3346 0-.781-.2633-1.516-.7622-2.1282z" fill="#006ce7"></path></g></svg>