<svg width="133" height="38" viewBox="0 0 133 38" fill="none" xmlns="http://www.w3.org/2000/svg">
<path d="M22.8896 37.02L32.0836 34.74L28.1032 7.86999C28.092 7.79101 28.0541 7.7182 27.9958 7.66364C27.9374 7.60909 27.8621 7.57604 27.7824 7.56999L25.0653 7.53999L22.8896 5.42999V37.03V37.02ZM21.887 5.10999L20.8042 5.44999C20.6692 5.01182 20.4947 4.58675 20.2828 4.17999C19.5108 2.70999 18.3779 1.92999 17.0244 1.92999H17.0143L16.7336 1.94999L16.6033 1.80999C16.3174 1.4989 15.9659 1.25499 15.574 1.09589C15.1822 0.936794 14.7598 0.866467 14.3374 0.889992C12.5828 0.939992 10.8282 2.20999 9.4045 4.45999C8.40189 6.04999 7.63991 8.03999 7.42936 9.57999L3.96032 10.65C2.93765 10.97 2.90758 11.01 2.76721 11.96L0 33.3L22.1577 37.12V5.06999C22.0575 5.06999 21.9572 5.09999 21.887 5.10999ZM16.7737 6.69999L13.034 7.84999C13.3664 6.50264 14.0121 5.25225 14.9189 4.19999C15.2397 3.85999 15.6708 3.48999 16.1922 3.26999C16.6835 4.28999 16.7938 5.71999 16.7737 6.69999ZM14.3674 2.05999C14.7885 2.05999 15.1394 2.13999 15.4302 2.33999C14.959 2.57999 14.4978 2.93999 14.0667 3.39999C12.8757 4.78228 12.0761 6.45656 11.7506 8.24999L8.68262 9.18999C9.28419 6.36999 11.6604 2.13999 14.3775 2.05999H14.3674ZM10.9485 18.13C11.0688 20.01 16.0217 20.43 16.3025 24.83C16.5231 28.29 14.4577 30.66 11.4899 30.85C7.93066 31.08 5.96554 28.98 5.96554 28.98L6.7175 25.78C6.7175 25.78 8.69265 27.26 10.2768 27.16C10.4665 27.1551 10.6532 27.1118 10.8256 27.0329C10.9981 26.954 11.1527 26.841 11.2802 26.7008C11.4076 26.5606 11.5052 26.3961 11.5671 26.2172C11.6291 26.0383 11.6539 25.8488 11.6403 25.66C11.4899 23.21 7.44941 23.36 7.18873 19.32C6.97818 15.93 9.21401 12.5 14.1368 12.19C16.0418 12.07 17.0043 12.55 17.0043 12.55L15.8814 16.75C15.8814 16.75 14.6281 16.18 13.1342 16.28C10.9485 16.42 10.9285 17.79 10.9485 18.13ZM17.9468 6.32999C17.9497 5.24041 17.7666 4.15828 17.4054 3.12999C18.7489 3.38999 19.4106 4.89999 19.6813 5.79999L17.9468 6.32999ZM52.0757 27.48C52.0456 26.66 52.2161 25.4 52.4065 23.85H52.3564C50.8224 26.83 49.128 27.75 47.3734 27.75C45.3482 27.75 44.1149 26.07 44.1149 23.65C44.1149 19.08 47.3734 13.71 52.5569 13.71C53.4994 13.71 54.5622 13.88 55.264 14.11L53.8403 21.38C53.359 23.88 53.1986 26.05 53.2487 27.48H52.0757ZM53.8603 15C53.5596 14.89 53.0783 14.8 52.2461 14.8C48.4061 14.8 45.3983 19.13 45.3682 23.37C45.3381 25.12 45.8394 26.69 47.6542 26.69C49.8198 26.69 52.2762 23.4 52.9179 19.92L53.8603 15ZM55.1938 32.99L57.8708 18.63C58.2016 16.83 58.4523 15.23 58.6227 13.99H59.7557L59.3446 16.72H59.3948C60.5979 14.89 62.2622 13.72 64.0469 13.72C66.5835 13.72 67.5259 15.9 67.5259 18.1C67.5259 22.65 64.4379 27.76 60.1768 27.76C58.8734 27.76 58.0011 27.45 57.4998 27.16H57.4497L56.3869 32.98H55.1938V32.99ZM57.7003 25.93C58.3119 26.41 59.2043 26.69 60.2971 26.69C63.8263 26.69 66.2827 21.64 66.2827 18.18C66.2827 16.58 65.6711 14.81 63.6859 14.81C61.801 14.81 59.3145 17.22 58.5726 21.3L57.7003 25.93ZM67.536 32.99L70.2029 18.63C70.5338 16.83 70.7844 15.23 70.9549 13.99H72.0979L71.6768 16.72H71.7369C72.94 14.89 74.6044 13.72 76.389 13.72C78.9156 13.72 79.8681 15.9 79.8681 18.1C79.8681 22.65 76.77 27.76 72.5089 27.76C71.2055 27.76 70.3433 27.45 69.842 27.16H69.7818L68.7291 32.98H67.5259L67.536 32.99ZM70.0425 25.93C70.6441 26.41 71.5464 26.69 72.6292 26.69C76.1685 26.69 78.6148 21.64 78.6148 18.18C78.6148 16.58 78.0032 14.81 76.0281 14.81C74.1231 14.81 71.6567 17.22 70.9047 21.3L70.0325 25.93H70.0425ZM85.2421 25.9C85.9439 26.37 86.7661 26.62 87.6083 26.64C89.3628 26.64 90.5259 25.37 90.5259 23.85C90.5259 22.5 89.9744 21.69 88.7212 20.87C87.4178 20 86.6859 18.79 86.6859 17.56C86.6859 15.45 88.3602 13.71 90.6963 13.71C91.6187 13.71 92.5411 14.01 92.9221 14.33L92.481 15.37C91.9002 15.0157 91.2365 14.8192 90.5559 14.8C88.9518 14.8 87.889 15.93 87.889 17.33C87.889 18.6 88.5908 19.3 89.6937 20.03C90.977 20.91 91.7591 22.14 91.7591 23.49C91.7591 26.22 89.7839 27.73 87.498 27.73C86.2948 27.73 85.2421 27.28 84.7909 26.92L85.2421 25.9ZM98.6871 11.01L98.1056 14H101.264L101.043 15.04H97.8951L96.4112 23.08C96.2508 23.98 96.1405 24.68 96.1405 25.41C96.1405 26.2 96.5014 26.67 97.3336 26.67C97.7748 26.67 98.0555 26.65 98.3061 26.57L98.3863 27.54C97.9652 27.67 97.5241 27.74 97.083 27.74C95.4888 27.74 94.8772 26.68 94.8772 25.55C94.8772 24.82 94.9574 24.12 95.178 23.08L96.6819 15.04H94.7769L94.9474 14H96.8925L97.3336 11.59L98.6771 11.02L98.6871 11.01ZM111.751 18.9C111.751 22.36 109.495 27.76 105.144 27.76C102.256 27.76 100.883 25.31 100.883 22.53C100.883 18.6 103.419 13.71 107.49 13.71C110.698 13.71 111.751 16.46 111.751 18.91V18.9ZM102.146 22.42C102.146 24.78 103.229 26.69 105.344 26.69C108.382 26.69 110.498 22.14 110.498 18.91C110.498 17.14 109.826 14.78 107.38 14.78C104.262 14.78 102.146 18.96 102.146 22.42ZM112.944 27.48L114.649 18.4C114.98 16.69 115.17 15.17 115.28 13.99H116.393C116.293 14.86 116.173 15.76 116.012 16.91H116.062C116.895 15.11 118.208 13.71 119.872 13.71C120.043 13.71 120.213 13.73 120.374 13.76L120.153 15.03C119.999 14.9927 119.841 14.9725 119.682 14.97C117.927 14.97 115.972 17.64 115.421 20.62L114.167 27.48H112.944ZM127.512 26.72C126.415 27.3897 125.149 27.7363 123.863 27.72C120.745 27.72 119.652 25.26 119.652 22.67C119.652 18.79 122.329 13.71 126.169 13.71C128.374 13.71 129.297 15.17 129.297 16.66C129.297 20.08 125.387 21.04 121.025 21.01C120.885 21.63 120.855 23.4 121.126 24.35C121.607 25.9 122.63 26.63 124.053 26.63C125.527 26.63 126.53 26.1 127.141 25.73L127.512 26.72ZM125.948 14.8C123.893 14.8 122.028 17.05 121.216 19.95C124.695 19.97 128.034 19.38 128.034 16.71C128.034 15.45 127.201 14.81 125.948 14.81V14.8Z" fill="black"/>
</svg>
