<svg width="360" height="250" viewBox="0 0 360 250" fill="none" xmlns="http://www.w3.org/2000/svg">
<path d="M320.336 249.764V248.78C321.857 248.78 323.378 248.623 324.877 248.452L324.956 249.436C323.458 249.607 321.914 249.712 320.336 249.764ZM314.659 249.646C313.161 249.554 311.628 249.397 310.119 249.187L310.209 248.216C311.731 248.413 313.252 248.57 314.75 248.675L314.659 249.646ZM330.632 248.426L330.451 247.468C331.96 247.1 333.425 246.667 334.821 246.155L335.071 247.1C333.641 247.612 332.142 248.058 330.621 248.426H330.632ZM304.442 248.203C302.989 247.888 301.479 247.52 299.97 247.113L300.163 246.155C301.661 246.562 303.148 246.917 304.601 247.232L304.442 248.203ZM294.441 245.421C292.999 244.922 291.535 244.384 290.082 243.819L290.354 242.888C291.796 243.452 293.249 243.99 294.679 244.476L294.441 245.421ZM340.441 244.699L340.077 243.806C341.438 243.065 342.757 242.228 344.028 241.3L344.482 242.14C343.171 243.082 341.814 243.936 340.418 244.699H340.441ZM284.723 241.562C283.316 240.919 281.885 240.25 280.489 239.541L280.829 238.649C282.214 239.331 283.633 239.961 285.03 240.644L284.723 241.562ZM349.068 238.111L348.49 237.376C349.599 236.216 350.631 234.962 351.577 233.623L352.236 234.239C351.259 235.622 350.193 236.916 349.046 238.111H349.068ZM275.278 236.799C273.923 236.055 272.561 235.267 271.191 234.436L271.577 233.57C272.951 234.384 274.302 235.158 275.653 235.906L275.278 236.799ZM266.196 231.313C264.857 230.447 263.551 229.554 262.257 228.688L262.688 227.848C263.983 228.741 265.288 229.62 266.616 230.473L266.196 231.313ZM355.448 228.688L354.699 228.216C355.411 226.692 356.022 225.109 356.527 223.478L357.322 223.82C356.794 225.5 356.156 227.132 355.414 228.701L355.448 228.688ZM257.41 225.171C256.127 224.213 254.867 223.229 253.618 222.245L254.106 221.431C255.343 222.415 256.604 223.386 257.875 224.344L257.41 225.171ZM248.975 218.426C247.749 217.376 246.534 216.313 245.342 215.237L245.864 214.463C247.056 215.539 248.26 216.589 249.486 217.625L248.975 218.426ZM358.775 217.376L357.946 217.205C358.189 215.494 358.345 213.767 358.411 212.035H359.263C359.191 213.831 359.016 215.62 358.741 217.389L358.775 217.376ZM240.869 211.142C239.734 210.014 238.531 208.885 237.384 207.743L237.929 206.995C239.064 208.137 240.199 209.266 241.414 210.381L240.869 211.142ZM358.253 205.552C358.105 203.859 357.889 202.114 357.594 200.381L358.434 200.198C358.729 201.969 358.956 203.728 359.093 205.447L358.253 205.552ZM233.104 203.387C231.969 202.205 230.834 201.024 229.698 199.83L230.289 199.108C231.394 200.307 232.506 201.488 233.626 202.652L233.104 203.387ZM225.623 195.303C224.488 194.082 223.455 192.848 222.376 191.615L222.978 190.906C224.056 192.153 225.135 193.373 226.225 194.594L225.623 195.303ZM356.175 194.056C355.755 192.442 355.255 190.775 354.699 189.108L355.494 188.754C356.062 190.447 356.561 192.127 356.992 193.767L356.175 194.056ZM218.312 186.943C217.245 185.696 216.189 184.436 215.133 183.177L215.735 182.494L218.914 186.247L218.312 186.943ZM352.463 183.098C351.827 181.562 351.123 179.988 350.385 178.452L351.123 177.98C351.872 179.528 352.576 181.116 353.235 182.678L352.463 183.098ZM211.194 178.426L208.049 174.607L208.674 173.938L211.818 177.744L211.194 178.426ZM347.491 172.822C346.696 171.379 345.844 169.922 344.959 168.465L345.663 167.901C346.548 169.358 347.4 170.841 348.206 172.297L347.491 172.822ZM204.133 169.843L200.988 166.038L201.613 165.355L204.746 169.161L204.133 169.843ZM341.587 163.203C340.679 161.891 339.714 160.486 338.727 159.122L339.374 158.492C340.373 159.804 341.349 161.248 342.257 162.599L341.587 163.203ZM197.06 161.287C196.005 159.975 194.96 158.767 193.893 157.507L194.506 156.812L197.673 160.604L197.06 161.287ZM334.98 154.227C333.981 152.914 332.948 151.681 331.87 150.408L332.483 149.712C333.561 151.024 334.606 152.337 335.616 153.557L334.98 154.227ZM189.908 152.849L186.696 149.122L187.297 148.426L190.521 152.153L189.908 152.849ZM182.643 144.515L179.362 140.88L179.941 140.158L183.233 143.807L182.643 144.515ZM175.207 136.392C174.072 135.211 172.937 134.03 171.801 132.849L172.369 132.114C173.504 133.295 174.639 134.489 175.775 135.67L175.207 136.392ZM167.59 128.518C166.454 127.376 165.319 126.234 164.184 125.106L164.729 124.345C165.864 125.486 167.056 126.641 168.191 127.783L167.59 128.518ZM159.768 120.906C158.633 119.804 157.418 118.715 156.215 117.612L156.748 116.838C157.951 117.941 159.132 119.043 160.301 120.145L159.768 120.906ZM151.73 113.544C150.595 112.481 149.324 111.431 148.086 110.381L148.597 109.594C149.835 110.644 151.049 111.694 152.241 112.757L151.73 113.544ZM143.489 106.536L139.754 103.531L140.242 102.717C141.502 103.728 142.751 104.725 143.977 105.736L143.489 106.536ZM135.042 99.8697C133.782 98.9117 132.511 97.9537 131.228 97.0088L131.682 96.182C132.976 97.1269 134.248 98.0849 135.508 99.043L135.042 99.8697ZM126.403 93.5311C125.12 92.6256 123.826 91.7201 122.509 90.8146L122.941 89.9747C124.269 90.8802 125.563 91.7857 126.846 92.6912L126.403 93.5311ZM117.594 87.5207C116.288 86.6545 114.971 85.8015 113.632 84.896L114.041 84.0299C115.38 84.896 116.708 85.749 118.014 86.6545L117.594 87.5207ZM108.625 81.8251C107.297 81.0115 105.958 80.211 104.595 79.3973L104.981 78.5312C106.344 79.3317 107.695 80.1454 109.023 80.959L108.625 81.8251ZM99.5436 76.4577C98.204 75.6834 96.8304 74.9222 95.4567 74.1611L95.82 73.2687C97.205 74.0299 98.5673 74.8041 99.9182 75.5653L99.5436 76.4577ZM90.3028 71.379L86.1592 69.2136L86.4997 68.3212C87.9074 69.0299 89.2924 69.7517 90.6547 70.4866L90.3028 71.379ZM80.9484 66.5889C79.5634 65.9065 78.1671 65.2766 76.748 64.5548L77.0773 63.6362L81.2776 65.6834L80.9484 66.5889Z" fill="white"/>
<mask id="mask0_4579_8818" style="mask-type:alpha" maskUnits="userSpaceOnUse" x="76" y="63" width="284" height="187">
<path d="M320.336 249.764V248.78C321.857 248.78 323.378 248.623 324.877 248.452L324.956 249.436C323.458 249.607 321.914 249.712 320.336 249.764ZM314.659 249.646C313.161 249.554 311.628 249.397 310.119 249.187L310.209 248.216C311.731 248.413 313.252 248.57 314.75 248.675L314.659 249.646ZM330.632 248.426L330.451 247.468C331.96 247.1 333.425 246.667 334.821 246.155L335.071 247.1C333.641 247.612 332.142 248.058 330.621 248.426H330.632ZM304.442 248.203C302.989 247.888 301.479 247.52 299.97 247.113L300.163 246.155C301.661 246.562 303.148 246.917 304.601 247.232L304.442 248.203ZM294.441 245.421C292.999 244.922 291.535 244.384 290.082 243.819L290.354 242.888C291.796 243.452 293.249 243.99 294.679 244.476L294.441 245.421ZM340.441 244.699L340.077 243.806C341.438 243.065 342.757 242.228 344.028 241.3L344.482 242.14C343.171 243.082 341.814 243.936 340.418 244.699H340.441ZM284.723 241.562C283.316 240.919 281.885 240.25 280.489 239.541L280.829 238.649C282.214 239.331 283.633 239.961 285.03 240.644L284.723 241.562ZM349.068 238.111L348.49 237.376C349.599 236.216 350.631 234.962 351.577 233.623L352.236 234.239C351.259 235.622 350.193 236.916 349.046 238.111H349.068ZM275.278 236.799C273.923 236.055 272.561 235.267 271.191 234.436L271.577 233.57C272.951 234.384 274.302 235.158 275.653 235.906L275.278 236.799ZM266.196 231.313C264.857 230.447 263.551 229.554 262.257 228.688L262.688 227.848C263.983 228.741 265.288 229.62 266.616 230.473L266.196 231.313ZM355.448 228.688L354.699 228.216C355.411 226.692 356.022 225.109 356.527 223.478L357.322 223.82C356.794 225.5 356.156 227.132 355.414 228.701L355.448 228.688ZM257.41 225.171C256.127 224.213 254.867 223.229 253.618 222.245L254.106 221.431C255.343 222.415 256.604 223.386 257.875 224.344L257.41 225.171ZM248.975 218.426C247.749 217.376 246.534 216.313 245.342 215.237L245.864 214.463C247.056 215.539 248.26 216.589 249.486 217.625L248.975 218.426ZM358.775 217.376L357.946 217.205C358.189 215.494 358.345 213.767 358.411 212.035H359.263C359.191 213.831 359.016 215.62 358.741 217.389L358.775 217.376ZM240.869 211.142C239.734 210.014 238.531 208.885 237.384 207.743L237.929 206.995C239.064 208.137 240.199 209.266 241.414 210.381L240.869 211.142ZM358.253 205.552C358.105 203.859 357.889 202.114 357.594 200.381L358.434 200.198C358.729 201.969 358.956 203.728 359.093 205.447L358.253 205.552ZM233.104 203.387C231.969 202.205 230.834 201.024 229.698 199.83L230.289 199.108C231.394 200.307 232.506 201.488 233.626 202.652L233.104 203.387ZM225.623 195.303C224.488 194.082 223.455 192.848 222.376 191.615L222.978 190.906C224.056 192.153 225.135 193.373 226.225 194.594L225.623 195.303ZM356.175 194.056C355.755 192.442 355.255 190.775 354.699 189.108L355.494 188.754C356.062 190.447 356.561 192.127 356.992 193.767L356.175 194.056ZM218.312 186.943C217.245 185.696 216.189 184.436 215.133 183.177L215.735 182.494L218.914 186.247L218.312 186.943ZM352.463 183.098C351.827 181.562 351.123 179.988 350.385 178.452L351.123 177.98C351.872 179.528 352.576 181.116 353.235 182.678L352.463 183.098ZM211.194 178.426L208.049 174.607L208.674 173.938L211.818 177.744L211.194 178.426ZM347.491 172.822C346.696 171.379 345.844 169.922 344.959 168.465L345.663 167.901C346.548 169.358 347.4 170.841 348.206 172.297L347.491 172.822ZM204.133 169.843L200.988 166.038L201.613 165.355L204.746 169.161L204.133 169.843ZM341.587 163.203C340.679 161.891 339.714 160.486 338.727 159.122L339.374 158.492C340.373 159.804 341.349 161.248 342.257 162.599L341.587 163.203ZM197.06 161.287C196.005 159.975 194.96 158.767 193.893 157.507L194.506 156.812L197.673 160.604L197.06 161.287ZM334.98 154.227C333.981 152.914 332.948 151.681 331.87 150.408L332.483 149.712C333.561 151.024 334.606 152.337 335.616 153.557L334.98 154.227ZM189.908 152.849L186.696 149.122L187.297 148.426L190.521 152.153L189.908 152.849ZM182.643 144.515L179.362 140.88L179.941 140.158L183.233 143.807L182.643 144.515ZM175.207 136.392C174.072 135.211 172.937 134.03 171.801 132.849L172.369 132.114C173.504 133.295 174.639 134.489 175.775 135.67L175.207 136.392ZM167.59 128.518C166.454 127.376 165.319 126.234 164.184 125.106L164.729 124.345C165.864 125.486 167.056 126.641 168.191 127.783L167.59 128.518ZM159.768 120.906C158.633 119.804 157.418 118.715 156.215 117.612L156.748 116.838C157.951 117.941 159.132 119.043 160.301 120.145L159.768 120.906ZM151.73 113.544C150.595 112.481 149.324 111.431 148.086 110.381L148.597 109.594C149.835 110.644 151.049 111.694 152.241 112.757L151.73 113.544ZM143.489 106.536L139.754 103.531L140.242 102.717C141.502 103.728 142.751 104.725 143.977 105.736L143.489 106.536ZM135.042 99.8697C133.782 98.9117 132.511 97.9537 131.228 97.0088L131.682 96.182C132.976 97.1269 134.248 98.0849 135.508 99.043L135.042 99.8697ZM126.403 93.5311C125.12 92.6256 123.826 91.7201 122.509 90.8146L122.941 89.9747C124.269 90.8802 125.563 91.7857 126.846 92.6912L126.403 93.5311ZM117.594 87.5207C116.288 86.6545 114.971 85.8015 113.632 84.896L114.041 84.0299C115.38 84.896 116.708 85.749 118.014 86.6545L117.594 87.5207ZM108.625 81.8251C107.297 81.0115 105.958 80.211 104.595 79.3973L104.981 78.5312C106.344 79.3317 107.695 80.1454 109.023 80.959L108.625 81.8251ZM99.5436 76.4577C98.204 75.6834 96.8304 74.9222 95.4567 74.1611L95.82 73.2687C97.205 74.0299 98.5673 74.8041 99.9182 75.5653L99.5436 76.4577ZM90.3028 71.379L86.1592 69.2136L86.4997 68.3212C87.9074 69.0299 89.2924 69.7517 90.6547 70.4866L90.3028 71.379ZM80.9484 66.5889C79.5634 65.9065 78.1671 65.2766 76.748 64.5548L77.0773 63.6362L81.2776 65.6834L80.9484 66.5889Z" fill="white"/>
</mask>
<g mask="url(#mask0_4579_8818)">
<rect x="335" y="107" width="44" height="99" fill="black"/>
</g>
<mask id="mask1_4579_8818" style="mask-type:alpha" maskUnits="userSpaceOnUse" x="76" y="63" width="284" height="187">
<path d="M320.336 249.764V248.78C321.857 248.78 323.378 248.623 324.877 248.452L324.956 249.436C323.458 249.607 321.914 249.712 320.336 249.764ZM314.659 249.646C313.161 249.554 311.628 249.397 310.119 249.187L310.209 248.216C311.731 248.413 313.252 248.57 314.75 248.675L314.659 249.646ZM330.632 248.426L330.451 247.468C331.96 247.1 333.425 246.667 334.821 246.155L335.071 247.1C333.641 247.612 332.142 248.058 330.621 248.426H330.632ZM304.442 248.203C302.989 247.888 301.479 247.52 299.97 247.113L300.163 246.155C301.661 246.562 303.148 246.917 304.601 247.232L304.442 248.203ZM294.441 245.421C292.999 244.922 291.535 244.384 290.082 243.819L290.354 242.888C291.796 243.452 293.249 243.99 294.679 244.476L294.441 245.421ZM340.441 244.699L340.077 243.806C341.438 243.065 342.757 242.228 344.028 241.3L344.482 242.14C343.171 243.082 341.814 243.936 340.418 244.699H340.441ZM284.723 241.562C283.316 240.919 281.885 240.25 280.489 239.541L280.829 238.649C282.214 239.331 283.633 239.961 285.03 240.644L284.723 241.562ZM349.068 238.111L348.49 237.376C349.599 236.216 350.631 234.962 351.577 233.623L352.236 234.239C351.259 235.622 350.193 236.916 349.046 238.111H349.068ZM275.278 236.799C273.923 236.055 272.561 235.267 271.191 234.436L271.577 233.57C272.951 234.384 274.302 235.158 275.653 235.906L275.278 236.799ZM266.196 231.313C264.857 230.447 263.551 229.554 262.257 228.688L262.688 227.848C263.983 228.741 265.288 229.62 266.616 230.473L266.196 231.313ZM355.448 228.688L354.699 228.216C355.411 226.692 356.022 225.109 356.527 223.478L357.322 223.82C356.794 225.5 356.156 227.132 355.414 228.701L355.448 228.688ZM257.41 225.171C256.127 224.213 254.867 223.229 253.618 222.245L254.106 221.431C255.343 222.415 256.604 223.386 257.875 224.344L257.41 225.171ZM248.975 218.426C247.749 217.376 246.534 216.313 245.342 215.237L245.864 214.463C247.056 215.539 248.26 216.589 249.486 217.625L248.975 218.426ZM358.775 217.376L357.946 217.205C358.189 215.494 358.345 213.767 358.411 212.035H359.263C359.191 213.831 359.016 215.62 358.741 217.389L358.775 217.376ZM240.869 211.142C239.734 210.014 238.531 208.885 237.384 207.743L237.929 206.995C239.064 208.137 240.199 209.266 241.414 210.381L240.869 211.142ZM358.253 205.552C358.105 203.859 357.889 202.114 357.594 200.381L358.434 200.198C358.729 201.969 358.956 203.728 359.093 205.447L358.253 205.552ZM233.104 203.387C231.969 202.205 230.834 201.024 229.698 199.83L230.289 199.108C231.394 200.307 232.506 201.488 233.626 202.652L233.104 203.387ZM225.623 195.303C224.488 194.082 223.455 192.848 222.376 191.615L222.978 190.906C224.056 192.153 225.135 193.373 226.225 194.594L225.623 195.303ZM356.175 194.056C355.755 192.442 355.255 190.775 354.699 189.108L355.494 188.754C356.062 190.447 356.561 192.127 356.992 193.767L356.175 194.056ZM218.312 186.943C217.245 185.696 216.189 184.436 215.133 183.177L215.735 182.494L218.914 186.247L218.312 186.943ZM352.463 183.098C351.827 181.562 351.123 179.988 350.385 178.452L351.123 177.98C351.872 179.528 352.576 181.116 353.235 182.678L352.463 183.098ZM211.194 178.426L208.049 174.607L208.674 173.938L211.818 177.744L211.194 178.426ZM347.491 172.822C346.696 171.379 345.844 169.922 344.959 168.465L345.663 167.901C346.548 169.358 347.4 170.841 348.206 172.297L347.491 172.822ZM204.133 169.843L200.988 166.038L201.613 165.355L204.746 169.161L204.133 169.843ZM341.587 163.203C340.679 161.891 339.714 160.486 338.727 159.122L339.374 158.492C340.373 159.804 341.349 161.248 342.257 162.599L341.587 163.203ZM197.06 161.287C196.005 159.975 194.96 158.767 193.893 157.507L194.506 156.812L197.673 160.604L197.06 161.287ZM334.98 154.227C333.981 152.914 332.948 151.681 331.87 150.408L332.483 149.712C333.561 151.024 334.606 152.337 335.616 153.557L334.98 154.227ZM189.908 152.849L186.696 149.122L187.297 148.426L190.521 152.153L189.908 152.849ZM182.643 144.515L179.362 140.88L179.941 140.158L183.233 143.807L182.643 144.515ZM175.207 136.392C174.072 135.211 172.937 134.03 171.801 132.849L172.369 132.114C173.504 133.295 174.639 134.489 175.775 135.67L175.207 136.392ZM167.59 128.518C166.454 127.376 165.319 126.234 164.184 125.106L164.729 124.345C165.864 125.486 167.056 126.641 168.191 127.783L167.59 128.518ZM159.768 120.906C158.633 119.804 157.418 118.715 156.215 117.612L156.748 116.838C157.951 117.941 159.132 119.043 160.301 120.145L159.768 120.906ZM151.73 113.544C150.595 112.481 149.324 111.431 148.086 110.381L148.597 109.594C149.835 110.644 151.049 111.694 152.241 112.757L151.73 113.544ZM143.489 106.536L139.754 103.531L140.242 102.717C141.502 103.728 142.751 104.725 143.977 105.736L143.489 106.536ZM135.042 99.8697C133.782 98.9117 132.511 97.9537 131.228 97.0088L131.682 96.182C132.976 97.1269 134.248 98.0849 135.508 99.043L135.042 99.8697ZM126.403 93.5311C125.12 92.6256 123.826 91.7201 122.509 90.8146L122.941 89.9747C124.269 90.8802 125.563 91.7857 126.846 92.6912L126.403 93.5311ZM117.594 87.5207C116.288 86.6545 114.971 85.8015 113.632 84.896L114.041 84.0299C115.38 84.896 116.708 85.749 118.014 86.6545L117.594 87.5207ZM108.625 81.8251C107.297 81.0115 105.958 80.211 104.595 79.3973L104.981 78.5312C106.344 79.3317 107.695 80.1454 109.023 80.959L108.625 81.8251ZM99.5436 76.4577C98.204 75.6834 96.8304 74.9222 95.4567 74.1611L95.82 73.2687C97.205 74.0299 98.5673 74.8041 99.9182 75.5653L99.5436 76.4577ZM90.3028 71.379L86.1592 69.2136L86.4997 68.3212C87.9074 69.0299 89.2924 69.7517 90.6547 70.4866L90.3028 71.379ZM80.9484 66.5889C79.5634 65.9065 78.1671 65.2766 76.748 64.5548L77.0773 63.6362L81.2776 65.6834L80.9484 66.5889Z" fill="white"/>
</mask>
<g mask="url(#mask1_4579_8818)">
<rect x="203" y="189" width="165" height="70" fill="black"/>
</g>
<path d="M81.6083 66.6834C81.8967 66.6866 82.173 66.5225 82.1949 66.1608C82.2286 65.63 82.2879 65.1215 82.3216 64.5908C83.4282 61.2932 84.4102 57.9325 85.5168 54.6349C86.8617 50.6477 88.0803 46.5736 88.6674 42.401C88.8568 42.3633 89.0171 42.2556 89.1211 42.032C91.8945 36.2128 97.3226 31.9067 98.7253 25.394C98.8494 24.7847 97.9892 24.5107 97.7609 25.0074C97.6584 24.9187 97.556 24.8301 97.4092 24.7927C93.8385 23.5617 90.0823 23.0886 86.3518 22.6376C82.3533 22.1339 78.4006 21.2667 74.4496 20.4235C66.232 18.6876 58.0331 16.8784 49.7593 15.3628C47.4963 14.9499 45.2094 14.5388 42.9481 14.1498C43.0624 14.0695 43.1766 13.9892 43.267 13.9106C43.7462 13.5638 43.2918 12.9243 42.7818 13.1772C42.3656 13.3994 41.9512 13.6454 41.5623 13.9136C41.32 13.8831 41.0759 13.8287 40.8336 13.7982C41.3145 13.4753 41.7699 13.1302 42.1962 12.7153C42.5099 12.4045 42.0676 11.9321 41.6992 12.1508C40.9862 12.5865 40.2767 13.07 39.569 13.5773C34.8758 12.7636 30.1843 11.9738 25.4928 11.184C21.6273 10.5267 17.7753 9.72426 13.9233 8.92185C10.3649 8.19429 6.42897 6.89367 2.78642 7.66098C2.69087 7.66788 2.67215 7.74128 2.65344 7.81466C2.51011 7.82502 2.39412 7.88142 2.32936 7.98215C2.11781 8.04545 1.99001 8.27079 2.12843 8.52493C5.11029 13.9046 9.77044 18.2505 13.2793 23.28C17.1367 28.8125 21.0145 34.2955 24.7558 39.8845C28.3076 45.1749 31.8423 50.5627 35.0478 56.0462C36.7206 58.927 38.0642 61.9036 39.389 64.9536C40.5104 67.5141 41.3281 70.1925 42.9357 72.5017C42.9374 72.5256 42.9613 72.5238 42.963 72.5477C42.7534 72.9711 43.3647 73.4552 43.7688 73.0658C46.2652 70.7244 49.4004 69.2494 52.4109 67.7112C55.6996 66.033 58.8771 64.1467 62.111 62.3763C64.6064 61.0195 67.1018 59.6627 69.5716 58.2837C71.1634 60.0417 73.154 61.3387 75.01 62.7655C76.7635 64.1037 78.0038 65.9832 80.0642 66.9149C80.1632 66.9558 80.2366 66.9745 80.3338 66.9915C80.7419 67.3222 81.4091 67.2501 81.6083 66.6834ZM84.4957 53.7961C83.9764 55.2504 83.4093 56.7081 82.8439 58.1897C83.0519 55.7494 83.2838 53.3073 83.5634 50.8619C84.285 50.5456 84.0657 49.5049 83.4343 49.4064C83.3301 49.2938 83.1781 49.1848 83.0075 49.1491C79.7237 48.2336 76.608 46.3214 73.6972 44.5866C70.3084 42.5501 66.8532 40.5904 63.357 38.7298C56.6635 35.155 49.6837 32.2732 42.8011 29.0723C35.944 25.8935 29.2965 22.2914 22.695 18.6619C16.8942 15.4789 11.1613 11.9068 5.18836 9.00033C7.52329 9.7442 9.44549 10.758 11.6135 11.8501C14.3772 13.2114 17.5398 14.1116 20.3205 15.3756C27.8467 18.8422 35.4564 22.1347 43.0814 25.3061C50.5083 28.3957 57.954 31.4119 65.4201 34.3786C72.6847 37.2158 80.0996 40.1381 87.6826 42.0639C87.7799 42.0809 87.8771 42.0978 87.9488 42.0927C87.9744 42.1148 87.9761 42.1387 88.0018 42.1609C87.0868 46.117 85.851 49.9523 84.4957 53.7961ZM14.2997 10.1433C18.1125 11.0686 21.9662 11.8949 25.8352 12.6001C29.8748 13.3409 33.8888 14.0596 37.9284 14.8004C37.5413 15.0925 37.178 15.3829 36.8165 15.6971C36.5437 15.9089 36.817 16.3694 37.1138 16.1559C37.6834 15.7306 38.306 15.3735 38.9268 14.9924C39.2664 15.04 39.5838 15.1131 39.9234 15.1606C39.1748 15.7669 38.4006 16.3511 37.5682 16.7955C37.314 16.9339 37.514 17.3757 37.7938 17.2594C38.9589 16.7671 40.1119 16.1075 41.1881 15.3814C44.1559 15.9115 47.1255 16.4655 50.095 17.0194C58.1521 18.5267 66.1343 20.3276 74.1352 22.055C78.0623 22.9 82.0167 23.7911 86.0152 24.2948C89.7475 24.7696 93.5036 25.2428 97.0744 26.4737C97.1734 26.5146 97.245 26.5094 97.3423 26.5264C95.4677 31.8245 90.8941 35.6607 88.2497 40.6062C88.1746 40.5636 88.1233 40.5192 88.0261 40.5023C80.7312 38.2436 73.5333 35.6657 66.3967 32.9393C67.0313 32.7494 67.666 32.5595 68.3023 32.3935C69.9282 31.9639 71.6634 31.7186 73.226 31.0774C73.3658 31.0193 73.2786 30.8095 73.137 30.8437C70.6872 31.5009 68.1843 32.0899 65.7293 32.6754C64.9885 32.3927 64.2716 32.1083 63.5547 31.8239C64.638 31.5295 65.6923 31.1652 66.7791 30.9187C68.3145 30.5676 69.7988 30.1723 71.2419 29.5398C71.334 29.4851 71.2759 29.3453 71.1821 29.3761C69.7321 29.913 68.2374 30.165 66.7241 30.4904C65.4002 30.7781 64.1344 31.2057 62.8139 31.5412C62.295 31.3385 61.7761 31.1359 61.2572 30.9332C63.8504 30.2657 66.3837 29.4344 68.9513 28.7447C69.0213 28.7157 68.9887 28.5979 68.9171 28.6031C66.0746 29.1446 63.299 29.9453 60.4908 30.6284C59.8729 30.3848 59.2311 30.143 58.6114 29.8756C61.36 29.365 64.187 28.6085 66.7526 27.5588C66.8685 27.5024 66.8087 27.3386 66.6671 27.3729C63.7242 28.1857 60.7419 28.7853 57.8211 29.5725C57.1537 29.3085 56.4624 29.0463 55.7933 28.7584C58.4924 28.2273 61.2937 27.4487 63.8389 26.4485C63.9088 26.4194 63.878 26.3256 63.8064 26.3308C60.8324 26.7136 57.9068 27.7654 54.9774 28.4331C54.5319 28.2492 54.0625 28.067 53.617 27.883C56.1146 27.2224 58.477 26.0193 61.0244 25.7152C61.1917 25.7032 61.1727 25.4404 60.9816 25.4542C59.6456 25.5747 58.3746 25.9306 57.107 26.3343C55.7457 26.7688 54.3262 27.0634 53.0195 27.59C52.9956 27.5917 52.9734 27.6173 52.9734 27.6173C52.4545 27.4147 51.9339 27.1881 51.3911 26.9872C53.6021 26.3473 55.7481 25.4719 57.9916 24.9497C58.1571 24.9138 58.1381 24.651 57.9487 24.6887C55.4612 25.1565 53.049 26.003 50.6247 26.6824C50.1041 26.4558 49.5613 26.2549 49.0407 26.0283C51.0487 25.5712 53.0551 25.0901 54.9981 24.3975C55.2318 24.3086 55.0883 23.9828 54.8528 24.0478C52.6982 24.8037 50.4939 25.203 48.2743 25.7235C47.8544 25.5617 47.4327 25.376 46.989 25.216C48.7138 24.8273 50.4079 24.3448 52.1054 23.91C52.317 23.8467 52.2689 23.514 52.0574 23.5773C50.1466 24.0515 48.2358 24.5256 46.2959 24.9299C45.9255 24.7885 45.5534 24.6233 45.183 24.4819C46.6008 24.1634 47.986 23.7272 49.3765 23.3627C49.542 23.3267 49.4496 23.0452 49.308 23.0795C47.7264 23.4578 46.0646 23.7219 44.49 24.1958C44.0189 23.9897 43.5256 23.8092 43.0545 23.6031C44.3801 23.3393 45.692 22.8844 47.0142 22.5728C47.1797 22.5368 47.1607 22.274 46.9713 22.3117C45.4341 22.6388 43.9004 23.0137 42.3375 23.3187C42.189 23.2574 42.0405 23.1961 41.892 23.1348C41.6189 23.0104 41.3236 22.9117 41.0505 22.7873C41.8797 22.6314 42.7037 22.4038 43.5329 22.2479C43.6984 22.2119 43.6794 21.9491 43.49 21.9868C42.4202 22.1361 41.3522 22.3093 40.2858 22.5063C40.0127 22.382 39.7413 22.2815 39.4443 22.1589C39.893 22.0545 40.3639 21.9244 40.8074 21.7483C41.0411 21.6594 40.8958 21.3097 40.6621 21.3986C40.0309 21.6363 39.3911 21.7545 38.7274 21.8745C38.4065 21.7536 38.0839 21.6088 37.763 21.4879C37.8107 21.4844 37.8568 21.4571 37.9046 21.4537C38.2117 21.3835 38.5427 21.3115 38.8515 21.2652C39.0647 21.2258 39.0423 20.9153 38.8034 20.9325C38.2557 20.9961 37.5834 20.9966 37.0461 21.2035C31.082 18.7526 25.1367 16.2284 19.2339 13.6291C14.3485 11.4845 8.09582 8.69433 3.459 7.99662C7.13632 8.04323 10.8061 9.31504 14.2997 10.1433ZM61.9342 60.9243C58.5416 62.8262 55.1543 64.7997 51.76 66.6777C49.1264 68.1165 46.4673 69.5332 44.1822 71.4752C42.6242 69.1864 41.7826 66.5097 40.6885 63.9953C39.4526 61.179 38.1741 58.4379 36.6618 55.7856C33.5024 50.2747 29.8995 44.9399 26.3494 39.6733C22.6081 34.0844 18.6603 28.6304 14.7586 23.1491C11.337 18.3295 7.32525 13.9848 3.67504 9.32574C9.68276 13.0461 15.9513 16.3874 22.085 19.8586C28.8215 23.6944 35.6448 27.4039 42.6778 30.6901C49.5383 33.9166 56.4737 36.8496 63.1689 40.4483C66.6668 42.3328 70.0999 44.3181 73.4905 46.3785C75.8771 47.839 78.4089 49.313 81.0733 50.2973C78.2144 51.6083 75.4735 53.223 72.7565 54.836C69.161 56.9206 65.5331 58.8875 61.9342 60.9243ZM70.3836 57.8888C71.0982 57.477 71.7907 57.0909 72.5054 56.6791C75.8927 54.7055 79.251 52.6621 82.864 51.1525C82.7926 51.4938 82.6973 51.8369 82.6259 52.1782C82.602 52.1799 82.556 52.2073 82.5321 52.209C80.7053 53.1814 78.9879 54.3379 77.1867 55.3325C75.2695 56.3834 73.3523 57.4343 71.6231 58.7598C71.1946 58.4786 70.7882 58.1718 70.3836 57.8888ZM71.9031 58.9798C73.5575 57.9478 75.2974 57.1018 77.0372 56.2557C78.8931 55.3533 80.6123 54.2206 82.3895 53.2278C82.2994 53.6426 82.2076 54.0334 82.1175 54.4481C82.0936 54.4498 82.0714 54.4755 82.0714 54.4755C79.1276 56.2729 76.1003 58.2444 72.9907 59.7417C72.6117 59.4809 72.2565 59.2184 71.9031 58.9798ZM73.2434 59.9155C74.8059 59.2744 76.3104 58.4934 77.8131 57.6885C79.152 56.9435 80.5695 56.2888 81.9067 55.5199C81.8013 56.0558 81.696 56.5917 81.5906 57.1276C80.3844 57.3828 79.3151 58.2044 78.1995 58.7172C76.898 59.3154 75.7314 60.12 74.4573 60.7644C74.0509 60.4575 73.6463 60.1746 73.2434 59.9155ZM75.9734 61.8075C75.5926 61.5228 75.1897 61.2638 74.809 60.9791C75.8837 60.5653 76.902 60.0355 77.9749 59.5978C79.094 59.1328 80.2913 58.422 81.4633 58.0252C81.3953 58.4144 81.3496 58.7778 81.2816 59.167C79.5964 60.1051 77.8174 61.074 76.0485 61.8501C75.999 61.8296 75.9734 61.8075 75.9734 61.8075ZM80.3924 65.4745C80.0407 65.2598 79.689 65.045 79.3595 64.8047C79.8508 64.6251 80.313 64.3756 80.7497 64.104C80.6374 64.5443 80.5268 65.0085 80.3924 65.4745ZM80.8718 63.1346C80.2066 63.5669 79.5927 64.0434 78.8728 64.3836C78.5911 64.1398 78.3332 63.8943 78.0754 63.6487C78.5888 63.4436 79.0989 63.1906 79.6106 62.9616C80.0285 62.7633 80.4738 62.6111 80.8917 62.4128C80.885 62.6534 80.8784 62.894 80.8718 63.1346ZM77.6109 63.202C77.2506 62.8679 76.8903 62.5337 76.5078 62.2251C77.3062 61.9754 78.0703 61.584 78.8362 61.2165C79.5782 60.8508 80.3476 60.5311 81.0913 60.1892C81.0507 60.6244 80.9844 61.0374 80.9438 61.4726C79.8556 62.0314 78.7469 62.6397 77.6109 63.202Z" fill="white"/>
<path d="M60.5555 65.106C57.7392 66.3419 54.8852 67.3885 52.1544 68.8103C49.0534 70.427 46.1507 72.4616 43.183 74.2607C43.1608 74.2863 43.1148 74.3137 43.0909 74.3154C41.9873 72.6662 41.3425 70.7197 40.423 68.9611C39.2815 66.7863 38.0035 64.7175 36.792 62.5718C34.3125 58.1644 32.2493 53.5349 29.5618 49.2385C29.5071 49.1464 29.3451 49.2302 29.3997 49.3223C31.2376 53.824 33.5447 58.1718 35.8687 62.4224C37.0341 64.5954 38.2678 66.7155 39.4572 68.8868C40.5354 70.85 41.2249 73.0814 42.5334 74.908C42.694 75.1365 42.9567 75.1175 43.1392 74.9843C43.2929 75.1173 43.5131 75.1734 43.7211 75.0623C46.4229 73.5705 48.9316 71.7325 51.5752 70.1008C54.4713 68.3068 57.574 66.714 60.6392 65.268C60.7331 65.2373 60.6732 65.0735 60.5555 65.106Z" fill="white"/>
<path d="M58.6849 67.4742C55.7233 68.3605 53.1993 70.3197 50.5215 71.8097C47.6576 73.3853 44.8502 75.0768 42.1231 76.8826C42.0771 76.9099 42.0549 76.9355 42.0328 76.9612C41.1804 75.7981 40.768 74.4111 40.284 73.0293C39.7402 71.4837 38.8501 70.1312 38.0061 68.7514C35.9353 65.3471 34.0794 61.9272 32.4027 58.3263C32.348 58.2342 32.2064 58.2684 32.2389 58.3861C33.0574 62.073 35.0583 65.5064 36.9941 68.7044C38.0022 70.3605 38.9795 71.9228 39.6413 73.7721C40.1526 75.1999 40.6844 76.5783 41.6801 77.731C41.8373 77.9118 42.0488 77.8485 42.2074 77.7169C42.3576 77.8021 42.5266 77.814 42.7108 77.7046C45.2554 76.0321 47.8769 74.426 50.5291 72.9138C53.2974 71.3451 55.9253 69.1623 58.9226 68.1054C59.2961 67.9584 59.0841 67.3494 58.6849 67.4742Z" fill="white"/>
<path d="M78.4972 50.8914C78.6371 50.8332 78.7018 50.7325 78.7427 50.6335C78.8161 50.6522 78.8912 50.6948 78.9885 50.7118C79.4801 50.8684 79.6399 50.0885 79.1483 49.9319C74.7772 48.5906 71.3652 45.2351 67.2122 43.59C66.9903 43.51 66.8421 43.7848 67.0435 43.9143C70.6286 46.0087 73.9497 48.7705 77.8551 50.3134C76.3029 51.0979 74.913 52.1347 73.4172 53.0352C71.2545 54.344 69.0337 55.5129 66.8454 56.7995C66.6612 56.9088 66.827 57.209 67.0129 57.1236C68.9404 56.216 70.8406 55.2623 72.7134 54.2626C74.6528 53.1861 76.4741 51.8059 78.4972 50.8914Z" fill="white"/>
<path d="M20.3456 20.0561C15.9653 17.9231 12.1558 14.7164 7.87773 12.3359C7.40143 12.0581 7.00103 12.8314 7.47733 13.1092C11.7537 15.4658 15.6671 18.4489 20.1565 20.43C20.404 20.5322 20.5931 20.1583 20.3456 20.0561Z" fill="white"/>
<path d="M4.46162 12.9188C3.12058 10.9746 1.63794 9.06455 0.458945 7.03657C0.37693 6.89841 0.192724 7.00776 0.226963 7.14937C0.926471 9.18796 2.38005 11.028 3.56569 12.8154C4.94096 14.9013 6.5891 16.7753 7.82622 18.9432C8.04665 19.3355 8.61971 18.9579 8.39928 18.5656C7.338 16.5051 5.74971 14.7948 4.46162 12.9188Z" fill="white"/>
<path d="M3.92273 14.0864C2.78686 12.6556 1.19366 11.2098 0.51658 9.48174C0.42939 9.27192 0.149631 9.38818 0.18732 9.57756C0.510992 11.067 1.70645 12.3254 2.60835 13.5089C3.88092 15.1699 5.17564 16.8054 6.37999 18.5194C6.67381 18.9304 7.31508 18.4999 7.02126 18.0888C6.03562 16.7433 4.98004 15.4268 3.92273 14.0864Z" fill="white"/>
<path d="M90.2541 35.0827C89.2041 36.5032 88.1678 38.1149 87.3927 39.6837C87.224 40.008 87.7224 40.2602 87.8911 39.9358C88.8111 38.0444 90.115 36.1493 91.3389 34.4761C92.4094 33.006 93.8042 31.7047 94.5964 30.0386C94.6798 29.8645 94.4289 29.7145 94.3215 29.8904C93.2582 31.7921 91.5206 33.3344 90.2541 35.0827Z" fill="white"/>
<path d="M86.2027 39.1931C86.034 39.5175 86.5307 39.7457 86.7011 39.4453C88.354 36.3963 90.6555 33.6848 92.8137 30.9836C92.9466 30.8299 92.7161 30.6304 92.5831 30.7841C90.273 33.3762 87.8264 36.0743 86.2027 39.1931Z" fill="white"/>
<path d="M85.1791 38.9789C84.9866 39.305 85.5089 39.5554 85.7032 39.2532C87.2046 36.7676 88.7449 33.8228 90.9309 31.84C90.9991 31.787 90.9206 31.6967 90.8506 31.7257C89.7946 32.0661 88.8301 33.6726 88.1704 34.5127C87.0487 35.9384 86.125 37.4458 85.1791 38.9789Z" fill="white"/>
<path d="M83.8843 38.3281C83.7633 38.649 84.2123 38.8808 84.3588 38.582C84.8154 37.5885 85.6167 36.7142 86.2508 35.852C87.0605 34.761 87.9487 33.7604 88.837 32.7597C88.9921 32.5804 88.736 32.3588 88.5791 32.5142C87.6397 33.4705 86.7258 34.449 85.8649 35.4957C85.183 36.3614 84.2896 37.2903 83.8843 38.3281Z" fill="white"/>
<path d="M83.5306 38.4256C84.2664 36.6436 85.8693 35.2311 86.5299 33.4065C86.5521 33.3809 86.5265 33.3587 86.4787 33.3621C86.03 33.4666 85.4644 34.612 85.2462 34.9159C84.5269 35.9284 83.5244 37.0093 83.0816 38.1939C82.9829 38.4892 83.4097 38.7465 83.5306 38.4256Z" fill="white"/>
<path d="M82.4184 38.0016C82.7696 37.5441 82.9944 36.9995 83.2943 36.4976C83.7034 35.8438 84.0868 35.1677 84.5197 34.5121C84.6288 34.3602 84.3505 34.1642 84.2414 34.3161C83.4556 35.4054 82.82 36.5799 82.0581 37.6675C81.8843 37.9202 82.2207 38.2561 82.4184 38.0016Z" fill="white"/>
<path d="M95.1375 34.5618C94.0754 35.8151 93.1431 37.2032 92.1322 38.5008C91.1639 39.7234 90.1104 41.0961 89.4699 42.5351C89.4512 42.6085 89.4547 42.6563 89.4581 42.7041C89.1078 44.1701 88.8069 45.6566 88.4804 47.121C88.2305 48.3156 87.8338 49.4729 87.8262 50.6981C87.8331 50.7936 88.0038 50.8294 88.0191 50.7082C88.3344 48.092 89.31 45.3081 90.0401 42.7821C90.0605 42.7326 90.0553 42.6609 90.028 42.6149C91.3567 39.7334 93.8105 37.4671 95.2877 34.647C95.3303 34.5719 95.204 34.485 95.1375 34.5618Z" fill="white"/>
</svg>
