<svg xmlns="http://www.w3.org/2000/svg" width="65" height="65" viewBox="0 0 65 65" fill="none">
  <g clip-path="url(#clip0_7014_1741)">
    <path d="M0.948329 12.8282V58.081C0.948329 59.3257 1.95748 60.3348 3.20225 60.3348H61.7968C63.0416 60.3348 64.0508 59.3257 64.0508 58.081V12.8282M0.948329 12.8282H64.0508M0.948329 12.8282L0.948649 6.91884C0.948649 5.67419 1.95767 4.66504 3.20257 4.66504H43.7122M64.0508 12.8282L64.0509 6.91884C64.0509 5.67419 63.0419 4.66504 61.797 4.66504H48.1784M19.8744 31.2666V60.3228H3.20293C1.95752 60.3228 0.948242 59.3134 0.948242 58.068V12.8157H19.8744V26.9033M6.77302 17.4834H10.0079M6.77302 22.2549H10.0079M6.77302 27.0263H10.0079M6.77302 31.7977H10.0079M6.77302 36.5692H10.0079M6.77302 41.3407H10.0079M6.77302 46.1121H10.0079M6.77302 50.8836H10.0079M6.77302 55.6551H10.0079M34.5392 17.4834L30.7437 27.0262M38.159 17.9409L40.7078 22.1685L38.159 26.5687M27.1238 17.9409L24.575 22.1685L27.1238 26.5687M24.575 31.7977H46.1822M24.575 36.5692H28.7948M33.7712 36.5692H37.991M39.8528 41.3407H44.0726M39.8528 50.8836H44.0726M24.575 55.6551H35.8812M24.575 41.3407H35.8812M48.0444 41.3407H59.3506M24.575 46.1121H27.1239M30.9633 46.1121H51.5518M24.575 50.8836H35.8812" stroke="black" stroke-width="2" stroke-miterlimit="10" stroke-linecap="round" stroke-linejoin="round"></path>
  </g>
  <defs>
    <clipPath id="clip0_7014_1741">
      <rect width="65" height="65" fill="white"></rect>
    </clipPath>
  </defs>
</svg>