<svg width="391" height="380" viewBox="0 0 391 380" fill="none" xmlns="http://www.w3.org/2000/svg">
<g opacity="0.15">
<mask id="mask0_3254_9771" style="mask-type:alpha" maskUnits="userSpaceOnUse" x="0" y="0" width="391" height="381">
<path d="M390 380C390 380 389.451 342.483 320.94 319.62C316.852 318.282 312.643 317.37 308.372 316.884C290.375 314.999 233.029 305.878 226.806 267.023C226.806 265.443 226.806 263.862 226.806 262.281C228.026 254.802 234.92 235.344 273.354 238.688C275.795 238.871 278.235 238.749 280.614 238.202C289.765 236.074 308.128 228.108 295.439 198.192C278.967 159.277 253.649 180.863 254.259 188.767C254.259 188.767 253.71 210.231 277.137 204.151C280.126 203.36 282.81 201.78 284.763 199.469C288.85 194.544 291.351 184.937 271.951 169.918C242.058 146.812 233.517 129.786 137.125 115.801C137.125 115.801 56.5957 101.208 36.4634 126.746C36.4634 126.746 -5.02153 180.315 66.4179 214.001C70.3833 215.886 74.7149 216.981 79.1074 217.224C97.4095 218.379 141.274 212.542 138.345 129.178C138.345 129.178 137.125 49.5234 50.495 14.2564C50.495 14.2564 23.6519 2.70338 0.469131 0.879229" stroke="#147A6D" stroke-miterlimit="10"/>
</mask>
<g mask="url(#mask0_3254_9771)">
<rect x="405.744" y="379.37" width="389.826" height="376.601" transform="rotate(180 405.744 379.37)" fill="#147A6D"/>
</g>
</g>
</svg>
