<svg xmlns="http://www.w3.org/2000/svg" width="164" height="34" viewBox="0 0 164 34" fill="none">
  <g clip-path="url(#clip0_6752_1151)">
    <path d="M18.4277 16.979C18.6738 18.6066 19.3842 20.1286 20.4735 21.3626C20.7363 21.6571 21.0182 21.9339 21.3176 22.1911C21.3915 22.2494 21.477 22.3272 21.5704 22.4089C21.6638 22.4906 21.7415 22.5723 21.8232 22.6539C21.9855 22.8207 22.1387 22.996 22.2822 23.1791C22.8577 23.9241 23.2675 24.7834 23.4841 25.6995C23.7107 26.6298 23.7456 27.5966 23.5864 28.5409C23.4273 29.4851 23.0775 30.387 22.5584 31.1916C22.0237 32.0199 21.3049 32.7134 20.458 33.2181C19.5831 33.7301 18.5876 34.0001 17.5738 34.0001C16.5601 34.0001 15.5646 33.7301 14.6897 33.2181C13.8371 32.7154 13.1129 32.0217 12.5738 31.1916C12.057 30.3853 11.7101 29.482 11.5543 28.5371C11.3985 27.592 11.437 26.6252 11.6675 25.6956C11.8847 24.7809 12.2944 23.9229 12.8694 23.1791C13.0121 22.9942 13.1667 22.8188 13.3322 22.6539C13.488 22.4902 13.6543 22.337 13.8301 22.195C15.391 20.8613 16.4185 19.0093 16.724 16.979C16.8669 18.7318 16.4117 20.4813 15.4326 21.9422C15.1842 22.3122 14.9086 22.6632 14.608 22.9923C14.4685 23.1327 14.3386 23.2821 14.219 23.4397C14.1061 23.5897 14.0009 23.7455 13.904 23.9064C13.5087 24.5455 13.2443 25.2568 13.1261 25.999C12.9012 27.4553 13.2407 28.9425 14.0751 30.157C14.4599 30.7284 14.9761 31.199 15.5806 31.5293C16.185 31.8596 16.8599 32.0399 17.5486 32.0551C18.2376 32.0419 18.9133 31.8623 19.5179 31.5319C20.1227 31.2014 20.6387 30.7297 21.0219 30.157C21.6519 29.2441 22.0053 28.1689 22.0398 27.0603C22.0742 25.9518 21.7884 24.8567 21.2164 23.9064C21.1205 23.744 21.014 23.588 20.8975 23.4397C20.8392 23.3618 20.7847 23.288 20.7225 23.2179C20.6603 23.148 20.6058 23.0818 20.5241 22.9962C20.2206 22.6663 19.9424 22.3139 19.6918 21.9422C18.7251 20.4767 18.2798 18.7284 18.4277 16.979Z" fill="#ED66B2"></path>
    <path d="M16.7239 16.9791C15.2503 17.7173 14.0212 18.8653 13.1844 20.2853C12.9841 20.6254 12.8074 20.979 12.6554 21.3433C12.6243 21.4289 12.5776 21.5377 12.527 21.6466C12.4765 21.7555 12.4259 21.8606 12.3714 21.9656C12.266 22.1712 12.1478 22.3699 12.0175 22.5607C11.4902 23.3462 10.8004 24.0094 9.9949 24.5055C9.18221 25.011 8.27491 25.3453 7.32851 25.4878C6.38211 25.6302 5.41658 25.5779 4.49112 25.334C3.53458 25.0817 2.65106 24.6073 1.91231 23.9493C1.15433 23.2693 0.589428 22.4012 0.274797 21.4327C-0.0319517 20.4665 -0.0828777 19.4373 0.126992 18.4455C0.340895 17.4798 0.776315 16.577 1.39889 15.8083C2.00546 15.0675 2.75669 14.4582 3.60668 14.0175C4.45668 13.5767 5.38759 13.314 6.34256 13.2451C7.2812 13.1684 8.2254 13.293 9.112 13.6107C9.33122 13.6898 9.54559 13.782 9.75375 13.8869C9.95716 13.9829 10.1534 14.0934 10.3411 14.2175C10.6791 14.4293 11.0314 14.6177 11.3952 14.7815C12.9084 15.4336 14.5774 15.6361 16.2027 15.365C14.5775 16.0377 12.7733 16.1446 11.0801 15.6683C10.6504 15.5454 10.2304 15.3907 9.82379 15.2055C9.64801 15.1211 9.46747 15.0471 9.28311 14.9837C9.10571 14.9225 8.92526 14.8705 8.74242 14.8282C8.01308 14.6561 7.25677 14.6311 6.5176 14.7542C5.06346 14.9895 3.75415 15.7715 2.85749 16.9403C2.41796 17.4751 2.12006 18.112 1.99121 18.7922C1.86237 19.4724 1.90671 20.1741 2.12016 20.8327C2.33362 21.4913 2.70933 22.0856 3.2127 22.5609C3.71607 23.0361 4.33093 23.3771 5.00066 23.5526C6.4154 23.971 7.93665 23.8318 9.252 23.1636C9.9235 22.8258 10.5201 22.3562 11.0062 21.7828C11.1313 21.6419 11.2482 21.4938 11.3563 21.3394C11.4068 21.2616 11.4613 21.1838 11.508 21.1059C11.5546 21.0282 11.6052 20.9504 11.6596 20.8454C11.8795 20.4547 12.1292 20.0814 12.4064 19.729C13.4971 18.3548 15.0174 17.3864 16.7239 16.9791Z" fill="#ED66B2"></path>
    <path d="M16.1991 15.3648C14.7643 13.8927 12.8422 12.9938 10.7925 12.8365H10.4619C10.3413 12.8365 10.2285 12.8054 10.1118 12.786C9.88212 12.7489 9.65483 12.6982 9.43111 12.6343C8.53393 12.3606 7.7053 11.8992 7.00014 11.2807C6.26684 10.6652 5.66759 9.90573 5.23942 9.04944C4.81125 8.19307 4.56327 7.25802 4.5108 6.30204C4.45571 5.31536 4.6329 4.3295 5.02812 3.42374C5.43453 2.49463 6.08122 1.69062 6.90159 1.09447C7.72198 0.498326 8.68643 0.131589 9.69563 0.0320152C10.6799 -0.0674957 11.6739 0.06574 12.5973 0.420975C13.4872 0.769991 14.2963 1.29758 14.9746 1.97121C15.6529 2.64483 16.1861 3.45025 16.5414 4.3378C16.9015 5.19922 17.0752 6.12715 17.0509 7.06052C17.0447 7.30141 17.024 7.54172 16.9886 7.78009C16.9557 8.00418 16.9103 8.22623 16.8525 8.44521C16.7614 8.82955 16.6951 9.21927 16.6542 9.61205C16.4974 11.2521 16.8175 12.9026 17.576 14.3652C16.4304 13.0299 15.7697 11.3467 15.7011 9.58877C15.6849 9.14336 15.7018 8.69746 15.7517 8.25462C15.7788 8.06124 15.7945 7.86642 15.7984 7.67118C15.8082 7.48332 15.8082 7.29507 15.7984 7.10719C15.7022 5.99942 15.2874 4.94318 14.6041 4.06594C13.9208 3.18872 12.9982 2.52799 11.9477 2.16351C11.3015 1.92505 10.6072 1.84614 9.92394 1.9335C9.24063 2.02085 8.58859 2.27189 8.0231 2.66527C7.47448 3.0823 7.03408 3.62502 6.73895 4.24776C6.44383 4.87049 6.30263 5.55501 6.32724 6.2437C6.35555 7.35289 6.70252 8.43049 7.32671 9.34779C7.95091 10.2651 8.82591 10.9834 9.84736 11.4169C10.0224 11.4869 10.1974 11.553 10.3802 11.6074C10.4696 11.6347 10.5591 11.6619 10.6486 11.6814C10.7447 11.7071 10.842 11.728 10.9403 11.7436C11.3804 11.8334 11.8134 11.9557 12.2355 12.1092C13.884 12.7199 15.2797 13.8664 16.1991 15.3648Z" fill="#ED66B2"></path>
    <path d="M17.5718 14.3652C18.3279 12.9004 18.6478 11.2494 18.4936 9.60824C18.4537 9.21529 18.3874 8.82548 18.2953 8.44135C18.2719 8.3519 18.2447 8.2391 18.2213 8.11852C18.1981 7.99794 18.1786 7.88515 18.1591 7.76846C18.1247 7.5391 18.104 7.30792 18.0969 7.07611C18.0693 6.13492 18.243 5.19869 18.6064 4.33006C18.9654 3.44535 19.501 2.64311 20.1805 1.97234C20.8599 1.30158 21.669 0.776369 22.5583 0.428787C23.4817 0.0735526 24.4756 -0.0596832 25.4599 0.0398277C26.4685 0.139829 27.4323 0.50629 28.2525 1.10163C29.0727 1.69697 29.7198 2.49976 30.1274 3.42767C30.5217 4.33517 30.7001 5.32175 30.6486 6.30986C30.5932 7.26329 30.3446 8.19552 29.918 9.04996C29.4914 9.90447 28.8957 10.6634 28.167 11.2808C27.4518 11.892 26.6154 12.3453 25.7127 12.611C25.4886 12.6744 25.2614 12.7263 25.0321 12.7666C24.8094 12.8054 24.5848 12.8314 24.3591 12.8444C23.9667 12.8742 23.5768 12.9314 23.1922 13.0156C21.5845 13.3708 20.1128 14.1808 18.9526 15.3493C19.8711 13.8477 21.2688 12.6994 22.92 12.0898C23.338 11.9367 23.7671 11.8158 24.2036 11.7281C24.3968 11.6928 24.5877 11.646 24.7754 11.5881C24.9551 11.5331 25.1318 11.4682 25.3043 11.3936C25.996 11.1063 26.623 10.6831 27.148 10.1489C28.1867 9.10385 28.7865 7.70115 28.8244 6.22817C28.851 5.53921 28.7107 4.85401 28.4154 4.23096C28.1201 3.60791 27.6786 3.06543 27.1286 2.64975C26.5634 2.25572 25.9115 2.00399 25.2282 1.91595C24.5449 1.82792 23.8505 1.90619 23.204 2.1441C22.157 2.51164 21.2386 3.1737 20.5589 4.0507C19.8793 4.92768 19.4674 5.98229 19.3727 7.08778C19.363 7.27565 19.363 7.4639 19.3727 7.65177C19.3727 7.74512 19.3727 7.84236 19.3727 7.93182C19.3727 8.02128 19.3727 8.11463 19.3999 8.23132C19.4532 8.68174 19.4687 9.13581 19.4466 9.58878C19.3732 11.3457 18.7132 13.0275 17.5718 14.3652Z" fill="url(#paint0_linear_6752_1151)"></path>
    <path d="M18.9489 15.3608C20.5725 15.6354 22.2408 15.4341 23.7526 14.7813C24.1154 14.6256 24.4664 14.4436 24.8027 14.2367C24.8805 14.1862 24.9778 14.1239 25.0866 14.0656C25.1956 14.0073 25.2928 13.9528 25.3978 13.8983C25.6126 13.7911 25.8334 13.6962 26.059 13.6144C26.9444 13.2973 27.8872 13.1726 28.8246 13.2488C29.7797 13.3172 30.7107 13.5798 31.5608 14.0206C32.4108 14.4613 33.162 15.0709 33.7683 15.812C34.3777 16.5829 34.801 17.4841 35.0051 18.4453C35.2212 19.4353 35.1701 20.4649 34.857 21.4287C34.544 22.3924 33.9803 23.2556 33.2237 23.9296C32.483 24.5869 31.5984 25.0612 30.641 25.3144C29.7192 25.5589 28.7573 25.6133 27.8137 25.4742C26.8702 25.3351 25.9649 25.0055 25.1528 24.5053C24.1394 23.9011 23.3139 23.0272 22.7685 21.981C22.6634 21.7817 22.5699 21.5765 22.4884 21.3664C22.3365 21.0009 22.1597 20.6461 21.9594 20.3045C21.1237 18.8851 19.8959 17.7372 18.4238 16.9984C20.1343 17.4057 21.657 18.3789 22.7451 19.76C23.0198 20.1106 23.2681 20.4812 23.488 20.8685C23.5796 21.0422 23.6823 21.2098 23.7953 21.3703C23.9034 21.5247 24.0202 21.6728 24.1454 21.8137C24.6329 22.3826 25.2294 22.8481 25.8996 23.1828C27.214 23.8492 28.7334 23.9883 30.147 23.5718C30.8171 23.3969 31.4324 23.0562 31.9362 22.5812C32.44 22.1061 32.8162 21.5118 33.0301 20.8532C33.2439 20.1945 33.2886 19.4927 33.16 18.8122C33.0314 18.1318 32.7336 17.4946 32.2941 16.9594C31.3982 15.7885 30.0891 15.0038 28.634 14.7658C27.8944 14.6457 27.1385 14.6721 26.4092 14.8435C26.225 14.8859 26.0433 14.9378 25.8646 14.9991C25.7751 15.0302 25.6857 15.0614 25.604 15.0963C25.5223 15.1313 25.4328 15.1664 25.3279 15.2169C24.9211 15.4062 24.4995 15.5623 24.0676 15.6837C22.3735 16.1538 20.5705 16.0401 18.9489 15.3608Z" fill="#ED66B2"></path>
    <path d="M43.6943 8.71368V8.49584H49.0075C49.727 8.48046 50.445 8.56952 51.139 8.76034C51.7333 8.92388 52.2923 9.19546 52.7881 9.56155C53.2296 9.88455 53.5871 10.3087 53.8306 10.7985C54.0948 11.2893 54.2287 11.8397 54.2195 12.3971C54.2269 12.8828 54.1317 13.3647 53.94 13.8111C53.7483 14.2575 53.4645 14.6585 53.1072 14.9876C52.256 15.7422 51.2028 16.2317 50.0772 16.3956C51.2028 16.5072 52.2717 16.9438 53.1538 17.6519C53.5167 17.9311 53.8089 18.2916 54.0069 18.7044C54.2048 19.1172 54.303 19.5707 54.2934 20.0285C54.3052 20.7816 54.1731 21.5302 53.9045 22.2339C53.6785 22.873 53.3187 23.4566 52.8492 23.9455C52.3796 24.4345 51.8112 24.8177 51.1817 25.0694C50.4832 25.3274 49.7444 25.4592 48.9997 25.4583H43.6943V25.2406H43.7176C43.7448 25.2406 43.7448 25.1939 43.7448 25.0733C43.7655 24.9121 43.7732 24.7495 43.7682 24.5871V9.36707C43.78 9.21433 43.78 9.0609 43.7682 8.90816C43.7682 8.76034 43.7448 8.71368 43.7176 8.71368H43.6943ZM48.249 16.2478H48.3229C48.8521 16.2757 49.3817 16.1978 49.8806 16.0189C50.3794 15.8399 50.8377 15.5634 51.2285 15.2054C51.6015 14.8421 51.8938 14.4043 52.0861 13.9204C52.2785 13.4364 52.3666 12.9174 52.3448 12.3971C52.3812 11.9454 52.3202 11.4911 52.166 11.0649C52.0118 10.6388 51.7679 10.2508 51.4508 9.92705C51.1336 9.60329 50.7507 9.35135 50.3278 9.18832C49.905 9.02529 49.4521 8.95499 48.9997 8.98202H45.6585V16.2478H48.249ZM45.6585 16.6368V24.9721H48.7702C49.2767 24.987 49.7782 24.869 50.225 24.6299C50.6737 24.3867 51.0568 24.0384 51.3413 23.6147C51.6665 23.1421 51.9049 22.6152 52.0452 22.0589C52.2362 21.3981 52.3267 20.7123 52.3137 20.0246C52.3314 19.5413 52.2129 19.0628 51.9714 18.6438C51.7516 18.2143 51.4264 17.8476 51.0262 17.5781C50.5999 17.2401 50.1046 16.9997 49.5754 16.874C48.9417 16.7023 48.287 16.6211 47.6306 16.6329L45.6585 16.6368Z" fill="#ED66B2"></path>
    <path d="M56.7323 16.9753C56.7182 15.8735 56.877 14.7762 57.203 13.7236C57.5039 12.7394 58.0014 11.8263 58.6654 11.0398C59.3257 10.2468 60.155 9.61162 61.0926 9.18058C62.1492 8.72889 63.2865 8.49609 64.4356 8.49609C65.5848 8.49609 66.722 8.72889 67.7787 9.18058C68.7118 9.59734 69.5348 10.2259 70.1825 11.0164C70.8486 11.8161 71.3461 12.7423 71.645 13.7391C71.9788 14.7906 72.1455 15.8878 72.139 16.9909C72.1481 18.0873 71.9894 19.1786 71.6683 20.227C71.3569 21.2069 70.8605 22.118 70.2058 22.9108C69.5368 23.6956 68.7098 24.3304 67.7787 24.7739C66.7213 25.2227 65.5844 25.454 64.4356 25.454C63.2869 25.454 62.15 25.2227 61.0926 24.7739C60.1748 24.3369 59.3566 23.716 58.6888 22.9497C58.0325 22.1435 57.5361 21.2194 57.2262 20.227C56.896 19.1748 56.7294 18.0781 56.7323 16.9753ZM64.4337 25.0073C65.2984 25.0268 66.1517 24.8074 66.8997 24.3733C67.623 23.9358 68.2364 23.3384 68.6928 22.6269C69.1829 21.8344 69.5402 20.9674 69.7507 20.0597C70.0142 19.0529 70.145 18.016 70.1397 16.9753C70.1578 15.936 70.0388 14.899 69.7858 13.8909C69.5764 12.9864 69.2105 12.1255 68.7045 11.3471C68.2698 10.6272 67.6612 10.028 66.9347 9.60456C66.1828 9.14956 65.3161 8.92006 64.4376 8.94326C63.5701 8.91394 62.7125 9.13536 61.9677 9.58119C61.2384 10.0092 60.6233 10.607 60.1746 11.3237C59.686 12.1168 59.3287 12.9837 59.1167 13.8909C58.8632 14.8996 58.7326 15.9353 58.7277 16.9753C58.7226 18.0139 58.8414 19.0493 59.0816 20.0597C59.3099 20.9579 59.6747 21.8158 60.1629 22.6035C60.6171 23.3089 61.2214 23.9052 61.9327 24.35C62.6916 24.7912 63.5559 25.0184 64.4337 25.0073Z" fill="#ED66B2"></path>
    <path d="M76.8028 8.49609L86.1766 22.5959V9.37124C86.1885 9.21849 86.1885 9.06507 86.1766 8.91224C86.1766 8.76451 86.1536 8.71776 86.1026 8.71776V8.49998H86.8064V8.71776H86.7835C86.7835 8.71776 86.7835 8.74113 86.7605 8.88895C86.7367 9.03676 86.7333 9.17676 86.7333 9.37124V25.4586H86.1536L85.3053 24.2256L75.737 10.2231V25.0424C75.7604 25.163 75.7837 25.2369 75.8071 25.2369V25.4548H75.1069V25.2369C75.1536 25.2369 75.1536 25.1902 75.1536 25.0696C75.1742 24.9085 75.182 24.7459 75.177 24.5834V9.36733C75.1907 9.21467 75.1907 9.06107 75.177 8.90841C75.177 8.7606 75.1536 8.71393 75.1069 8.71393V8.49609H76.8028Z" fill="#ED66B2"></path>
    <path d="M97.6005 8.49609V8.71393H97.5767C97.5767 8.71393 97.5767 8.73722 97.5537 8.88504C97.5299 9.03285 97.5265 9.17285 97.5265 9.36733V24.9958H103.124C103.438 24.9724 103.731 24.9452 103.971 24.9452C104.177 24.936 104.38 24.9034 104.578 24.848H104.842C104.848 24.9715 104.831 25.0951 104.796 25.2136C104.786 25.2533 104.779 25.2935 104.773 25.3342C104.777 25.3762 104.767 25.4185 104.746 25.4548H95.5894V25.2369C95.6361 25.2369 95.6361 25.1902 95.6361 25.0696C95.6667 24.9094 95.682 24.7466 95.6829 24.5834V9.36733C95.6948 9.21458 95.6948 9.06116 95.6829 8.90841C95.6829 8.7606 95.6557 8.71393 95.6089 8.71393V8.49609H97.62H97.6005Z" fill="#ED66B2"></path>
    <path d="M104.796 19.3982C104.783 18.5561 104.926 17.7189 105.216 16.9284C105.478 16.2225 105.874 15.5739 106.383 15.0186C106.886 14.4734 107.507 14.0515 108.199 13.7856C108.946 13.4824 109.747 13.3316 110.553 13.3421C111.351 13.3196 112.146 13.4627 112.887 13.7622C113.583 14.0203 114.206 14.4433 114.703 14.9952C115.232 15.5419 115.643 16.192 115.909 16.905C116.469 18.5119 116.469 20.2612 115.909 21.8682C115.649 22.5753 115.252 23.2243 114.742 23.7779C114.232 24.3151 113.613 24.7357 112.925 25.0109C112.169 25.3101 111.362 25.4607 110.549 25.4544C109.745 25.461 108.947 25.3186 108.196 25.0342C107.512 24.7508 106.894 24.3314 106.379 23.8013C105.874 23.2299 105.479 22.5708 105.212 21.8565C104.928 21.0684 104.787 20.2359 104.796 19.3982ZM110.549 25.081C111.104 25.1003 111.653 24.9656 112.135 24.692C112.631 24.4035 113.053 24.004 113.369 23.5251C113.729 22.9764 113.992 22.3698 114.147 21.732C114.34 20.9694 114.435 20.185 114.427 19.3982C114.436 18.6114 114.342 17.8267 114.147 17.0645C113.996 16.4252 113.733 15.8179 113.369 15.2714C113.068 14.7948 112.652 14.4016 112.159 14.1279C111.671 13.8434 111.114 13.6993 110.549 13.7116C109.996 13.6995 109.45 13.8336 108.966 14.1006C108.48 14.394 108.067 14.7928 107.756 15.2675C107.401 15.819 107.138 16.4247 106.979 17.0606C106.783 17.8229 106.689 18.6076 106.698 19.3944C106.69 20.1811 106.785 20.9655 106.979 21.7282C107.143 22.3627 107.405 22.9676 107.756 23.5212C108.083 23.9847 108.503 24.3744 108.989 24.6647C109.465 24.9346 110.002 25.0779 110.549 25.081Z" fill="#ED66B2"></path>
    <path d="M117.624 14.2135C117.571 14.0558 117.506 13.9024 117.429 13.7545C117.379 13.6067 117.332 13.5601 117.281 13.5601V13.4395C117.258 13.3656 117.258 13.3423 117.281 13.3423H119.366C119.39 13.3423 119.39 13.3656 119.39 13.4395V13.5601L119.464 13.7273C119.493 13.7982 119.518 13.871 119.538 13.9452C119.582 14.0297 119.615 14.12 119.635 14.2135H119.608L123.05 23.6847L126.757 13.5368V13.3423H127.434L127.41 13.4122V13.5601C127.387 13.5601 127.336 13.6301 127.239 13.8246L122.521 25.9406L122.187 26.8936C121.789 28.0967 121.182 29.2199 120.393 30.2115C120.137 30.5225 119.815 30.7727 119.451 30.9443C119.086 31.1158 118.688 31.2043 118.285 31.2033C117.879 31.2288 117.474 31.137 117.118 30.9388C116.986 30.8618 116.873 30.7528 116.794 30.6218C116.714 30.4906 116.668 30.3416 116.659 30.1881C116.658 30.087 116.68 29.987 116.721 29.8949C116.763 29.8029 116.824 29.7211 116.901 29.6552C117.084 29.5044 117.317 29.4268 117.554 29.4375C117.705 29.4336 117.854 29.467 117.989 29.5347C118.154 29.572 118.31 29.6364 118.453 29.7253C118.62 29.7991 118.767 29.8731 118.912 29.943C119.06 29.9968 119.213 30.0296 119.371 30.0403C119.603 30.0139 119.826 29.932 120.02 29.8013C120.215 29.6707 120.375 29.4952 120.487 29.2896C121.004 28.4854 121.425 27.6239 121.743 26.7225L122.132 25.6956L117.624 14.2135Z" fill="#ED66B2"></path>
    <path d="M138.27 24.307L138.468 24.5054C138.153 24.8415 137.785 25.1239 137.379 25.3416C136.94 25.5663 136.452 25.6785 135.959 25.6683C135.752 25.69 135.543 25.6586 135.352 25.5769C135.161 25.4952 134.993 25.366 134.867 25.2016C134.613 24.8143 134.469 24.3652 134.45 23.9025C133.931 24.3638 133.341 24.7393 132.704 25.0149C132.129 25.2844 131.502 25.4276 130.868 25.4349C130.142 25.4569 129.434 25.1993 128.892 24.7154C128.629 24.4457 128.427 24.1224 128.301 23.7674C128.174 23.4124 128.125 23.0344 128.159 22.659C128.192 22.2836 128.306 21.9199 128.493 21.5928C128.68 21.2656 128.935 20.9827 129.242 20.7636C130.078 20.1225 131.076 19.7278 132.124 19.6239L134.426 19.2972V16.5433C134.472 15.8586 134.326 15.1748 134.007 14.5674C133.903 14.3418 133.735 14.1514 133.525 14.0194C133.314 13.8874 133.069 13.8198 132.821 13.8245C132.25 13.8107 131.696 14.0089 131.264 14.3808C130.807 14.7847 130.504 15.3343 130.405 15.9366H128.705C128.796 15.5371 128.975 15.1629 129.229 14.8413C129.482 14.5197 129.804 14.2587 130.171 14.0773C131.109 13.5844 132.159 13.3432 133.217 13.3772C133.623 13.3651 134.026 13.4449 134.397 13.6106C134.767 13.7763 135.095 14.0236 135.356 14.334C135.939 15.0647 136.237 15.9829 136.193 16.9167V23.1907C136.184 23.6017 136.248 24.0109 136.38 24.4003C136.435 24.544 136.534 24.6665 136.664 24.7503C136.793 24.8341 136.945 24.875 137.099 24.8671C137.316 24.8705 137.531 24.8225 137.725 24.7271C137.922 24.6081 138.104 24.4672 138.27 24.307ZM134.411 19.7056L132.109 20.1451C131.492 20.2301 130.917 20.5016 130.46 20.9231C130.261 21.0969 130.103 21.3111 129.994 21.5512C129.886 21.7913 129.829 22.0519 129.83 22.3155C129.816 22.8365 130 23.3433 130.343 23.7352C130.514 23.9189 130.723 24.0636 130.955 24.1596C131.187 24.2556 131.438 24.3005 131.689 24.2914C132.177 24.2937 132.664 24.2229 133.132 24.0814C133.582 23.9462 134.013 23.7513 134.411 23.5019V19.69V19.7056Z" fill="#ED66B2"></path>
    <path d="M140.635 9.1805V8.94717L140.705 8.91989L142.113 8.46094H142.475V25.0423C142.487 25.1082 142.504 25.1732 142.526 25.2367H142.549V25.4546H140.635V25.2367C140.682 25.2367 140.682 25.1901 140.682 25.0695C140.702 24.9083 140.71 24.7458 140.705 24.5833V10.2462C140.719 10.0443 140.719 9.84146 140.705 9.6395C140.703 9.48403 140.679 9.32959 140.635 9.1805Z" fill="#ED66B2"></path>
    <path d="M151.273 13.2878V13.9569H148.052L148.029 22.8602C147.983 23.3498 148.065 23.8429 148.266 24.2915C148.384 24.4249 148.532 24.5293 148.697 24.5967C148.863 24.6641 149.04 24.6928 149.219 24.6805C149.671 24.7005 150.123 24.6439 150.557 24.5133C150.864 24.393 151.153 24.2321 151.416 24.0348L151.537 24.2021C151.103 24.5699 150.621 24.8749 150.102 25.1083C149.557 25.3586 148.962 25.481 148.363 25.4662C148.025 25.4796 147.686 25.4403 147.36 25.3495C147.103 25.2542 146.88 25.0883 146.714 24.871C146.548 24.6 146.435 24.3007 146.379 23.9881C146.319 23.5147 146.287 23.0379 146.286 22.5606V13.9569H144.544V13.7663H144.59C145.183 13.6474 145.719 13.3372 146.119 12.8833C146.643 12.3301 147.056 11.6819 147.336 10.9735L147.725 9.80664H148.037V13.3073L151.273 13.2878Z" fill="#ED66B2"></path>
    <path d="M152.973 14.2135C152.921 14.0552 152.856 13.9016 152.778 13.7545C152.732 13.6067 152.681 13.5601 152.635 13.5601V13.4395C152.611 13.3656 152.611 13.3423 152.635 13.3423H154.719C154.743 13.3423 154.743 13.3656 154.743 13.4395V13.5601L154.812 13.7273C154.846 13.7969 154.87 13.87 154.886 13.9452C154.935 14.0282 154.967 14.1191 154.984 14.2135H154.96L158.398 23.6847L162.105 13.5368V13.3423H162.786L162.763 13.4122V13.5601C162.735 13.5601 162.689 13.6301 162.592 13.8246L157.866 25.9406L157.384 27.2009C156.984 28.4045 156.374 29.5277 155.582 30.5187C155.327 30.828 155.006 31.0769 154.643 31.2477C154.28 31.4186 153.883 31.507 153.482 31.5067C153.076 31.5329 152.67 31.441 152.315 31.2422C152.182 31.1658 152.07 31.057 151.99 30.9257C151.91 30.7945 151.864 30.6451 151.856 30.4915C151.854 30.3903 151.875 30.29 151.917 30.1979C151.959 30.1056 152.02 30.024 152.097 29.9586C152.28 29.8068 152.514 29.729 152.751 29.7408C152.902 29.7375 153.051 29.7709 153.186 29.8381C153.349 29.8766 153.504 29.9409 153.645 30.0286C153.817 30.1025 153.961 30.1764 154.109 30.2465C154.256 30.3005 154.41 30.3334 154.568 30.3437C154.8 30.3174 155.023 30.2354 155.217 30.1047C155.412 29.9741 155.571 29.7985 155.684 29.593C156.194 28.7884 156.608 27.9268 156.917 27.0258L157.477 25.6918L152.973 14.2135Z" fill="#ED66B2"></path>
  </g>
  <defs>
    <linearGradient id="paint0_linear_6752_1151" x1="18.2603" y1="14.8631" x2="28.2643" y2="1.09391" gradientUnits="userSpaceOnUse">
      <stop offset="0.01" stop-color="#ED66B2"></stop>
      <stop offset="1" stop-color="#86469C"></stop>
    </linearGradient>
    <clipPath id="clip0_6752_1151">
      <rect width="163.2" height="34" fill="white"></rect>
    </clipPath>
  </defs>
</svg>