<svg width="104" height="104" viewBox="0 0 104 104" fill="none" xmlns="http://www.w3.org/2000/svg">
<g clip-path="url(#clip0_3104_8850)">
<path d="M100.984 22.3556C100.984 21.046 100.193 19.866 98.9815 19.3683L53.367 0.62942C52.5807 0.306469 51.699 0.306469 50.9126 0.62942L5.2982 19.3683C4.08693 19.8658 3.2959 21.046 3.2959 22.3556V81.6449C3.2959 82.9545 4.08672 84.1345 5.2982 84.6322L50.9126 103.371C51.6905 103.691 52.5649 103.697 53.363 103.371C53.402 103.358 51.675 104.066 98.9815 84.6322C100.193 84.1347 100.984 82.9545 100.984 81.6449V22.3556ZM52.1398 37.8746L35.3326 30.9701L71.6548 15.1251L89.586 22.4914L52.1398 37.8746ZM9.75492 27.4453L24.2556 33.4023V50.2087C24.2556 51.9922 25.7016 53.4382 27.4851 53.4382C29.2686 53.4382 30.7146 51.9922 30.7146 50.2087V36.0557L48.9103 43.5306V95.5655L9.75492 79.4801V27.4453ZM52.1398 7.10802L63.3353 11.7072L27.0132 27.5522L14.6936 22.4912L52.1398 7.10802ZM55.3693 43.5306L94.5247 27.4453V79.4801L55.3693 95.5655V43.5306Z" fill="#074E15"/>
</g>
<defs>
<clipPath id="clip0_3104_8850">
<rect width="103.226" height="103.226" fill="white" transform="translate(0.526855 0.387207)"/>
</clipPath>
</defs>
</svg>
