<svg width="40" height="40" viewBox="0 0 40 40" fill="none" xmlns="http://www.w3.org/2000/svg">
<circle cx="20" cy="20" r="19.3" stroke="#F5C300" stroke-width="1.4"/>
<g clip-path="url(#clip0_7090_6)">
<path d="M16.214 15.1335L15.8745 14.4453L15.5351 15.1335C15.4347 15.3366 15.2414 15.4773 15.0172 15.5098L14.2578 15.62L14.8073 16.1554C14.9692 16.3135 15.043 16.5411 15.0051 16.764L14.8751 17.5207L15.5546 17.1635C15.7546 17.0582 15.9943 17.0582 16.1944 17.1635L16.8739 17.5207L16.7439 16.764C16.706 16.5412 16.7798 16.3135 16.9417 16.1554L17.4912 15.62L16.7318 15.5098C16.5076 15.4773 16.3143 15.3366 16.214 15.1335Z" fill="#F5C300"/>
<path d="M16.214 23.3835L15.8745 22.6953L15.5351 23.3835C15.4347 23.5866 15.2414 23.7272 15.0172 23.7598L14.2578 23.87L14.8073 24.4054C14.9692 24.5635 15.043 24.7911 15.0051 25.014L14.8751 25.7707L15.5546 25.4136C15.7546 25.3082 15.9943 25.3082 16.1944 25.4136L16.8739 25.7707L16.7439 25.014C16.706 24.7912 16.7798 24.5635 16.9417 24.4054L17.4912 23.87L16.7318 23.7598C16.5076 23.7272 16.3143 23.5866 16.214 23.3835Z" fill="#F5C300"/>
<path d="M28.25 9.6875H11.75C10.6127 9.6875 9.6875 10.6127 9.6875 11.75V28.25C9.6875 29.3873 10.6127 30.3125 11.75 30.3125H28.25C29.3873 30.3125 30.3125 29.3873 30.3125 28.25V11.75C30.3125 10.6127 29.3873 9.6875 28.25 9.6875ZM19.1809 24.1438L18.1607 25.1381L18.4018 26.5423C18.4581 26.872 18.3252 27.1989 18.0546 27.3953C17.9015 27.5067 17.7227 27.5631 17.5424 27.5631C17.4041 27.5631 17.2651 27.5299 17.1362 27.4621L15.875 26.799L14.6141 27.4621C14.3177 27.6172 13.9659 27.5917 13.6953 27.3952C13.4248 27.1988 13.2919 26.8719 13.3482 26.5426L13.5893 25.138L12.5691 24.144C12.3294 23.9101 12.2448 23.567 12.3485 23.2488C12.4523 22.9306 12.7225 22.7036 13.0535 22.6559L14.4624 22.4511L15.0925 21.1738C15.2409 20.8737 15.5407 20.6874 15.875 20.6874C16.2093 20.6874 16.5092 20.8737 16.6572 21.1735L17.2876 22.4511L18.6972 22.6559C19.0275 22.7036 19.2977 22.9305 19.4015 23.2488C19.5052 23.567 19.4206 23.9101 19.1809 24.1438ZM19.1809 15.8938L18.1607 16.8881L18.4018 18.2923C18.4581 18.622 18.3252 18.9489 18.0546 19.1453C17.9015 19.2567 17.7227 19.3131 17.5424 19.3131C17.4041 19.3131 17.2651 19.2799 17.1362 19.2121L15.875 18.549L14.6141 19.2121C14.3177 19.3672 13.9659 19.3416 13.6953 19.1452C13.4248 18.9488 13.2919 18.6219 13.3482 18.2926L13.5893 16.888L12.5691 15.894C12.3294 15.6601 12.2448 15.317 12.3485 14.9988C12.4523 14.6806 12.7225 14.4536 13.0535 14.406L14.4624 14.2011L15.0925 12.9238C15.2409 12.6237 15.5407 12.4374 15.875 12.4374C16.2093 12.4374 16.5092 12.6237 16.6572 12.9235L17.2876 14.2011L18.6972 14.406C19.0275 14.4536 19.2977 14.6805 19.4015 14.9988C19.5052 15.317 19.4206 15.6601 19.1809 15.8938ZM26.875 26.1875H21.375C20.995 26.1875 20.6875 25.8796 20.6875 25.5C20.6875 25.1204 20.995 24.8125 21.375 24.8125H26.875C27.255 24.8125 27.5625 25.1204 27.5625 25.5C27.5625 25.8796 27.255 26.1875 26.875 26.1875ZM26.875 23.4375H21.375C20.995 23.4375 20.6875 23.1296 20.6875 22.75C20.6875 22.3704 20.995 22.0625 21.375 22.0625H26.875C27.255 22.0625 27.5625 22.3704 27.5625 22.75C27.5625 23.1296 27.255 23.4375 26.875 23.4375ZM26.875 17.9375H21.375C20.995 17.9375 20.6875 17.6296 20.6875 17.25C20.6875 16.8704 20.995 16.5625 21.375 16.5625H26.875C27.255 16.5625 27.5625 16.8704 27.5625 17.25C27.5625 17.6296 27.255 17.9375 26.875 17.9375ZM26.875 15.1875H21.375C20.995 15.1875 20.6875 14.8796 20.6875 14.5C20.6875 14.1204 20.995 13.8125 21.375 13.8125H26.875C27.255 13.8125 27.5625 14.1204 27.5625 14.5C27.5625 14.8796 27.255 15.1875 26.875 15.1875Z" fill="#F5C300"/>
</g>
<defs>
<clipPath id="clip0_7090_6">
<rect width="22" height="22" fill="white" transform="translate(9 9)"/>
</clipPath>
</defs>
</svg>
