<svg class="icon icon-close" width="14" height="14" viewBox="0 0 14 14" fill="none" xmlns="http://www.w3.org/2000/svg">
                  <path d="M13.5233 12.4767L12.4768 13.5232C12.3838 13.6162 12.2928 13.6183 12.2039 13.5294L0.470652 1.79616C0.381763 1.70727 0.383831 1.61631 0.476854 1.52329L1.52336 0.476783C1.61638 0.38376 1.70734 0.381692 1.79623 0.470581L13.5295 12.2038C13.6184 12.2927 13.6163 12.3837 13.5233 12.4767Z" fill="#0E1C29"></path>
                  <path d="M13.4938 1.7729L1.77297 13.4938C1.67995 13.5868 1.58899 13.5888 1.5001 13.5L0.500109 12.5C0.41122 12.4111 0.413288 12.3201 0.50631 12.2271L12.2272 0.50624C12.3202 0.413217 12.4111 0.41115 12.5 0.500038L13.5 1.50003C13.5889 1.58892 13.5869 1.67988 13.4938 1.7729Z" fill="#0E1C29"></path>
                </svg>