<svg width="800" height="482" viewBox="0 0 800 482" fill="none" xmlns="http://www.w3.org/2000/svg">
<path d="M798.991 399.675C798.991 399.675 791.375 400.058 784.95 399.803C774.014 399.335 776.142 398.867 776.355 389.123C776.95 360.401 778.269 294.874 778.269 278.875C778.269 258.195 765.419 235.388 731.208 223.942C696.955 212.538 698.402 220.751 693.041 229.644C687.679 238.579 674.489 239.643 660.234 246.409C645.98 253.174 641.342 258.536 637.044 263.514C632.747 268.492 630.619 258.153 631.172 251.387C631.726 244.622 627.556 242.196 636.661 238.282C637.64 237.856 640.619 236.877 641.895 236.282C652.277 231.346 670.021 220.495 673.595 218.836C681.424 215.177 688.913 214.879 690.743 206.624C692.7 197.944 695.849 178.881 695.849 176.073C695.849 172.498 699.338 137.097 679.722 117.821C650.363 89.0145 613.088 103.609 582.112 124.544C568.921 133.48 575.516 150.415 581.558 151.479C587.601 152.542 595.813 158.797 598.153 156.117C600.451 153.436 592.281 153.095 595.302 162.159C598.323 171.265 609.216 177.69 609.727 182.285C610.28 186.923 607.599 189.221 612.237 191.008C616.875 192.795 617.046 192.455 623.641 186.2C630.236 179.945 633.81 192.625 630.789 190.668C627.768 188.71 631.343 180.158 639.002 179.604C662.702 177.945 648.575 207.688 646.491 200.624C645.597 197.603 659.298 195.05 660.745 210.411C662.192 225.772 655.384 225.942 647.001 230.367C638.619 234.835 635.938 235.728 632.364 238.409C628.789 241.09 623.088 239.473 617.939 236.282C576.835 210.751 589.983 156.202 583.814 146.968C581.303 143.224 577.218 144.202 577.559 136.288C577.899 128.374 589.686 122.204 593.983 119.693C598.281 117.183 646.746 93.1419 669.383 113.098C692.019 133.054 692.573 152.5 693.636 157.478C694.7 162.457 692.998 179.945 692.232 187.689C691.424 195.433 688.658 203.092 688.147 206.837C687.594 210.581 695.849 223.814 695.977 220.836C696.104 217.857 691.977 212.368 686.871 214.794C681.765 217.219 644.533 238.196 641.853 239.43C624.492 247.515 641.725 256.663 633.3 269.684C630.704 273.641 619.216 283.47 608.833 293.597C579.942 321.766 593.941 338.53 576.623 356.699C561.985 372.018 545.263 373.464 532.03 369.167C518.839 364.869 507.776 355.253 501.01 350.615C494.245 345.977 481.48 351.338 478.289 355.806C475.097 360.274 472.289 367.38 468.757 370.401C465.183 373.422 460.545 364.699 460.034 360.061C459.481 355.423 467.353 344.232 471.268 342.105C475.182 339.977 480.714 340.786 481.395 337.424C482.118 334.02 478.374 332.616 481.948 331.084C484.799 329.85 508.074 317.425 517.095 312.575C522.456 309.681 520.839 310.745 514.244 307.766L466.162 286.023C462.119 284.193 463.141 284.576 459.098 286.619L389.741 321.723C383.954 324.659 386.933 324.276 392.847 327.68L434.079 351.423C444.461 357.38 440.674 354.572 444.248 352.359C447.993 350.062 454.673 354.146 450.035 357.38C448.12 358.699 444.929 360.614 442.121 362.274C435.185 366.316 437.695 365.763 430.249 361.678L372.976 329.978C366.721 326.489 367.019 327.595 373.529 324.361L460.247 280.96C465.864 278.151 463.694 278.236 469.523 280.789C481.948 286.321 511.606 302.448 523.647 307.724C530.796 310.873 538.54 306.873 530.711 302.575C523.307 298.49 503.351 287.81 490.798 281.172C477.14 273.896 477.267 276.875 491.309 269.897L548.667 241.345C559.815 235.814 557.305 234.452 568.198 239.601L603.6 256.153C616.578 262.237 618.96 260.28 606.919 267.003C573.091 285.981 520.882 324.063 485.948 338.19C483.267 339.296 479.778 338.403 479.054 334.275C478.629 331.68 476.672 325.553 474.714 322.702C473.268 320.574 468.63 319.808 467.991 322.702C467.481 324.914 461.822 326.574 460.332 325.552C458.843 324.531 459.609 319.595 459.354 318.532C459.098 317.468 462.417 316.276 463.864 316.234C465.311 316.191 466.374 316.787 466.545 319.085C466.715 321.383 466.97 322.234 465.694 322.787C464.417 323.34 462.375 324.446 461.524 323.595C459.183 321.383 458.758 313.553 449.099 314.66C443.823 315.298 443.227 317.681 444.291 320.361C445.354 323.042 448.078 326.914 448.29 324.531C448.503 322.148 446.163 320.617 443.823 323.468C441.525 326.318 443.823 338.998 446.674 345.296C449.524 351.636 453.524 353.678 455.779 355.465C457.992 357.253 459.098 357.508 460.417 352.529C461.736 347.551 468.459 338.19 473.608 338.36C478.799 338.53 482.884 339.807 486.373 342.445C489.862 345.083 490.841 346.275 486.628 347.806C482.458 349.338 478.076 350.487 475.565 354.487C473.055 358.487 462.63 371.677 468.161 380.272C473.693 388.825 486.543 399.718 503.266 406.143C520.031 412.568 567.091 428.95 594.196 419.334C621.301 409.717 631.3 392.952 635.555 381.166C639.853 369.379 643.384 355.125 638.066 359.763C632.704 364.401 631.64 379.634 638.066 395.378C658.234 444.821 529.094 420.653 506.84 417.547C485.99 414.611 471.736 410.866 461.694 406.483C431.781 393.335 531.647 333.382 547.816 321.255C560.198 311.979 604.323 285.725 618.535 272.194C632.491 258.876 621.769 243.856 607.387 236.367C594.579 229.686 579.942 223.814 571.219 220.836C557.22 216.028 559.39 223.729 543.391 226.41C530.54 228.537 505.436 228.367 501.138 227.857C496.84 227.303 491.139 224.793 485.948 224.793C476.246 224.793 478.076 220.963 476.927 213.73C474.672 199.178 482.841 206.369 463.226 202.369C458.843 201.475 455.311 200.752 451.269 199.688C447.269 198.624 442.546 198.965 437.738 200.667C432.93 202.369 428.377 205.135 427.951 205.73C425.739 208.837 421.994 210.794 422.377 215.815C422.675 219.9 426.93 221.857 429.313 222.708C431.994 223.687 439.355 222.665 443.269 222.368C447.184 222.112 463.098 221.942 465.779 221.985C485.054 222.325 466.928 204.199 477.693 204.667C497.436 205.518 535.732 210.751 534.498 186.498C533.349 164.414 525.307 116.885 524.03 99.6521C522.498 79.5683 552.369 100.716 555.603 118.715C558.539 134.799 562.283 168.882 564.24 190.54C565.985 209.688 568.283 219.347 542.199 213.432C527.817 210.198 530.668 202.029 529.732 191.05C528.03 170.754 522.541 114.034 521.35 99.0564C520.584 88.9719 493.734 81.7384 493.011 95.0567C492.075 112.502 489.352 174.371 488.798 192.923C488.628 198.029 490.671 202.539 485.48 202.411C481.905 202.326 481.82 199.007 481.65 197.773C481.48 196.625 476.246 144.16 473.48 134.075C472.629 131.054 469.651 130.246 466.502 130.459C464.417 130.586 462.375 130.331 461.311 128.586C459.183 125.012 457.013 120.927 461.311 117.353C472.246 108.247 485.139 126.331 473.608 128.501C470.757 129.054 467.438 127.523 464.885 128.586C462.332 129.65 462.587 134.373 461.226 136.714C456.928 144.16 450.588 178.073 452.205 192.455C453.056 199.901 455.184 199.39 462.375 199.475C469.14 199.561 472.459 200.029 475.821 200.284C485.905 201.092 486.628 204.624 486.501 195.008C486.416 189.731 486.501 182.455 486.501 182.455C486.501 182.455 489.777 121.438 490.245 102.248C490.543 89.7804 489.054 98.5033 483.437 104.631C464.46 125.523 444.248 99.6521 439.568 77.8663C437.44 67.8669 438.163 54.6763 439.908 47.7406C441.653 40.8048 445.269 34.2095 442.759 35.2733C440.248 36.337 441.142 42.0388 447.567 43.1025C453.992 44.1663 458.247 40.2517 456.503 38.805C454.758 37.3582 454.375 46.464 458.8 47.9107C463.268 49.3575 475.565 47.0172 479.65 45.9534C483.735 44.8897 488.543 39.5283 484.288 39.6985C479.991 39.8687 481.267 50.7616 486.416 53.0594C491.607 55.3571 494.287 59.059 497.649 55.1443C501.053 51.2297 494.075 53.9529 494.075 56.8038C494.075 59.6547 498.16 64.1225 494.968 62.4205C491.777 60.7184 496.585 59.91 498.457 61.1865C500.33 62.463 499.691 62.5056 501.393 58.2505C503.095 53.9529 511.095 27.8695 503.436 15.7426C490.671 -4.46887 445.737 -4.42632 434.334 19.1466C430.334 27.444 431.909 34.3797 433.696 38.6773C435.483 42.9749 438.419 49.2724 436.376 48.6767C434.334 48.0384 434.759 40.2091 434.419 37.7837C434.079 35.3584 433.1 14.8916 450.035 8.29627C466.97 1.7435 483.097 3.78592 490.756 8.76433C511.18 22.0826 505.308 37.9539 499.947 58.5484C499.138 61.6971 500.67 63.4417 500.585 68.0797C500.5 72.7177 498.074 75.0154 495.947 75.3132C493.819 75.5685 490.118 74.8452 492.16 73.6538C494.202 72.4198 494.628 74.9303 493.096 79.5683C489.309 90.8442 492.16 91.8654 477.438 101.609C458.162 114.375 448.29 89.7378 441.908 82.1639C440.036 79.9512 439.397 79.0577 435.738 79.1428C427.313 79.3555 419.228 81.1427 412.888 85.4402C402.464 92.5462 387.613 133.437 380.04 158.584C374.721 176.328 371.146 189.391 375.912 208.113C378.593 218.623 387.486 228.708 388.379 230.665C389.273 232.622 391.315 231.644 393.656 227.559C395.953 223.474 403.102 219.985 407.187 219.73C415.654 219.176 420.335 223.006 423.398 227.729C426.973 233.218 427.951 240.239 423.484 247.983C417.101 259.046 396.847 252.153 393.528 242.707C390.932 235.303 392.805 232.707 388.167 234.409C382.72 236.409 385.358 245.728 380.976 253.089C378.423 257.344 374.636 263.684 379.571 266.961C384.763 270.45 398.506 278.194 408.378 283.683C421.867 291.172 416.888 291.172 430.164 283.81L506.414 241.515C514.627 236.962 503.649 232.154 494.543 229.218C480.714 224.708 464.757 225.219 450.248 224.623C438.504 224.155 425.824 224.708 427.526 230.325C429.228 235.941 430.845 247.43 422.803 252.961C414.761 258.493 401.783 255.983 395.868 251.345C389.996 246.707 390.507 239.813 389.996 236.92C389.486 234.026 390.337 226.58 394.464 222.665C398.549 218.751 405.697 215.006 410.506 216.964C415.314 218.921 417.654 217.304 416.378 214.453C415.144 211.602 409.952 209.645 410.335 199.475C410.718 189.306 414.08 174.881 414.25 169.69C414.42 164.499 417.101 155.606 412.633 157.904C408.165 160.201 418.505 169.69 418.675 183.051C419.101 214.198 396.038 203.092 357.786 204.794C354.509 204.922 351.488 203.645 351.148 207.645C350.892 210.454 349.531 214.496 348.51 217.645C346.51 223.559 343.063 224.878 339.531 225.516C332.511 226.835 324.128 222.751 319.022 228.367C317.235 230.325 316.001 234.622 319.022 234.622C321.362 234.622 362.594 219.729 381.486 212.879C393.017 208.666 391.613 206.964 388.082 218.113L374.508 261.429C371.7 270.407 373.657 270.45 365.317 274.109L275.238 313.723C265.579 317.979 270.557 317.213 272.132 306.064L277.238 253.557C278.301 246.026 301.364 239.984 302.002 241.303C304.725 246.919 277.833 243.175 275.025 260.706C272.812 274.322 268.302 303.639 266.94 313.596C266.174 319.17 265.664 316.404 258.941 311.681C250.941 306.064 238.134 297.129 231.666 292.321C223.667 286.406 231.496 283.683 239.708 281.3C244.261 279.981 247.069 280.151 245.367 278.279C243.665 276.407 235.751 272.109 234.602 268.833C233.453 265.514 236.517 259.982 246.133 257.514C255.75 255.004 259.579 259.131 261.749 259.216C275.323 259.769 274.046 264.067 271.281 263.854C268.77 263.684 265.238 266.195 268.345 263.216C271.451 260.238 271.961 265.386 271.834 267.982C271.706 270.577 270.983 272.067 270.685 272.109C270.387 272.152 265.877 271.981 267.749 270.365C269.621 268.748 270.557 271.471 270.472 275.3C270.387 279.13 269.153 278.619 268.43 277.981C267.706 277.343 263.792 277.811 265.621 275.726C267.451 273.598 267.408 277.896 268.387 279.768C269.366 281.64 269.961 281.555 269.621 283.725C267.834 296.363 263.451 278.534 256.303 280.236C253.367 280.96 248.559 281.385 248.261 279.172C248.005 276.96 245.495 273.556 241.58 272.109C237.666 270.662 235.879 267.939 236.942 265.684C238.006 263.471 239.538 261.046 242.899 260.493C249.197 259.514 258.601 257.514 250.814 251.813C247.878 249.685 244.474 247.26 241.963 245.685C234.985 241.217 243.58 236.154 249.112 232.452C253.409 229.601 268.728 224.41 272.855 221.9C276.94 219.389 274.812 211.007 281.791 206.581C301.279 194.114 298.343 165.095 297.832 165.733C293.705 170.839 297.279 176.966 303.874 182.328C310.47 187.689 320.299 194.114 319.022 199.603C314.81 218.283 317.32 208.964 301.364 214.028C295.747 215.815 283.79 212.751 283.961 217.219C284.131 221.729 287.875 215.262 291.279 214.113C294.683 212.964 304.215 211.262 308.938 210.368C313.661 209.475 317.873 210.198 316.597 215.092C311.618 234.622 319.746 221.474 328.851 221.857C345.063 222.538 345.744 221.814 348.339 208.751C353.488 182.966 335.872 166.797 320.043 143.947C316.852 139.309 304.725 117.906 289.747 114.162C261.324 107.056 272.089 117.438 251.963 121.098C248.048 121.821 241.368 113.864 235.666 112.375C215.752 107.098 234.474 78.5471 244.261 65.6117C254.984 51.485 270.983 41.2303 273.706 84.6318C274.046 90.3336 271.408 101.397 278.174 105.311C284.939 109.226 299.023 106.205 294.768 109.609C290.471 113.013 281.578 106.205 281.237 98.3756C280.897 90.5463 281.79 40.975 261.111 28.4652C245.623 19.1466 226.773 17.3595 213.454 21.8699C187.711 30.5502 192.179 68.4626 188.009 90.1634C185.882 101.226 183.201 107.098 180.861 101.95C178.563 96.7587 183.882 97.1416 196.562 99.9925C209.242 102.843 221.156 105.354 223.496 99.099C225.794 92.844 226.347 76.8025 241.665 62.3779C272.897 32.933 276.599 64.0374 271.153 89.6528C270.004 95.0141 268.472 99.7372 266.855 103.609C250.601 142.841 218.135 100.163 177.882 108.715C150.267 114.587 127.077 137.948 129.247 162.201C130.949 181.689 136.608 211.56 140.778 224.282C143.97 234.026 155.331 237.558 164.777 236.92C172.606 236.367 172.393 236.92 174.691 229.771C176.989 222.623 178.776 213.9 180.052 208.539C181.286 203.177 185.414 190.37 194.69 189.476C203.966 188.583 212.348 193.05 218.773 198.412C225.198 203.773 229.836 199.305 229.666 194.497C229.496 189.689 229.326 188.072 233.964 181.647C238.602 175.222 237.538 157.946 246.091 154.712C254.643 151.479 264.983 145.266 263.026 137.777C261.068 130.288 249.963 124.544 253.665 123.055C257.367 121.566 252.941 124.672 254.388 127.352C255.835 130.033 260.175 131.82 260.175 137.862C260.175 141.862 259.452 144.16 257.792 145.99C248.942 155.606 253.026 149.011 253.026 162.286C253.026 164.967 253.494 207.39 247.325 221.857C241.155 236.324 233.794 244.153 231.283 245.728C221.922 251.77 217.114 254.28 217.114 265.344C217.114 270.875 217.029 272.79 221.837 274.237C226.645 275.683 234.857 275.939 235.751 275.854C236.644 275.768 238.602 274.407 236.73 274.152C234.857 273.896 233.538 277.896 230.219 277.173C226.9 276.449 219.88 276.194 217.752 274.875C215.625 273.556 215.156 271.684 214.348 266.578C213.54 261.514 212.646 257.472 208.987 255.77C205.327 254.068 149.969 236.239 146.14 235.431C140.523 234.239 137.161 246.196 148.437 254.068C152.522 256.919 189.967 267.088 198.179 273.13C204.647 277.939 210.263 282.151 213.369 285.215C216.986 288.746 217.965 286.619 218.007 283.683C218.178 270.577 213.029 281.3 218.05 290.321C232.389 316.021 260.685 315.936 270.089 330.446C280.046 345.764 278.386 370.443 303.193 379.209C334.808 390.357 350.254 378.315 373.274 355.338C375.231 353.38 378.125 354.019 385.784 355.253C414.378 359.891 403.315 372.656 412.676 374.23C416.973 374.954 420.505 368.699 421.952 364.444C423.356 360.146 415.186 344.317 408.591 341.424C401.996 338.53 398.421 344.275 395.23 337.679C392.039 331.084 395.953 322.531 399.145 319.681C402.336 316.83 404.208 317.638 406.463 320.234C408.676 322.829 413.612 322.361 414.122 319.808C415.101 315.043 415.569 310.064 408.804 315.511C407.485 316.574 407.059 316.957 407.442 318.532C408.336 322.489 415.739 315.681 417.058 314.021C430.462 297.427 437.44 321.042 429.909 317.936C426.249 316.404 433.015 315.17 433.568 318.361C434.121 321.553 434.291 323.638 433.908 325.212C433.568 326.829 430.802 329.808 431.313 326.999C431.823 324.191 436.291 324.701 435.227 327.808C434.164 330.914 434.887 336.999 434.164 338.147C433.44 339.296 430.462 340.871 431.483 338.318C432.504 335.807 435.057 337.254 433.355 341.807C431.228 347.509 422.888 363.167 419.271 350.062C417.824 344.87 410.974 339.084 404.932 338.19C398.889 337.296 390.932 340.147 387.018 343.551C383.103 346.955 381.061 349.423 384.89 351.04C388.72 352.657 397.358 353.168 401.825 356.657C406.293 360.146 415.654 377.421 414.931 383.676C414.208 389.931 401.187 398.314 386.209 409.334C371.232 420.397 329.319 439.46 268.728 429.503C244.772 425.546 230.347 421.844 221.369 418.185C194.86 407.377 185.244 345.977 212.221 389.548C229.836 417.972 249.197 474.649 196.094 478.989C151.544 482.649 59.209 482.776 40.8698 466.607C23.2539 451.076 36.5296 254.195 128.779 244.111C140.608 242.834 138.566 245.898 136.821 246.409C135.63 246.749 133.843 244.792 129.97 243.515C119.631 240.111 109.291 245.685 99.6745 250.536C55.0816 273.003 34.6149 361.55 31.4236 408.611C30.7853 418.057 31.1683 430.142 30.8704 440.822C30.53 453.8 32.2746 466.48 17.85 467.246C13.7651 467.458 7.97828 467.586 1 467.671" stroke="white" stroke-width="1.5" stroke-miterlimit="2.6131"></path>
</svg>