<svg width="40" height="40" viewBox="0 0 40 40" fill="none" xmlns="http://www.w3.org/2000/svg">
<circle cx="20" cy="20" r="19.3" stroke="#F5C300" stroke-width="1.4"/>
<g clip-path="url(#clip0_7090_4)">
<path d="M20 23.6523C22.0171 23.6523 23.6523 22.0171 23.6523 20C23.6523 17.9829 22.0171 16.3477 20 16.3477C17.9829 16.3477 16.3477 17.9829 16.3477 20C16.3477 22.0171 17.9829 23.6523 20 23.6523Z" fill="#F5C300"/>
<path d="M15.1729 18.9435C15.6581 16.7248 17.638 15.0586 20.0002 15.0586H29.8341C29.3123 14.0227 28.6224 13.0658 27.7784 12.2218C25.7007 10.1442 22.9384 9 20.0002 9C17.062 9 14.2997 10.1442 12.222 12.2218C12.0222 12.4216 11.8312 12.6279 11.6489 12.8399L15.1729 18.9435Z" fill="#F5C300"/>
<path d="M21.4988 24.709C21.0258 24.8598 20.5223 24.9416 20 24.9416C18.1645 24.9416 16.5596 23.9355 15.7075 22.4459C15.7014 22.4364 15.6953 22.4271 15.6897 22.4173L10.8052 13.957C9.63082 15.7359 9 17.8195 9 20.0002C9 22.9384 10.1442 25.7007 12.2218 27.7784C13.8135 29.37 15.8072 30.413 17.9739 30.8143L21.4988 24.709Z" fill="#F5C300"/>
<path d="M23.3249 16.3477C24.3175 17.2521 24.9414 18.5545 24.9414 20C24.9414 20.9091 24.6943 21.7615 24.2642 22.4941C24.2598 22.5025 24.256 22.5111 24.2513 22.5193L19.3657 30.9814C19.5761 30.9933 19.7875 31 20 31C22.9382 31 25.7005 29.8558 27.7782 27.7782C29.8558 25.7005 31 22.9382 31 20C31 18.7365 30.7878 17.5057 30.3814 16.3477H23.3249Z" fill="#F5C300"/>
</g>
<defs>
<clipPath id="clip0_7090_4">
<rect width="22" height="22" fill="white" transform="translate(9 9)"/>
</clipPath>
</defs>
</svg>
