<svg width="11" height="13" viewBox="0 0 11 13" fill="none" xmlns="http://www.w3.org/2000/svg">
                            <g clip-path="url(#clip0_3104_9048)">
                                <path d="M11 11.2649C11 11.6791 10.6922 12.0149 10.3125 12.0149H0.6875C0.307807 12.0149 0 11.6791 0 11.2649C0 10.8507 0.307807 10.5149 0.6875 10.5149H10.3125C10.6922 10.5149 11 10.8507 11 11.2649ZM5.01387 8.88899C5.14813 9.03545 5.32404 9.10867 5.5 9.10867C5.67591 9.10867 5.85191 9.03542 5.98613 8.88899L8.42198 6.23171C8.69047 5.93881 8.69047 5.46395 8.42198 5.17105C8.15349 4.87815 7.7182 4.87815 7.44971 5.17105L6.1875 6.548V0.764893C6.1875 0.350682 5.87969 0.0148926 5.5 0.0148926C5.12031 0.0148926 4.8125 0.350682 4.8125 0.764893V6.548L3.55029 5.17105C3.2818 4.87815 2.84651 4.87815 2.57802 5.17105C2.30953 5.46395 2.30953 5.93881 2.57802 6.23171L5.01387 8.88899Z" fill="#070707"></path>
                            </g>
                            <defs>
                                <clipPath id="clip0_3104_9048">
                                    <rect width="11" height="12" fill="white" transform="translate(0 0.0148926)"></rect>
                                </clipPath>
                            </defs>
                          </svg>