<svg xmlns="http://www.w3.org/2000/svg" width="36" height="36" viewBox="0 0 36 36" fill="none">
  <g clip-path="url(#clip0_8345_187)">
    <path d="M28.2656 29.9531C27.0877 29.9531 26.0772 30.6813 25.6591 31.7109H23.2031V33.8203H25.6591C26.0772 34.85 27.0877 35.5781 28.2656 35.5781C29.8164 35.5781 31.0781 34.3164 31.0781 32.7656C31.0781 31.2148 29.8164 29.9531 28.2656 29.9531Z" fill="#49A3C9"></path>
    <path d="M33.1875 23.9766C32.7252 23.9766 32.289 24.0893 31.9039 24.2878L29.2924 22.1116C29.1028 21.9537 28.8639 21.8672 28.6172 21.8672H23.2031V23.9766H28.2353L30.525 25.8847C30.4283 26.1687 30.375 26.4727 30.375 26.7891C30.375 28.3399 31.6367 29.6016 33.1875 29.6016C34.7383 29.6016 36 28.3399 36 26.7891C36 25.2383 34.7383 23.9766 33.1875 23.9766Z" fill="#49A3C9"></path>
    <path d="M33.1875 15.1875C32.0096 15.1875 30.9991 15.9157 30.5809 16.9453H23.2031V19.0547H30.5809C30.9991 20.0843 32.0096 20.8125 33.1875 20.8125C34.7383 20.8125 36 19.5508 36 18C36 16.4492 34.7383 15.1875 33.1875 15.1875Z" fill="#49A3C9"></path>
    <path d="M29.2924 13.8883L31.9039 11.7121C32.289 11.9107 32.7252 12.0234 33.1875 12.0234C34.7383 12.0234 36 10.7618 36 9.21094C36 7.66013 34.7383 6.39844 33.1875 6.39844C31.6367 6.39844 30.375 7.66013 30.375 9.21094C30.375 9.52734 30.4283 9.8313 30.525 10.1153L28.2353 12.0234H23.2031V14.1328H28.6172C28.8639 14.1328 29.1028 14.0463 29.2924 13.8883Z" fill="#49A3C9"></path>
    <path d="M28.2656 6.04688C29.8164 6.04688 31.0781 4.78519 31.0781 3.23438C31.0781 1.68356 29.8164 0.421875 28.2656 0.421875C27.0877 0.421875 26.0772 1.15003 25.6591 2.17969H23.2031V4.28906H25.6591C26.0772 5.31872 27.0877 6.04688 28.2656 6.04688Z" fill="#49A3C9"></path>
    <path d="M10.5469 18C10.5469 22.0709 13.8588 25.3828 17.9297 25.3828C19.0614 25.3828 20.1342 25.1265 21.0938 24.6695V11.3305C20.1342 10.8735 19.0614 10.6172 17.9297 10.6172C13.8588 10.6172 10.5469 13.9291 10.5469 18Z" fill="#49A3C9"></path>
    <path d="M20.0391 0.0703125H15.8203C15.2378 0.0703125 14.7656 0.542531 14.7656 1.125V2.49785C12.7865 2.90102 10.8926 3.68564 9.20559 4.80122L8.23458 3.83027C7.82269 3.41838 7.15493 3.41838 6.74304 3.83027L3.75996 6.81335C3.34807 7.22517 3.34807 7.893 3.75996 8.30489L4.73091 9.27591C3.61533 10.9629 2.83071 12.8569 2.42754 14.8359H1.05469C0.472219 14.8359 0 15.3082 0 15.8906V20.1094C0 20.6918 0.472219 21.1641 1.05469 21.1641H2.42754C2.83071 23.1431 3.61533 25.0371 4.73091 26.7242L3.75989 27.6952C3.5621 27.893 3.45101 28.1612 3.45101 28.4409C3.45101 28.7206 3.5621 28.9888 3.75989 29.1866L6.74304 32.1697C7.15493 32.5816 7.82269 32.5816 8.23458 32.1697L9.20559 31.1988C10.8926 32.3144 12.7865 33.0989 14.7656 33.5021V34.875C14.7656 35.4575 15.2378 35.9297 15.8203 35.9297H20.0391C20.6215 35.9297 21.0938 35.4575 21.0938 34.875V26.9492C20.1036 27.3004 19.0387 27.4922 17.9297 27.4922C12.6957 27.4922 8.4375 23.234 8.4375 18C8.4375 12.766 12.6957 8.50781 17.9297 8.50781C19.0387 8.50781 20.1036 8.69963 21.0938 9.05077V1.125C21.0938 0.542531 20.6215 0.0703125 20.0391 0.0703125Z" fill="#49A3C9"></path>
  </g>
  <defs>
    <clipPath id="clip0_8345_187">
      <rect width="36" height="36" fill="white"></rect>
    </clipPath>
  </defs>
</svg>