<svg width="36" height="36" viewBox="0 0 36 36" fill="none" xmlns="http://www.w3.org/2000/svg">
<g clip-path="url(#clip0_3658_9742)">
<path d="M21.0086 22.0565C20.113 22.6536 19.0726 22.9693 18 22.9693C16.9275 22.9693 15.8871 22.6536 14.9915 22.0565L0.239695 12.2217C0.157852 12.1672 0.0781172 12.1103 0 12.0518V28.1672C0 30.0149 1.49941 31.4812 3.31404 31.4812H32.6859C34.5336 31.4812 35.9999 29.9818 35.9999 28.1672V12.0517C35.9217 12.1103 35.8418 12.1674 35.7597 12.222L21.0086 22.0565Z" fill="black"/>
<path d="M1.40977 10.4666L16.1615 20.3015C16.72 20.6738 17.3599 20.8599 17.9999 20.8599C18.64 20.8599 19.28 20.6737 19.8385 20.3015L34.5902 10.4666C35.473 9.87842 36 8.89404 36 7.83162C36 6.00483 34.5138 4.51871 32.6871 4.51871H3.31291C1.4862 4.51878 0 6.0049 0 7.83338C0 8.89404 0.527062 9.87842 1.40977 10.4666Z" fill="black"/>
</g>
<defs>
<clipPath id="clip0_3658_9742">
<rect width="36" height="36" fill="white"/>
</clipPath>
</defs>
</svg>
