<svg width="113" height="38" viewBox="0 0 113 38" fill="none" xmlns="http://www.w3.org/2000/svg">
<path d="M21.8 5.5C21.7 5.1 21.5 4.6 21.3 4.2C20.5 2.7 19.4 2 18 2H17.7L17.6 1.9C17.3 1.6 17 1.3 16.6 1.2C16.2 1 15.8 1 15.4 1C13.6 1 11.9 2.3 10.5 4.6C9.4 6 8.6 8 8.4 9.6L5 10.7C3.9 11 3.9 11 3.8 12L1 33.3L23.2 37.1V5.1C23.1 5.1 23 5.1 22.9 5.1L21.8 5.5ZM17.2 3.3C17.7 4.3 17.8 5.7 17.8 6.7L14 7.8C14.3 6.5 15 5.2 15.9 4.2C16.2 3.9 16.7 3.5 17.2 3.3ZM15.4 2.1C15.8 2.1 16.2 2.2 16.5 2.4C16 2.6 15.6 3 15.1 3.5C13.9 4.9 13.1 6.6 12.8 8.4L9.7 9.2C10.3 6.4 12.7 2.1 15.4 2.1ZM11.9 18.1C12 20 17 20.4 17.3 24.8C17.5 28.3 15.5 30.6 12.5 30.8C8.9 31.1 7 29 7 29L7.8 25.8C7.8 25.8 9.8 27.3 11.4 27.2C11.6 27.2 11.8 27.2 11.9 27.1C12.1 27 12.2 26.9 12.4 26.8C12.5 26.7 12.6 26.5 12.7 26.3C12.8 26.1 12.8 25.9 12.8 25.7C12.6 23.3 8.6 23.4 8.3 19.4C8.1 16 10.3 12.6 15.2 12.3C17.1 12.2 18.1 12.7 18.1 12.7L17 16.9C17 16.9 15.7 16.3 14.3 16.4C11.9 16.4 11.9 17.8 11.9 18.1ZM18.9 6.3C18.9 5.2 18.7 4.1 18.4 3.1C19.7 3.4 20.4 4.9 20.7 5.8L18.9 6.3Z" fill="black"/>
<path d="M28.9999 7.7C28.8999 7.6 28.8999 7.6 28.7999 7.6H26.0999L23.8999 5.5V37L33.0999 34.7L29.0999 7.8C29.0999 7.8 29.0999 7.7 28.9999 7.7Z" fill="black"/>
<path d="M54.5835 15.6334C54.5835 14.1068 53.67 12.6768 51.4806 12.6768C47.6849 12.6768 45 17.7653 45 21.6609C45 24.2511 46.0787 26.7319 49.1835 26.7319C50.4625 26.7574 51.7235 26.4037 52.8112 25.7139L52.4496 24.7576C51.5292 25.3456 50.4647 25.6585 49.3777 25.6607C47.9643 25.6607 46.9394 24.895 46.4702 23.3696C46.2311 22.2574 46.1923 21.1149 46.3596 19.9906C50.7015 20.024 54.5803 19.0698 54.5803 15.6301L54.5835 15.6334ZM51.2606 13.7455C52.5115 13.7455 53.3374 14.4222 53.3374 15.6614V15.6893C53.3374 18.3664 50.0145 18.9559 46.5512 18.9285C47.3771 15.9993 49.2113 13.7455 51.2606 13.7455ZM65.5524 12.9563H64.1411L61.3889 16.4781C60.7506 17.267 60.4476 17.7504 59.8873 18.5621H59.8306C59.5258 17.8571 59.2777 17.1521 58.9729 16.3663L57.5864 12.9569H56.3134L59.0656 19.5721L53.5613 26.4724H54.9747L57.9779 22.6406C58.4951 21.9636 58.9759 21.2586 59.4182 20.5287H59.472C59.8037 21.4853 59.9949 22.0222 60.3834 22.9232L61.7968 26.4724H63.0967L60.2848 19.5776L65.547 12.9563H65.5524ZM72.7809 12.6768C71.0095 12.6768 69.3457 13.8315 68.1444 15.6893H68.0906L68.506 12.9566H67.3705C67.2061 14.1964 66.9551 15.8312 66.6204 17.6058L63.9758 32H65.1681L66.223 26.1688H66.2798C67.1045 26.5912 68.0189 26.7978 68.9393 26.7613C73.1796 26.7613 76.2544 21.6351 76.2544 17.074C76.2515 14.8497 75.3102 12.6801 72.7881 12.6801L72.7809 12.6768ZM69.0427 25.6884C67.9621 25.6884 67.0764 25.4064 66.4683 24.9257L67.3241 20.2692C68.0748 16.1852 70.5365 13.7354 72.4209 13.7354C74.3871 13.7354 74.9979 15.5395 74.9979 17.1448C74.9979 20.6202 72.561 25.6887 69.043 25.6887L69.0427 25.6884ZM84.028 12.6768C80.2324 12.6768 77.5475 17.7653 77.5475 21.6609C77.5475 24.2511 78.6283 26.7319 81.731 26.7319C83.0117 26.7574 84.2721 26.4037 85.3587 25.7139L84.9986 24.7576C84.0771 25.3455 83.0115 25.6577 81.9237 25.6583C80.5097 25.6583 79.4862 24.8956 79.0162 23.3702C78.7771 22.2641 78.7389 21.1215 78.9032 20.0033C83.252 20.0307 87.1298 19.0765 87.1298 15.6367C87.128 14.1174 86.2148 12.6801 84.028 12.6801V12.6768ZM85.8822 15.6893C85.8822 18.3664 82.5593 18.9559 79.0966 18.9285C79.9273 15.9993 81.7561 13.7455 83.8054 13.7455C85.0566 13.7455 85.8822 14.4222 85.8822 15.6614V15.6893ZM90.8965 15.916H90.8412C91.0064 14.7324 91.1191 13.8315 91.2016 12.9594H90.1228C90.0122 14.1423 89.818 15.6638 89.4863 17.3812L87.798 26.4799H88.9903L90.2633 19.6101C90.8161 16.6535 92.7674 13.977 94.5036 13.977C94.653 13.9679 94.7994 13.977 94.9458 14.0044L95.1968 12.7099C95.0594 12.7099 94.8651 12.6795 94.6978 12.6795C93.0363 12.6734 91.7096 14.1077 90.9057 15.9127L90.8965 15.916ZM98.8729 25.661C98.0422 25.661 97.6818 25.1824 97.6818 24.3884C97.7018 23.6018 97.7948 22.8189 97.9597 22.0502L99.421 13.9998H102.551L102.775 12.9566H99.6493L100.232 10L98.9052 10.5348L98.463 12.9566H96.5236L96.3323 14.0019H98.2448L96.7447 22.0575C96.5535 22.8688 96.4519 23.7014 96.4399 24.537C96.4399 25.6644 97.0525 26.734 98.6303 26.734C99.0726 26.734 99.5088 26.6671 99.9332 26.5395L99.8513 25.555C99.5375 25.6461 99.2118 25.6856 98.8843 25.6674L98.8729 25.661ZM107.625 13.7455C108.291 13.7614 108.941 13.9553 109.51 14.3076L109.952 13.2644C109.565 12.9539 108.679 12.674 107.763 12.674C105.408 12.674 103.72 14.3939 103.72 16.5058C103.72 17.779 104.44 18.9854 105.769 19.8575C107.02 20.6749 107.571 21.4923 107.571 22.8414C107.571 24.3912 106.379 25.6583 104.635 25.6583C103.801 25.6553 102.989 25.3878 102.308 24.8956L101.838 25.9135C102.281 26.2812 103.339 26.7309 104.525 26.7309C106.823 26.7309 108.778 25.239 108.778 22.5041C108.778 21.1246 108.001 19.8878 106.728 19.0127C105.646 18.25 104.926 17.5481 104.926 16.2809C104.935 14.9044 106.017 13.7497 107.624 13.7497L107.625 13.7455Z" fill="black"/>
</svg>
