<svg xmlns="http://www.w3.org/2000/svg" width="35" height="35" viewBox="0 0 35 35" fill="none">
  <g clip-path="url(#clip0_7685_263)">
    <path d="M25.7702 0H9.22645C4.05323 0 0 4.05435 0 9.22871V25.7724C0 30.9468 4.05323 35 9.22645 35H25.7702C30.9456 35 35 30.9468 35 25.7713V9.22871C35 4.05435 30.9456 0 25.7702 0ZM32.7419 25.7713C32.7419 29.7444 29.7455 32.7408 25.7702 32.7408H9.22645C5.25339 32.7408 2.25806 29.7455 2.25806 25.7713V9.22871C2.25806 5.25452 5.25339 2.25806 9.22645 2.25806H25.7702C29.7455 2.25806 32.7419 5.25452 32.7419 9.22871V25.7713Z" fill="#1877F2"></path>
    <path d="M21.7897 33V22.9655H25.3263L25.8568 19.0537H21.7897V16.5566C21.7897 15.4244 22.1186 14.6528 23.8259 14.6528L26 14.652V11.1532C25.624 11.1066 24.3334 11 22.8313 11C19.6947 11 17.5473 12.8227 17.5473 16.1692V19.0537H14V22.9655H17.5473V33H21.7897Z" fill="#1877F2"></path>
  </g>
  <defs>
    <clipPath id="clip0_7685_263">
      <rect width="35" height="35" fill="white"></rect>
    </clipPath>
  </defs>
</svg>