<svg xmlns="http://www.w3.org/2000/svg" width="36" height="36" viewBox="0 0 36 36" fill="none">
  <g clip-path="url(#clip0_8345_155)">
    <path d="M16.9449 2.47266C12.8793 2.70602 9.06663 4.28587 6.02344 6.99804L10.7299 11.7045C12.501 10.23 14.6516 9.33888 16.9449 9.12935V2.47266Z" fill="#49A3C9"></path>
    <path d="M9.23849 13.1946L4.53212 8.48828C1.81764 11.5306 0.23582 15.3435 0.000976562 19.4101H6.65795C6.86889 17.1165 7.76186 14.9657 9.23849 13.1946Z" fill="#49A3C9"></path>
    <path d="M29.3423 19.4101H35.9992C35.7644 15.3435 34.1826 11.5306 31.4681 8.48828L26.7617 13.1946C28.2384 14.9656 29.1313 17.1165 29.3423 19.4101Z" fill="#49A3C9"></path>
    <path d="M29.3408 21.5195C29.1929 23.144 28.7294 24.4989 28.1811 25.5857C28.7159 26.4105 29.1619 27.1076 29.4565 27.5706C30.2587 28.8314 30.0811 30.4499 29.0245 31.5066C28.7679 31.7631 28.4748 31.9699 28.1572 32.1227L29.2533 33.2188C29.4596 33.4251 29.73 33.5283 30.0004 33.5283C30.2708 33.5283 30.5412 33.4251 30.7474 33.2188C33.9061 30.0605 35.748 25.9391 36 21.5195H29.3408Z" fill="#49A3C9"></path>
    <path d="M6.6593 21.5195H0C0.25207 25.9391 2.09391 30.0605 5.25255 33.2189C5.45885 33.4252 5.7292 33.5283 5.99956 33.5283C6.26991 33.5283 6.54033 33.4251 6.74663 33.2189L9.94669 30.0186C10.3592 29.606 10.3592 28.9371 9.94669 28.5245C9.11159 27.6894 7.00805 25.3514 6.6593 21.5195Z" fill="#49A3C9"></path>
    <path d="M29.9761 6.99804C26.9329 4.2858 23.1203 2.70602 19.0547 2.47266V9.12935C21.3479 9.33888 23.4985 10.23 25.2697 11.7045L29.9761 6.99804Z" fill="#49A3C9"></path>
    <path d="M20.3433 18.139C19.0512 16.8469 16.9487 16.8469 15.6566 18.139C14.3645 19.4312 14.3645 21.5336 15.6566 22.8258C17.289 24.4581 25.3113 29.5804 26.2207 30.1591C26.6377 30.4245 27.1831 30.3646 27.5327 30.0151C27.8823 29.6656 27.9422 29.1201 27.6767 28.7031C27.098 27.7937 21.9757 19.7713 20.3433 18.139Z" fill="#49A3C9"></path>
  </g>
  <defs>
    <clipPath id="clip0_8345_155">
      <rect width="36" height="36" fill="white"></rect>
    </clipPath>
  </defs>
</svg>