<svg width="100%" height="147" viewBox="0 0 213 147" fill="none" xmlns="http://www.w3.org/2000/svg">
<mask id="path-1-outside-1_3369_8818" maskUnits="userSpaceOnUse" x="0" y="123" width="213" height="24" fill="black">
<rect fill="white" y="123" width="213" height="24"/>
<path d="M16.6941 143.38L20.6269 131.343C20.7258 131.066 20.8495 130.87 20.9979 130.757C21.1463 130.643 21.3009 130.586 21.4617 130.586C21.6595 130.586 21.8327 130.668 21.9811 130.832C22.1419 130.984 22.2222 131.192 22.2222 131.457C22.2222 131.646 22.1975 131.785 22.148 131.873L17.77 144.156C17.6464 144.484 17.4856 144.736 17.2877 144.913C17.1022 145.09 16.9043 145.178 16.6941 145.178C16.4591 145.178 16.2612 145.102 16.1004 144.951C15.9397 144.787 15.7974 144.522 15.6738 144.156L11.6111 132.327L7.54847 144.156C7.41243 144.522 7.25784 144.787 7.0847 144.951C6.91156 145.102 6.72605 145.178 6.52817 145.178C6.04585 145.178 5.6872 144.837 5.45222 144.156L1.0742 131.873C1.02473 131.785 1 131.646 1 131.457C1 131.192 1.0742 130.984 1.22261 130.832C1.38339 130.668 1.56271 130.586 1.76059 130.586C1.92136 130.586 2.07595 130.643 2.22436 130.757C2.37277 130.87 2.49644 131.066 2.59538 131.343L6.52817 143.38L10.461 131.608C10.6836 130.927 11.0608 130.586 11.5926 130.586C11.8275 130.586 12.0502 130.675 12.2604 130.851C12.483 131.015 12.65 131.268 12.7613 131.608L16.6941 143.38Z"/>
<path d="M35.4023 131.324C34.2521 131.324 33.2318 131.425 32.3414 131.627C31.451 131.829 30.6904 132.157 30.0596 132.611C29.4413 133.053 28.9589 133.627 28.6127 134.334C28.2664 135.04 28.0685 135.904 28.019 136.926H42.0064V135.904C42.0064 135.274 41.8889 134.681 41.654 134.125C41.4313 133.57 41.0603 133.084 40.5409 132.668C40.0215 132.252 39.3413 131.924 38.5003 131.684C37.6593 131.444 36.6267 131.324 35.4023 131.324ZM34.4377 144.156C35.6125 144.156 36.639 144.08 37.5171 143.929C38.3952 143.778 39.1496 143.595 39.7803 143.38C40.411 143.166 40.9243 142.945 41.32 142.718C41.7282 142.491 42.0435 142.301 42.2661 142.15C42.3403 142.125 42.3898 142.112 42.4145 142.112C42.5506 142.112 42.6743 142.181 42.7856 142.32C42.9092 142.446 42.9711 142.585 42.9711 142.737C42.9711 142.875 42.9092 142.989 42.7856 143.077C42.6743 143.191 42.4331 143.368 42.0621 143.607C41.7034 143.847 41.184 144.093 40.5038 144.345C39.8236 144.585 38.9826 144.8 37.9809 144.989C36.9791 145.178 35.7919 145.273 34.4191 145.273C32.9845 145.273 31.7663 145.09 30.7646 144.724C29.7628 144.358 28.9466 143.847 28.3158 143.191C27.6851 142.535 27.2275 141.746 26.9431 140.825C26.6586 139.904 26.5164 138.895 26.5164 137.797C26.5164 136.333 26.7452 135.116 27.2028 134.144C27.6604 133.173 28.2849 132.397 29.0764 131.816C29.8803 131.223 30.8202 130.807 31.8962 130.567C32.9845 130.328 34.1532 130.208 35.4023 130.208C37.9747 130.208 39.8978 130.712 41.1716 131.722C42.4578 132.719 43.1009 134.151 43.1009 136.018C43.1009 136.195 43.0886 136.39 43.0638 136.605C43.0391 136.819 43.002 137.027 42.9525 137.229C42.9154 137.418 42.8659 137.582 42.8041 137.721C42.7546 137.847 42.7052 137.911 42.6557 137.911H37.2017L28.0005 137.721C28.0252 138.895 28.1736 139.891 28.4457 140.712C28.7302 141.519 29.1383 142.181 29.6701 142.699C30.2142 143.203 30.8821 143.576 31.6736 143.815C32.4651 144.043 33.3864 144.156 34.4377 144.156Z"/>
<path d="M58.3958 130.208C59.5088 130.208 60.5601 130.328 61.5494 130.567C62.5512 130.794 63.4231 131.192 64.1651 131.76C64.9195 132.327 65.5132 133.084 65.946 134.031C66.3912 134.977 66.6138 136.163 66.6138 137.589C66.6138 139.002 66.4283 140.201 66.0573 141.185C65.6987 142.156 65.1669 142.945 64.4619 143.55C63.7694 144.156 62.9098 144.598 61.8834 144.875C60.8692 145.14 59.7067 145.273 58.3958 145.273C57.394 145.273 56.4727 145.21 55.6317 145.083C54.7907 144.957 54.024 144.8 53.3314 144.61C52.6512 144.408 52.039 144.188 51.4948 143.948C50.9507 143.708 50.4684 143.475 50.0479 143.248V143.702C50.0479 143.891 50.0417 144.068 50.0293 144.232C50.017 144.396 49.986 144.541 49.9366 144.667C49.8871 144.793 49.8129 144.894 49.714 144.97C49.615 145.046 49.4728 145.083 49.2873 145.083C49.1018 145.083 48.9596 145.046 48.8606 144.97C48.774 144.894 48.706 144.793 48.6566 144.667C48.6071 144.541 48.5762 144.396 48.5638 144.232C48.5638 144.068 48.5638 143.891 48.5638 143.702V124.927C48.5638 124.524 48.6442 124.271 48.805 124.17C48.9781 124.057 49.1574 124 49.3429 124C49.5285 124 49.6892 124.057 49.8253 124.17C49.9737 124.271 50.0479 124.524 50.0479 124.927V133.974C50.1839 133.444 50.4251 132.984 50.7714 132.592C51.1176 132.189 51.5258 131.848 51.9957 131.57C52.478 131.293 53.0037 131.066 53.5725 130.889C54.1414 130.712 54.7103 130.574 55.2792 130.473C55.8605 130.372 56.417 130.302 56.9488 130.264C57.493 130.227 57.9753 130.208 58.3958 130.208ZM58.3958 131.324C57.6537 131.337 56.8437 131.4 55.9656 131.514C55.0875 131.615 54.2466 131.804 53.4427 132.081C52.6388 132.359 51.9277 132.744 51.3093 133.236C50.691 133.728 50.2705 134.371 50.0479 135.166V142.434C50.5797 142.636 51.1486 142.844 51.7546 143.058C52.3729 143.26 53.0284 143.443 53.721 143.607C54.4135 143.771 55.1494 143.904 55.9285 144.005C56.7076 144.106 57.5301 144.156 58.3958 144.156C59.583 144.156 60.5972 144.03 61.4381 143.778C62.2915 143.525 62.9902 143.134 63.5344 142.604C64.0909 142.062 64.4929 141.38 64.7402 140.56C64.9999 139.727 65.1298 138.737 65.1298 137.589C65.1298 136.403 64.9504 135.406 64.5918 134.599C64.2455 133.791 63.7694 133.148 63.1634 132.668C62.5574 132.189 61.8401 131.848 61.0115 131.646C60.1952 131.432 59.3233 131.324 58.3958 131.324Z"/>
<path d="M80.9441 131.324C79.5218 131.324 78.3098 131.444 77.3081 131.684C76.3063 131.924 75.4839 132.308 74.8408 132.838C74.2101 133.356 73.7463 134.024 73.4495 134.845C73.1527 135.665 73.0043 136.649 73.0043 137.797C73.0043 138.958 73.165 139.942 73.4866 140.749C73.8205 141.557 74.3152 142.213 74.9706 142.718C75.6385 143.222 76.4671 143.588 77.4565 143.815C78.4459 144.043 79.6022 144.156 80.9255 144.156C81.5191 144.156 82.1189 144.112 82.7249 144.024C83.3433 143.935 83.9307 143.828 84.4873 143.702C85.0438 143.563 85.557 143.412 86.027 143.248C86.497 143.084 86.8803 142.926 87.1772 142.775C87.3627 142.711 87.4925 142.68 87.5667 142.68C87.7275 142.68 87.8512 142.73 87.9377 142.831C88.0367 142.92 88.0862 143.033 88.0862 143.172C88.0862 143.273 88.0552 143.38 87.9934 143.494C87.9316 143.595 87.8326 143.683 87.6966 143.759C86.6083 144.326 85.4828 144.724 84.3203 144.951C83.1578 145.165 82.0324 145.273 80.9441 145.273C79.5342 145.273 78.248 145.159 77.0855 144.932C75.9353 144.705 74.9459 144.308 74.1173 143.74C73.3011 143.172 72.6642 142.409 72.2066 141.45C71.749 140.491 71.5202 139.273 71.5202 137.797C71.5202 136.333 71.7304 135.116 72.1509 134.144C72.5714 133.173 73.1836 132.397 73.9875 131.816C74.7913 131.223 75.7745 130.807 76.937 130.567C78.1119 130.328 79.4476 130.208 80.9441 130.208C82.0324 130.208 83.1578 130.321 84.3203 130.548C85.4828 130.763 86.6083 131.154 87.6966 131.722C87.8326 131.797 87.9316 131.892 87.9934 132.006C88.0552 132.107 88.0862 132.208 88.0862 132.308C88.0862 132.447 88.0367 132.567 87.9377 132.668C87.8512 132.756 87.7275 132.801 87.5667 132.801C87.4925 132.801 87.3627 132.769 87.1772 132.706C86.8803 132.555 86.497 132.397 86.027 132.233C85.557 132.069 85.0438 131.924 84.4873 131.797C83.9307 131.659 83.3433 131.545 82.7249 131.457C82.1189 131.368 81.5253 131.324 80.9441 131.324Z"/>
<path d="M102.027 145.273C100.32 145.273 98.8793 145.102 97.7044 144.762C96.5295 144.408 95.5773 143.91 94.8476 143.267C94.1303 142.623 93.6109 141.841 93.2893 140.92C92.9678 139.999 92.807 138.958 92.807 137.797C92.807 136.46 92.9863 135.318 93.345 134.371C93.716 133.412 94.2787 132.624 95.0331 132.006C95.7999 131.387 96.7583 130.933 97.9085 130.643C99.071 130.353 100.444 130.208 102.027 130.208C103.61 130.208 104.976 130.353 106.127 130.643C107.289 130.933 108.248 131.387 109.002 132.006C109.769 132.624 110.331 133.412 110.69 134.371C111.061 135.318 111.247 136.46 111.247 137.797C111.247 138.958 111.086 139.999 110.764 140.92C110.443 141.841 109.917 142.623 109.187 143.267C108.47 143.91 107.524 144.408 106.349 144.762C105.174 145.102 103.733 145.273 102.027 145.273ZM102.027 144.156C103.152 144.156 104.123 144.074 104.939 143.91C105.756 143.733 106.448 143.494 107.017 143.191C107.598 142.888 108.062 142.535 108.408 142.131C108.767 141.727 109.045 141.292 109.243 140.825C109.453 140.346 109.589 139.854 109.651 139.349C109.725 138.832 109.763 138.314 109.763 137.797C109.763 136.624 109.614 135.627 109.317 134.807C109.02 133.987 108.557 133.318 107.926 132.801C107.295 132.283 106.491 131.911 105.514 131.684C104.537 131.444 103.375 131.324 102.027 131.324C100.666 131.324 99.4977 131.444 98.5207 131.684C97.556 131.911 96.7583 132.283 96.1276 132.801C95.4969 133.318 95.0331 133.987 94.7363 134.807C94.4395 135.627 94.2911 136.624 94.2911 137.797C94.2911 138.314 94.322 138.832 94.3838 139.349C94.458 139.854 94.5941 140.346 94.7919 140.825C95.0022 141.292 95.2804 141.727 95.6267 142.131C95.9854 142.535 96.4492 142.888 97.018 143.191C97.5993 143.494 98.298 143.733 99.1143 143.91C99.9305 144.074 100.901 144.156 102.027 144.156Z"/>
<path d="M133.294 143.721C133.294 143.885 133.282 144.049 133.257 144.213C133.232 144.377 133.189 144.522 133.127 144.648C133.078 144.774 133.003 144.882 132.904 144.97C132.805 145.046 132.682 145.083 132.533 145.083C132.348 145.083 132.206 145.046 132.107 144.97C132.02 144.882 131.952 144.774 131.903 144.648C131.853 144.522 131.822 144.377 131.81 144.213C131.81 144.049 131.81 143.885 131.81 143.721V137.172C131.81 136.188 131.736 135.33 131.587 134.599C131.451 133.867 131.173 133.261 130.753 132.782C130.344 132.29 129.769 131.924 129.027 131.684C128.298 131.444 127.339 131.324 126.152 131.324C125.422 131.324 124.649 131.387 123.833 131.514C123.017 131.627 122.238 131.835 121.496 132.138C120.754 132.428 120.098 132.819 119.529 133.312C118.96 133.804 118.565 134.422 118.342 135.166V143.721C118.342 143.885 118.336 144.049 118.323 144.213C118.311 144.377 118.28 144.522 118.231 144.648C118.181 144.774 118.107 144.882 118.008 144.97C117.921 145.046 117.804 145.083 117.656 145.083C117.482 145.083 117.34 145.046 117.229 144.97C117.13 144.882 117.05 144.774 116.988 144.648C116.938 144.522 116.901 144.377 116.876 144.213C116.864 144.049 116.858 143.885 116.858 143.721V131.457C116.858 131.242 116.901 131.047 116.988 130.87C117.074 130.681 117.291 130.586 117.637 130.586C117.946 130.586 118.138 130.675 118.212 130.851C118.299 131.015 118.342 131.217 118.342 131.457V133.841C118.688 133.034 119.171 132.39 119.789 131.911C120.407 131.419 121.081 131.053 121.811 130.813C122.553 130.561 123.301 130.397 124.056 130.321C124.822 130.246 125.521 130.208 126.152 130.208C127.488 130.208 128.607 130.328 129.51 130.567C130.425 130.794 131.161 131.179 131.717 131.722C132.286 132.264 132.688 132.984 132.923 133.879C133.17 134.763 133.294 135.86 133.294 137.172V143.721Z"/>
<path d="M147.253 130.87C147.439 130.87 147.575 130.921 147.661 131.022C147.76 131.11 147.81 131.211 147.81 131.324C147.81 131.438 147.76 131.545 147.661 131.646C147.575 131.734 147.439 131.779 147.253 131.779H141.094V139.803C141.094 140.724 141.187 141.469 141.373 142.036C141.558 142.604 141.805 143.046 142.115 143.361C142.436 143.677 142.807 143.891 143.228 144.005C143.66 144.106 144.118 144.156 144.6 144.156C145.194 144.156 145.775 144.049 146.344 143.834C146.913 143.62 147.569 143.311 148.311 142.907C148.459 142.831 148.601 142.793 148.737 142.793C148.898 142.793 149.022 142.844 149.108 142.945C149.207 143.033 149.257 143.147 149.257 143.286C149.257 143.538 149.121 143.74 148.849 143.891C148.329 144.181 147.865 144.415 147.457 144.591C147.061 144.768 146.69 144.907 146.344 145.008C146.01 145.109 145.683 145.178 145.361 145.216C145.039 145.254 144.699 145.273 144.341 145.273C143.673 145.273 143.048 145.178 142.467 144.989C141.898 144.8 141.397 144.497 140.964 144.08C140.544 143.651 140.21 143.09 139.963 142.396C139.728 141.689 139.61 140.825 139.61 139.803V131.779H137.978C137.805 131.779 137.675 131.734 137.588 131.646C137.502 131.545 137.458 131.438 137.458 131.324C137.458 131.211 137.502 131.11 137.588 131.022C137.675 130.921 137.805 130.87 137.978 130.87H139.61V126.158C139.61 125.754 139.691 125.501 139.851 125.401C140.012 125.287 140.179 125.23 140.352 125.23C140.562 125.23 140.736 125.287 140.872 125.401C141.02 125.501 141.094 125.754 141.094 126.158V130.87H147.253Z"/>
<path d="M163.68 130.662C163.816 130.7 163.915 130.775 163.976 130.889C164.038 130.99 164.069 131.104 164.069 131.23C164.069 131.394 164.014 131.545 163.902 131.684C163.803 131.823 163.649 131.892 163.438 131.892C163.377 131.892 163.34 131.892 163.327 131.892C163.315 131.879 163.278 131.867 163.216 131.854C162.734 131.715 162.27 131.608 161.825 131.533C161.392 131.457 160.916 131.419 160.396 131.419C159.666 131.419 158.968 131.495 158.3 131.646C157.644 131.785 157.045 132.006 156.5 132.308C155.969 132.599 155.505 132.977 155.109 133.444C154.713 133.898 154.417 134.434 154.219 135.053V143.759C154.219 144.087 154.175 144.39 154.089 144.667C154.002 144.945 153.804 145.083 153.495 145.083C153.322 145.083 153.18 145.046 153.069 144.97C152.97 144.894 152.895 144.793 152.846 144.667C152.796 144.541 152.766 144.402 152.753 144.251C152.741 144.087 152.735 143.923 152.735 143.759V131.646C152.735 131.356 152.784 131.11 152.883 130.908C152.982 130.693 153.211 130.586 153.569 130.586C153.841 130.586 154.015 130.687 154.089 130.889C154.175 131.091 154.219 131.343 154.219 131.646V133.841C154.417 133.072 154.757 132.447 155.239 131.968C155.734 131.488 156.278 131.122 156.871 130.87C157.477 130.605 158.096 130.429 158.727 130.34C159.357 130.252 159.914 130.208 160.396 130.208C160.866 130.208 161.268 130.227 161.602 130.264C161.948 130.29 162.245 130.328 162.492 130.378C162.74 130.416 162.956 130.46 163.142 130.511C163.327 130.561 163.506 130.611 163.68 130.662Z"/>
<path d="M169.885 143.891C169.885 144.055 169.878 144.213 169.866 144.364C169.854 144.503 169.823 144.629 169.773 144.743C169.736 144.844 169.668 144.926 169.569 144.989C169.47 145.052 169.328 145.083 169.143 145.083C168.796 145.083 168.586 144.976 168.512 144.762C168.438 144.547 168.4 144.257 168.4 143.891V131.741C168.4 131.425 168.444 131.154 168.53 130.927C168.617 130.7 168.833 130.586 169.18 130.586C169.489 130.586 169.68 130.7 169.755 130.927C169.841 131.154 169.885 131.413 169.885 131.703V143.891ZM168.159 126.309C168.159 126.019 168.252 125.779 168.438 125.59C168.623 125.388 168.858 125.287 169.143 125.287C169.427 125.287 169.668 125.388 169.866 125.59C170.064 125.779 170.163 126.019 170.163 126.309C170.163 126.599 170.064 126.833 169.866 127.009C169.668 127.186 169.427 127.274 169.143 127.274C168.858 127.274 168.623 127.186 168.438 127.009C168.252 126.833 168.159 126.599 168.159 126.309Z"/>
<path d="M182.99 145.273C182.706 145.273 182.496 145.184 182.36 145.008C182.224 144.831 182.118 144.673 182.044 144.535L174.809 131.93C174.735 131.804 174.686 131.69 174.661 131.589C174.636 131.476 174.624 131.368 174.624 131.268C174.624 131.053 174.686 130.889 174.809 130.775C174.933 130.649 175.082 130.586 175.255 130.586C175.391 130.586 175.533 130.637 175.681 130.738C175.83 130.826 175.96 130.971 176.071 131.173L182.99 143.702L189.91 131.173C190.021 130.971 190.151 130.826 190.299 130.738C190.448 130.637 190.59 130.586 190.726 130.586C190.899 130.586 191.048 130.649 191.171 130.775C191.295 130.889 191.357 131.053 191.357 131.268C191.357 131.469 191.295 131.69 191.171 131.93L183.936 144.535C183.85 144.673 183.732 144.831 183.584 145.008C183.436 145.184 183.238 145.273 182.99 145.273Z"/>
<path d="M203.665 131.324C202.515 131.324 201.495 131.425 200.604 131.627C199.714 131.829 198.953 132.157 198.322 132.611C197.704 133.053 197.222 133.627 196.875 134.334C196.529 135.04 196.331 135.904 196.282 136.926H210.269V135.904C210.269 135.274 210.152 134.681 209.917 134.125C209.694 133.57 209.323 133.084 208.804 132.668C208.284 132.252 207.604 131.924 206.763 131.684C205.922 131.444 204.889 131.324 203.665 131.324ZM202.7 144.156C203.875 144.156 204.902 144.08 205.78 143.929C206.658 143.778 207.412 143.595 208.043 143.38C208.674 143.166 209.187 142.945 209.583 142.718C209.991 142.491 210.306 142.301 210.529 142.15C210.603 142.125 210.652 142.112 210.677 142.112C210.813 142.112 210.937 142.181 211.048 142.32C211.172 142.446 211.234 142.585 211.234 142.737C211.234 142.875 211.172 142.989 211.048 143.077C210.937 143.191 210.696 143.368 210.325 143.607C209.966 143.847 209.447 144.093 208.766 144.345C208.086 144.585 207.245 144.8 206.244 144.989C205.242 145.178 204.055 145.273 202.682 145.273C201.247 145.273 200.029 145.09 199.027 144.724C198.026 144.358 197.209 143.847 196.579 143.191C195.948 142.535 195.49 141.746 195.206 140.825C194.921 139.904 194.779 138.895 194.779 137.797C194.779 136.333 195.008 135.116 195.465 134.144C195.923 133.173 196.548 132.397 197.339 131.816C198.143 131.223 199.083 130.807 200.159 130.567C201.247 130.328 202.416 130.208 203.665 130.208C206.237 130.208 208.161 130.712 209.434 131.722C210.721 132.719 211.364 134.151 211.364 136.018C211.364 136.195 211.351 136.39 211.327 136.605C211.302 136.819 211.265 137.027 211.215 137.229C211.178 137.418 211.129 137.582 211.067 137.721C211.017 137.847 210.968 137.911 210.918 137.911H205.464L196.263 137.721C196.288 138.895 196.436 139.891 196.708 140.712C196.993 141.519 197.401 142.181 197.933 142.699C198.477 143.203 199.145 143.576 199.936 143.815C200.728 144.043 201.649 144.156 202.7 144.156Z"/>
</mask>
<path d="M16.6941 143.38L20.6269 131.343C20.7258 131.066 20.8495 130.87 20.9979 130.757C21.1463 130.643 21.3009 130.586 21.4617 130.586C21.6595 130.586 21.8327 130.668 21.9811 130.832C22.1419 130.984 22.2222 131.192 22.2222 131.457C22.2222 131.646 22.1975 131.785 22.148 131.873L17.77 144.156C17.6464 144.484 17.4856 144.736 17.2877 144.913C17.1022 145.09 16.9043 145.178 16.6941 145.178C16.4591 145.178 16.2612 145.102 16.1004 144.951C15.9397 144.787 15.7974 144.522 15.6738 144.156L11.6111 132.327L7.54847 144.156C7.41243 144.522 7.25784 144.787 7.0847 144.951C6.91156 145.102 6.72605 145.178 6.52817 145.178C6.04585 145.178 5.6872 144.837 5.45222 144.156L1.0742 131.873C1.02473 131.785 1 131.646 1 131.457C1 131.192 1.0742 130.984 1.22261 130.832C1.38339 130.668 1.56271 130.586 1.76059 130.586C1.92136 130.586 2.07595 130.643 2.22436 130.757C2.37277 130.87 2.49644 131.066 2.59538 131.343L6.52817 143.38L10.461 131.608C10.6836 130.927 11.0608 130.586 11.5926 130.586C11.8275 130.586 12.0502 130.675 12.2604 130.851C12.483 131.015 12.65 131.268 12.7613 131.608L16.6941 143.38Z" fill="black"/>
<path d="M35.4023 131.324C34.2521 131.324 33.2318 131.425 32.3414 131.627C31.451 131.829 30.6904 132.157 30.0596 132.611C29.4413 133.053 28.9589 133.627 28.6127 134.334C28.2664 135.04 28.0685 135.904 28.019 136.926H42.0064V135.904C42.0064 135.274 41.8889 134.681 41.654 134.125C41.4313 133.57 41.0603 133.084 40.5409 132.668C40.0215 132.252 39.3413 131.924 38.5003 131.684C37.6593 131.444 36.6267 131.324 35.4023 131.324ZM34.4377 144.156C35.6125 144.156 36.639 144.08 37.5171 143.929C38.3952 143.778 39.1496 143.595 39.7803 143.38C40.411 143.166 40.9243 142.945 41.32 142.718C41.7282 142.491 42.0435 142.301 42.2661 142.15C42.3403 142.125 42.3898 142.112 42.4145 142.112C42.5506 142.112 42.6743 142.181 42.7856 142.32C42.9092 142.446 42.9711 142.585 42.9711 142.737C42.9711 142.875 42.9092 142.989 42.7856 143.077C42.6743 143.191 42.4331 143.368 42.0621 143.607C41.7034 143.847 41.184 144.093 40.5038 144.345C39.8236 144.585 38.9826 144.8 37.9809 144.989C36.9791 145.178 35.7919 145.273 34.4191 145.273C32.9845 145.273 31.7663 145.09 30.7646 144.724C29.7628 144.358 28.9466 143.847 28.3158 143.191C27.6851 142.535 27.2275 141.746 26.9431 140.825C26.6586 139.904 26.5164 138.895 26.5164 137.797C26.5164 136.333 26.7452 135.116 27.2028 134.144C27.6604 133.173 28.2849 132.397 29.0764 131.816C29.8803 131.223 30.8202 130.807 31.8962 130.567C32.9845 130.328 34.1532 130.208 35.4023 130.208C37.9747 130.208 39.8978 130.712 41.1716 131.722C42.4578 132.719 43.1009 134.151 43.1009 136.018C43.1009 136.195 43.0886 136.39 43.0638 136.605C43.0391 136.819 43.002 137.027 42.9525 137.229C42.9154 137.418 42.8659 137.582 42.8041 137.721C42.7546 137.847 42.7052 137.911 42.6557 137.911H37.2017L28.0005 137.721C28.0252 138.895 28.1736 139.891 28.4457 140.712C28.7302 141.519 29.1383 142.181 29.6701 142.699C30.2142 143.203 30.8821 143.576 31.6736 143.815C32.4651 144.043 33.3864 144.156 34.4377 144.156Z" fill="black"/>
<path d="M58.3958 130.208C59.5088 130.208 60.5601 130.328 61.5494 130.567C62.5512 130.794 63.4231 131.192 64.1651 131.76C64.9195 132.327 65.5132 133.084 65.946 134.031C66.3912 134.977 66.6138 136.163 66.6138 137.589C66.6138 139.002 66.4283 140.201 66.0573 141.185C65.6987 142.156 65.1669 142.945 64.4619 143.55C63.7694 144.156 62.9098 144.598 61.8834 144.875C60.8692 145.14 59.7067 145.273 58.3958 145.273C57.394 145.273 56.4727 145.21 55.6317 145.083C54.7907 144.957 54.024 144.8 53.3314 144.61C52.6512 144.408 52.039 144.188 51.4948 143.948C50.9507 143.708 50.4684 143.475 50.0479 143.248V143.702C50.0479 143.891 50.0417 144.068 50.0293 144.232C50.017 144.396 49.986 144.541 49.9366 144.667C49.8871 144.793 49.8129 144.894 49.714 144.97C49.615 145.046 49.4728 145.083 49.2873 145.083C49.1018 145.083 48.9596 145.046 48.8606 144.97C48.774 144.894 48.706 144.793 48.6566 144.667C48.6071 144.541 48.5762 144.396 48.5638 144.232C48.5638 144.068 48.5638 143.891 48.5638 143.702V124.927C48.5638 124.524 48.6442 124.271 48.805 124.17C48.9781 124.057 49.1574 124 49.3429 124C49.5285 124 49.6892 124.057 49.8253 124.17C49.9737 124.271 50.0479 124.524 50.0479 124.927V133.974C50.1839 133.444 50.4251 132.984 50.7714 132.592C51.1176 132.189 51.5258 131.848 51.9957 131.57C52.478 131.293 53.0037 131.066 53.5725 130.889C54.1414 130.712 54.7103 130.574 55.2792 130.473C55.8605 130.372 56.417 130.302 56.9488 130.264C57.493 130.227 57.9753 130.208 58.3958 130.208ZM58.3958 131.324C57.6537 131.337 56.8437 131.4 55.9656 131.514C55.0875 131.615 54.2466 131.804 53.4427 132.081C52.6388 132.359 51.9277 132.744 51.3093 133.236C50.691 133.728 50.2705 134.371 50.0479 135.166V142.434C50.5797 142.636 51.1486 142.844 51.7546 143.058C52.3729 143.26 53.0284 143.443 53.721 143.607C54.4135 143.771 55.1494 143.904 55.9285 144.005C56.7076 144.106 57.5301 144.156 58.3958 144.156C59.583 144.156 60.5972 144.03 61.4381 143.778C62.2915 143.525 62.9902 143.134 63.5344 142.604C64.0909 142.062 64.4929 141.38 64.7402 140.56C64.9999 139.727 65.1298 138.737 65.1298 137.589C65.1298 136.403 64.9504 135.406 64.5918 134.599C64.2455 133.791 63.7694 133.148 63.1634 132.668C62.5574 132.189 61.8401 131.848 61.0115 131.646C60.1952 131.432 59.3233 131.324 58.3958 131.324Z" fill="black"/>
<path d="M80.9441 131.324C79.5218 131.324 78.3098 131.444 77.3081 131.684C76.3063 131.924 75.4839 132.308 74.8408 132.838C74.2101 133.356 73.7463 134.024 73.4495 134.845C73.1527 135.665 73.0043 136.649 73.0043 137.797C73.0043 138.958 73.165 139.942 73.4866 140.749C73.8205 141.557 74.3152 142.213 74.9706 142.718C75.6385 143.222 76.4671 143.588 77.4565 143.815C78.4459 144.043 79.6022 144.156 80.9255 144.156C81.5191 144.156 82.1189 144.112 82.7249 144.024C83.3433 143.935 83.9307 143.828 84.4873 143.702C85.0438 143.563 85.557 143.412 86.027 143.248C86.497 143.084 86.8803 142.926 87.1772 142.775C87.3627 142.711 87.4925 142.68 87.5667 142.68C87.7275 142.68 87.8512 142.73 87.9377 142.831C88.0367 142.92 88.0862 143.033 88.0862 143.172C88.0862 143.273 88.0552 143.38 87.9934 143.494C87.9316 143.595 87.8326 143.683 87.6966 143.759C86.6083 144.326 85.4828 144.724 84.3203 144.951C83.1578 145.165 82.0324 145.273 80.9441 145.273C79.5342 145.273 78.248 145.159 77.0855 144.932C75.9353 144.705 74.9459 144.308 74.1173 143.74C73.3011 143.172 72.6642 142.409 72.2066 141.45C71.749 140.491 71.5202 139.273 71.5202 137.797C71.5202 136.333 71.7304 135.116 72.1509 134.144C72.5714 133.173 73.1836 132.397 73.9875 131.816C74.7913 131.223 75.7745 130.807 76.937 130.567C78.1119 130.328 79.4476 130.208 80.9441 130.208C82.0324 130.208 83.1578 130.321 84.3203 130.548C85.4828 130.763 86.6083 131.154 87.6966 131.722C87.8326 131.797 87.9316 131.892 87.9934 132.006C88.0552 132.107 88.0862 132.208 88.0862 132.308C88.0862 132.447 88.0367 132.567 87.9377 132.668C87.8512 132.756 87.7275 132.801 87.5667 132.801C87.4925 132.801 87.3627 132.769 87.1772 132.706C86.8803 132.555 86.497 132.397 86.027 132.233C85.557 132.069 85.0438 131.924 84.4873 131.797C83.9307 131.659 83.3433 131.545 82.7249 131.457C82.1189 131.368 81.5253 131.324 80.9441 131.324Z" fill="black"/>
<path d="M102.027 145.273C100.32 145.273 98.8793 145.102 97.7044 144.762C96.5295 144.408 95.5773 143.91 94.8476 143.267C94.1303 142.623 93.6109 141.841 93.2893 140.92C92.9678 139.999 92.807 138.958 92.807 137.797C92.807 136.46 92.9863 135.318 93.345 134.371C93.716 133.412 94.2787 132.624 95.0331 132.006C95.7999 131.387 96.7583 130.933 97.9085 130.643C99.071 130.353 100.444 130.208 102.027 130.208C103.61 130.208 104.976 130.353 106.127 130.643C107.289 130.933 108.248 131.387 109.002 132.006C109.769 132.624 110.331 133.412 110.69 134.371C111.061 135.318 111.247 136.46 111.247 137.797C111.247 138.958 111.086 139.999 110.764 140.92C110.443 141.841 109.917 142.623 109.187 143.267C108.47 143.91 107.524 144.408 106.349 144.762C105.174 145.102 103.733 145.273 102.027 145.273ZM102.027 144.156C103.152 144.156 104.123 144.074 104.939 143.91C105.756 143.733 106.448 143.494 107.017 143.191C107.598 142.888 108.062 142.535 108.408 142.131C108.767 141.727 109.045 141.292 109.243 140.825C109.453 140.346 109.589 139.854 109.651 139.349C109.725 138.832 109.763 138.314 109.763 137.797C109.763 136.624 109.614 135.627 109.317 134.807C109.02 133.987 108.557 133.318 107.926 132.801C107.295 132.283 106.491 131.911 105.514 131.684C104.537 131.444 103.375 131.324 102.027 131.324C100.666 131.324 99.4977 131.444 98.5207 131.684C97.556 131.911 96.7583 132.283 96.1276 132.801C95.4969 133.318 95.0331 133.987 94.7363 134.807C94.4395 135.627 94.2911 136.624 94.2911 137.797C94.2911 138.314 94.322 138.832 94.3838 139.349C94.458 139.854 94.5941 140.346 94.7919 140.825C95.0022 141.292 95.2804 141.727 95.6267 142.131C95.9854 142.535 96.4492 142.888 97.018 143.191C97.5993 143.494 98.298 143.733 99.1143 143.91C99.9305 144.074 100.901 144.156 102.027 144.156Z" fill="black"/>
<path d="M133.294 143.721C133.294 143.885 133.282 144.049 133.257 144.213C133.232 144.377 133.189 144.522 133.127 144.648C133.078 144.774 133.003 144.882 132.904 144.97C132.805 145.046 132.682 145.083 132.533 145.083C132.348 145.083 132.206 145.046 132.107 144.97C132.02 144.882 131.952 144.774 131.903 144.648C131.853 144.522 131.822 144.377 131.81 144.213C131.81 144.049 131.81 143.885 131.81 143.721V137.172C131.81 136.188 131.736 135.33 131.587 134.599C131.451 133.867 131.173 133.261 130.753 132.782C130.344 132.29 129.769 131.924 129.027 131.684C128.298 131.444 127.339 131.324 126.152 131.324C125.422 131.324 124.649 131.387 123.833 131.514C123.017 131.627 122.238 131.835 121.496 132.138C120.754 132.428 120.098 132.819 119.529 133.312C118.96 133.804 118.565 134.422 118.342 135.166V143.721C118.342 143.885 118.336 144.049 118.323 144.213C118.311 144.377 118.28 144.522 118.231 144.648C118.181 144.774 118.107 144.882 118.008 144.97C117.921 145.046 117.804 145.083 117.656 145.083C117.482 145.083 117.34 145.046 117.229 144.97C117.13 144.882 117.05 144.774 116.988 144.648C116.938 144.522 116.901 144.377 116.876 144.213C116.864 144.049 116.858 143.885 116.858 143.721V131.457C116.858 131.242 116.901 131.047 116.988 130.87C117.074 130.681 117.291 130.586 117.637 130.586C117.946 130.586 118.138 130.675 118.212 130.851C118.299 131.015 118.342 131.217 118.342 131.457V133.841C118.688 133.034 119.171 132.39 119.789 131.911C120.407 131.419 121.081 131.053 121.811 130.813C122.553 130.561 123.301 130.397 124.056 130.321C124.822 130.246 125.521 130.208 126.152 130.208C127.488 130.208 128.607 130.328 129.51 130.567C130.425 130.794 131.161 131.179 131.717 131.722C132.286 132.264 132.688 132.984 132.923 133.879C133.17 134.763 133.294 135.86 133.294 137.172V143.721Z" fill="black"/>
<path d="M147.253 130.87C147.439 130.87 147.575 130.921 147.661 131.022C147.76 131.11 147.81 131.211 147.81 131.324C147.81 131.438 147.76 131.545 147.661 131.646C147.575 131.734 147.439 131.779 147.253 131.779H141.094V139.803C141.094 140.724 141.187 141.469 141.373 142.036C141.558 142.604 141.805 143.046 142.115 143.361C142.436 143.677 142.807 143.891 143.228 144.005C143.66 144.106 144.118 144.156 144.6 144.156C145.194 144.156 145.775 144.049 146.344 143.834C146.913 143.62 147.569 143.311 148.311 142.907C148.459 142.831 148.601 142.793 148.737 142.793C148.898 142.793 149.022 142.844 149.108 142.945C149.207 143.033 149.257 143.147 149.257 143.286C149.257 143.538 149.121 143.74 148.849 143.891C148.329 144.181 147.865 144.415 147.457 144.591C147.061 144.768 146.69 144.907 146.344 145.008C146.01 145.109 145.683 145.178 145.361 145.216C145.039 145.254 144.699 145.273 144.341 145.273C143.673 145.273 143.048 145.178 142.467 144.989C141.898 144.8 141.397 144.497 140.964 144.08C140.544 143.651 140.21 143.09 139.963 142.396C139.728 141.689 139.61 140.825 139.61 139.803V131.779H137.978C137.805 131.779 137.675 131.734 137.588 131.646C137.502 131.545 137.458 131.438 137.458 131.324C137.458 131.211 137.502 131.11 137.588 131.022C137.675 130.921 137.805 130.87 137.978 130.87H139.61V126.158C139.61 125.754 139.691 125.501 139.851 125.401C140.012 125.287 140.179 125.23 140.352 125.23C140.562 125.23 140.736 125.287 140.872 125.401C141.02 125.501 141.094 125.754 141.094 126.158V130.87H147.253Z" fill="black"/>
<path d="M163.68 130.662C163.816 130.7 163.915 130.775 163.976 130.889C164.038 130.99 164.069 131.104 164.069 131.23C164.069 131.394 164.014 131.545 163.902 131.684C163.803 131.823 163.649 131.892 163.438 131.892C163.377 131.892 163.34 131.892 163.327 131.892C163.315 131.879 163.278 131.867 163.216 131.854C162.734 131.715 162.27 131.608 161.825 131.533C161.392 131.457 160.916 131.419 160.396 131.419C159.666 131.419 158.968 131.495 158.3 131.646C157.644 131.785 157.045 132.006 156.5 132.308C155.969 132.599 155.505 132.977 155.109 133.444C154.713 133.898 154.417 134.434 154.219 135.053V143.759C154.219 144.087 154.175 144.39 154.089 144.667C154.002 144.945 153.804 145.083 153.495 145.083C153.322 145.083 153.18 145.046 153.069 144.97C152.97 144.894 152.895 144.793 152.846 144.667C152.796 144.541 152.766 144.402 152.753 144.251C152.741 144.087 152.735 143.923 152.735 143.759V131.646C152.735 131.356 152.784 131.11 152.883 130.908C152.982 130.693 153.211 130.586 153.569 130.586C153.841 130.586 154.015 130.687 154.089 130.889C154.175 131.091 154.219 131.343 154.219 131.646V133.841C154.417 133.072 154.757 132.447 155.239 131.968C155.734 131.488 156.278 131.122 156.871 130.87C157.477 130.605 158.096 130.429 158.727 130.34C159.357 130.252 159.914 130.208 160.396 130.208C160.866 130.208 161.268 130.227 161.602 130.264C161.948 130.29 162.245 130.328 162.492 130.378C162.74 130.416 162.956 130.46 163.142 130.511C163.327 130.561 163.506 130.611 163.68 130.662Z" fill="black"/>
<path d="M169.885 143.891C169.885 144.055 169.878 144.213 169.866 144.364C169.854 144.503 169.823 144.629 169.773 144.743C169.736 144.844 169.668 144.926 169.569 144.989C169.47 145.052 169.328 145.083 169.143 145.083C168.796 145.083 168.586 144.976 168.512 144.762C168.438 144.547 168.4 144.257 168.4 143.891V131.741C168.4 131.425 168.444 131.154 168.53 130.927C168.617 130.7 168.833 130.586 169.18 130.586C169.489 130.586 169.68 130.7 169.755 130.927C169.841 131.154 169.885 131.413 169.885 131.703V143.891ZM168.159 126.309C168.159 126.019 168.252 125.779 168.438 125.59C168.623 125.388 168.858 125.287 169.143 125.287C169.427 125.287 169.668 125.388 169.866 125.59C170.064 125.779 170.163 126.019 170.163 126.309C170.163 126.599 170.064 126.833 169.866 127.009C169.668 127.186 169.427 127.274 169.143 127.274C168.858 127.274 168.623 127.186 168.438 127.009C168.252 126.833 168.159 126.599 168.159 126.309Z" fill="black"/>
<path d="M182.99 145.273C182.706 145.273 182.496 145.184 182.36 145.008C182.224 144.831 182.118 144.673 182.044 144.535L174.809 131.93C174.735 131.804 174.686 131.69 174.661 131.589C174.636 131.476 174.624 131.368 174.624 131.268C174.624 131.053 174.686 130.889 174.809 130.775C174.933 130.649 175.082 130.586 175.255 130.586C175.391 130.586 175.533 130.637 175.681 130.738C175.83 130.826 175.96 130.971 176.071 131.173L182.99 143.702L189.91 131.173C190.021 130.971 190.151 130.826 190.299 130.738C190.448 130.637 190.59 130.586 190.726 130.586C190.899 130.586 191.048 130.649 191.171 130.775C191.295 130.889 191.357 131.053 191.357 131.268C191.357 131.469 191.295 131.69 191.171 131.93L183.936 144.535C183.85 144.673 183.732 144.831 183.584 145.008C183.436 145.184 183.238 145.273 182.99 145.273Z" fill="black"/>
<path d="M203.665 131.324C202.515 131.324 201.495 131.425 200.604 131.627C199.714 131.829 198.953 132.157 198.322 132.611C197.704 133.053 197.222 133.627 196.875 134.334C196.529 135.04 196.331 135.904 196.282 136.926H210.269V135.904C210.269 135.274 210.152 134.681 209.917 134.125C209.694 133.57 209.323 133.084 208.804 132.668C208.284 132.252 207.604 131.924 206.763 131.684C205.922 131.444 204.889 131.324 203.665 131.324ZM202.7 144.156C203.875 144.156 204.902 144.08 205.78 143.929C206.658 143.778 207.412 143.595 208.043 143.38C208.674 143.166 209.187 142.945 209.583 142.718C209.991 142.491 210.306 142.301 210.529 142.15C210.603 142.125 210.652 142.112 210.677 142.112C210.813 142.112 210.937 142.181 211.048 142.32C211.172 142.446 211.234 142.585 211.234 142.737C211.234 142.875 211.172 142.989 211.048 143.077C210.937 143.191 210.696 143.368 210.325 143.607C209.966 143.847 209.447 144.093 208.766 144.345C208.086 144.585 207.245 144.8 206.244 144.989C205.242 145.178 204.055 145.273 202.682 145.273C201.247 145.273 200.029 145.09 199.027 144.724C198.026 144.358 197.209 143.847 196.579 143.191C195.948 142.535 195.49 141.746 195.206 140.825C194.921 139.904 194.779 138.895 194.779 137.797C194.779 136.333 195.008 135.116 195.465 134.144C195.923 133.173 196.548 132.397 197.339 131.816C198.143 131.223 199.083 130.807 200.159 130.567C201.247 130.328 202.416 130.208 203.665 130.208C206.237 130.208 208.161 130.712 209.434 131.722C210.721 132.719 211.364 134.151 211.364 136.018C211.364 136.195 211.351 136.39 211.327 136.605C211.302 136.819 211.265 137.027 211.215 137.229C211.178 137.418 211.129 137.582 211.067 137.721C211.017 137.847 210.968 137.911 210.918 137.911H205.464L196.263 137.721C196.288 138.895 196.436 139.891 196.708 140.712C196.993 141.519 197.401 142.181 197.933 142.699C198.477 143.203 199.145 143.576 199.936 143.815C200.728 144.043 201.649 144.156 202.7 144.156Z" fill="black"/>
<path d="M16.6941 143.38L20.6269 131.343C20.7258 131.066 20.8495 130.87 20.9979 130.757C21.1463 130.643 21.3009 130.586 21.4617 130.586C21.6595 130.586 21.8327 130.668 21.9811 130.832C22.1419 130.984 22.2222 131.192 22.2222 131.457C22.2222 131.646 22.1975 131.785 22.148 131.873L17.77 144.156C17.6464 144.484 17.4856 144.736 17.2877 144.913C17.1022 145.09 16.9043 145.178 16.6941 145.178C16.4591 145.178 16.2612 145.102 16.1004 144.951C15.9397 144.787 15.7974 144.522 15.6738 144.156L11.6111 132.327L7.54847 144.156C7.41243 144.522 7.25784 144.787 7.0847 144.951C6.91156 145.102 6.72605 145.178 6.52817 145.178C6.04585 145.178 5.6872 144.837 5.45222 144.156L1.0742 131.873C1.02473 131.785 1 131.646 1 131.457C1 131.192 1.0742 130.984 1.22261 130.832C1.38339 130.668 1.56271 130.586 1.76059 130.586C1.92136 130.586 2.07595 130.643 2.22436 130.757C2.37277 130.87 2.49644 131.066 2.59538 131.343L6.52817 143.38L10.461 131.608C10.6836 130.927 11.0608 130.586 11.5926 130.586C11.8275 130.586 12.0502 130.675 12.2604 130.851C12.483 131.015 12.65 131.268 12.7613 131.608L16.6941 143.38Z" stroke="black" stroke-width="2" mask="url(#path-1-outside-1_3369_8818)"/>
<path d="M35.4023 131.324C34.2521 131.324 33.2318 131.425 32.3414 131.627C31.451 131.829 30.6904 132.157 30.0596 132.611C29.4413 133.053 28.9589 133.627 28.6127 134.334C28.2664 135.04 28.0685 135.904 28.019 136.926H42.0064V135.904C42.0064 135.274 41.8889 134.681 41.654 134.125C41.4313 133.57 41.0603 133.084 40.5409 132.668C40.0215 132.252 39.3413 131.924 38.5003 131.684C37.6593 131.444 36.6267 131.324 35.4023 131.324ZM34.4377 144.156C35.6125 144.156 36.639 144.08 37.5171 143.929C38.3952 143.778 39.1496 143.595 39.7803 143.38C40.411 143.166 40.9243 142.945 41.32 142.718C41.7282 142.491 42.0435 142.301 42.2661 142.15C42.3403 142.125 42.3898 142.112 42.4145 142.112C42.5506 142.112 42.6743 142.181 42.7856 142.32C42.9092 142.446 42.9711 142.585 42.9711 142.737C42.9711 142.875 42.9092 142.989 42.7856 143.077C42.6743 143.191 42.4331 143.368 42.0621 143.607C41.7034 143.847 41.184 144.093 40.5038 144.345C39.8236 144.585 38.9826 144.8 37.9809 144.989C36.9791 145.178 35.7919 145.273 34.4191 145.273C32.9845 145.273 31.7663 145.09 30.7646 144.724C29.7628 144.358 28.9466 143.847 28.3158 143.191C27.6851 142.535 27.2275 141.746 26.9431 140.825C26.6586 139.904 26.5164 138.895 26.5164 137.797C26.5164 136.333 26.7452 135.116 27.2028 134.144C27.6604 133.173 28.2849 132.397 29.0764 131.816C29.8803 131.223 30.8202 130.807 31.8962 130.567C32.9845 130.328 34.1532 130.208 35.4023 130.208C37.9747 130.208 39.8978 130.712 41.1716 131.722C42.4578 132.719 43.1009 134.151 43.1009 136.018C43.1009 136.195 43.0886 136.39 43.0638 136.605C43.0391 136.819 43.002 137.027 42.9525 137.229C42.9154 137.418 42.8659 137.582 42.8041 137.721C42.7546 137.847 42.7052 137.911 42.6557 137.911H37.2017L28.0005 137.721C28.0252 138.895 28.1736 139.891 28.4457 140.712C28.7302 141.519 29.1383 142.181 29.6701 142.699C30.2142 143.203 30.8821 143.576 31.6736 143.815C32.4651 144.043 33.3864 144.156 34.4377 144.156Z" stroke="black" stroke-width="2" mask="url(#path-1-outside-1_3369_8818)"/>
<path d="M58.3958 130.208C59.5088 130.208 60.5601 130.328 61.5494 130.567C62.5512 130.794 63.4231 131.192 64.1651 131.76C64.9195 132.327 65.5132 133.084 65.946 134.031C66.3912 134.977 66.6138 136.163 66.6138 137.589C66.6138 139.002 66.4283 140.201 66.0573 141.185C65.6987 142.156 65.1669 142.945 64.4619 143.55C63.7694 144.156 62.9098 144.598 61.8834 144.875C60.8692 145.14 59.7067 145.273 58.3958 145.273C57.394 145.273 56.4727 145.21 55.6317 145.083C54.7907 144.957 54.024 144.8 53.3314 144.61C52.6512 144.408 52.039 144.188 51.4948 143.948C50.9507 143.708 50.4684 143.475 50.0479 143.248V143.702C50.0479 143.891 50.0417 144.068 50.0293 144.232C50.017 144.396 49.986 144.541 49.9366 144.667C49.8871 144.793 49.8129 144.894 49.714 144.97C49.615 145.046 49.4728 145.083 49.2873 145.083C49.1018 145.083 48.9596 145.046 48.8606 144.97C48.774 144.894 48.706 144.793 48.6566 144.667C48.6071 144.541 48.5762 144.396 48.5638 144.232C48.5638 144.068 48.5638 143.891 48.5638 143.702V124.927C48.5638 124.524 48.6442 124.271 48.805 124.17C48.9781 124.057 49.1574 124 49.3429 124C49.5285 124 49.6892 124.057 49.8253 124.17C49.9737 124.271 50.0479 124.524 50.0479 124.927V133.974C50.1839 133.444 50.4251 132.984 50.7714 132.592C51.1176 132.189 51.5258 131.848 51.9957 131.57C52.478 131.293 53.0037 131.066 53.5725 130.889C54.1414 130.712 54.7103 130.574 55.2792 130.473C55.8605 130.372 56.417 130.302 56.9488 130.264C57.493 130.227 57.9753 130.208 58.3958 130.208ZM58.3958 131.324C57.6537 131.337 56.8437 131.4 55.9656 131.514C55.0875 131.615 54.2466 131.804 53.4427 132.081C52.6388 132.359 51.9277 132.744 51.3093 133.236C50.691 133.728 50.2705 134.371 50.0479 135.166V142.434C50.5797 142.636 51.1486 142.844 51.7546 143.058C52.3729 143.26 53.0284 143.443 53.721 143.607C54.4135 143.771 55.1494 143.904 55.9285 144.005C56.7076 144.106 57.5301 144.156 58.3958 144.156C59.583 144.156 60.5972 144.03 61.4381 143.778C62.2915 143.525 62.9902 143.134 63.5344 142.604C64.0909 142.062 64.4929 141.38 64.7402 140.56C64.9999 139.727 65.1298 138.737 65.1298 137.589C65.1298 136.403 64.9504 135.406 64.5918 134.599C64.2455 133.791 63.7694 133.148 63.1634 132.668C62.5574 132.189 61.8401 131.848 61.0115 131.646C60.1952 131.432 59.3233 131.324 58.3958 131.324Z" stroke="black" stroke-width="2" mask="url(#path-1-outside-1_3369_8818)"/>
<path d="M80.9441 131.324C79.5218 131.324 78.3098 131.444 77.3081 131.684C76.3063 131.924 75.4839 132.308 74.8408 132.838C74.2101 133.356 73.7463 134.024 73.4495 134.845C73.1527 135.665 73.0043 136.649 73.0043 137.797C73.0043 138.958 73.165 139.942 73.4866 140.749C73.8205 141.557 74.3152 142.213 74.9706 142.718C75.6385 143.222 76.4671 143.588 77.4565 143.815C78.4459 144.043 79.6022 144.156 80.9255 144.156C81.5191 144.156 82.1189 144.112 82.7249 144.024C83.3433 143.935 83.9307 143.828 84.4873 143.702C85.0438 143.563 85.557 143.412 86.027 143.248C86.497 143.084 86.8803 142.926 87.1772 142.775C87.3627 142.711 87.4925 142.68 87.5667 142.68C87.7275 142.68 87.8512 142.73 87.9377 142.831C88.0367 142.92 88.0862 143.033 88.0862 143.172C88.0862 143.273 88.0552 143.38 87.9934 143.494C87.9316 143.595 87.8326 143.683 87.6966 143.759C86.6083 144.326 85.4828 144.724 84.3203 144.951C83.1578 145.165 82.0324 145.273 80.9441 145.273C79.5342 145.273 78.248 145.159 77.0855 144.932C75.9353 144.705 74.9459 144.308 74.1173 143.74C73.3011 143.172 72.6642 142.409 72.2066 141.45C71.749 140.491 71.5202 139.273 71.5202 137.797C71.5202 136.333 71.7304 135.116 72.1509 134.144C72.5714 133.173 73.1836 132.397 73.9875 131.816C74.7913 131.223 75.7745 130.807 76.937 130.567C78.1119 130.328 79.4476 130.208 80.9441 130.208C82.0324 130.208 83.1578 130.321 84.3203 130.548C85.4828 130.763 86.6083 131.154 87.6966 131.722C87.8326 131.797 87.9316 131.892 87.9934 132.006C88.0552 132.107 88.0862 132.208 88.0862 132.308C88.0862 132.447 88.0367 132.567 87.9377 132.668C87.8512 132.756 87.7275 132.801 87.5667 132.801C87.4925 132.801 87.3627 132.769 87.1772 132.706C86.8803 132.555 86.497 132.397 86.027 132.233C85.557 132.069 85.0438 131.924 84.4873 131.797C83.9307 131.659 83.3433 131.545 82.7249 131.457C82.1189 131.368 81.5253 131.324 80.9441 131.324Z" stroke="black" stroke-width="2" mask="url(#path-1-outside-1_3369_8818)"/>
<path d="M102.027 145.273C100.32 145.273 98.8793 145.102 97.7044 144.762C96.5295 144.408 95.5773 143.91 94.8476 143.267C94.1303 142.623 93.6109 141.841 93.2893 140.92C92.9678 139.999 92.807 138.958 92.807 137.797C92.807 136.46 92.9863 135.318 93.345 134.371C93.716 133.412 94.2787 132.624 95.0331 132.006C95.7999 131.387 96.7583 130.933 97.9085 130.643C99.071 130.353 100.444 130.208 102.027 130.208C103.61 130.208 104.976 130.353 106.127 130.643C107.289 130.933 108.248 131.387 109.002 132.006C109.769 132.624 110.331 133.412 110.69 134.371C111.061 135.318 111.247 136.46 111.247 137.797C111.247 138.958 111.086 139.999 110.764 140.92C110.443 141.841 109.917 142.623 109.187 143.267C108.47 143.91 107.524 144.408 106.349 144.762C105.174 145.102 103.733 145.273 102.027 145.273ZM102.027 144.156C103.152 144.156 104.123 144.074 104.939 143.91C105.756 143.733 106.448 143.494 107.017 143.191C107.598 142.888 108.062 142.535 108.408 142.131C108.767 141.727 109.045 141.292 109.243 140.825C109.453 140.346 109.589 139.854 109.651 139.349C109.725 138.832 109.763 138.314 109.763 137.797C109.763 136.624 109.614 135.627 109.317 134.807C109.02 133.987 108.557 133.318 107.926 132.801C107.295 132.283 106.491 131.911 105.514 131.684C104.537 131.444 103.375 131.324 102.027 131.324C100.666 131.324 99.4977 131.444 98.5207 131.684C97.556 131.911 96.7583 132.283 96.1276 132.801C95.4969 133.318 95.0331 133.987 94.7363 134.807C94.4395 135.627 94.2911 136.624 94.2911 137.797C94.2911 138.314 94.322 138.832 94.3838 139.349C94.458 139.854 94.5941 140.346 94.7919 140.825C95.0022 141.292 95.2804 141.727 95.6267 142.131C95.9854 142.535 96.4492 142.888 97.018 143.191C97.5993 143.494 98.298 143.733 99.1143 143.91C99.9305 144.074 100.901 144.156 102.027 144.156Z" stroke="black" stroke-width="2" mask="url(#path-1-outside-1_3369_8818)"/>
<path d="M133.294 143.721C133.294 143.885 133.282 144.049 133.257 144.213C133.232 144.377 133.189 144.522 133.127 144.648C133.078 144.774 133.003 144.882 132.904 144.97C132.805 145.046 132.682 145.083 132.533 145.083C132.348 145.083 132.206 145.046 132.107 144.97C132.02 144.882 131.952 144.774 131.903 144.648C131.853 144.522 131.822 144.377 131.81 144.213C131.81 144.049 131.81 143.885 131.81 143.721V137.172C131.81 136.188 131.736 135.33 131.587 134.599C131.451 133.867 131.173 133.261 130.753 132.782C130.344 132.29 129.769 131.924 129.027 131.684C128.298 131.444 127.339 131.324 126.152 131.324C125.422 131.324 124.649 131.387 123.833 131.514C123.017 131.627 122.238 131.835 121.496 132.138C120.754 132.428 120.098 132.819 119.529 133.312C118.96 133.804 118.565 134.422 118.342 135.166V143.721C118.342 143.885 118.336 144.049 118.323 144.213C118.311 144.377 118.28 144.522 118.231 144.648C118.181 144.774 118.107 144.882 118.008 144.97C117.921 145.046 117.804 145.083 117.656 145.083C117.482 145.083 117.34 145.046 117.229 144.97C117.13 144.882 117.05 144.774 116.988 144.648C116.938 144.522 116.901 144.377 116.876 144.213C116.864 144.049 116.858 143.885 116.858 143.721V131.457C116.858 131.242 116.901 131.047 116.988 130.87C117.074 130.681 117.291 130.586 117.637 130.586C117.946 130.586 118.138 130.675 118.212 130.851C118.299 131.015 118.342 131.217 118.342 131.457V133.841C118.688 133.034 119.171 132.39 119.789 131.911C120.407 131.419 121.081 131.053 121.811 130.813C122.553 130.561 123.301 130.397 124.056 130.321C124.822 130.246 125.521 130.208 126.152 130.208C127.488 130.208 128.607 130.328 129.51 130.567C130.425 130.794 131.161 131.179 131.717 131.722C132.286 132.264 132.688 132.984 132.923 133.879C133.17 134.763 133.294 135.86 133.294 137.172V143.721Z" stroke="black" stroke-width="2" mask="url(#path-1-outside-1_3369_8818)"/>
<path d="M147.253 130.87C147.439 130.87 147.575 130.921 147.661 131.022C147.76 131.11 147.81 131.211 147.81 131.324C147.81 131.438 147.76 131.545 147.661 131.646C147.575 131.734 147.439 131.779 147.253 131.779H141.094V139.803C141.094 140.724 141.187 141.469 141.373 142.036C141.558 142.604 141.805 143.046 142.115 143.361C142.436 143.677 142.807 143.891 143.228 144.005C143.66 144.106 144.118 144.156 144.6 144.156C145.194 144.156 145.775 144.049 146.344 143.834C146.913 143.62 147.569 143.311 148.311 142.907C148.459 142.831 148.601 142.793 148.737 142.793C148.898 142.793 149.022 142.844 149.108 142.945C149.207 143.033 149.257 143.147 149.257 143.286C149.257 143.538 149.121 143.74 148.849 143.891C148.329 144.181 147.865 144.415 147.457 144.591C147.061 144.768 146.69 144.907 146.344 145.008C146.01 145.109 145.683 145.178 145.361 145.216C145.039 145.254 144.699 145.273 144.341 145.273C143.673 145.273 143.048 145.178 142.467 144.989C141.898 144.8 141.397 144.497 140.964 144.08C140.544 143.651 140.21 143.09 139.963 142.396C139.728 141.689 139.61 140.825 139.61 139.803V131.779H137.978C137.805 131.779 137.675 131.734 137.588 131.646C137.502 131.545 137.458 131.438 137.458 131.324C137.458 131.211 137.502 131.11 137.588 131.022C137.675 130.921 137.805 130.87 137.978 130.87H139.61V126.158C139.61 125.754 139.691 125.501 139.851 125.401C140.012 125.287 140.179 125.23 140.352 125.23C140.562 125.23 140.736 125.287 140.872 125.401C141.02 125.501 141.094 125.754 141.094 126.158V130.87H147.253Z" stroke="black" stroke-width="2" mask="url(#path-1-outside-1_3369_8818)"/>
<path d="M163.68 130.662C163.816 130.7 163.915 130.775 163.976 130.889C164.038 130.99 164.069 131.104 164.069 131.23C164.069 131.394 164.014 131.545 163.902 131.684C163.803 131.823 163.649 131.892 163.438 131.892C163.377 131.892 163.34 131.892 163.327 131.892C163.315 131.879 163.278 131.867 163.216 131.854C162.734 131.715 162.27 131.608 161.825 131.533C161.392 131.457 160.916 131.419 160.396 131.419C159.666 131.419 158.968 131.495 158.3 131.646C157.644 131.785 157.045 132.006 156.5 132.308C155.969 132.599 155.505 132.977 155.109 133.444C154.713 133.898 154.417 134.434 154.219 135.053V143.759C154.219 144.087 154.175 144.39 154.089 144.667C154.002 144.945 153.804 145.083 153.495 145.083C153.322 145.083 153.18 145.046 153.069 144.97C152.97 144.894 152.895 144.793 152.846 144.667C152.796 144.541 152.766 144.402 152.753 144.251C152.741 144.087 152.735 143.923 152.735 143.759V131.646C152.735 131.356 152.784 131.11 152.883 130.908C152.982 130.693 153.211 130.586 153.569 130.586C153.841 130.586 154.015 130.687 154.089 130.889C154.175 131.091 154.219 131.343 154.219 131.646V133.841C154.417 133.072 154.757 132.447 155.239 131.968C155.734 131.488 156.278 131.122 156.871 130.87C157.477 130.605 158.096 130.429 158.727 130.34C159.357 130.252 159.914 130.208 160.396 130.208C160.866 130.208 161.268 130.227 161.602 130.264C161.948 130.29 162.245 130.328 162.492 130.378C162.74 130.416 162.956 130.46 163.142 130.511C163.327 130.561 163.506 130.611 163.68 130.662Z" stroke="black" stroke-width="2" mask="url(#path-1-outside-1_3369_8818)"/>
<path d="M169.885 143.891C169.885 144.055 169.878 144.213 169.866 144.364C169.854 144.503 169.823 144.629 169.773 144.743C169.736 144.844 169.668 144.926 169.569 144.989C169.47 145.052 169.328 145.083 169.143 145.083C168.796 145.083 168.586 144.976 168.512 144.762C168.438 144.547 168.4 144.257 168.4 143.891V131.741C168.4 131.425 168.444 131.154 168.53 130.927C168.617 130.7 168.833 130.586 169.18 130.586C169.489 130.586 169.68 130.7 169.755 130.927C169.841 131.154 169.885 131.413 169.885 131.703V143.891ZM168.159 126.309C168.159 126.019 168.252 125.779 168.438 125.59C168.623 125.388 168.858 125.287 169.143 125.287C169.427 125.287 169.668 125.388 169.866 125.59C170.064 125.779 170.163 126.019 170.163 126.309C170.163 126.599 170.064 126.833 169.866 127.009C169.668 127.186 169.427 127.274 169.143 127.274C168.858 127.274 168.623 127.186 168.438 127.009C168.252 126.833 168.159 126.599 168.159 126.309Z" stroke="black" stroke-width="2" mask="url(#path-1-outside-1_3369_8818)"/>
<path d="M182.99 145.273C182.706 145.273 182.496 145.184 182.36 145.008C182.224 144.831 182.118 144.673 182.044 144.535L174.809 131.93C174.735 131.804 174.686 131.69 174.661 131.589C174.636 131.476 174.624 131.368 174.624 131.268C174.624 131.053 174.686 130.889 174.809 130.775C174.933 130.649 175.082 130.586 175.255 130.586C175.391 130.586 175.533 130.637 175.681 130.738C175.83 130.826 175.96 130.971 176.071 131.173L182.99 143.702L189.91 131.173C190.021 130.971 190.151 130.826 190.299 130.738C190.448 130.637 190.59 130.586 190.726 130.586C190.899 130.586 191.048 130.649 191.171 130.775C191.295 130.889 191.357 131.053 191.357 131.268C191.357 131.469 191.295 131.69 191.171 131.93L183.936 144.535C183.85 144.673 183.732 144.831 183.584 145.008C183.436 145.184 183.238 145.273 182.99 145.273Z" stroke="black" stroke-width="2" mask="url(#path-1-outside-1_3369_8818)"/>
<path d="M203.665 131.324C202.515 131.324 201.495 131.425 200.604 131.627C199.714 131.829 198.953 132.157 198.322 132.611C197.704 133.053 197.222 133.627 196.875 134.334C196.529 135.04 196.331 135.904 196.282 136.926H210.269V135.904C210.269 135.274 210.152 134.681 209.917 134.125C209.694 133.57 209.323 133.084 208.804 132.668C208.284 132.252 207.604 131.924 206.763 131.684C205.922 131.444 204.889 131.324 203.665 131.324ZM202.7 144.156C203.875 144.156 204.902 144.08 205.78 143.929C206.658 143.778 207.412 143.595 208.043 143.38C208.674 143.166 209.187 142.945 209.583 142.718C209.991 142.491 210.306 142.301 210.529 142.15C210.603 142.125 210.652 142.112 210.677 142.112C210.813 142.112 210.937 142.181 211.048 142.32C211.172 142.446 211.234 142.585 211.234 142.737C211.234 142.875 211.172 142.989 211.048 143.077C210.937 143.191 210.696 143.368 210.325 143.607C209.966 143.847 209.447 144.093 208.766 144.345C208.086 144.585 207.245 144.8 206.244 144.989C205.242 145.178 204.055 145.273 202.682 145.273C201.247 145.273 200.029 145.09 199.027 144.724C198.026 144.358 197.209 143.847 196.579 143.191C195.948 142.535 195.49 141.746 195.206 140.825C194.921 139.904 194.779 138.895 194.779 137.797C194.779 136.333 195.008 135.116 195.465 134.144C195.923 133.173 196.548 132.397 197.339 131.816C198.143 131.223 199.083 130.807 200.159 130.567C201.247 130.328 202.416 130.208 203.665 130.208C206.237 130.208 208.161 130.712 209.434 131.722C210.721 132.719 211.364 134.151 211.364 136.018C211.364 136.195 211.351 136.39 211.327 136.605C211.302 136.819 211.265 137.027 211.215 137.229C211.178 137.418 211.129 137.582 211.067 137.721C211.017 137.847 210.968 137.911 210.918 137.911H205.464L196.263 137.721C196.288 138.895 196.436 139.891 196.708 140.712C196.993 141.519 197.401 142.181 197.933 142.699C198.477 143.203 199.145 143.576 199.936 143.815C200.728 144.043 201.649 144.156 202.7 144.156Z" stroke="black" stroke-width="2" mask="url(#path-1-outside-1_3369_8818)"/>
<circle cx="106.5" cy="51.5" r="47" stroke="black" stroke-width="9"/>
<rect width="10.9562" height="62.3619" rx="5.4781" transform="matrix(0.876424 -0.48154 0.502831 0.864384 83.7744 27.2832)" fill="#070707"/>
<rect width="10.7202" height="45.155" rx="5.36009" transform="matrix(0.0111161 -0.999938 0.999945 0.0104992 85.7441 34.0049)" fill="#070707"/>
<rect width="10.953" height="37.9736" rx="5.4765" transform="matrix(-0.870637 -0.491926 0.513371 -0.858166 120.898 79.1357)" fill="#070707"/>
<rect width="10.9562" height="43.0753" rx="5.4781" transform="matrix(0.876424 -0.48154 0.502831 0.864384 72.6064 44.5215)" fill="#070707"/>
</svg>
