<svg xmlns="http://www.w3.org/2000/svg" width="163" height="30" viewBox="0 0 163 30" fill="none">
  <path d="M32.7686 15.0654C32.7686 20.0674 36.4129 23.7116 41.3196 23.7116C46.2026 23.7116 49.6563 20.0435 49.7277 14.9462H40.8194V17.3044H46.7503C46.1311 19.5671 43.9636 21.0677 41.3196 21.0677C37.8897 21.0677 35.5554 18.6144 35.5554 15.0654C35.5554 11.5401 37.9373 9.08677 41.3196 9.08677C43.8206 9.08677 45.9406 10.4683 46.6551 12.612H49.4896C48.7273 8.9915 45.3212 6.44287 41.2482 6.44287C36.3653 6.44287 32.7686 10.111 32.7686 15.0654Z" fill="#070714"></path>
  <path d="M58.2749 23.7115C61.1332 23.7115 63.4913 22.068 64.5156 19.3526H61.7287C61.0618 20.5198 59.7993 21.2344 58.2749 21.2344C56.1551 21.2344 54.6544 19.9481 54.3448 17.8759H64.7776C64.8013 17.59 64.8252 17.2804 64.8252 16.9945C64.8252 13.255 62.2051 10.23 58.2749 10.23C54.5116 10.23 51.6533 13.112 51.6533 16.9708C51.6533 20.8056 54.5116 23.7115 58.2749 23.7115ZM54.3924 15.7321C54.8451 13.8028 56.2742 12.6119 58.2749 12.6119C60.2281 12.6119 61.7048 13.779 62.1812 15.7321H54.3924Z" fill="#070714"></path>
  <path d="M70.2767 23.402V16.3754C70.2767 14.184 71.5868 12.612 73.3017 12.612C74.9214 12.612 75.8027 13.8029 75.8027 15.8751V23.402H78.3989V16.3754C78.3989 14.184 79.7091 12.612 81.4239 12.612C83.0198 12.612 83.9249 13.8029 83.9249 15.8751V23.402H86.5689V15.2321C86.5689 12.3023 84.7348 10.2539 82.0194 10.2539C80.3283 10.2539 78.7563 11.1114 77.8273 12.4929C77.0889 11.1114 75.7074 10.2539 73.9687 10.2539C72.3966 10.2539 70.9198 10.9923 69.9671 12.2071L69.5146 10.5397H67.6328V23.402H70.2767Z" fill="#070714"></path>
  <path d="M93.126 23.4018V17.7328H96.5558C99.7952 17.7328 102.225 15.3748 102.225 12.2307C102.225 9.06277 99.7715 6.72852 96.5558 6.72852H90.3867V23.4018H93.126ZM93.126 9.32478H96.413C98.1993 9.32478 99.4618 10.5634 99.4618 12.2307C99.4618 13.9218 98.1993 15.1366 96.413 15.1366H93.126V9.32478Z" fill="#070714"></path>
  <path d="M110.567 23.7115C112.425 23.7115 114.045 23.0208 115.212 21.8298L115.474 23.4019H117.618V10.5396H115.569L115.26 12.1355C114.093 10.9445 112.449 10.23 110.567 10.23C106.733 10.23 103.851 13.0883 103.851 16.9708C103.851 20.8294 106.733 23.7115 110.567 23.7115ZM110.758 12.7548C113.188 12.7548 114.95 14.5413 114.95 16.9708C114.95 19.4003 113.188 21.1866 110.758 21.1866C108.352 21.1866 106.542 19.3765 106.542 16.9708C106.542 14.565 108.352 12.7548 110.758 12.7548Z" fill="#070714"></path>
  <path d="M126.795 23.0208C128.463 23.0208 129.939 22.4491 131.059 21.4964V22.068C131.059 24.5214 129.439 25.9743 127.2 25.9743C125.58 25.9743 124.08 25.2121 123.58 23.783H120.936C121.603 26.6174 123.937 28.3324 127.224 28.3324C131.201 28.3324 133.655 25.8314 133.655 21.7108V10.5396H131.916L131.488 12.207C130.344 10.9684 128.676 10.23 126.795 10.23C123.222 10.23 120.436 13.0406 120.436 16.6373C120.436 20.2339 123.222 23.0208 126.795 23.0208ZM127.105 12.6834C129.391 12.6834 131.059 14.3506 131.059 16.6373C131.059 18.9 129.391 20.5674 127.105 20.5674C124.818 20.5674 123.127 18.8763 123.127 16.6373C123.127 14.3745 124.818 12.6834 127.105 12.6834Z" fill="#070714"></path>
  <path d="M143.084 23.7115C145.943 23.7115 148.3 22.068 149.324 19.3526H146.538C145.87 20.5198 144.608 21.2344 143.084 21.2344C140.964 21.2344 139.464 19.9481 139.154 17.8759H149.587C149.61 17.59 149.634 17.2804 149.634 16.9945C149.634 13.255 147.014 10.23 143.084 10.23C139.32 10.23 136.463 13.112 136.463 16.9708C136.463 20.8056 139.32 23.7115 143.084 23.7115ZM139.202 15.7321C139.654 13.8028 141.083 12.6119 143.084 12.6119C145.037 12.6119 146.514 13.779 146.99 15.7321H139.202Z" fill="#070714"></path>
  <path d="M151.465 19.3288C151.536 21.9965 153.585 23.7115 156.729 23.7115C159.849 23.7115 161.945 22.0918 161.945 19.5908C161.945 16.4229 159.301 16.018 157.134 15.6369C155.585 15.3986 154.251 15.1605 154.251 14.0171C154.251 13.0883 155.156 12.469 156.634 12.469C158.181 12.469 159.11 13.112 159.157 14.3506H161.659C161.611 11.8497 159.682 10.23 156.681 10.23C153.704 10.23 151.702 11.802 151.702 14.1125C151.702 17.0899 154.227 17.59 156.371 17.9473C157.944 18.2093 159.325 18.4951 159.325 19.7099C159.325 20.7818 158.229 21.3773 156.824 21.3773C155.275 21.3773 154.132 20.6865 154.061 19.3288H151.465Z" fill="#070714"></path>
  <path d="M29.8216 0.00759129L2.64842 8.5098C2.53545 8.53804 2.47895 8.66515 2.5072 8.77814L4.59744 15.6702C4.62569 15.7832 4.7528 15.8539 4.85166 15.8115L24.7796 9.56904C25.7259 9.27245 26.5309 8.60866 26.997 7.70477C28.2398 5.31794 29.2566 2.84636 30.0476 0.275934C30.1323 0.106454 29.977 -0.0347785 29.8216 0.00759129Z" fill="#FFBB1C"></path>
  <path d="M23.2969 11.9276L6.41959 17.2097C6.33486 17.2379 6.26424 17.3368 6.30661 17.4357L8.08614 23.2544C8.11438 23.3392 8.21326 23.4098 8.31212 23.3816L19.0741 20.0061C19.8791 19.7519 20.5569 19.1869 20.9524 18.4384C21.9976 16.4329 22.8732 14.3286 23.5228 12.1536C23.5652 12.0265 23.4382 11.8852 23.2969 11.9276Z" fill="#E8486C"></path>
  <path d="M16.8838 22.5764L9.85038 24.7796C9.76564 24.7937 9.73739 24.8926 9.75152 24.9632L11.2486 29.8922C11.2627 29.9769 11.3616 30.0193 11.4322 29.9911L13.2965 29.4121C13.9744 29.2002 14.5393 28.7201 14.8783 28.0844C15.768 26.3897 16.4883 24.6102 17.0533 22.7741C17.1098 22.6471 16.9968 22.5341 16.8838 22.5764Z" fill="#476DF2"></path>
</svg>