<svg width="32" height="32" viewBox="0 0 32 32" fill="none" xmlns="http://www.w3.org/2000/svg">
<path d="M22.3056 17.6C20.7056 20.8941 17.3174 23.2471 13.3645 23.2471C7.99975 23.2471 3.4821 18.8235 3.4821 13.3647C3.4821 7.99999 7.81151 3.48234 13.3645 3.48234C15.9997 3.48234 18.5409 4.51764 20.4233 6.39999C21.5527 7.5294 22.3056 8.84705 22.7762 10.2588L24.9409 8.09411C24.2821 6.68234 23.435 5.45882 22.3056 4.3294C19.8586 1.97646 16.6586 0.564697 13.2703 0.564697C6.30563 0.658815 0.564453 6.39999 0.564453 13.3647C0.564453 20.4235 6.30563 26.0706 13.2703 26.0706C19.8586 26.0706 25.1292 21.0823 25.8821 14.9647C24.4703 16.2823 23.9056 17.6 22.3056 17.6Z" fill="#147A6D"/>
<path d="M30.3051 30.3058C28.8933 31.7176 26.5404 31.7176 25.0345 30.3058L20.7051 25.9764C21.7404 25.3176 22.7757 24.5646 23.6227 23.7176C24.5639 22.7764 25.3168 21.8352 25.9757 20.7058L30.3051 25.0352C31.7168 26.447 31.811 28.7999 30.3051 30.3058Z" fill="#147A6D"/>
<path d="M29.4585 8.84707L27.6703 10.6353L22.7761 15.4353C22.3997 15.8118 21.835 15.8118 21.4585 15.4353L18.3526 12.3294L13.4585 17.2235C13.082 17.6 12.5173 17.6 12.1408 17.2235L9.97614 15.0588L6.87026 18.1647C6.49378 17.6941 6.11731 17.0353 5.83496 16.4706L9.31731 13.1765C9.69378 12.8 10.2585 12.8 10.635 13.1765L12.7997 15.3412L17.6938 10.4471C18.0703 10.0706 18.635 10.0706 19.0114 10.4471L21.2703 12.7059L22.1173 13.553L27.1055 8.56472L28.1408 7.52942C28.5173 7.15295 29.082 7.15295 29.4585 7.52942C29.835 7.90589 29.835 8.4706 29.4585 8.84707Z" fill="#147A6D"/>
</svg>
