<svg width="65" height="65" viewBox="0 0 65 65" fill="none" xmlns="http://www.w3.org/2000/svg">
<g clip-path="url(#clip0_7014_1743)">
<path d="M63.0952 18.222H1.90381M34.5392 10.0629H54.9364M16.4949 26.3808H20.5744L21.9669 41.6994C22.221 44.4927 24.7231 46.7778 27.5276 46.7778H42.3624C45.1671 46.7778 47.6692 44.4927 47.923 41.6993L48.4831 35.5387C48.7374 32.7453 46.65 30.4601 43.8453 30.4601H20.945M1.90381 57.9966C1.90381 60.8013 4.19836 63.0957 7.00326 63.0957H57.9959C60.8004 63.0957 63.0952 60.8013 63.0952 57.9966V7.00362C63.0952 4.19897 60.8004 1.9043 57.9959 1.9043H7.00326C4.19836 1.9043 1.90381 4.19897 1.90381 7.00362V57.9966ZM30.5874 50.8574C30.5874 53.11 28.7607 54.9369 26.5078 54.9369C24.255 54.9369 22.4284 53.11 22.4284 50.8574C22.4284 48.6039 24.255 46.7777 26.5078 46.7777C28.7607 46.7777 30.5874 48.6039 30.5874 50.8574ZM46.9051 50.8574C46.9051 53.11 45.0786 54.9369 42.8255 54.9369C40.5725 54.9369 38.7462 53.11 38.7462 50.8574C38.7462 48.6039 40.5725 46.7777 42.8255 46.7777C45.0786 46.7777 46.9051 48.6039 46.9051 50.8574Z" stroke="black" stroke-width="2" stroke-miterlimit="10" stroke-linecap="round" stroke-linejoin="round"></path>
</g>
<defs>
<clipPath id="clip0_7014_1743">
<rect width="65" height="65" fill="white" transform="translate(-0.000488281)"></rect>
</clipPath>
</defs>
</svg>