<svg width="250" height="256" viewBox="0 0 250 256" fill="none" xmlns="http://www.w3.org/2000/svg">
<g opacity="0.3">
<mask id="mask0_3465_9501" style="mask-type:alpha" maskUnits="userSpaceOnUse" x="0" y="-1" width="263" height="257">
<path d="M1.01172 0C1.01172 0 1.3798 25.2342 47.3084 40.6119C50.0486 41.5116 52.8706 42.1251 55.7335 42.4523C67.7984 43.7201 106.243 49.8549 110.414 75.9888C110.414 77.0521 110.414 78.1155 110.414 79.1788C109.596 84.2093 104.975 97.2967 79.209 95.0473C77.5731 94.9246 75.9371 95.0064 74.3421 95.3745C68.2074 96.8059 55.897 102.164 64.4039 122.285C75.4464 148.46 92.4191 133.941 92.0101 128.625C92.0101 128.625 92.3782 114.188 76.6733 118.277C74.6693 118.809 72.8698 119.872 71.561 121.427C68.8209 124.739 67.144 131.201 80.1497 141.303C100.19 156.844 105.915 168.296 170.535 177.702C170.535 177.702 224.52 187.518 238.017 170.341C238.017 170.341 265.827 134.31 217.936 111.652C215.277 110.384 212.373 109.648 209.429 109.484C197.159 108.707 167.754 112.634 169.717 168.705C169.717 168.705 170.535 222.281 228.61 246.002C228.61 246.002 246.605 253.773 262.146 255" stroke="#657138" stroke-miterlimit="10"/>
</mask>
<g mask="url(#mask0_3465_9501)">
<rect x="-8.05859" width="261.588" height="258.415" fill="white"/>
</g>
</g>
</svg>
