<svg xmlns="http://www.w3.org/2000/svg" width="35" height="35" viewBox="0 0 35 35" fill="none">
  <g clip-path="url(#clip0_7685_257)">
    <path d="M25.7702 0H9.22645C4.05323 0 0 4.05435 0 9.22871V25.7724C0 30.9468 4.05323 35 9.22645 35H25.7702C30.9456 35 35 30.9468 35 25.7713V9.22871C35 4.05435 30.9456 0 25.7702 0ZM32.7419 25.7713C32.7419 29.7444 29.7455 32.7408 25.7702 32.7408H9.22645C5.25339 32.7408 2.25806 29.7455 2.25806 25.7713V9.22871C2.25806 5.25452 5.25339 2.25806 9.22645 2.25806H25.7702C29.7455 2.25806 32.7419 5.25452 32.7419 9.22871V25.7713Z" fill="url(#paint0_linear_7685_257)"></path>
    <path d="M17.9804 9C13.0177 9 9 13.0221 9 17.9804C9 22.9431 13.0221 26.9608 17.9804 26.9608C22.9431 26.9608 26.9608 22.9388 26.9608 17.9804C26.9608 13.0177 22.9388 9 17.9804 9ZM17.9804 23.8094C14.759 23.8094 12.1515 21.2004 12.1515 17.9804C12.1515 14.7604 14.7604 12.1515 17.9804 12.1515C21.2004 12.1515 23.8094 14.7604 23.8094 17.9804C23.8108 21.2004 21.2019 23.8094 17.9804 23.8094Z" fill="url(#paint1_linear_7685_257)"></path>
    <path d="M27.3153 10.1971C28.4743 10.1971 29.4139 9.25753 29.4139 8.09854C29.4139 6.93955 28.4743 6 27.3153 6C26.1563 6 25.2168 6.93955 25.2168 8.09854C25.2168 9.25753 26.1563 10.1971 27.3153 10.1971Z" fill="#7445CA"></path>
  </g>
  <defs>
    <linearGradient id="paint0_linear_7685_257" x1="17.5" y1="0" x2="17.5" y2="35" gradientUnits="userSpaceOnUse">
      <stop stop-color="#4F5BD5"></stop>
      <stop offset="0.270833" stop-color="#962FBF"></stop>
      <stop offset="0.53125" stop-color="#D62976"></stop>
      <stop offset="0.78125" stop-color="#FA7E1E"></stop>
      <stop offset="1" stop-color="#FEDA75"></stop>
    </linearGradient>
    <linearGradient id="paint1_linear_7685_257" x1="17.9804" y1="9" x2="17.9804" y2="26.9608" gradientUnits="userSpaceOnUse">
      <stop stop-color="#4F5BD5"></stop>
      <stop offset="0.270833" stop-color="#962FBF"></stop>
      <stop offset="0.53125" stop-color="#D62976"></stop>
      <stop offset="0.78125" stop-color="#FA7E1E"></stop>
      <stop offset="1" stop-color="#FEDA75"></stop>
    </linearGradient>
    <clipPath id="clip0_7685_257">
      <rect width="35" height="35" fill="white"></rect>
    </clipPath>
  </defs>
</svg>