<svg xmlns="http://www.w3.org/2000/svg" width="143" height="42" viewBox="0 0 143 42" fill="none">
  <g clip-path="url(#clip0_6752_1103)">
    <path d="M81.0883 8.39194C81.8472 8.39597 82.5777 8.10554 83.1244 7.58247C83.6688 7.06149 83.9846 6.34827 84.0033 5.59748C83.9943 4.83627 83.6842 4.10914 83.1401 3.57317C82.5937 3.03493 81.8577 2.7294 81.0883 2.72145C80.3296 2.73899 79.6078 3.05011 79.0766 3.58856C78.5477 4.12488 78.2529 4.84668 78.2561 5.59748C78.2626 6.33782 78.5633 7.04564 79.0925 7.56684C79.6238 8.09024 80.3401 8.38621 81.0883 8.39194ZM100.896 11.079H107.927V11.6294C107.537 11.6971 107.161 11.8255 106.811 12.0098C106.169 12.3065 104.883 13.7445 103.896 16.1544C102.225 20.3417 100.469 25.2879 98.6262 30.9564L97.9399 33.106C97.6393 34.0776 97.3822 34.7118 97.2537 35.0944C97.1252 35.4771 96.9529 36.066 96.6545 36.7839C96.4843 37.324 96.2656 37.8478 96.0009 38.3489C95.6566 38.9831 95.0139 40.2836 94.4999 40.6748C93.6849 41.3519 92.4845 42.1128 90.9857 41.9861C88.0707 41.9861 85.8855 39.8365 85.842 37.2936C85.842 35.5586 86.9574 34.4173 88.6284 34.4173C89.8288 34.4173 90.8985 35.0622 90.8985 36.4035C90.8985 37.3773 89.9139 38.3919 89.9139 38.8993C89.9139 40.2104 90.6851 40.8338 92.1861 40.8338C93.3843 40.8338 94.3648 40.0729 95.0989 38.5509C96.086 36.8162 96.1708 34.914 95.356 32.7986L89.1861 16.6872C87.7701 12.9665 86.6983 11.7434 85.3713 11.6123V11.0616H95.0989V11.6118C93.942 11.7388 93.343 12.4159 93.343 13.641C93.343 14.5288 93.6849 15.8831 94.3276 17.6178L95.4846 20.7458C96.8135 24.129 97.8809 27.089 98.443 28.9507C99.685 25.1028 100.84 21.7194 101.957 18.7593C102.772 16.5602 103.158 14.9955 103.158 14.0646C103.158 12.4159 102.258 11.655 100.885 11.655L100.896 11.079ZM33.2196 31.6743C31.9779 31.4595 30.906 30.3631 30.906 28.0372V0L23.8341 1.52201V2.11538C25.0345 1.98841 26.2305 3.04378 26.2305 5.2859V28.0372C26.2305 30.2363 25.0301 31.5046 23.8341 31.6743C23.7218 31.6939 23.608 31.7076 23.4942 31.7151C22.8821 31.7567 22.269 31.6497 21.7078 31.4035C20.7579 30.995 19.965 30.2664 19.2937 29.1788L16.026 24.0196C15.3368 22.9314 14.3124 22.0934 13.1052 21.6302C11.8951 21.1652 10.5667 21.0985 9.31567 21.44L13.0019 17.4227C15.7862 14.3789 18.3593 12.4335 20.8014 11.6296V11.0787H12.6927V11.6291C14.7927 12.433 14.6642 14.2087 12.257 17.0032L7.07192 22.9637V0L0 1.52201V2.11538C1.2004 2.11538 2.39639 3.29749 2.39639 5.36965V28.0372C2.39639 30.533 1.23973 31.5046 0 31.6743V32.2247H9.39408V31.6743C7.85179 31.4595 7.08052 30.2793 7.08052 28.0372V23.8518L9.09349 21.653L13.9693 29.5592C15.1262 31.4636 16.1981 32.2247 17.9127 32.2247H34.2305V31.7947C34.2305 31.7947 33.7642 31.7625 33.2196 31.6743ZM52.688 29.0003V19.542C52.5942 13.3577 49.9667 10.5418 43.9495 10.5418C42.0284 10.527 40.1576 11.152 38.6359 12.317C37.0498 13.5015 36.2786 14.8558 36.2786 16.4208C36.2786 17.9428 37.1349 19.0841 38.5486 19.0841C40.0499 19.0841 41.1217 18.2392 41.1217 17.0549C41.1217 16.1671 40.5203 14.9398 40.5203 14.0949C40.5203 12.5709 41.6794 11.2597 43.6924 11.2597C46.2655 11.2597 48.1064 13.1643 48.1064 17.3924V19.929L45.9646 20.4362C44.8493 20.6511 43.9082 20.8662 43.1782 21.0811C42.4485 21.296 41.5074 21.5885 40.3918 22.0097C38.163 22.8568 36.9648 23.6607 35.9345 25.1827C35.43 25.9183 35.1612 26.7882 35.1632 27.6782C35.1632 31.1865 37.6488 32.7944 41.1217 32.7944C43.8644 32.7944 46.7861 31.3562 48.1064 28.6499C48.1253 29.5035 48.3325 30.3428 48.7142 31.1091C50.1673 34.011 54.98 32.2956 54.98 32.2956V31.7454C52.8731 32.0699 52.6989 29.5978 52.688 29.0003ZM48.1128 26.0725C48.1128 27.4675 47.5986 28.6091 46.5705 29.4129C45.5856 30.217 44.5573 30.6405 43.4854 30.6405C41.3852 30.6405 40.0128 29.2862 40.0128 26.7904C40.0128 25.6083 40.6663 24.5075 41.2132 23.8736C41.6466 23.4356 42.1548 23.0774 42.7142 22.8158C43.4419 22.4353 43.8035 22.2397 44.3002 22.0119L46.2611 21.294C47.2457 20.9136 47.8449 20.7028 48.102 20.5761L48.1128 26.0725ZM142.8 11.079H126.132V0H142.8L139.301 5.5396L142.8 11.079ZM108.918 29.5333C107.893 28.4925 107.084 27.2609 106.538 25.909C105.993 24.5571 105.721 23.1115 105.739 21.6552C105.717 20.2056 105.986 18.7663 106.532 17.4217C107.079 16.0749 107.89 14.8496 108.918 13.8175C111.021 11.6164 113.596 10.5137 116.602 10.5137C119.563 10.5137 122.14 11.6164 124.242 13.8175C125.285 14.8414 126.108 16.0642 126.662 17.4124C127.215 18.7582 127.488 20.2017 127.462 21.6552C127.484 23.1142 127.21 24.5626 126.657 25.9145C126.103 27.2687 125.282 28.4992 124.242 29.5333C122.14 31.6829 119.563 32.7944 116.602 32.7944C113.596 32.7944 111.021 31.6936 108.918 29.5333ZM120.465 14.1701C119.617 12.5343 118.504 11.5756 117.197 11.3175C114.546 10.7911 112.201 13.48 111.328 17.7557C110.955 19.6736 110.865 21.6352 111.06 23.5788C111.252 25.5241 111.799 27.4182 112.676 29.168C113.526 30.806 114.637 31.7625 115.944 32.0204C118.596 32.5471 121.007 29.7441 121.887 25.4254C122.617 21.8163 122.247 17.4205 120.454 14.1679L120.465 14.1701Z" fill="black"></path>
    <path d="M83.5742 28.0373V11.0791H68.4873V11.5887C70.5024 11.8854 71.461 13.3859 70.5462 15.819C65.8316 28.4629 66.1322 27.8955 65.8316 28.9101C65.531 27.9362 64.8445 25.544 63.7314 22.5429C62.618 19.5421 61.8882 17.5517 61.5876 16.6639C60.4307 13.1535 60.8164 11.8422 62.703 11.6317V11.0813H52.9297V11.6317C54.3872 11.9284 55.6726 13.5769 56.7445 16.5369L58.2455 20.3848C59.8947 24.5421 61.8317 30.2729 62.4786 32.2271H65.7269C66.7727 29.2175 70.9687 17.2077 71.5308 15.9868C72.1364 14.5959 72.8226 13.5425 73.5897 12.8138C73.9605 12.4211 74.411 12.1113 74.9115 11.9049C75.4131 11.698 75.953 11.599 76.4959 11.6144C76.4959 11.6144 78.851 11.6144 78.851 13.8565V28.0373C78.851 30.402 77.6941 31.5048 76.4937 31.6745V32.2249H85.8378V31.6745C84.6025 31.5048 83.5742 30.4062 83.5742 28.0373Z" fill="black"></path>
  </g>
  <defs>
    <clipPath id="clip0_6752_1103">
      <rect width="142.8" height="42" fill="white"></rect>
    </clipPath>
  </defs>
</svg>