<svg width="38" height="38" viewBox="0 0 38 38" fill="none" xmlns="http://www.w3.org/2000/svg">
<rect x="0.5" y="0.5" width="37" height="37" rx="4.5" stroke="#F5C300"/>
<rect x="5" y="5" width="28" height="28" rx="3" fill="#F5C300"/>
<g clip-path="url(#clip0_5708_10079)">
<path d="M27.7523 15.3889L19.2796 10.0803C19.1087 9.97322 18.8913 9.97322 18.7204 10.0803L10.2477 15.3889C10.0937 15.4852 10 15.6542 10 15.8359C10 16.0177 10.0937 16.1867 10.2477 16.283L18.7204 21.5564C18.8059 21.6099 18.9032 21.6367 19 21.6367C19.0968 21.6367 19.1941 21.6099 19.2796 21.5564L27.7523 16.283C27.9063 16.1867 28 16.0177 28 15.8359C28 15.6542 27.9063 15.4852 27.7523 15.3889Z" fill="white"/>
<path d="M27.7523 21.7163L26.9312 21.2031L19.2796 25.9634C19.1941 26.0169 19.0968 26.0437 19 26.0437C18.9032 26.0437 18.8059 26.0169 18.7204 25.9634L11.0688 21.2031L10.2477 21.7163C10.0937 21.8126 10 21.9815 10 22.1633C10 22.3451 10.0937 22.514 10.2477 22.6103L18.7204 27.9189C18.8059 27.9725 18.9032 27.9993 19 27.9993C19.0968 27.9993 19.1941 27.9725 19.2796 27.9189L27.7523 22.6103C27.9063 22.514 28 22.3451 28 22.1633C28 21.9815 27.9063 21.8126 27.7523 21.7163Z" fill="white"/>
<path d="M27.7523 18.5522L26.9312 18.0391L19.2796 22.7993C19.1941 22.8529 19.0968 22.8797 19 22.8797C18.9032 22.8797 18.8059 22.8529 18.7204 22.7993L11.0688 18.0391L10.2477 18.5522C10.0937 18.6485 10 18.8175 10 18.9992C10 19.181 10.0937 19.35 10.2477 19.4463L18.7204 24.7197C18.8059 24.7732 18.9032 24.8 19 24.8C19.0968 24.8 19.1941 24.7732 19.2796 24.7197L27.7523 19.4463C27.9063 19.35 28 19.181 28 18.9992C28 18.8175 27.9063 18.6485 27.7523 18.5522Z" fill="white"/>
</g>
<defs>
<clipPath id="clip0_5708_10079">
<rect width="18" height="18" fill="white" transform="translate(10 10)"/>
</clipPath>
</defs>
</svg>
