<svg width="568" height="199" viewBox="0 0 568 199" fill="none" xmlns="http://www.w3.org/2000/svg">
<g opacity="0.5">
<path d="M249.498 164.805L247.637 164.993L247.538 164.01L252.78 163.482L252.879 164.465L249.498 164.805ZM241.074 165.56L235.817 165.944L235.718 164.961L240.975 164.577L241.074 165.56ZM259.423 163.714L259.324 162.731C261.054 162.557 262.79 162.303 264.552 162.059L264.651 163.042C262.898 163.245 261.159 163.46 259.432 163.673L259.423 163.714ZM271.178 162.12L271.079 161.137L276.295 160.348L276.394 161.331L271.178 162.12ZM229.237 166.341C227.458 166.414 225.689 166.473 223.959 166.515L223.926 165.525C225.656 165.483 227.398 165.427 229.204 165.351L229.237 166.341ZM282.909 160.291L282.745 159.315L287.951 158.42L288.128 159.395L282.909 160.291ZM217.348 166.598C215.547 166.593 213.797 166.571 212.045 166.522L212.065 165.54C213.777 165.58 215.54 165.601 217.367 165.603L217.348 166.598ZM294.616 158.213L294.425 157.239L299.621 156.253L299.812 157.227L294.616 158.213ZM205.505 166.267C203.708 166.17 201.948 166.042 200.173 165.903L200.26 164.928C201.968 165.061 203.716 165.189 205.499 165.288L205.505 166.267ZM306.249 155.943L306.059 154.97L311.247 153.905L311.451 154.877L306.249 155.943ZM317.913 153.446L317.697 152.474L318.991 152.185C320.287 151.909 321.517 151.627 322.771 151.328L323 152.285L319.195 153.158L317.913 153.446ZM193.635 165.131C191.865 164.912 190.106 164.666 188.404 164.334L188.557 163.352C190.24 163.633 191.985 163.867 193.755 164.087L193.635 165.131ZM329.337 150.668L329.082 149.714C330.783 149.251 332.471 148.79 334.155 148.29L334.436 149.241C332.756 149.728 331.056 150.203 329.337 150.668ZM340.757 147.321L340.464 146.384C342.131 145.845 343.798 145.307 345.462 144.742L345.768 145.678C344.156 146.237 342.489 146.776 340.809 147.315L340.757 147.321ZM181.859 163.232C180.114 162.864 178.379 162.456 176.707 162.029L176.956 161.077C178.613 161.493 180.335 161.902 182.067 162.271L181.859 163.232ZM351.98 143.464L351.636 142.545C353.283 141.943 354.929 141.327 356.563 140.726L356.92 141.643L351.98 143.464ZM170.35 160.166C168.653 159.609 166.977 159.01 165.364 158.378L165.722 157.455C167.321 158.088 168.982 158.676 170.653 159.222L170.35 160.166ZM363.041 139.187L362.671 138.271L367.511 136.248L367.893 137.149C366.348 137.848 364.735 138.526 363.108 139.193L363.041 139.187ZM373.942 134.502L373.534 133.603C375.141 132.872 376.736 132.142 378.316 131.401L378.738 132.298L373.942 134.502ZM159.299 155.731C157.699 154.952 156.119 154.118 154.615 153.25L155.111 152.393C156.6 153.249 158.153 154.073 159.739 154.84L159.299 155.731ZM384.687 129.449L384.252 128.553C385.83 127.785 387.406 127.004 388.968 126.211L389.414 127.093C387.945 127.89 386.343 128.673 384.754 129.455L384.687 129.449ZM149.113 149.753C147.66 148.734 146.254 147.657 144.895 146.523L145.534 145.77C146.863 146.868 148.256 147.946 149.68 148.941L149.113 149.753ZM395.351 124.126L394.88 123.26C396.451 122.426 397.999 121.622 399.528 120.766L399.999 121.633C398.462 122.41 396.904 123.241 395.345 124.06L395.351 124.126ZM405.768 118.444L405.284 117.579L409.867 114.973L410.35 115.825C408.843 116.638 407.315 117.507 405.761 118.378L405.768 118.444ZM140.01 142.05C138.757 140.775 137.624 139.386 136.627 137.902L137.446 137.357C138.408 138.791 139.505 140.13 140.721 141.356L140.01 142.05ZM416.037 112.472L415.541 111.622C417.051 110.715 418.562 109.809 420.045 108.892L420.554 109.741C419.065 110.592 417.567 111.498 416.03 112.407L416.037 112.472ZM426.161 106.251L425.627 105.417L430.067 102.574L430.601 103.407L426.161 106.251ZM133.766 131.836C133.426 130.673 133.195 129.482 133.077 128.277C133.017 127.688 132.959 127.111 132.979 126.513L133.956 126.494C134.013 127.058 134.003 127.615 134.06 128.178C134.176 129.321 134.392 130.451 134.704 131.556L133.766 131.836ZM436.105 99.6893L435.559 98.8704C437.048 97.8734 438.511 96.892 439.935 95.9146L440.494 96.7322L436.105 99.6893ZM445.916 92.9827L445.358 92.1783L449.655 89.098L450.226 89.9011C448.836 90.9545 447.399 91.9332 445.918 93.0089L445.916 92.9827ZM134.871 120.061L133.917 119.786C134.406 118.07 135.04 116.399 135.81 114.79L136.701 115.216C135.94 116.784 135.315 118.415 134.835 120.091L134.871 120.061ZM455.611 86.0494L455.027 85.2476C456.494 84.1732 457.91 83.1172 459.252 82.1084L459.848 82.8958L455.611 86.0494ZM465.097 78.8856L464.488 78.0995C465.987 76.9425 467.373 75.8498 468.649 74.8476L469.257 75.6206C467.954 76.6254 466.571 77.7443 465.1 78.9118L465.097 78.8856ZM139.939 109.634L139.127 109.067C140.083 107.647 141.157 106.215 142.322 104.774L143.088 105.412C141.936 106.852 140.881 108.216 139.939 109.634ZM474.362 71.4925L473.728 70.7222C476.37 68.55 477.769 67.3236 477.782 67.3223L478.426 68.065C478.426 68.065 477.015 69.3059 474.362 71.4925ZM147.491 100.613L146.785 99.9163C147.987 98.7097 149.266 97.469 150.613 96.2478L151.268 96.9762C149.935 98.196 148.667 99.4092 147.491 100.613ZM156.254 92.7145L155.634 91.9429C156.982 90.8672 158.394 89.7719 159.822 88.7014L160.419 89.5019C158.985 90.5068 157.589 91.6402 156.254 92.7145ZM165.782 85.6922L165.223 84.8747C166.661 83.9091 168.152 82.9382 169.659 81.9922L170.18 82.8268C168.686 83.7715 167.208 84.741 165.782 85.6922ZM175.826 79.4652L175.342 78.6004C176.894 77.716 178.464 76.8696 179.985 76.0678L180.445 76.9483C178.922 77.737 177.365 78.5821 175.826 79.4652Z" fill="black"/>
<path d="M179.105 77.0023C213.439 64.5023 274.105 51.4022 242.105 99.0022C210.105 146.602 97.7721 131.835 45.6055 118.502C12.4036 110.001 -61.8 88.4 -93 70" stroke="black" stroke-dasharray="5 5"/>
</g>
<path d="M483.431 44.141L478.096 67.6877L493.588 52.0554L556.341 19.818L483.431 44.141Z" fill="#F3F3F3"/>
<path opacity="0.1" d="M483.431 44.141L478.096 67.6877L493.588 52.0554L556.341 19.818L483.431 44.141Z" fill="black"/>
<path d="M496.472 57.0213L478.097 67.6877L493.59 52.0554L496.472 57.0213Z" fill="#E6E6E6"/>
<path d="M493.59 52.0552L556.344 19.8178L509.1 79.3559L493.59 52.0552Z" fill="#F3F3F3"/>
<path d="M483.431 44.141L453.832 29.9749L556.341 19.818L483.431 44.141Z" fill="#F3F3F3"/>
</svg>
