<svg xmlns="http://www.w3.org/2000/svg" width="35" height="35" viewBox="0 0 35 35" fill="none">
  <g clip-path="url(#clip0_7685_246)">
    <path d="M25.7702 0H9.22645C4.05323 0 0 4.05435 0 9.22871V25.7724C0 30.9468 4.05323 35 9.22645 35H25.7702C30.9456 35 35 30.9468 35 25.7713V9.22871C35 4.05435 30.9456 0 25.7702 0ZM32.7419 25.7713C32.7419 29.7444 29.7455 32.7408 25.7702 32.7408H9.22645C5.25339 32.7408 2.25806 29.7455 2.25806 25.7713V9.22871C2.25806 5.25452 5.25339 2.25806 9.22645 2.25806H25.7702C29.7455 2.25806 32.7419 5.25452 32.7419 9.22871V25.7713Z" fill="#0A66C2"></path>
    <path d="M12.6473 13.832H9.73047V25.4988H12.6473V13.832Z" fill="#0A66C2"></path>
    <path d="M11.1875 12.375C12.3956 12.375 13.375 11.3956 13.375 10.1875C13.375 8.97938 12.3956 8 11.1875 8C9.97938 8 9 8.97938 9 10.1875C9 11.3956 9.97938 12.375 11.1875 12.375Z" fill="#0A66C2"></path>
    <path d="M21.3961 13.833C20.3282 13.833 19.3394 14.1415 18.4793 14.642V13.9542H15.5625V25.4998H18.4793V19.6662C18.4793 18.0553 19.7852 16.7498 21.3961 16.7498C23.007 16.7498 24.3125 18.0553 24.3125 19.6662V25.4998H27.2293V19.6662C27.2293 16.4448 24.6175 13.833 21.3961 13.833Z" fill="#0A66C2"></path>
  </g>
  <defs>
    <clipPath id="clip0_7685_246">
      <rect width="35" height="35" fill="white"></rect>
    </clipPath>
  </defs>
</svg>