<svg width="589" height="365" viewBox="0 0 589 365" fill="none" xmlns="http://www.w3.org/2000/svg">
<path d="M1.37564 316.104C0.714685 316.118 0.168678 315.601 0.139941 314.94C0.125572 314.279 0.642842 313.719 1.3038 313.704C1.77796 313.69 73.0605 311.535 157.634 309.35C155.938 306.391 155.105 302.856 154.803 299.091C134.759 302.755 111.626 306.261 99.0819 305.715C86.4089 305.169 74.368 303.043 63.4191 295.427C52.5278 287.826 42.8002 274.808 34.7395 252.48C27.5408 232.507 23.4314 214.46 21.5204 198.985C19.1927 180.048 20.1554 164.932 22.7704 154.874C26.3913 140.965 64.6261 122.688 83.9806 114.24C85.4462 109.009 88.8946 104.44 90.1591 102.888C88.3342 98.2331 77.6009 70.1712 76.5951 51.1041C76.0347 40.5289 77.8164 32.7986 82.5868 25.7867C87.2997 18.861 94.9007 12.7113 106.051 5.21091C112.861 0.627331 122.215 -0.622736 131.957 0.268115C141.182 1.13023 150.794 3.9321 158.884 7.71104C167.045 11.5187 173.698 16.3322 176.945 21.1744C178.555 23.5739 179.359 26.0022 179.144 28.373C178.641 33.7756 176.356 37.6408 173.051 40.4714C173.64 43.2301 177.391 61.8231 175.508 72.5851C174.517 78.2607 176.96 83.1748 178.928 87.1405C180.911 91.1206 182.492 94.2817 180.322 96.9974C177.405 100.647 173.138 101.423 171.025 101.581C170.997 104.67 170.336 112.918 164.746 119.283C162.433 121.912 158.51 124.369 154.315 126.496C154.415 126.496 154.53 126.51 154.631 126.51C172.635 126.683 171.14 111.581 171.14 111.538C171.126 111.423 171.14 111.308 171.155 111.194C171.284 110.547 171.931 110.13 172.577 110.26C172.635 110.274 190.883 114.067 198.915 116.625C204.547 118.421 219.347 139.902 230.597 156.225C236.331 164.573 241.144 171.542 243.184 173.711C246.834 177.576 252.452 187.289 255.671 197.046C258.041 204.259 259.119 211.558 257.179 216.716C256.188 219.374 254.507 221.817 252.366 224.073C252.495 229.777 251.461 234.95 251.446 234.979C251.446 234.993 251.432 235.022 251.432 235.036C251.274 235.683 250.613 236.071 249.966 235.913C249.966 235.913 248.443 235.51 242.408 236.042C237.221 236.487 235.08 241.948 234.865 242.508C234.736 242.939 234.362 243.284 233.888 243.356C233.816 243.37 210.553 246.948 196.63 248.959C192.104 249.606 190.38 254.707 190.193 260.641C190.064 264.362 190.552 268.4 191.357 271.978C192.147 275.498 193.225 278.544 194.317 280.312C194.82 281.131 195.165 281.605 195.265 281.562C197.636 280.527 206.631 281.95 216.488 283.501C220.022 284.062 223.657 284.637 227.12 285.125C231.388 284.723 235.655 283.976 237.811 282.108C239.693 280.484 241.532 279.493 243.256 279.018C245.052 278.516 246.705 278.559 248.156 278.99C249.621 279.435 250.872 280.283 251.82 281.375C252.61 282.28 253.185 283.358 253.501 284.507C253.702 285.24 253.99 285.8 254.32 286.203C254.636 286.576 255.038 286.821 255.469 286.921C255.972 287.036 256.547 287.007 257.208 286.821C258.473 286.461 259.924 285.599 261.504 284.277C261.806 284.019 262.007 283.76 262.137 283.473C261.116 283.444 260.096 283.272 259.133 282.999C258.07 282.697 257.079 282.28 256.231 281.792C255.34 281.274 254.607 280.685 254.119 280.067C253.228 278.947 253.07 277.74 253.918 276.676C255.096 275.211 257.409 275.34 259.608 276.403C260.57 276.863 261.533 277.51 262.352 278.257C263.185 279.018 263.875 279.909 264.292 280.843C265.398 280.541 266.375 279.938 267.051 278.918C267.712 277.926 267.985 277.007 267.956 276.159C267.941 275.671 267.826 275.196 267.625 274.751C264.809 275.081 261.519 274.176 259.191 273.041C258.113 272.509 257.222 271.935 256.633 271.374C255.642 270.426 255.369 269.435 256.102 268.558C256.504 268.07 257.266 267.753 258.444 267.725C261.174 267.639 264.22 268.515 266.505 270.052C267.367 270.627 268.128 271.288 268.746 272.035C269.019 271.906 269.263 271.762 269.493 271.59C270.499 270.8 270.197 268.141 269.35 264.794C264.723 260.756 256.906 254.793 252.696 251.618C253.4 254.951 253.645 259.822 250.211 262.624C249.435 263.256 248.616 263.515 247.768 263.486C246.389 263.429 245.067 262.552 243.888 261.115C242.84 259.865 241.877 258.141 241.058 256.216C239.017 251.402 237.925 245.166 239.089 241.531C241.288 234.677 253.731 237.723 257.108 238.686C259.737 235.094 272.41 218.929 294.178 209.518C306.751 204.072 319.438 197.06 330.473 189.143C340.517 181.93 349.196 173.984 355.159 165.794C361.955 156.469 370.921 146.238 379.298 138.422C380.462 137.344 381.611 136.31 382.746 135.333C384.815 129.499 386.726 125.548 388.249 124.211C392.014 120.892 402.877 118.32 411.325 117.156C414.228 116.769 416.857 116.524 418.84 116.467C421.197 116.409 422.835 116.74 423.294 117.487C423.438 117.717 423.51 117.961 423.51 118.234C423.51 119.772 419.99 121.74 415.119 123.507C410.334 125.232 404.141 126.97 399.012 127.919C395.462 128.579 390.362 131.956 384.686 136.827C382.272 143.839 379.556 153.667 376.941 164.932C372.602 183.654 368.608 206.27 366.725 226.631C363.306 263.529 344.138 291.936 338.419 299.666L348.233 299.12C351.164 294.881 372.803 263.587 386.913 241.071C401.986 217.032 431.197 145.391 431.47 144.73L438.094 123.048C438.137 122.818 438.252 122.617 438.424 122.444C438.899 121.97 439.66 121.97 440.134 122.444L450.882 133.192C455.178 130.778 475.912 118.809 482.55 108.19C483.844 106.121 485.165 102.788 486.358 98.7072C483.24 100.331 480.237 101.38 477.665 101.523C476.386 101.595 475.395 101.351 474.633 100.862C473.283 99.986 472.823 98.4773 473.01 96.595C473.153 95.0145 473.771 93.1322 474.662 91.135C477.392 85.0427 482.924 77.6716 485.711 75.5163C486.732 74.7117 487.795 74.3525 488.815 74.3525C489.476 74.3525 490.123 74.4962 490.712 74.7835C490.985 71.7374 491.143 68.72 491.157 65.8176C491.186 60.7885 490.784 56.1331 489.821 52.4117C488.901 48.877 487.493 46.2188 485.482 44.9544C484.634 44.4227 483.657 44.1354 482.55 44.121C473.958 44.0779 468.986 40.2702 463.57 36.1177C458.21 32.0083 452.405 27.5684 442.017 26.4908C440.379 26.3183 438.899 26.4477 437.577 26.8356C438.08 27.9707 438.669 29.1346 439.373 30.2841C444.114 38.0575 452.175 42.8709 458.857 46.8654C464.015 49.9403 468.383 52.5554 470.136 55.8314C473.139 61.4208 472.823 67.8579 472.334 77.9877C472.176 81.2925 471.99 85.014 471.903 89.1521C471.745 96.4945 468.383 102.888 463.929 107.917C457.75 114.901 449.388 119.312 444.646 119.973C444.158 120.045 443.655 120.088 443.109 120.116C438.942 120.375 433.151 119.642 428.28 117.861C423.179 115.993 418.998 112.932 418.395 108.578C418.366 108.377 418.352 108.19 418.337 107.989C418.136 104.843 418.768 101.624 419.357 98.5492C420.349 93.4771 421.254 88.8647 417.648 86.7238C412.777 83.8214 413.596 80.258 415.952 76.3066C416.627 75.1715 417.418 74.0364 418.222 72.8725C419.084 71.6368 419.961 70.3724 420.665 69.1654C421.527 67.7142 421.915 63.5473 422.404 58.4321C423.524 46.7217 425.09 30.2553 434.444 25.4131C430.349 13.2286 435.608 2.58146 435.623 2.55272C435.694 2.40903 435.809 2.26535 435.939 2.1504C436.442 1.73371 437.203 1.80555 437.634 2.32282C437.649 2.33719 441.499 7.06445 447.664 11.1164C450.753 13.1424 454.474 11.7342 459.489 9.82322C463.584 8.25704 468.498 6.4035 474.705 5.68507C481.933 4.85169 487.766 4.39189 493.456 6.69087C499.117 8.97547 504.462 13.9614 510.569 23.9619C515.253 31.6203 516.633 40.3277 516.36 48.5609C515.914 61.8662 511.086 74.0076 508.802 78.4619C506.733 82.4995 500.583 88.9222 493.83 93.9368L493.787 93.9656C493.643 95.891 494.017 97.0548 494.376 98.1612C494.778 99.3969 495.152 100.575 495.008 102.429C494.62 107.084 457.894 146.77 456.328 148.466C456.299 148.509 456.256 148.552 456.213 148.595C455.724 149.04 454.977 149.026 454.517 148.537L445.005 138.379C441.471 147.963 424.961 193.094 417.877 218.541C410.894 243.6 413.179 268.026 413.797 273.372L432.332 272.581C429.243 260.239 421.858 229.001 424.243 220.955C425.996 215.021 433.999 195.149 443.08 176.614C449.043 164.458 455.48 152.848 460.983 146.052C474.72 129.054 495.655 104.871 495.726 104.799C496.157 104.297 496.919 104.239 497.422 104.67C497.479 104.713 497.522 104.771 497.566 104.814C497.609 104.871 512.653 123.493 519.751 128.637C523.113 131.065 528.142 132.56 532.266 133.781C534.234 134.37 536.016 134.887 537.366 135.448C539.709 136.41 540.93 137.56 540.211 139.284C538.645 143.106 532.165 140.865 524.607 138.235C524.119 138.063 523.63 137.89 522.265 137.431C515.972 135.29 509.204 129.916 506.374 127.516L502.092 139.758C501.919 140.232 501.503 140.534 501.028 140.563L489.878 141.296L498.025 149.73C498.485 150.204 498.471 150.966 497.997 151.426L497.982 151.44C497.81 151.612 434.603 211.228 432.16 220.653C431.125 224.619 430.967 229.605 431.269 234.576C431.686 241.473 433.008 248.342 434.143 252.58C436.111 259.937 439.387 273.17 439.387 273.214C439.545 273.86 439.157 274.507 438.511 274.665C438.41 274.693 438.31 274.694 438.223 274.694L435.393 274.823C435.738 276.188 435.953 276.978 435.953 276.992C435.982 277.093 435.996 277.208 435.996 277.309C435.982 277.97 435.436 278.501 434.775 278.487C434.717 278.487 412.69 278.128 407.733 281.03C405.161 282.539 402.905 284.651 401.454 287.094C400.175 289.249 399.514 291.648 399.831 294.134C399.888 294.565 399.945 295.169 400.003 295.729C400.391 299.508 400.52 300.859 410.391 300.859C420.536 300.859 436.858 301.879 441.974 302.209C441.083 297.712 438.841 284.665 441.657 278.429C443.454 274.435 447.419 271.777 455.25 270.268C462.722 268.831 473.872 268.414 490.324 268.874C499.936 269.133 506.905 269.133 512.308 269.118C525.512 269.09 529.607 269.075 539.91 273.113C547.568 276.116 554.034 278.128 557.684 278.487C558.603 278.587 559.293 278.573 559.71 278.444C559.638 278.214 559.451 277.898 559.135 277.481C555.485 272.668 526.533 265.713 525.498 265.454C525.081 265.368 524.722 265.067 524.593 264.621C524.578 264.564 518.759 245.683 516.59 214.46C515.842 203.727 517.768 191.442 521.073 180.033C524.061 169.745 528.185 160.147 532.496 153.064C536.95 145.736 541.72 140.994 545.83 140.707C546.491 140.663 547.137 140.721 547.769 140.908C557.123 143.623 559.336 153.02 566.032 181.355C567.957 189.488 570.256 199.215 573.187 210.825C579.711 236.545 584.955 259.908 587.139 278.587C589.352 297.525 588.375 311.75 582.34 318.906C573.302 329.639 513.615 320.213 469.188 313.201C453.957 310.802 440.537 308.675 431.614 307.756C411.972 305.715 276.505 308.646 162.749 311.592C165.134 313.575 168.425 314.839 172.908 315.04C197.277 316.104 278.632 316.305 282.612 316.305C284.207 315.859 298.101 312.124 309.323 311.793C321.105 311.434 395.046 313.417 395.261 313.417C395.707 313.431 396.095 313.69 396.296 314.063L417.331 350.574C433.87 351.867 450.983 352.959 466.601 353.62C489.031 354.583 508.371 354.698 518.558 353.39C519.219 353.304 519.823 353.778 519.909 354.439C519.995 355.1 519.521 355.703 518.86 355.775C508.529 357.112 489.045 356.997 466.501 356.034C451.356 355.387 434.832 354.353 418.783 353.103L422.303 359.224C422.633 359.799 422.432 360.531 421.858 360.862C421.628 360.991 421.383 361.034 421.139 361.006C420.967 360.991 361.538 354.87 338.477 355.229C315.501 355.589 279.206 364.928 279.106 364.957C279.005 364.986 278.905 365 278.804 365H138.524C137.863 365 137.317 364.454 137.317 363.793C137.317 363.491 137.417 363.218 137.604 363.017L167.376 320.443C167.606 320.098 167.994 319.926 168.367 319.926L283.531 320.831C284.192 320.831 284.724 321.377 284.724 322.038C284.724 322.052 284.724 322.081 284.724 322.095L282.827 355.574C292.181 353.534 341.983 343.318 383.982 347.585C393.48 348.548 403.825 349.482 414.443 350.33L394.557 315.788C387.172 315.586 320.502 313.833 309.423 314.178C297.828 314.538 283.172 318.647 283.129 318.661C283.028 318.69 282.928 318.704 282.813 318.704C282.569 318.704 197.794 318.518 172.85 317.44C166.37 317.153 162.074 314.983 159.272 311.678C74.0375 313.92 1.86417 316.089 1.37564 316.104ZM160.608 309.264C274.881 306.304 412.058 303.316 431.916 305.385C440.838 306.319 454.316 308.445 469.604 310.859C513.472 317.785 572.397 327.067 580.558 317.383C586.105 310.802 586.938 297.18 584.797 278.875C582.628 260.325 577.397 237.048 570.903 211.414C567.957 199.776 565.658 190.048 563.733 181.916C557.281 154.601 555.14 145.549 547.151 143.221C546.807 143.12 546.433 143.077 546.031 143.106C542.769 143.336 538.66 147.632 534.593 154.314C530.383 161.225 526.36 170.608 523.429 180.694C520.196 191.844 518.314 203.842 519.032 214.302C520.958 241.948 525.728 259.736 526.748 263.27C531.274 264.377 557.224 270.915 561.089 276.03C561.764 276.921 562.124 277.711 562.181 278.372C562.282 279.55 561.721 280.312 560.557 280.7C559.81 280.944 558.776 281.001 557.497 280.872C553.617 280.484 546.922 278.415 539.076 275.34C529.191 271.461 525.211 271.475 512.351 271.504C506.919 271.518 499.922 271.532 490.309 271.274C474.044 270.828 463.052 271.231 455.753 272.624C448.813 273.961 445.365 276.173 443.899 279.421C440.81 286.289 444.689 303.201 444.704 303.258C444.847 303.905 444.445 304.551 443.798 304.695C443.683 304.724 443.568 304.738 443.454 304.724C443.396 304.724 422.547 303.287 410.449 303.287C398.408 303.287 398.221 301.376 397.675 295.988C397.632 295.571 397.589 295.126 397.503 294.45C397.129 291.419 397.905 288.502 399.443 285.901C401.109 283.113 403.667 280.7 406.584 278.99C411.239 276.26 428.05 276.087 433.295 276.102C433.209 275.757 433.108 275.383 432.993 274.938L412.834 275.8C412.216 275.829 411.685 275.369 411.598 274.765C411.584 274.679 407.59 246.689 415.607 217.88C423.567 189.272 443.425 135.864 443.482 135.706C443.712 135.088 444.402 134.772 445.034 135.002C445.206 135.074 445.365 135.175 445.479 135.304L455.451 145.937C461.112 139.816 492.379 105.805 492.666 102.228C492.781 100.834 492.479 99.8854 492.149 98.894C491.847 97.96 491.531 96.983 491.43 95.6754C490.712 96.164 489.993 96.6238 489.275 97.0692C487.838 102.457 486.2 106.883 484.576 109.484C476.817 121.869 451.313 135.721 451.241 135.749C450.767 136.008 450.178 135.907 449.819 135.548L439.847 125.576L433.74 145.534C433.726 145.577 433.712 145.606 433.697 145.635C433.611 145.851 404.199 218.024 388.939 242.35C373.708 266.647 349.928 300.873 349.857 300.974C349.641 301.29 349.296 301.477 348.937 301.491L335.919 302.209C335.258 302.252 334.683 301.735 334.655 301.074C334.64 300.758 334.741 300.456 334.928 300.241C335.445 299.594 360.403 268.687 364.297 226.415C366.194 205.925 370.217 183.194 374.571 164.386C376.74 155.046 378.996 146.655 381.151 139.945C381.065 140.017 380.993 140.103 380.907 140.175C372.631 147.891 363.78 158.006 357.07 167.202C350.949 175.608 342.083 183.726 331.853 191.083C320.674 199.1 307.843 206.199 295.112 211.716C271.217 222.061 258.616 240.712 258.573 240.755C258.257 241.229 257.668 241.402 257.165 241.2C256.231 240.899 243.113 236.818 241.374 242.249C240.382 245.353 241.417 250.899 243.271 255.267C243.989 256.977 244.837 258.486 245.742 259.563C246.503 260.469 247.236 261.043 247.868 261.072C248.127 261.086 248.415 260.986 248.702 260.742C252.883 257.336 249.435 248.959 249.435 248.931C249.176 248.313 249.478 247.609 250.096 247.364C250.527 247.192 250.986 247.278 251.317 247.566C252.165 248.198 261.476 255.123 268.157 260.627C267.568 258.773 266.921 256.862 266.318 255.037C264.565 249.836 263.013 245.238 263.731 243.456C264.206 242.292 265.096 241.904 266.548 242.494C271.893 244.663 274.982 257.279 275.873 261.417C280.212 260.052 295.285 254.922 311.938 244.922C317.412 241.631 323.476 237.551 329.338 233.585C340.79 225.855 351.495 218.627 356.567 218.441C358.923 218.354 360.303 219.432 360.403 222.047C360.475 223.886 358.593 226.257 355.331 228.958C347.112 235.755 329.396 245.568 312.585 253.715C295.716 261.891 279.652 268.429 274.824 268.601C273.789 268.644 273.028 268.4 272.582 267.868C272.482 267.753 272.381 267.639 272.266 267.495C272.611 270.239 272.353 272.409 271.002 273.472C270.686 273.716 270.355 273.918 269.996 274.09C270.226 274.722 270.37 275.383 270.384 276.087C270.427 277.409 270.039 278.817 269.091 280.24C267.984 281.892 266.447 282.812 264.752 283.214C264.651 284.22 264.134 285.197 263.085 286.088C261.246 287.654 259.478 288.674 257.883 289.12C256.835 289.421 255.843 289.464 254.952 289.249C254.004 289.019 253.185 288.53 252.51 287.74C251.949 287.079 251.504 286.203 251.202 285.139C250.972 284.32 250.57 283.573 250.024 282.927C249.377 282.18 248.515 281.59 247.495 281.274C246.46 280.958 245.253 280.929 243.932 281.303C242.538 281.691 241.015 282.524 239.405 283.904C238.313 284.852 236.862 285.556 235.195 286.088C239.377 286.476 242.638 286.504 244.104 285.872C246.116 285.01 247.912 284.924 249.334 285.456C250.412 285.858 251.274 286.591 251.849 287.582C252.395 288.516 252.668 289.68 252.625 291.002C252.553 293.531 251.259 296.706 248.357 299.91C245.153 303.445 240.066 303.589 234.678 302.094C227.106 299.982 218.844 294.58 214.864 291.16C213.082 289.622 212.852 288.372 213.786 287.309C214.347 286.663 215.482 286.275 216.99 286.016L216.128 285.887C206.645 284.378 197.981 283.013 196.257 283.774C194.848 284.392 193.483 283.501 192.291 281.576C191.07 279.593 189.877 276.288 189.029 272.509C188.196 268.759 187.679 264.521 187.822 260.584C188.052 253.543 190.322 247.465 196.328 246.589C208.556 244.821 228.945 241.689 232.882 241.085C233.715 239.217 236.503 234.145 242.222 233.657C245.886 233.341 248.084 233.369 249.291 233.441C249.521 232.019 249.909 229.346 250.009 226.343C248.601 227.55 247.064 228.7 245.44 229.792C238.112 234.648 228.974 238.14 222.063 240.266C217.45 241.675 213.987 240.223 211.918 237.723C210.855 236.444 210.165 234.878 209.892 233.283C209.605 231.674 209.734 230.022 210.295 228.585C211.286 226.07 213.528 224.188 217.192 224.188C222.666 224.188 224.376 223.082 224.879 222.248C221.847 222.191 214.691 221.817 213.269 219.518C213.039 219.145 212.982 218.728 213.082 218.282C213.283 217.377 214.49 216.343 216.344 215.323C217.967 214.432 220.152 213.483 222.637 212.578C230.339 209.791 241 207.564 246.259 210.021C250.009 211.774 251.59 216.142 252.136 220.74C253.343 219.231 254.291 217.622 254.923 215.94C256.648 211.357 255.599 204.618 253.372 197.865C250.268 188.425 244.894 179.099 241.431 175.421C239.276 173.136 234.42 166.081 228.615 157.661C217.565 141.612 203.039 120.519 198.196 118.981C191.673 116.898 178.066 113.952 173.569 113.004C173.425 117.358 171.514 129.14 154.616 128.982C153.18 128.967 151.728 128.795 150.263 128.479C143.208 131.611 136.57 133.623 136.526 133.623C136.21 133.723 135.865 133.68 135.592 133.522C135.478 133.45 96.0933 111.754 92.8891 98.4055C92.1707 95.4168 90.7482 91.6091 89.1389 87.2842C83.88 73.1743 76.6382 53.7479 84.2823 37.5977C91.1074 23.2147 110.203 32.1807 126.339 39.7673C128.811 40.9312 131.224 42.0663 133.48 43.0577C133.911 42.914 134.371 42.7991 134.86 42.7129C145.521 40.6438 165.709 39.5518 170.637 39.3075C173.957 36.7499 176.27 33.2296 176.744 28.2294C176.916 26.4477 176.256 24.5366 174.948 22.5969C171.945 18.1283 165.637 13.6022 157.864 9.9669C150.004 6.30292 140.693 3.57289 131.742 2.73951C122.503 1.87739 113.695 3.04125 107.387 7.27998C96.4812 14.608 89.0814 20.5853 84.5697 27.1948C80.1154 33.7469 78.463 41.0174 78.9947 51.0466C80.0723 71.45 92.6161 102.644 92.6448 102.73C92.8316 103.176 92.7167 103.679 92.4006 104.009C92.0413 104.426 88.7366 108.305 86.8974 113.047C91.4666 111.093 94.4984 109.886 94.9869 109.685C95.3892 109.498 95.8778 109.541 96.2513 109.828C96.3232 109.886 116.267 125.706 129.946 139.816C134.773 137.1 139.055 135.103 140.966 135.232C141.412 135.261 141.943 135.318 142.547 135.39C142.777 134.744 143.093 134.183 143.452 133.666C144.285 132.545 145.421 131.741 146.742 131.209C148.438 130.519 150.45 130.289 152.49 130.347C158.999 130.534 165.422 139.054 165.867 139.658C166.068 139.916 166.169 140.275 166.097 140.635C165.968 141.281 165.35 141.712 164.689 141.583C164.646 141.569 151.8 139.097 144.458 138.063C144.415 139.6 144.803 141.54 145.78 143.939C148.122 149.73 152.605 163.567 156.872 178.553C160.235 190.379 163.453 202.937 165.379 212.866C168.037 226.616 169.416 237.306 170.077 243.557C180.106 241.445 192.118 238.068 194.403 233.686C196.199 230.237 196.415 225.309 196.716 218.354C197.104 209.374 197.636 197.089 201.889 180.076C206.157 163.007 203.47 148.322 201.947 140.06C201.199 135.951 200.711 133.292 201.587 132.129C202.449 130.979 203.786 131.151 205.941 132.761C210.036 135.836 217.206 145.577 223.844 155.837C231.718 168.007 238.903 180.982 239.319 184.387C239.65 187.103 236.819 191.528 232.983 196.083C227.235 202.908 219.131 210.236 216.545 211.932C210.984 215.567 207.866 203.483 207.852 203.454C207.78 203.195 207.795 202.922 207.924 202.664C207.953 202.592 219.275 177.332 220.712 169.472C220.324 169.947 219.893 170.536 219.419 171.24C215.726 176.729 210.079 188.367 206.746 200.58C203.57 212.219 203.987 221.946 204.289 228.944C204.504 233.959 204.662 237.623 203.398 239.907C200.467 245.18 170.925 250.755 169.703 250.985C169.646 251 169.574 251 169.517 251.014C168.856 251.057 168.281 250.554 168.238 249.893C168.238 249.879 168.166 248.686 167.951 246.431C161.269 247.781 156.082 248.471 156.039 248.471C155.378 248.557 154.775 248.097 154.688 247.436C154.688 247.422 154.688 247.408 154.688 247.393C154.674 247.163 146.556 168.797 138.926 154.745C137.116 151.411 133.667 147.216 129.471 142.79C120.965 147.776 111.008 154.658 110.333 155.133C109.844 155.506 109.154 155.449 108.738 155.003C108.666 154.931 84.9864 129.786 83.4777 121.122C83.2478 119.829 83.2478 118.507 83.3915 117.2C63.9364 125.749 28.3742 142.919 25.0838 155.578C22.5405 165.377 21.6066 180.177 23.9056 198.799C25.8022 214.13 29.8542 232.004 36.981 251.776C44.8406 273.558 54.2664 286.217 64.7841 293.545C75.2588 300.844 86.8974 302.87 99.1825 303.416C111.611 303.962 134.702 300.428 154.674 296.778C154.645 295.571 154.66 294.35 154.717 293.128C154.961 287.64 155.938 282.122 156.743 277.697C157.102 275.671 157.418 273.889 157.605 272.466C158.252 267.423 157.49 264.348 153.898 262.466C149.932 260.397 142.662 259.52 130.535 258.989C108.508 258.012 95.03 249.879 92.1419 247.954C88.7797 249.534 72.4282 257.523 69.5114 264.736C69.3246 265.21 69.1235 265.713 68.9079 266.23C66.4222 272.423 62.8875 281.188 60.6747 280.886C59.2954 280.714 58.735 278.07 59.6115 271.36C61.853 254.391 86.5813 243.729 92.1707 241.531C90.1591 235.913 80.6183 209.704 69.0947 183.784C60.9621 165.478 51.2777 164.271 44.5963 163.438C40.3863 162.92 37.2109 162.518 35.8027 158.768C35.2711 157.331 35.2855 156.11 35.774 155.104C36.4062 153.811 37.7138 153.006 39.5098 152.647C41.0616 152.331 43.0301 152.359 45.2142 152.676C52.1254 153.681 61.58 157.762 67.4423 164.027C71.7529 168.639 76.7819 181.7 82.4288 196.327C90.9062 218.326 100.763 243.959 110.807 248.342C127.877 255.813 185.279 251.33 185.437 251.316C185.538 251.301 185.653 251.316 185.753 251.33C186.4 251.46 186.831 252.077 186.701 252.738C186.701 252.753 185.653 258.012 186.357 268.156C187.046 277.941 192.406 289.249 192.736 289.924C192.779 290.01 192.823 290.111 192.837 290.212C192.981 290.858 192.578 291.505 191.932 291.634C191.831 291.648 176.184 295.169 157.16 298.703C157.519 302.64 158.51 306.376 160.608 309.264ZM426.614 221.602C424.358 229.231 431.872 260.612 434.847 272.452L436.772 272.366C435.881 268.774 433.496 259.19 431.887 253.212C430.723 248.859 429.372 241.818 428.927 234.734C428.611 229.547 428.783 224.317 429.89 220.064C432.332 210.653 487.838 157.805 495.511 150.549L486.444 141.152C486.243 140.951 486.099 140.678 486.071 140.362C486.028 139.701 486.531 139.126 487.191 139.083L500.138 138.235L504.735 125.131C504.779 124.959 504.879 124.801 504.994 124.657C505.44 124.168 506.201 124.125 506.69 124.585C506.718 124.599 515.368 132.545 523.084 135.189C523.3 135.261 524.377 135.634 525.441 136.008C531.849 138.221 537.338 140.132 538.042 138.408C538.056 138.364 537.467 138.106 536.504 137.704C535.269 137.201 533.544 136.683 531.633 136.123C527.337 134.844 522.078 133.292 518.386 130.62C512.092 126.051 500.037 111.61 496.646 107.472C492.436 112.357 474.921 132.703 462.894 147.575C457.52 154.227 451.169 165.665 445.278 177.677C436.284 196.04 428.352 215.725 426.614 221.602ZM491.588 92.6293C491.732 91.6379 491.976 90.474 492.364 89.1377C493.183 86.2928 493.097 83.3903 492.436 81.0626C491.847 85.4306 491.057 89.7125 490.137 93.6351C490.626 93.3046 491.114 92.9742 491.588 92.6293ZM494.677 89.7987C494.62 89.9999 494.563 90.2154 494.505 90.4165C500.152 85.9048 505.023 80.689 506.733 77.3555C508.931 73.0593 513.587 61.3489 514.018 48.4747C514.276 40.6438 512.983 32.3962 508.572 25.1976C502.753 15.6856 497.795 10.9871 492.608 8.90363C487.45 6.82018 481.904 7.26561 475.021 8.05588C469.101 8.7312 464.36 10.5416 460.394 12.0503C454.719 14.2056 450.509 15.8149 446.385 13.0993C442.074 10.2543 438.812 7.09319 437.117 5.28275C435.939 8.55878 433.927 16.131 436.715 24.5079C438.367 24.0337 440.206 23.8757 442.29 24.0912C453.339 25.2407 459.431 29.8961 465.049 34.1923C470.136 38.0862 474.806 41.664 482.579 41.7071C484.16 41.7214 485.539 42.1238 486.775 42.8997C489.361 44.5233 491.1 47.6844 492.163 51.7938C493.183 55.7308 493.6 60.573 493.571 65.8032C493.557 69.2947 493.327 72.9731 492.953 76.6515C493.571 77.4561 494.074 78.4332 494.476 79.5539C495.496 82.3989 495.726 86.1491 494.677 89.7987ZM490.482 77.4705C489.979 76.9963 489.419 76.7233 488.844 76.7377C488.355 76.7377 487.795 76.9532 487.206 77.3986C484.634 79.3959 479.476 86.3215 476.875 92.0977C476.07 93.865 475.539 95.503 475.409 96.7962C475.323 97.7876 475.467 98.5061 475.955 98.8222C476.286 99.0377 476.803 99.1383 477.55 99.0952C480.309 98.9371 483.729 97.529 487.263 95.4455C488.628 90.1004 489.778 83.7926 490.482 77.4705ZM437.361 31.5198C436.6 30.2553 435.953 29.0053 435.407 27.7552C427.361 32.3388 425.895 47.7131 424.861 58.6476C424.343 64.0646 423.927 68.4614 422.806 70.3724C422.001 71.7374 421.125 73.0018 420.263 74.2375C419.472 75.3727 418.696 76.479 418.093 77.5136C416.441 80.2867 415.808 82.7725 418.955 84.6404C424.027 87.6578 422.964 93.0604 421.8 99.009C421.225 101.94 420.622 105.015 420.809 107.846C420.823 107.989 420.837 108.119 420.852 108.248C421.312 111.553 424.846 114.01 429.186 115.59C433.755 117.271 439.157 117.947 443.037 117.702C443.511 117.674 443.971 117.631 444.387 117.573C448.698 116.97 456.414 112.86 462.204 106.308C466.314 101.653 469.432 95.776 469.576 89.0946C469.662 84.8415 469.849 81.1632 470.007 77.8728C470.481 68.1453 470.783 61.9668 468.081 56.9665C466.63 54.2652 462.521 51.8082 457.678 48.9201C450.738 44.782 442.405 39.7961 437.361 31.5198ZM389.83 125.979C388.853 126.841 387.66 129.054 386.353 132.33C391.08 128.637 395.348 126.122 398.595 125.533C403.581 124.614 409.63 122.918 414.314 121.223C417.044 120.231 419.257 119.355 420.349 118.78C419.975 118.809 419.487 118.838 418.898 118.852C417.015 118.895 414.472 119.125 411.642 119.513C403.523 120.634 393.192 123.019 389.83 125.979ZM271.447 263.4C272.784 264.578 273.847 265.598 274.436 266.317C274.508 266.388 274.479 266.187 274.738 266.187C279.249 266.015 294.926 259.592 311.536 251.531C328.203 243.456 345.718 233.743 353.794 227.076C356.481 224.863 358.032 223.11 358.004 222.105C357.961 221.171 357.486 220.783 356.653 220.811C352.285 220.969 341.853 228.01 330.689 235.553C324.841 239.505 318.792 243.586 313.174 246.948C293.158 258.96 275.341 264.046 275.284 264.061C274.637 264.248 273.976 263.874 273.789 263.242C273.775 263.199 273.775 263.156 273.761 263.127C273.746 263.084 270.901 247.321 265.887 244.807C265.901 246.301 267.18 250.066 268.588 254.247C269.623 257.264 270.7 260.454 271.447 263.4ZM260.283 270.843C261.835 271.59 263.861 272.251 265.729 272.395C265.556 272.265 265.384 272.136 265.197 272.021C263.415 270.828 261.088 270.11 258.947 270.081C259.306 270.34 259.766 270.598 260.283 270.843ZM259.809 280.656C260.412 280.829 261.044 280.944 261.677 281.001C261.418 280.656 261.116 280.312 260.771 279.995C260.125 279.406 259.378 278.889 258.616 278.53C257.381 277.926 256.202 277.668 255.843 278.128C255.8 278.171 255.886 278.329 256.059 278.544C256.36 278.932 256.849 279.32 257.481 279.679C258.128 280.067 258.932 280.412 259.809 280.656ZM227.12 287.51C225.655 287.64 224.189 287.74 222.81 287.841C219.131 288.085 216.1 288.286 215.611 288.847C215.525 288.947 215.956 288.875 216.444 289.306C220.238 292.582 228.14 297.741 235.325 299.738C239.894 301.002 244.118 300.988 246.59 298.258C249.075 295.528 250.167 292.913 250.225 290.887C250.254 290.039 250.081 289.306 249.765 288.746C249.478 288.243 249.047 287.869 248.501 287.668C247.639 287.352 246.46 287.438 245.052 288.042C242.308 289.263 235.181 288.631 227.12 287.51ZM250.009 223.038C249.808 218.383 248.688 213.728 245.253 212.133C240.655 209.977 230.727 212.147 223.471 214.777C221.085 215.639 219.016 216.544 217.508 217.377C216.617 217.866 215.97 218.268 215.654 218.512C217.651 219.935 226.201 219.791 226.229 219.791C226.79 219.791 227.264 220.165 227.408 220.682C227.408 220.696 229.103 226.53 217.206 226.53C214.706 226.53 213.197 227.751 212.551 229.404C212.148 230.424 212.062 231.631 212.278 232.823C212.493 234.016 213.01 235.18 213.801 236.143C215.309 237.967 217.881 239.002 221.387 237.924C228.126 235.841 237.035 232.45 244.133 227.737C246.288 226.286 248.3 224.72 250.009 223.038ZM146.642 127.373C129.974 121.51 113.163 100.647 111.08 97.9888C108.22 96.9542 88.4061 89.1808 90.547 73.1311C92.731 56.7653 109.442 72.3984 113.81 76.8095C116.295 73.2317 123.81 63.1881 129.816 62.8576C130.492 62.8145 130.678 62.2398 130.635 61.3633C130.578 60.2425 130.204 58.7482 129.816 57.1389C129.558 56.09 129.285 54.998 129.084 53.9347C128.365 50.2708 128.25 46.6068 130.836 44.4084C129.069 43.6037 127.23 42.7416 125.362 41.8651C110.218 34.7527 92.3 26.3183 86.4951 38.546C79.282 53.7767 86.3083 72.657 91.4235 86.379C93.0615 90.7614 94.4984 94.6409 95.2599 97.7733C98.0187 109.326 132.043 128.68 136.354 131.094C137.719 130.663 141.9 129.312 146.642 127.373ZM112.746 96.2358C112.804 96.322 132.316 121.668 150.033 125.907C155.119 123.608 160.263 120.749 162.95 117.688C169.301 110.475 168.626 100.503 168.626 100.475C168.626 100.431 168.626 100.388 168.626 100.345C168.655 99.6843 169.229 99.167 169.89 99.2101C169.905 99.2101 175.25 99.5406 178.468 95.503C179.675 93.9943 178.396 91.4367 176.787 88.2182C174.661 83.9363 172.017 78.6487 173.152 72.1828C174.79 62.8001 171.902 46.9229 170.925 42.095C164.401 46.4056 155.191 47.7562 147.662 48.8483C147.332 48.8914 147.001 48.9488 146.671 48.9919C143.495 49.4661 138.869 47.9287 133.509 45.6153C130.722 47.0666 130.793 50.2708 131.426 53.5037C131.627 54.567 131.885 55.6015 132.13 56.5929C132.546 58.3172 132.949 59.9264 133.02 61.2627C133.15 63.5904 132.446 65.1422 129.931 65.2859C124.069 65.602 115.577 78.4619 115.002 79.3384C114.945 79.439 114.873 79.5252 114.787 79.6114C114.298 80.0568 113.537 80.0281 113.091 79.5539C113.034 79.4964 94.757 59.7396 92.9322 73.4616C90.8918 88.7498 112.129 95.8335 112.2 95.8479C112.402 95.9053 112.603 96.0347 112.746 96.2358ZM166.212 41.8795C158.87 42.3106 145.995 43.2014 137.432 44.6239C141.124 46.0751 144.228 46.9085 146.34 46.5924C146.671 46.5493 147.001 46.4918 147.332 46.4487C153.323 45.5866 160.464 44.5377 166.212 41.8795ZM86.0209 115.978C85.6904 117.516 85.6042 119.096 85.8628 120.634C87.0985 127.775 105.907 148.336 109.801 152.518C112.387 150.75 120.434 145.304 127.833 140.994C115.663 128.508 98.5647 114.671 95.3317 112.084C93.9811 112.616 90.6045 113.995 86.0209 115.978ZM140.823 137.574C139.314 137.474 135.779 139.14 131.612 141.482C135.779 145.922 139.213 150.118 141.053 153.509C148.352 166.944 155.895 235.755 156.973 245.827C158.913 245.54 162.979 244.922 167.735 243.973C167.088 237.838 165.723 227.119 163.036 213.253C161.125 203.397 157.921 190.91 154.588 179.142C150.349 164.228 145.895 150.492 143.581 144.773C142.475 142.043 142.044 139.787 142.087 137.933C142.087 137.847 142.101 137.775 142.101 137.689C141.627 137.646 141.196 137.603 140.823 137.574ZM145.033 135.663C150.133 136.396 157.62 137.761 161.873 138.551C159.645 136.123 155.953 132.804 152.432 132.703C150.708 132.646 149.027 132.847 147.648 133.393C146.728 133.767 145.952 134.298 145.406 135.045C145.277 135.232 145.148 135.433 145.033 135.663ZM170.35 245.856C170.451 246.862 170.522 247.681 170.566 248.298C176.342 247.178 199.188 242.494 201.314 238.671C202.248 236.99 202.105 233.599 201.918 228.973C201.616 221.832 201.199 211.888 204.461 199.891C207.866 187.419 213.671 175.493 217.45 169.846C218.37 168.481 219.189 167.446 219.85 166.843C221.1 165.679 222.163 165.564 222.91 166.656C223.212 167.087 223.341 167.763 223.27 168.653C222.752 175.076 211.846 199.776 210.323 203.181C210.812 204.891 212.867 211.414 215.266 209.848C217.752 208.224 225.568 201.126 231.172 194.474C234.621 190.379 237.193 186.557 236.963 184.603C236.589 181.528 229.577 168.984 221.861 157.087C215.352 147.029 208.384 137.517 204.533 134.629C203.714 134.011 203.656 133.35 203.541 133.508C203.297 133.838 203.714 136.094 204.346 139.571C205.898 148.02 208.642 163.035 204.26 180.608C200.064 197.405 199.533 209.532 199.159 218.412C198.843 225.668 198.627 230.826 196.573 234.749C193.9 239.85 180.911 243.6 170.35 245.856ZM157.088 296.218C172.548 293.344 185.739 290.485 189.992 289.551C188.454 286.088 184.589 276.662 184 268.242C183.483 260.957 183.871 256.057 184.144 253.744C174.934 254.391 125.851 257.451 109.873 250.468C98.9095 245.669 88.8515 219.547 80.216 197.118C74.6554 182.706 69.7126 169.832 65.7181 165.579C60.2437 159.731 51.3926 155.923 44.8981 154.975C42.9727 154.687 41.2915 154.673 39.9984 154.931C38.9495 155.133 38.2167 155.521 37.958 156.067C37.7569 156.483 37.7856 157.058 38.073 157.834C38.9638 160.219 41.5214 160.535 44.9124 160.952C52.1398 161.857 62.6145 163.15 71.3075 182.72C84.3685 212.09 94.8145 241.66 94.8432 241.746C95.0587 242.379 94.7283 243.054 94.1104 243.284C94.096 243.284 94.0817 243.298 94.0673 243.298C92.7741 243.772 64.2813 254.319 61.9967 271.59C61.3357 276.561 60.919 278.415 60.9909 278.429C61.3644 278.472 64.4824 270.742 66.6808 265.253C66.882 264.736 67.0975 264.233 67.2843 263.745C70.9052 254.793 91.7109 245.41 91.7683 245.382C92.1706 245.195 92.6304 245.252 92.9753 245.511C93.0184 245.54 106.424 255.425 130.65 256.503C143.122 257.049 150.679 257.983 155.019 260.253C159.746 262.71 160.795 266.518 159.99 272.682C159.789 274.176 159.473 275.987 159.099 278.041C158.324 282.381 157.346 287.798 157.117 293.157C157.088 294.163 157.059 295.197 157.088 296.218ZM419.099 358.39L415.923 352.873C404.702 351.982 393.767 351.005 383.766 349.985C337.73 345.315 282.109 358.218 281.836 358.275C281.721 358.304 281.606 358.319 281.491 358.304C280.83 358.261 280.313 357.701 280.356 357.04L282.281 323.231L169.014 322.34L140.866 362.586H278.703C281.204 361.939 316.004 353.175 338.491 352.83C359.009 352.514 407.877 357.27 419.099 358.39Z" fill="#007619"/>
</svg>
