<svg xmlns="http://www.w3.org/2000/svg" width="36" height="36" viewBox="0 0 36 36" fill="none">
  <g clip-path="url(#clip0_8345_179)">
    <path d="M13.14 32.125H5.53817C4.4709 32.125 3.60254 32.9934 3.60254 34.0613C3.60254 35.1286 4.4709 35.997 5.53817 35.997H16.5571C15.1431 34.9873 13.9697 33.662 13.14 32.125Z" fill="#49A3C9"></path>
    <path d="M5.53817 30.0158H12.264C11.9511 28.9795 11.7838 27.882 11.7838 26.7457C11.7838 26.5439 11.7894 26.3435 11.7992 26.1445H5.53817C4.4709 26.1445 3.60254 27.0129 3.60254 28.0802C3.60254 29.1475 4.4709 30.0158 5.53817 30.0158Z" fill="#49A3C9"></path>
    <path d="M5.53817 24.036H12.1107C12.4573 22.6242 13.069 21.3143 13.8895 20.1641H5.53817C4.4709 20.1641 3.60254 21.0324 3.60254 22.0997C3.60254 23.1676 4.4709 24.036 5.53817 24.036Z" fill="#49A3C9"></path>
    <path d="M5.53817 18.0548H15.8356C17.5308 16.6268 19.6478 15.6853 21.9694 15.4456C21.6952 14.7095 20.9851 14.1836 20.1547 14.1836H5.53817C4.4709 14.1836 3.60254 15.052 3.60254 16.1192C3.60254 17.1864 4.4709 18.0548 5.53817 18.0548Z" fill="#49A3C9"></path>
    <path d="M16.6495 20.1644C15.5717 21.2282 14.7533 22.5535 14.2976 24.0363C12.4007 30.2079 17.2982 36.388 23.7149 35.9812C28.5522 35.6858 32.3966 31.6572 32.3966 26.7467C32.3967 18.6627 22.5622 14.3258 16.6495 20.1644ZM26.4836 29.2442C26.2931 30.3782 25.4663 31.5278 24.1726 31.9539V32.2351C24.1726 32.8564 23.6357 33.3378 23.0428 33.2869C22.4957 33.2483 22.0634 32.7926 22.0634 32.2351V32.0769C21.3697 31.9852 20.8323 31.7313 20.2374 31.3415C20.1242 31.2677 20.03 31.1756 19.9562 31.0715C19.305 30.1603 20.3413 29.0024 21.3167 29.531H21.3174C21.8758 29.8265 21.865 30.0267 23.0835 30.0169C23.3718 30.0148 23.6165 29.9339 23.8133 29.8053V29.8046C24.497 29.3584 24.7949 28.1319 23.6846 27.7388C22.7896 27.4235 21.2431 26.8441 20.629 26.1175H20.6283C19.3859 24.6883 20.1071 22.115 22.0633 21.5439C22.0633 21.273 22.0008 20.6964 22.5801 20.3515C23.1749 19.9984 24.1726 20.2316 24.1726 21.4933C24.4156 21.5574 24.7443 21.6886 25.073 21.8404C25.725 22.1415 25.8955 22.9901 25.4085 23.518C25.0957 23.8572 24.5986 23.954 24.1811 23.7576C23.8599 23.6065 23.4127 23.3371 22.6841 23.559C22.0917 23.7383 22.009 24.5747 22.246 24.7591C22.7595 25.164 23.7663 25.5303 24.3877 25.7498C25.9022 26.2856 26.7452 27.6897 26.4836 29.2442Z" fill="#49A3C9"></path>
    <path d="M8.56122 7.17669H9.86967C10.3443 7.17669 10.7289 7.5613 10.7289 8.03584V11.2152C10.7289 11.6898 11.1135 12.0744 11.5873 12.0744H14.1065C14.5804 12.0744 14.965 11.6898 14.965 11.2152V8.03584C14.965 7.56123 15.3496 7.17669 15.8242 7.17669H17.1326C17.8188 7.17669 18.228 6.41099 17.8463 5.84012L13.5609 0.38127C13.2206 -0.12709 12.4733 -0.12709 12.133 0.38127L7.84762 5.84012C7.46582 6.41099 7.87504 7.17669 8.56122 7.17669Z" fill="#49A3C9"></path>
  </g>
  <defs>
    <clipPath id="clip0_8345_179">
      <rect width="36" height="36" fill="white"></rect>
    </clipPath>
  </defs>
</svg>