<svg width="65" height="65" viewBox="0 0 65 65" fill="none" xmlns="http://www.w3.org/2000/svg">
<g clip-path="url(#clip0_7014_1739)">
<path d="M1.66542 11.1154H8.0796C10.0818 11.1154 11.7053 9.49209 11.7053 7.48978V1.07573M11.7053 1.07573L1.66629 11.116V18.6939M11.7053 1.07573L33.7448 1.07532C35.7469 1.07532 37.3706 2.69905 37.3706 4.70237V23.0992M1.66629 22.5025V38.3995C1.66629 40.4016 3.28875 42.0253 5.2908 42.0253H27.8885M27.8886 54.0081H34.3026C36.3049 54.0081 37.9284 55.6316 37.9284 57.6338V64.0479M27.8886 54.0081L27.8885 26.7249C27.8885 24.7216 29.5122 23.0991 31.5142 23.0991H59.9682C61.9703 23.0991 63.594 24.7216 63.594 26.7249V60.4221C63.594 62.4241 61.9703 64.0479 59.9682 64.0479H54.0421M27.8886 54.0081L37.9284 64.0479M37.9284 64.0479L50.2335 64.0479M9.47942 14.3752H29.5565M9.47942 19.8071H29.5565M28.2079 25.2382H9.47967M27.8886 30.67H9.47966M35.7026 33.877H55.7797M35.7026 39.3089H55.7797M35.7026 44.7407H55.7797M35.7026 50.1724H55.7797M10.7679 61.3915L10.8601 59.9815C6.70213 57.8122 3.44743 54.2938 1.60306 49.9298C0.850986 48.1507 1.68367 46.0989 3.46279 45.347C5.24191 44.595 7.29386 45.4277 8.0458 47.2068C8.81412 49.0247 9.95721 50.6174 11.3877 51.9019L11.4137 51.5034C11.5328 49.6794 13.582 48.6683 15.102 49.6835L23.3411 55.1866C24.8609 56.2018 24.7121 58.4815 23.0731 59.2905L14.1882 63.6756C12.5491 64.4846 10.6488 63.2156 10.7679 61.3915ZM54.2312 3.48567L54.139 4.89573C58.297 7.06485 61.5517 10.5834 63.3961 14.9474C64.1481 16.7265 63.3155 18.7783 61.5363 19.5303C59.7571 20.2822 57.7053 19.4495 56.9533 17.6704C56.185 15.8525 55.0419 14.2598 53.6114 12.9753L53.5854 13.3738C53.4663 15.1979 51.4172 16.2089 49.8972 15.1935L41.658 9.6905C40.1381 8.67538 40.2871 6.39568 41.926 5.58674L50.8108 1.20165C52.4501 0.39258 54.3503 1.6616 54.2312 3.48567Z" stroke="black" stroke-width="2" stroke-miterlimit="10" stroke-linecap="round" stroke-linejoin="round"></path>
</g>
<defs>
<clipPath id="clip0_7014_1739">
<rect width="65" height="65" fill="white" transform="translate(-0.000488281)"></rect>
</clipPath>
</defs>
</svg>