<svg xmlns="http://www.w3.org/2000/svg" width="183" height="32" viewBox="0 0 183 32" fill="none">
  <g opacity="0.2">
    <path d="M179.403 10.0786C178.395 10.0786 178.395 10.0786 177.387 10.0786C176.379 10.0786 174.363 10.0786 173.356 10.0786C172.348 10.0786 172.348 10.0786 171.34 10.0786H170.332C171.34 10.0786 172.348 10.0786 173.356 11.0865C174.363 11.0865 174.363 11.0865 174.363 11.0865C173.356 11.0865 173.356 11.0865 173.356 11.0865C172.348 11.0865 171.34 11.0865 171.34 11.0865H170.332C172.348 11.0865 173.356 12.0944 172.348 12.0944C173.356 12.0944 173.356 13.1022 174.363 13.1022C175.371 13.1022 175.371 13.1022 176.379 13.1022C175.371 13.1022 174.363 13.1022 173.356 13.1022H172.348C173.356 13.1022 174.363 13.1022 175.371 13.1022C175.371 13.1022 175.371 13.1022 176.379 13.1022C177.387 13.1022 178.395 13.1022 179.403 14.1101C179.403 14.1101 179.403 14.1101 180.411 14.1101C181.419 14.1101 181.419 14.1101 180.411 15.118C179.403 16.1259 178.395 15.118 176.379 15.118C176.379 15.118 175.371 15.118 174.363 15.118C174.363 15.118 174.363 15.118 173.356 15.118C174.363 15.118 175.371 15.118 175.371 15.118H176.379C176.379 15.118 176.379 15.118 177.387 15.118C178.395 15.118 178.395 15.118 179.403 15.118C179.403 15.118 177.387 15.118 178.395 15.118C178.395 15.118 179.403 15.118 179.403 16.1259V17.1338C179.403 17.1338 179.403 18.1416 178.395 18.1416C177.387 19.1495 175.371 18.1416 173.356 18.1416C172.348 18.1416 172.348 18.1416 173.356 18.1416C174.363 18.1416 175.371 18.1416 175.371 18.1416C176.379 18.1416 177.387 18.1416 178.395 18.1416C179.403 18.1416 180.411 18.1416 181.419 18.1416C178.395 27.2126 178.395 27.2126 177.387 27.2126C177.387 27.2126 177.387 27.2126 176.379 27.2126C175.371 27.2126 175.371 27.2126 175.371 28.2205C175.371 29.2283 174.363 29.2283 172.348 30.2362C171.34 30.2362 171.34 30.2362 170.332 30.2362C169.324 30.2362 168.316 30.2362 167.308 30.2362C167.308 30.2362 167.308 30.2362 166.3 30.2362C166.3 30.2362 165.293 30.2362 164.285 30.2362C167.308 30.2362 170.332 30.2362 172.348 31.2441C170.332 31.2441 169.324 31.2441 168.316 31.2441C166.3 31.2441 165.292 31.2441 163.277 31.2441C162.269 31.2441 162.269 31.2441 161.261 31.2441C160.253 31.2441 158.237 31.2441 157.229 31.2441C155.214 31.2441 154.206 31.2441 152.19 31.2441C149.166 31.2441 145.135 31.2441 142.111 31.2441C141.103 31.2441 140.095 31.2441 139.088 31.2441H138.08C137.072 31.2441 137.072 31.2441 136.064 31.2441C132.032 31.2441 128.001 31.2441 124.977 31.2441C120.946 31.2441 117.922 31.2441 113.891 31.2441C111.875 31.2441 110.867 31.2441 108.851 31.2441C106.835 31.2441 105.828 31.2441 103.812 31.2441H102.804C101.796 31.2441 100.788 31.2441 98.7723 31.2441C97.7645 31.2441 97.7645 31.2441 96.7566 31.2441C95.7487 31.2441 95.7487 31.2441 94.7408 31.2441C88.6935 31.2441 82.6462 31.2441 77.6068 31.2441C75.5911 31.2441 73.5753 31.2441 70.5517 31.2441C67.528 31.2441 63.4965 31.2441 60.4729 31.2441C59.465 31.2441 57.4492 31.2441 56.4413 31.2441C57.4492 31.2441 58.4571 31.2441 60.4729 31.2441C59.465 31.2441 58.4571 31.2441 56.4413 31.2441C55.4335 31.2441 54.4256 31.2441 54.4256 31.2441C53.4177 31.2441 52.4098 31.2441 51.4019 31.2441C50.3941 31.2441 50.3941 31.2441 49.3862 31.2441C48.3783 31.2441 46.3625 31.2441 45.3546 31.2441C44.3468 31.2441 44.3468 31.2441 43.3389 31.2441C42.331 31.2441 40.3152 31.2441 39.3074 31.2441C39.3074 31.2441 39.3074 31.2441 38.2995 31.2441C37.2916 31.2441 36.2837 31.2441 35.2758 31.2441C34.268 31.2441 33.2601 31.2441 31.2443 31.2441H30.2364C29.2286 31.2441 29.2285 31.2441 28.2207 31.2441C27.2128 31.2441 26.2049 31.2441 24.1891 31.2441C22.1734 31.2441 20.1576 31.2441 19.1497 31.2441H18.1419C17.134 31.2441 17.134 31.2441 16.1261 31.2441C14.1103 31.2441 12.0946 31.2441 10.0788 30.2362H9.07093C7.05517 30.2362 6.04729 30.2362 4.03153 29.2283C3.02364 29.2283 2.01576 29.2283 3.02364 28.2205C3.02364 28.2205 3.02364 28.2204 3.02364 27.2126V26.2047V25.1968V24.1889V23.181C2.01576 23.181 3.02364 22.1732 2.01576 22.1732C1.00788 22.1732 1.00788 22.1732 1.00788 22.1732C1.00788 22.1732 1.00788 22.1732 1.00788 21.1653C-9.76209e-07 20.1574 1.00788 19.1495 1.00788 18.1416V17.1338V16.1259C1.00788 16.1259 1.00788 16.1259 2.01576 15.118C1.00788 15.118 1.00788 14.1101 3.02364 14.1101C4.03152 14.1101 5.03941 14.1101 5.03941 14.1101H4.03153C3.02364 14.1101 2.01576 14.1101 1.00788 14.1101H0C0 14.1101 -9.76209e-07 14.1101 1.00788 14.1101C2.01576 14.1101 3.02364 14.1101 5.03941 14.1101C4.03152 14.1101 3.02364 14.1101 2.01576 14.1101C3.02364 13.1022 4.03152 14.1101 5.03941 14.1101C4.03152 14.1101 4.03152 14.1101 3.02364 14.1101C4.03152 14.1101 5.0394 14.1101 6.04729 14.1101C6.04729 13.1022 5.0394 11.0865 7.05517 10.0786C7.05517 10.0786 7.05517 10.0786 7.05517 9.07071C7.05517 9.07071 6.04728 8.06283 7.05517 8.06283C6.04728 7.05495 7.05517 6.04706 6.04729 6.04706C6.04729 6.04706 6.04729 6.04706 6.04729 5.03918C6.04729 5.03918 6.04729 5.03919 6.04729 4.03131C6.04729 4.03131 6.04729 4.03131 6.04729 3.02342H5.03941C5.03941 3.02342 5.0394 2.01554 6.04729 2.01554C8.06305 2.01554 10.0788 2.01554 11.0867 2.01554C12.0946 2.01554 14.1103 2.01554 15.1182 2.01554C16.1261 2.01554 17.134 2.01554 19.1497 2.01554C21.1655 2.01554 24.1891 2.01554 26.2049 2.01554C29.2285 2.01554 31.2443 2.01554 34.268 2.01554C35.2758 2.01554 36.2837 2.01554 38.2995 2.01554C39.3074 2.01554 40.3152 2.01554 40.3152 2.01554H41.3231C43.3389 2.01554 44.3468 2.01554 46.3625 2.01554C47.3704 2.01554 49.3862 2.01554 50.394 2.01554C51.4019 2.01554 51.4019 2.01554 52.4098 2.01554C53.4177 2.01554 54.4256 1.00766 56.4413 2.01554H57.4492C57.4492 2.01554 57.4492 2.01554 58.4571 2.01554C59.465 2.01554 61.4807 2.01554 62.4886 2.01554C62.4886 2.01554 63.4965 2.01554 64.5044 2.01554C65.5123 2.01554 66.5202 2.01554 67.528 2.01554H68.5359C70.5517 2.01554 71.5596 2.01554 73.5753 2.01554C74.5832 2.01554 74.5832 2.01554 75.5911 2.01554C76.599 2.01554 76.599 1.00766 77.6068 2.01554C78.6147 2.01554 78.6147 2.01554 79.6226 2.01554C80.6305 2.01554 82.6462 2.01554 83.6541 2.01554H84.662C85.6699 2.01554 85.6699 2.01554 86.6778 2.01554C87.6857 2.01554 87.6856 2.01554 88.6935 2.01554C89.7014 2.01554 90.7093 2.01554 89.7014 3.02342H90.7093C91.7172 3.02342 93.7329 3.02342 94.7408 3.02342C95.7487 3.02342 95.7487 3.02342 96.7566 3.02342C96.7566 3.02342 96.7566 3.02342 97.7645 3.02342H98.7723C98.7723 3.02342 99.7802 3.02343 98.7723 4.03131C99.7802 4.03131 99.7802 4.03131 100.788 4.03131C101.796 4.03131 102.804 4.03131 103.812 4.03131H104.82H105.828H106.835C106.835 4.03131 106.835 4.03131 105.828 4.03131C106.835 4.03131 107.843 4.03131 109.859 4.03131C109.859 3.02343 109.859 3.02342 110.867 3.02342H111.875H112.883C113.891 3.02342 114.898 3.02342 115.906 3.02342H116.914C116.914 3.02342 116.914 3.02342 117.922 3.02342C118.93 3.02342 118.93 3.02342 118.93 3.02342H119.938C120.946 3.02342 120.946 3.02342 120.946 3.02342C120.946 3.02342 119.938 3.02342 118.93 3.02342C119.938 3.02342 120.946 3.02342 121.954 3.02342H122.961C123.969 3.02342 124.977 3.02342 125.985 3.02342H126.993C128.001 3.02342 126.993 3.02342 128.001 3.02342H129.009H130.017C131.025 3.02342 132.032 3.02342 132.032 3.02342H133.04C132.032 3.02342 134.048 3.02342 133.04 3.02342C134.048 3.02342 135.056 3.02343 135.056 4.03131C136.064 4.03131 137.072 3.02343 138.08 4.03131C139.088 4.03131 139.088 4.03131 140.095 4.03131H141.103C142.111 4.03131 143.119 4.03131 144.127 4.03131C145.135 4.03131 146.143 4.03131 146.143 4.03131C147.151 4.03131 147.151 4.03131 148.159 4.03131C149.166 4.03131 149.166 4.03131 150.174 4.03131C151.182 4.03131 151.182 4.03131 152.19 4.03131H153.198C154.206 4.03131 154.206 4.03131 155.214 4.03131C156.222 4.03131 157.229 4.03131 157.229 4.03131H158.237C157.229 4.03131 157.229 4.03131 157.229 4.03131H158.237C159.245 4.03131 160.253 4.03131 161.261 4.03131C162.269 4.03131 163.277 4.03131 163.277 4.03131C164.285 4.03131 165.292 4.03131 165.292 4.03131C164.285 4.03131 163.277 4.03131 163.277 4.03131C163.277 4.03131 163.277 4.03131 164.285 4.03131C164.285 4.03131 165.292 4.03131 166.3 4.03131C165.292 4.03131 165.293 4.03131 164.285 4.03131C164.285 4.03131 165.293 5.03918 164.285 5.03918C165.293 5.03918 165.292 5.03918 166.3 5.03918C167.308 5.03918 166.3 5.03918 166.3 6.04706C168.316 6.04706 170.332 6.04706 171.34 7.05494C169.324 7.05494 168.316 7.05494 167.308 7.05494C168.316 7.05494 169.324 7.05494 170.332 7.05494C171.34 7.05494 172.348 7.05495 172.348 8.06283H173.356C174.363 8.06283 175.371 8.06283 175.371 8.06283C174.363 8.06283 173.356 8.06283 172.348 8.06283C171.34 8.06283 171.34 8.06283 170.332 8.06283C169.324 8.06283 169.324 8.06283 168.316 8.06283H169.324C171.34 8.06283 173.356 8.06283 174.363 9.07071H175.371C175.371 9.07071 176.379 9.0707 176.379 10.0786C175.371 10.0786 175.371 10.0786 175.371 10.0786C174.363 10.0786 174.363 10.0786 173.356 10.0786C172.348 10.0786 172.348 10.0786 171.34 10.0786H170.332C171.34 10.0786 172.348 10.0786 173.356 10.0786C174.363 10.0786 175.371 10.0786 176.379 10.0786C178.395 9.0707 178.395 10.0786 179.403 10.0786H180.411C180.411 10.0786 180.411 10.0786 179.403 10.0786ZM135.056 30.2362C134.048 30.2362 134.048 30.2362 135.056 30.2362V30.2362ZM15.1182 8.06283C14.1103 8.06283 14.1103 8.06283 15.1182 8.06283V8.06283ZM145.135 3.02342C146.143 3.02342 146.143 3.02342 145.135 3.02342V3.02342ZM89.7014 30.2362H88.6935C88.6935 30.2362 88.6935 30.2362 89.7014 30.2362ZM123.969 6.04706C124.977 6.04706 124.977 6.04706 123.969 6.04706V6.04706ZM21.1655 11.0865C22.1734 11.0865 22.1734 11.0865 21.1655 11.0865V11.0865ZM13.1025 17.1338C12.0946 17.1338 12.0946 17.1338 13.1025 17.1338V17.1338ZM90.7093 13.1022C91.7172 13.1022 91.7172 13.1022 90.7093 13.1022V13.1022ZM68.5359 12.0944C68.5359 11.0865 68.5359 11.0865 68.5359 12.0944V12.0944ZM107.843 11.0865C107.843 10.0786 107.843 10.0786 107.843 11.0865V11.0865ZM107.843 11.0865C109.859 11.0865 110.867 11.0865 112.883 11.0865C110.867 11.0865 108.851 11.0865 107.843 11.0865ZM146.143 21.1653C146.143 22.1732 146.143 22.1732 146.143 21.1653V21.1653ZM40.3152 11.0865C41.3231 11.0865 41.3231 11.0865 40.3152 11.0865V11.0865ZM38.2995 13.1022C37.2916 13.1022 37.2916 13.1022 38.2995 13.1022V13.1022ZM115.906 27.2126C115.906 26.2047 115.906 26.2047 115.906 27.2126V27.2126ZM19.1497 25.1968C19.1497 26.2047 19.1497 26.2047 19.1497 25.1968V25.1968ZM104.82 30.2362C105.828 30.2362 105.828 29.2283 104.82 30.2362V30.2362ZM156.222 15.118C157.229 15.118 157.229 15.118 156.222 15.118V15.118ZM105.828 31.2441C105.828 32.252 105.828 32.252 105.828 31.2441V31.2441ZM17.134 28.2205C17.134 29.2283 17.134 29.2283 17.134 28.2205V28.2205ZM164.285 16.1259C165.293 16.1259 165.293 16.1259 164.285 16.1259V16.1259ZM3.02364 17.1338C2.01576 17.1338 2.01576 17.1338 3.02364 17.1338V17.1338ZM7.05517 2.01554C8.06305 2.01554 8.06305 2.01554 7.05517 2.01554V2.01554ZM166.3 8.06283C167.308 8.06283 167.308 8.06283 166.3 8.06283V8.06283Z" fill="#FF781A"></path>
    <path d="M164.284 1.00776C164.284 1.00776 164.284 1.00776 165.292 1.00776C164.284 1.00776 164.284 2.01564 164.284 1.00776C164.284 2.01564 163.276 2.01564 164.284 1.00776Z" fill="#FF781A"></path>
    <path d="M67.5283 22.1736V21.1657C67.5283 19.15 67.5283 18.1421 67.5283 16.1263C67.5283 15.1184 68.5362 14.1106 68.5362 14.1106C68.5362 14.1106 69.5441 15.1184 69.5441 16.1263C70.552 17.1342 70.552 18.1421 70.552 20.1579C70.552 21.1657 70.552 22.1736 70.552 23.1815C70.552 23.1815 70.552 23.1815 69.5441 24.1894L68.5362 25.1973H69.5441C69.5441 25.1973 69.5441 24.1894 70.552 24.1894C70.552 23.1815 70.552 22.1736 70.552 21.1657C70.552 19.15 70.552 17.1342 69.5441 15.1184C68.5362 14.1106 67.5283 13.1027 67.5283 13.1027C66.5204 13.1027 66.5204 14.1106 66.5204 15.1184C66.5204 16.1263 66.5204 18.1421 66.5204 20.1579C65.5126 17.1342 64.5047 15.1185 64.5047 14.1106L63.4968 13.1027C63.4968 13.1027 63.4968 13.1027 62.4889 13.1027C62.4889 13.1027 62.4889 14.1106 61.481 14.1106C61.481 15.1185 61.481 16.1263 61.481 18.1421C60.4731 18.1421 60.4731 18.1421 60.4731 18.1421H61.481C61.481 20.1579 62.4889 22.1736 62.4889 23.1815C62.4889 24.1894 63.4968 24.1894 63.4968 24.1894C64.5047 24.1894 64.5047 23.1815 64.5047 22.1736C64.5047 21.1657 64.5047 20.1579 63.4968 19.15C63.4968 18.1421 62.4889 17.1342 61.481 17.1342C61.481 16.1263 61.481 15.1184 61.481 15.1184C61.481 14.1106 61.481 13.1027 62.4889 13.1027C62.4889 13.1027 63.4968 13.1027 63.4968 14.1106C63.4968 15.1185 64.5047 16.1263 64.5047 17.1342C64.5047 18.1421 65.5125 19.15 65.5125 21.1657C65.5125 21.1657 65.5126 21.1657 66.5204 22.1736C66.5204 22.1736 66.5204 23.1815 67.5283 22.1736ZM63.4968 20.1579C63.4968 21.1657 63.4968 21.1657 63.4968 22.1736V23.1815V24.1894C63.4968 24.1894 62.4889 23.1815 62.4889 22.1736C62.4889 21.1657 62.4889 20.1579 62.4889 19.15C62.4889 19.15 62.4889 19.15 63.4968 20.1579Z" fill="#FF781A"></path>
    <path d="M77.6063 13.1031C76.5984 13.1031 76.5984 13.1031 76.5984 13.1031C76.5984 13.1031 76.5984 13.1031 76.5984 14.111V15.1189C76.5984 14.111 75.5905 14.111 75.5905 13.1031L74.5827 12.0952C73.5748 12.0952 73.5748 12.0952 73.5748 13.1031C73.5748 13.1031 72.5669 14.111 72.5669 15.1189C72.5669 16.1267 72.5669 17.1346 73.5748 18.1425C74.5827 19.1504 74.5826 19.1504 75.5905 19.1504C75.5905 19.1504 76.5984 19.1504 76.5984 18.1425C76.5984 18.1425 76.5984 18.1425 77.6063 19.1504C77.6063 19.1504 77.6063 19.1504 78.6142 19.1504C78.6142 19.1504 78.6142 19.1504 78.6142 18.1425C78.6142 18.1425 78.6142 18.1425 78.6142 17.1346V16.1267C78.6142 16.1267 78.6142 15.1189 78.6142 13.1031C77.6063 14.111 77.6063 14.111 77.6063 13.1031C77.6063 14.111 78.6142 14.111 78.6142 15.1189C78.6142 16.1267 79.6221 16.1267 79.6221 17.1346C79.6221 18.1425 80.6299 18.1425 80.6299 18.1425C80.6299 18.1425 80.6299 17.1346 79.6221 16.1267C78.6142 14.111 77.6063 13.1031 77.6063 13.1031ZM74.5827 19.1504C74.5827 19.1504 73.5748 19.1504 73.5748 18.1425C73.5748 17.1346 72.5669 17.1346 72.5669 16.1267C72.5669 15.1189 72.5669 15.1189 72.5669 14.111C72.5669 14.111 72.5669 13.1031 73.5748 13.1031C73.5748 13.1031 74.5826 14.111 75.5905 16.1267C75.5905 16.1267 75.5905 16.1267 75.5905 17.1346C75.5905 17.1346 75.5905 17.1346 75.5905 18.1425C76.5984 18.1425 75.5905 18.1425 74.5827 19.1504C75.5905 19.1504 75.5905 19.1504 74.5827 19.1504Z" fill="#FF781A"></path>
    <path d="M83.6537 16.1264C82.6458 14.1106 81.6379 13.1028 80.63 13.1028C79.6221 13.1028 79.6221 13.1028 79.6221 13.1028C79.6221 13.1028 79.6221 14.1106 79.6221 15.1185C79.6221 16.1264 79.6221 17.1343 79.6221 19.15C78.6143 19.15 78.6143 19.1501 78.6143 20.1579C78.6143 20.1579 78.6143 20.1579 79.6221 20.1579C79.6221 21.1658 79.6221 22.1737 79.6221 23.1816C79.6221 23.1816 79.6221 23.1816 79.6221 24.1895C79.6221 24.1895 79.6221 24.1895 80.63 24.1895C80.63 24.1895 80.63 24.1895 80.63 23.1816C80.63 23.1816 80.63 22.1737 80.63 20.1579H81.6379H82.6458C82.6458 20.1579 82.6458 20.1579 81.6379 19.15C81.6379 19.15 80.63 19.1501 79.6221 18.1422C79.6221 16.1264 79.6221 15.1185 79.6221 14.1107V13.1028C79.6221 13.1028 80.63 13.1028 80.63 14.1107C82.6458 15.1185 82.6458 16.1264 83.6537 16.1264C83.6537 17.1343 83.6537 18.1422 83.6537 18.1422C83.6537 17.1343 83.6537 17.1343 83.6537 16.1264Z" fill="#FF781A"></path>
    <path d="M85.6696 13.103C84.6618 13.103 84.6618 13.103 83.6539 14.1109C83.6539 15.1188 82.646 15.1188 82.646 16.1267C82.646 17.1346 82.646 18.1424 83.6539 19.1503C84.6618 20.1582 84.6618 20.1582 85.6696 20.1582H86.6775V19.1503C86.6775 18.1424 86.6775 18.1424 85.6696 17.1346C84.6618 16.1267 84.6618 16.1267 83.6539 16.1267C83.6539 16.1267 83.6539 15.1188 84.6618 15.1188C85.6696 14.1109 85.6696 14.1109 85.6696 13.103C86.6775 14.1109 86.6775 14.1109 87.6854 14.1109C87.6854 14.1109 88.6933 14.1109 88.6933 15.1188C89.7012 16.1267 89.7012 16.1267 89.7012 17.1346C89.7012 17.1346 89.7012 17.1346 89.7012 18.1424C89.7012 17.1346 89.7012 16.1267 88.6933 15.1188C87.6854 13.103 86.6775 13.103 85.6696 13.103ZM84.6618 16.1267C85.6696 16.1267 85.6696 16.1267 86.6775 17.1346L87.6854 18.1424C87.6854 19.1503 87.6854 19.1503 86.6775 19.1503C86.6775 19.1503 85.6696 19.1503 85.6696 18.1424C84.6618 17.1346 84.6618 17.1346 84.6618 16.1267Z" fill="#FF781A"></path>
    <path d="M90.7095 18.1424H91.7174V17.1346C91.7174 16.1267 91.7174 16.1267 91.7174 15.1188V14.1109C91.7174 14.1109 92.7253 14.1109 92.7253 15.1188C92.7253 16.1267 93.7332 16.1267 93.7332 17.1346C93.7332 18.1424 94.7411 18.1424 94.7411 18.1424C94.7411 18.1424 94.7411 17.1346 93.7332 16.1267C92.7253 14.1109 91.7174 13.103 90.7095 13.103H89.7017C89.7017 13.103 89.7017 14.1109 89.7017 15.1188C89.7017 16.1267 90.7095 17.1346 90.7095 18.1424C89.7017 17.1346 89.7017 18.1424 89.7017 18.1424V19.1503V20.1582C89.7017 20.1582 89.7017 20.1582 90.7095 20.1582C90.7095 20.1582 90.7095 20.1582 91.7174 20.1582C90.7095 19.1503 90.7095 19.1503 90.7095 18.1424Z" fill="#FF781A"></path>
    <path d="M96.7572 17.1347C96.7572 18.1426 96.7572 18.1426 96.7572 18.1426C96.7572 18.1426 95.7493 18.1426 95.7493 17.1347C95.7493 16.1268 94.7414 16.1268 94.7414 15.1189C94.7414 14.111 94.7414 14.1111 94.7414 13.1032L95.7493 12.0953H96.7572C96.7572 12.0953 97.7651 12.0953 97.7651 13.1032C98.7729 14.1111 98.7729 14.111 98.7729 15.1189C98.7729 15.1189 98.7729 15.1189 98.7729 16.1268C98.7729 16.1268 98.7729 15.1189 98.7729 14.1111C98.7729 13.1032 97.7651 13.1032 97.7651 13.1032C97.7651 13.1032 97.7651 12.0953 96.7572 12.0953C95.7493 11.0874 95.7493 11.0874 94.7414 11.0874C93.7335 11.0874 93.7335 11.0874 92.7257 12.0953C92.7257 12.0953 91.7178 13.1032 91.7178 14.1111C91.7178 15.1189 91.7178 17.1347 92.7257 17.1347C93.7335 18.1426 93.7335 18.1426 94.7414 18.1426H95.7493C95.7493 18.1426 95.7493 18.1426 95.7493 17.1347C98.7729 18.1426 97.7651 18.1426 96.7572 17.1347C97.7651 17.1347 97.7651 17.1347 96.7572 17.1347Z" fill="#FF781A"></path>
    <path d="M104.82 17.1346C105.828 17.1346 105.828 17.1346 105.828 17.1346C105.828 17.1346 105.828 17.1346 104.82 16.1267C105.828 17.1346 105.828 17.1346 104.82 17.1346C104.82 15.1189 104.82 14.111 103.812 14.111C102.804 13.1031 102.804 13.1031 100.788 13.1031C99.7804 13.1031 99.7804 13.1031 98.7725 14.111C98.7725 15.1189 97.7646 15.1189 97.7646 16.1267C97.7646 17.1346 97.7646 18.1425 98.7725 18.1425C99.7804 19.1504 99.7804 19.1504 100.788 19.1504H101.796C102.804 19.1504 102.804 19.1504 102.804 18.1425C104.82 18.1425 104.82 18.1425 104.82 17.1346ZM103.812 16.1267C102.804 16.1267 101.796 16.1267 101.796 16.1267L100.788 17.1346V18.1425C99.7804 18.1425 99.7804 17.1346 99.7804 15.1189C99.7804 14.111 99.7804 14.111 99.7804 13.1031C99.7804 12.0952 100.788 12.0952 100.788 12.0952C101.796 12.0952 101.796 12.0952 101.796 13.1031C103.812 15.1189 103.812 15.1189 103.812 16.1267ZM102.804 19.1504C101.796 19.1504 101.796 19.1504 102.804 19.1504C101.796 18.1425 102.804 17.1346 102.804 17.1346H103.812C103.812 17.1346 103.812 18.1425 102.804 19.1504Z" fill="#FF781A"></path>
    <path d="M107.843 13.1028C106.835 13.1028 106.835 13.1028 107.843 13.1028C106.835 13.1028 106.835 13.1028 106.835 13.1028C106.835 13.1028 106.835 14.1106 106.835 15.1185C106.835 16.1264 106.835 18.1422 106.835 21.1658C106.835 23.1816 107.843 24.1895 108.851 24.1895C108.851 24.1895 108.851 24.1895 108.851 23.1816C108.851 21.1658 107.843 20.1579 106.835 17.1343C106.835 16.1264 106.835 15.1185 106.835 14.1107C106.835 13.1028 107.843 14.1106 107.843 13.1028C107.843 14.1106 108.851 14.1106 108.851 15.1185C108.851 16.1264 109.859 16.1264 109.859 17.1343C109.859 18.1422 110.867 18.1422 110.867 18.1422C110.867 18.1422 110.867 17.1343 109.859 16.1264C108.851 14.1106 107.843 13.1028 107.843 13.1028ZM108.851 23.1816C107.843 24.1895 107.843 22.1737 107.843 19.15C108.851 21.1658 108.851 22.1737 108.851 23.1816Z" fill="#FF781A"></path>
    <path d="M97.3471 17.1991H98.355C98.355 17.1991 98.355 17.1991 97.3471 16.1912C98.355 17.1991 97.3471 17.1991 97.3471 17.1991C97.3471 15.1833 97.3471 14.1754 96.3392 14.1754C95.3313 13.1676 95.3313 13.1676 94.3235 13.1676C93.3156 13.1676 93.3156 13.1676 92.3077 14.1754C92.3077 15.1833 91.2998 15.1833 91.2998 16.1912C91.2998 17.1991 91.2998 18.207 92.3077 18.207C92.3077 19.2148 93.3156 19.2148 94.3235 19.2148H95.3313C96.3392 19.2148 96.3392 19.2148 96.3392 18.207C96.3392 18.207 97.3471 18.207 97.3471 17.1991ZM95.3313 16.1912C94.3234 16.1912 93.3156 16.1912 93.3156 16.1912L92.3077 17.1991V18.207C91.2998 18.207 91.2998 17.1991 91.2998 15.1833C91.2998 14.1754 91.2998 14.1754 91.2998 13.1676C91.2998 12.1597 92.3077 12.1597 92.3077 12.1597C93.3156 12.1597 93.3156 12.1597 93.3156 13.1676C95.3313 15.1833 95.3313 15.1833 95.3313 16.1912ZM94.3235 19.2148C93.3156 18.207 93.3156 17.1991 94.3235 17.1991H95.3313C95.3313 17.1991 95.3313 18.207 94.3235 19.2148C95.3313 19.2148 95.3313 19.2148 94.3235 19.2148Z" fill="#FF781A"></path>
    <path d="M117.921 18.1424H118.929V17.1346C118.929 16.1267 118.929 16.1267 118.929 15.1188V14.1109C118.929 14.1109 119.937 14.1109 119.937 15.1188C119.937 16.1267 120.945 16.1267 120.945 17.1346C120.945 18.1424 121.953 18.1424 121.953 18.1424C121.953 18.1424 121.953 17.1346 120.945 16.1267C119.937 14.1109 118.929 13.103 117.921 13.103C116.914 13.103 116.914 13.103 116.914 13.103C116.914 13.103 116.914 14.1109 116.914 15.1188C117.921 16.1267 117.921 17.1346 117.921 18.1424C116.914 17.1346 116.914 18.1424 116.914 18.1424V19.1503V20.1582C116.914 20.1582 116.914 20.1582 117.921 20.1582C117.921 20.1582 117.921 20.1582 118.929 20.1582C117.921 19.1503 117.921 19.1503 117.921 18.1424Z" fill="#FF781A"></path>
    <path d="M67.5279 7.05644L66.52 10.0801V8.06433L67.5279 7.05644V8.06433V10.0801V7.05644Z" fill="#FF781A"></path>
    <path d="M73.5748 7.05259C72.5669 8.06047 72.5669 7.05259 73.5748 7.05259C72.5669 8.06047 72.5669 8.06047 72.5669 8.06047L73.5748 7.05259C72.5669 8.06047 72.5669 8.06047 73.5748 7.05259C72.5669 7.05259 72.5669 7.05259 73.5748 7.05259C73.5748 8.06047 73.5748 8.06047 73.5748 7.05259V8.06047C74.5827 8.06047 74.5827 8.06047 73.5748 7.05259C74.5827 7.05259 74.5827 7.05259 73.5748 7.05259Z" fill="#FF781A"></path>
    <path d="M75.5909 7.05644V10.0801H74.583H76.5988L75.5909 7.05644Z" fill="#FF781A"></path>
    <path d="M78.6148 7.05259C77.6069 7.05259 77.6069 7.05259 78.6148 7.05259C77.6069 8.06047 77.6069 8.06047 77.6069 8.06047V9.06836H78.6148C78.6148 9.06836 78.6148 9.06836 78.6148 8.06047V7.05259C79.6227 8.06047 79.6227 8.06047 78.6148 7.05259ZM78.6148 7.05259C79.6227 8.06047 79.6227 7.05259 78.6148 7.05259V7.05259Z" fill="#FF781A"></path>
    <path d="M80.6304 7.05644V10.0801H81.6383H82.6461C82.6461 10.0801 82.6461 10.0801 82.6461 9.07221L83.654 7.05644V8.06433L80.6304 7.05644ZM81.6383 9.07221C81.6383 10.0801 81.6383 10.0801 81.6383 10.0801V9.07221Z" fill="#FF781A"></path>
    <path d="M85.6704 7.05644V10.0801H86.6783C86.6783 10.0801 86.6783 10.0801 86.6783 9.07221C86.6783 9.07221 86.6783 9.07221 86.6783 8.06433C86.6783 8.06433 86.6783 8.06432 86.6783 7.05644C86.6783 7.05644 86.6783 7.05644 85.6704 7.05644ZM85.6704 9.07221C86.6783 10.0801 86.6783 9.07221 85.6704 9.07221C85.6704 10.0801 85.6704 10.0801 85.6704 10.0801V9.07221ZM85.6704 7.05644C86.6783 7.05644 86.6783 7.05644 85.6704 7.05644C86.6783 8.06432 86.6783 7.05644 85.6704 7.05644C86.6783 8.06432 86.6783 8.06433 86.6783 8.06433V7.05644H85.6704Z" fill="#FF781A"></path>
    <path d="M88.6938 7.05644L89.7017 10.0801L90.7096 7.05644V8.06433L88.6938 7.05644Z" fill="#FF781A"></path>
    <path d="M91.7174 7.05259C90.7095 8.06047 90.7095 8.06047 90.7095 8.06047L91.7174 7.05259C91.7174 8.06047 91.7174 8.06047 91.7174 7.05259C92.7252 8.06047 92.7252 8.06047 91.7174 7.05259V8.06047C92.7252 8.06047 92.7252 8.06047 91.7174 7.05259C92.7252 7.05259 92.7252 7.05259 91.7174 7.05259Z" fill="#FF781A"></path>
    <path d="M94.7407 7.05644V10.0801V9.07221L95.7486 10.0801H96.7565L95.7486 9.07221L96.7565 7.05644H95.7486L94.7407 8.06433V7.05644Z" fill="#FF781A"></path>
    <path d="M97.7647 7.05644C96.7568 7.05644 96.7568 7.05644 97.7647 7.05644C96.7568 8.06432 96.7568 7.05644 97.7647 7.05644C96.7568 8.06432 96.7568 8.06433 96.7568 8.06433V9.07221C96.7568 10.0801 96.7568 10.0801 97.7647 10.0801V9.07221C97.7647 8.06433 97.7647 8.06432 97.7647 7.05644C97.7647 8.06432 97.7647 8.06432 97.7647 7.05644C98.7726 7.05644 98.7726 7.05644 97.7647 7.05644C98.7726 8.06432 98.7726 8.06432 97.7647 7.05644C97.7647 8.06432 97.7647 8.06433 97.7647 8.06433H98.7726L97.7647 7.05644Z" fill="#FF781A"></path>
    <path d="M99.7803 7.05644V10.0801H100.788H101.796C101.796 10.0801 101.796 10.0801 101.796 9.07221L102.804 7.05644V8.06433L99.7803 7.05644ZM100.788 9.07221C100.788 10.0801 100.788 10.0801 100.788 10.0801V9.07221Z" fill="#FF781A"></path>
    <path d="M103.812 7.05259C102.804 7.05259 102.804 7.05259 103.812 7.05259C102.804 8.06047 102.804 8.06047 102.804 8.06047V9.06836H103.812C103.812 9.06836 103.812 9.06836 103.812 8.06047V7.05259C104.819 8.06047 104.819 8.06047 103.812 7.05259Z" fill="#FF781A"></path>
    <path d="M106.836 7.05644C105.828 7.05644 105.828 7.05644 105.828 7.05644C106.836 8.06432 106.836 8.06432 106.836 7.05644C106.836 8.06432 106.836 8.06432 106.836 7.05644C107.843 8.06432 107.843 8.06432 106.836 7.05644C106.836 8.06432 106.836 8.06433 106.836 8.06433C107.843 8.06433 107.843 8.06432 106.836 7.05644C107.843 7.05644 107.843 8.06432 106.836 7.05644Z" fill="#FF781A"></path>
    <path d="M108.851 7.05644V10.0801L109.859 8.06433V10.0801V7.05644L108.851 9.07221V7.05644Z" fill="#FF781A"></path>
    <path d="M111.875 7.05644V10.0801H112.883H113.891C113.891 10.0801 113.891 10.0801 113.891 9.07221V8.06433V7.05644C113.891 7.05644 112.883 7.05644 111.875 7.05644ZM112.883 7.05644L113.891 9.07221V7.05644H112.883Z" fill="#FF781A"></path>
  </g>
</svg>