
<svg xmlns="http://www.w3.org/2000/svg" width="150" height="24" viewBox="0 0 150 24" fill="none">
  <path fill-rule="evenodd" clip-rule="evenodd" d="M4.33272 23.4935H0V7.99979H4.23195V9.92384C5.23956 8.30359 7.15402 7.59473 8.86695 7.59473C12.8974 7.59473 14.7111 10.3289 14.7111 13.7719V23.4935H10.3784V14.4808C10.3784 12.7593 9.47152 11.3416 7.35554 11.3416C5.44108 11.3416 4.33272 12.7593 4.33272 14.5821V23.4935Z" fill="black"></path>
  <path fill-rule="evenodd" clip-rule="evenodd" d="M27.7078 21.8734C26.801 23.2911 24.9873 23.8987 23.2743 23.8987C19.3447 23.8987 17.1279 21.1646 17.1279 17.8228V8H21.4606V16.9114C21.4606 18.7342 22.3675 20.0506 24.4835 20.0506C26.3979 20.0506 27.5063 18.8354 27.5063 17.0127V8H31.839V23.4937H27.7078V21.8734Z" fill="black"></path>
  <path fill-rule="evenodd" clip-rule="evenodd" d="M56.8283 12.0506H55.3169C53.1002 12.0506 51.1857 13.0633 51.1857 16.4051V23.4937H46.853V8H51.085V10.3291C52.0926 8.20253 54.3093 8 55.6192 8H56.8283V12.0506Z" fill="black"></path>
  <path d="M63.1932 8H58.8438V23.5193H63.1932V8Z" fill="black"></path>
  <path fill-rule="evenodd" clip-rule="evenodd" d="M66.7031 23.4938V0.202637H71.0358V9.72162C71.7412 8.6077 73.4541 7.59504 75.8724 7.59504C80.6081 7.59504 83.3287 11.1393 83.3287 15.6963C83.3287 20.3545 80.3058 23.8988 75.6708 23.8988C73.4541 23.8988 71.7412 22.9874 70.9351 21.5697V23.4938H66.7031ZM74.9655 11.3419C72.7488 11.3419 70.9351 12.8609 70.9351 15.6963C70.9351 18.5317 72.7488 20.152 74.9655 20.152C77.1823 20.152 78.8952 18.5317 78.8952 15.6963C78.9959 12.8609 77.1823 11.3419 74.9655 11.3419Z" fill="black"></path>
  <path fill-rule="evenodd" clip-rule="evenodd" d="M95.8235 21.8734C94.9167 23.2911 93.103 23.8987 91.3901 23.8987C87.4604 23.8987 85.2437 21.1646 85.2437 17.8228V8H89.5764V16.9114C89.5764 18.7342 90.584 20.0506 92.5992 20.0506C94.5136 20.0506 95.622 18.8354 95.622 17.0127V8H99.9547V23.4937H95.8235V21.8734Z" fill="black"></path>
  <path d="M108.034 0.202637H103.685V23.4815H108.034V0.202637Z" fill="black"></path>
  <path d="M116.093 0.202637H111.744V23.4815H116.093V0.202637Z" fill="black"></path>
  <path fill-rule="evenodd" clip-rule="evenodd" d="M145.902 7.9998H142.98V2.43018H138.647V7.9998H135.725V11.7466H138.647V23.4935H142.98V11.7466H145.902V7.9998Z" fill="black"></path>
  <path fill-rule="evenodd" clip-rule="evenodd" d="M44.233 7.9998H41.3109V2.43018H36.9782V7.9998H34.0562V11.7466H36.9782V23.4935H41.3109V11.7466H44.233V7.9998Z" fill="black"></path>
  <path fill-rule="evenodd" clip-rule="evenodd" d="M60.9606 0C62.472 0 63.6811 1.21519 63.6811 2.63291C63.6811 4.05063 62.472 5.16456 60.9606 5.16456C59.55 5.16456 58.3408 3.94937 58.3408 2.63291C58.3408 1.11392 59.55 0 60.9606 0Z" fill="black"></path>
  <path fill-rule="evenodd" clip-rule="evenodd" d="M130.386 18.5316C129.882 19.6456 128.774 20.3544 126.96 20.3544C124.844 20.3544 123.03 18.9367 122.929 16.8101H134.416C134.416 16.8101 134.517 16.1012 134.517 15.5949C134.517 10.5316 131.494 7.49365 126.557 7.49365C122.426 7.49365 118.597 10.7342 118.597 15.6962C118.597 20.962 122.526 24 126.859 24C130.587 24 133.106 21.9747 134.114 19.5443L130.386 18.5316ZM126.658 10.9367C129.076 10.9367 130.184 12.4557 130.184 13.9747H123.03C123.131 12.5569 124.34 10.9367 126.658 10.9367Z" fill="black"></path>
  <path fill-rule="evenodd" clip-rule="evenodd" d="M149.429 21.8735C149.429 23.0887 148.522 24 147.414 24C146.205 24 145.298 23.0887 145.298 21.8735C145.298 20.7595 146.205 19.8481 147.414 19.8481C148.522 19.8481 149.429 20.7595 149.429 21.8735ZM149.127 21.8735C149.127 20.9621 148.321 20.1519 147.414 20.1519C146.406 20.1519 145.701 20.9621 145.701 21.8735C145.701 22.8861 146.406 23.6962 147.414 23.6962C148.321 23.6962 149.127 22.8861 149.127 21.8735ZM147.716 22.2785L148.22 22.9874H147.716L147.212 22.2785H147.112V22.9874H146.709V20.8608H147.515C148.018 20.8608 148.22 21.2659 148.22 21.5697C148.22 21.9747 148.018 22.1773 147.716 22.2785ZM147.112 21.8735H147.414C147.615 21.8735 147.716 21.7722 147.716 21.5697C147.716 21.4684 147.615 21.3671 147.414 21.3671H147.112V21.8735Z" fill="black"></path>
</svg>