<svg xmlns="http://www.w3.org/2000/svg" width="154" height="38" viewBox="0 0 154 38" fill="none">
  <g clip-path="url(#clip0_6752_1106)">
    <path d="M3.16599 15.8335L0 18.9994L3.16599 22.1655L6.33198 18.9994L3.16599 15.8335Z" fill="#5555FF"></path>
    <path d="M7.12449 11.875L3.9585 15.0409L7.12449 18.207L10.2905 15.0409L7.12449 11.875Z" fill="#5555FF"></path>
    <path d="M11.0829 7.9165L7.91699 11.0825L11.0829 14.2485L14.249 11.0825L11.0829 7.9165Z" fill="#5555FF"></path>
    <path d="M18.9995 0L15.8335 3.166L18.9995 6.33198L22.1655 3.16599L18.9995 0Z" fill="#5555FF"></path>
    <path d="M15.0414 3.9585L11.8755 7.12448L15.0414 10.2905L18.2075 7.12448L15.0414 3.9585Z" fill="#5555FF"></path>
    <path d="M31.6699 19.0019L34.8359 22.1679L38.0019 19.0019L34.8359 15.8359L31.6699 19.0019Z" fill="#5555FF"></path>
    <path d="M27.7114 15.0434L30.8774 18.2094L34.0434 15.0434L30.8774 11.8774L27.7114 15.0434Z" fill="#5555FF"></path>
    <path d="M23.7534 11.0849L26.9195 14.251L30.0854 11.0849L26.9195 7.91895L23.7534 11.0849Z" fill="#5555FF"></path>
    <path d="M19.7944 7.12645L22.9604 10.2924L26.1264 7.12645L22.9604 3.96045L19.7944 7.12645Z" fill="#5555FF"></path>
    <path d="M19.0014 8.23389L15.9927 11.2426L19.0014 14.2513L22.0101 11.2426L19.0014 8.23389Z" fill="#5555FF"></path>
    <path d="M15.0448 12.5034L12.1934 15.3548L15.0448 18.2062L17.8962 15.3548L15.0448 12.5034Z" fill="#5555FF"></path>
    <path d="M22.9614 12.5034L20.1099 15.3548L22.9614 18.2062L25.8128 15.3548L22.9614 12.5034Z" fill="#5555FF"></path>
    <path d="M11.0848 16.7827L8.39355 19.4739L11.0848 22.1651L13.7761 19.4739L11.0848 16.7827Z" fill="#5555FF"></path>
    <path d="M19.0018 16.7827L16.3105 19.474L19.0018 22.1653L21.6931 19.474L19.0018 16.7827Z" fill="#5555FF"></path>
    <path d="M26.9182 16.7827L24.2271 19.474L26.9182 22.1653L29.6095 19.474L26.9182 16.7827Z" fill="#5555FF"></path>
    <path d="M7.1282 21.0576L4.59424 23.5916L7.1282 26.1255L9.66216 23.5916L7.1282 21.0576Z" fill="#5555FF"></path>
    <path d="M15.0447 21.0586L12.5107 23.5925L15.0447 26.1265L17.5786 23.5925L15.0447 21.0586Z" fill="#5555FF"></path>
    <path d="M22.9617 21.0586L20.4277 23.5925L22.9617 26.1265L25.4956 23.5925L22.9617 21.0586Z" fill="#5555FF"></path>
    <path d="M30.8787 21.0586L28.3447 23.5925L30.8787 26.1265L33.4126 23.5925L30.8787 21.0586Z" fill="#5555FF"></path>
    <path d="M11.0836 25.6504L8.86719 27.8669L11.0836 30.0834L13.3001 27.8669L11.0836 25.6504Z" fill="#5555FF"></path>
    <path d="M19.0007 25.6519L16.7842 27.8683L19.0007 30.0848L21.2172 27.8683L19.0007 25.6519Z" fill="#5555FF"></path>
    <path d="M26.9172 25.6519L24.7007 27.8683L26.9172 30.0848L29.1337 27.8683L26.9172 25.6519Z" fill="#5555FF"></path>
    <path d="M15.0426 30.2407L13.1436 32.1396L15.0426 34.0387L16.9416 32.1396L15.0426 30.2407Z" fill="#5555FF"></path>
    <path d="M22.9591 30.2412L21.0601 32.1402L22.9591 34.0393L24.8581 32.1402L22.9591 30.2412Z" fill="#5555FF"></path>
    <path d="M19.001 34.8311L17.4165 36.4154L19.001 37.9999L20.5854 36.4154L19.001 34.8311Z" fill="#5555FF"></path>
    <path d="M50.6227 22.8233V28.7186H47.5024V9.52727C50.484 9.52727 53.5498 9.49805 56.5312 9.49805C65.8374 9.49805 65.8671 22.7649 56.5312 22.8184H50.6227V22.8233ZM50.6227 20.0024H56.5312C61.6871 20.0024 61.6573 12.3288 56.5312 12.3288H50.6227V20.0024Z" fill="black"></path>
    <path d="M102.562 23.0123C102.814 25.0684 104.538 26.4131 107.049 26.4131C108.44 26.4131 110.199 25.8918 111.03 24.9612L112.898 26.7444C111.477 28.2791 109.109 29.0489 106.989 29.0489C102.477 29.0489 99.5801 26.228 99.5801 21.8967C99.5801 17.7846 102.507 14.8516 106.796 14.8516C111.229 14.8516 114.235 17.5118 113.706 23.0221H102.562V23.0123ZM110.947 20.63C110.779 18.491 109.193 17.3704 106.88 17.3704C104.79 17.3704 103.062 18.4959 102.616 20.63H110.947Z" fill="black"></path>
    <path d="M116.296 28.7192V9.55713H130.089V12.5438H119.415V18.3806H128.529V21.2307H119.415V28.7143H116.296V28.7192Z" fill="black"></path>
    <path d="M148.943 15.2031L145.199 24.9864L141.436 15.2031H138.364L143.669 28.9815L143.312 29.9169L141.371 34.9937H144.437L145.21 32.9767L145.254 32.8598L146.383 29.9121L146.739 28.9766L152.01 15.2031H148.943Z" fill="black"></path>
    <path d="M135.823 9.54248H132.703V28.7143H135.823V9.54248Z" fill="black"></path>
    <path d="M77.1297 15.2034V17.3326C76.2629 15.8027 74.4007 14.9062 72.4544 14.9062C68.4971 14.9062 65.3472 17.43 65.3472 21.9513C65.3472 26.5555 68.3833 29.1036 72.3949 29.0793C74.0887 29.0793 76.2036 28.2608 77.1248 26.5409V28.7236H80.2449V15.2034H77.1297ZM72.6771 26.4434C70.2256 26.4434 68.2197 24.743 68.2197 21.9465C68.2197 19.1791 70.2256 17.4787 72.6771 17.4787C78.6106 17.4787 78.6106 26.4434 72.6771 26.4434Z" fill="black"></path>
    <path d="M97.5447 21.9948C97.5447 20.2652 97.0098 18.6769 95.6181 17.2445L97.7528 15.1446L95.5488 12.9717L93.1319 15.3492C92.2255 14.9546 91.1211 14.823 90.2198 14.823C86.4853 14.823 82.7758 17.2201 82.7808 21.99C82.7808 25.7512 84.5736 28.7086 89.6848 28.8791C93.0328 28.9912 94.5434 30.1995 94.5434 32.1922C94.5434 34.2141 92.285 35.1106 90.1701 35.1106C87.887 35.0813 85.7127 33.8974 85.792 31.6708H82.9244C82.8154 35.6318 85.683 37.9997 90.1701 37.9997C93.8451 37.9997 97.525 36.0606 97.525 32.1922C97.525 30.4869 96.7176 28.5186 93.9046 27.5393C96.3462 26.5648 97.5447 24.5137 97.5447 21.9948ZM90.2198 26.3603C89.1054 26.3603 88.0751 26.0532 87.2778 25.454C86.4408 24.8255 85.8663 23.8803 85.7177 22.6477C85.693 22.4381 85.6781 22.2238 85.6781 21.9948C85.6781 19.0179 87.882 17.6002 90.2198 17.6002C90.4178 17.6002 90.6159 17.6099 90.8091 17.6343C91.9532 17.7609 92.9932 18.2773 93.7064 19.13C94.3106 19.8511 94.682 20.8157 94.682 21.9948C94.6772 24.5721 92.7554 26.3603 90.2198 26.3603Z" fill="black"></path>
  </g>
  <defs>
    <clipPath id="clip0_6752_1106">
      <rect width="153.086" height="38" fill="white"></rect>
    </clipPath>
  </defs>
</svg>