<svg width="126" height="38" viewBox="0 0 126 38" fill="none" xmlns="http://www.w3.org/2000/svg">
<path d="M20.8 5.5C20.7 5.1 20.5 4.6 20.3 4.2C19.5 2.7 18.4 2 17 2H16.7L16.6 1.9C16.3 1.6 16 1.3 15.6 1.2C15.2 1 14.8 1 14.4 1C12.6 1 10.9 2.3 9.5 4.6C8.4 6 7.6 8 7.4 9.6L4 10.7C2.9 11 2.9 11 2.8 12L0 33.3L22.2 37.1V5.1C22.1 5.1 22 5.1 21.9 5.1L20.8 5.5ZM16.2 3.3C16.7 4.3 16.8 5.7 16.8 6.7L13 7.8C13.3 6.5 14 5.2 14.9 4.2C15.2 3.9 15.7 3.5 16.2 3.3ZM14.4 2.1C14.8 2.1 15.2 2.2 15.5 2.4C15 2.6 14.6 3 14.1 3.5C12.9 4.9 12.1 6.6 11.8 8.4L8.7 9.2C9.3 6.4 11.7 2.1 14.4 2.1ZM10.9 18.1C11 20 16 20.4 16.3 24.8C16.5 28.3 14.5 30.6 11.5 30.8C7.9 31.1 6 29 6 29L6.8 25.8C6.8 25.8 8.8 27.3 10.4 27.2C10.6 27.2 10.8 27.2 10.9 27.1C11.1 27 11.2 26.9 11.4 26.8C11.5 26.7 11.6 26.5 11.7 26.3C11.8 26.1 11.8 25.9 11.8 25.7C11.6 23.3 7.6 23.4 7.3 19.4C7.1 16 9.3 12.6 14.2 12.3C16.1 12.2 17.1 12.7 17.1 12.7L16 16.9C16 16.9 14.7 16.3 13.3 16.4C10.9 16.4 10.9 17.8 10.9 18.1ZM17.9 6.3C17.9 5.2 17.7 4.1 17.4 3.1C18.7 3.4 19.4 4.9 19.7 5.8L17.9 6.3Z" fill="black"/>
<path d="M27.9999 7.7C27.8999 7.6 27.8999 7.6 27.7999 7.6H25.0999L22.8999 5.5V37L32.0999 34.7L28.0999 7.8C28.0999 7.8 28.0999 7.7 27.9999 7.7Z" fill="black"/>
<path d="M44.0044 32L46.7016 17.6263C47.0409 15.8208 47.2933 14.2242 47.4586 12.9844H48.6114L48.1894 15.7121H48.246C49.4554 13.8849 51.1434 12.7016 52.9445 12.7016C55.5068 12.7016 56.4596 14.8942 56.4596 17.0912C56.4596 21.6504 53.336 26.7665 49.0334 26.7665C47.7109 26.7665 46.8408 26.4576 46.3318 26.1748H46.2753L45.2094 31.9957H44L44.0044 32ZM46.5363 24.9436C47.1541 25.4222 48.0546 25.7006 49.1509 25.7006C52.7226 25.7006 55.198 20.6367 55.198 17.1738C55.198 15.5685 54.5802 13.7979 52.5834 13.7979C50.5865 13.7979 48.1677 16.2167 47.4064 20.2974L46.5319 24.9393L46.5363 24.9436Z" fill="black"/>
<path d="M65.7743 26.4837C65.7439 25.6702 65.9135 24.4042 66.1093 22.8555H66.0571C64.5084 25.8355 62.7943 26.7665 61.0193 26.7665C58.9703 26.7665 57.7261 25.0785 57.7261 22.6597C57.7261 18.0744 61.0193 12.7016 66.2529 12.7016C67.21 12.7016 68.2802 12.8713 68.9806 13.0931L67.5449 20.3801C67.0664 22.8816 66.8967 25.0524 66.9533 26.4837H65.77H65.7743ZM67.5797 13.9937C67.2709 13.8806 66.7923 13.7979 65.9483 13.7979C62.0678 13.7979 59.0268 18.1309 59.0007 22.3769C58.9703 24.1214 59.4793 25.6963 61.3065 25.6963C63.4991 25.6963 65.9788 22.4074 66.6227 18.9183L67.5797 13.9937Z" fill="black"/>
<path d="M70.1333 26.4837L71.8517 17.3957C72.1867 15.6816 72.3868 14.159 72.4999 12.98H73.6267C73.5136 13.8545 73.4005 14.7506 73.2308 15.9079H73.2873C74.1313 14.1024 75.4539 12.7016 77.1418 12.7016C77.3115 12.7016 77.4811 12.7234 77.6465 12.7582L77.4202 14.0241C77.2636 13.9893 77.1027 13.9676 76.9417 13.9676C75.1711 13.9676 73.2003 16.6387 72.6391 19.6231L71.3732 26.488H70.1377L70.1333 26.4837Z" fill="black"/>
<path d="M82.7624 10L82.1707 12.9844H85.3509L85.1247 14.0241H81.9445L80.4523 22.068C80.2827 22.9686 80.1696 23.6733 80.1696 24.4042C80.1696 25.1916 80.535 25.6702 81.379 25.6702C81.8271 25.6702 82.1098 25.6441 82.3622 25.5571L82.4448 26.5402C82.0141 26.6708 81.5704 26.736 81.1223 26.736C79.517 26.736 78.8992 25.6702 78.8992 24.5434C78.8992 23.8125 78.9819 23.1078 79.2081 22.068L80.7264 14.0241H78.7861L78.9819 12.9844H80.9483L81.3964 10.5656L82.7537 10.0044L82.7624 10Z" fill="black"/>
<path d="M85.042 26.4837L86.8474 16.9476C87.1214 15.6381 87.3259 14.3112 87.4651 12.98H88.5875L88.2177 15.7382H88.2743C89.4576 13.7718 91.1412 12.7016 92.9727 12.7016C94.2953 12.7016 95.9832 13.5456 95.9832 16.1036C95.9832 16.7779 95.8701 17.4522 95.7309 18.1831L94.1821 26.4837H92.9727L94.5476 18.1831C94.6737 17.5349 94.739 16.878 94.7434 16.2167C94.7434 14.8115 94.1822 13.7979 92.5203 13.7979C90.7149 13.7979 88.1873 16.0471 87.6 19.3099L86.2775 26.4837H85.0376H85.042Z" fill="black"/>
<path d="M105.884 25.7267C105.18 26.1748 103.888 26.7404 102.2 26.7404C99.0499 26.7404 97.9536 24.265 97.9536 21.6765C97.9536 17.7959 100.655 12.7016 104.536 12.7016C106.759 12.7016 107.685 14.1633 107.685 15.6512C107.685 19.0836 103.748 20.0407 99.3283 20.0103C99.1891 20.628 99.163 22.403 99.4414 23.3557C99.92 24.9045 100.96 25.6354 102.391 25.6354C103.822 25.6354 104.893 25.1003 105.515 24.7348L105.884 25.7224V25.7267ZM104.31 13.7979C102.23 13.7979 100.342 16.0471 99.5285 18.9444C103.044 18.9705 106.42 18.3832 106.42 15.7077C106.42 14.4418 105.576 13.7936 104.31 13.7936V13.7979Z" fill="black"/>
<path d="M108.359 26.4837L110.078 17.3957C110.417 15.6816 110.613 14.159 110.726 12.98H111.853C111.74 13.8545 111.627 14.7506 111.457 15.9079H111.513C112.357 14.1024 113.68 12.7016 115.368 12.7016C115.538 12.7016 115.707 12.7234 115.873 12.7582L115.646 14.0241C115.49 13.9893 115.329 13.9676 115.168 13.9676C113.397 13.9676 111.426 16.6387 110.865 19.6231L109.599 26.488H108.364L108.359 26.4837Z" fill="black"/>
<path d="M115.308 24.9089C116.017 25.3744 116.848 25.631 117.701 25.6397C119.471 25.6397 120.65 24.3738 120.65 22.8511C120.65 21.4982 120.089 20.6846 118.823 19.8668C117.5 18.9967 116.77 17.7873 116.77 16.5474C116.77 14.4374 118.458 12.6929 120.82 12.6929C121.746 12.6929 122.677 13.0018 123.069 13.3107L122.617 14.3548C122.195 14.1025 121.464 13.7936 120.676 13.7936C119.045 13.7936 117.975 14.9203 117.975 16.3255C117.975 17.5915 118.679 18.2919 119.802 19.0315C121.094 19.9016 121.881 21.1414 121.881 22.49C121.881 25.2178 119.884 26.736 117.579 26.736C116.369 26.736 115.299 26.288 114.851 25.9225L115.304 24.9045L115.308 24.9089Z" fill="black"/>
</svg>
