<svg width="36" height="36" viewBox="0 0 36 36" fill="none" xmlns="http://www.w3.org/2000/svg">
<g clip-path="url(#clip0_3669_9188)">
<path fill-rule="evenodd" clip-rule="evenodd" d="M20.5398 8.58361C21.4428 8.58352 22.337 8.76134 23.1713 9.10691C24.0056 9.45247 24.7636 9.95901 25.4021 10.5976C26.0405 11.2362 26.547 11.9943 26.8924 12.8286C27.2378 13.6629 27.4155 14.5572 27.4153 15.4602C27.4153 15.6933 27.5079 15.9168 27.6727 16.0816C27.8375 16.2465 28.0611 16.3391 28.2942 16.3391C28.5273 16.3391 28.7509 16.2465 28.9157 16.0816C29.0805 15.9168 29.1731 15.6933 29.1731 15.4602C29.1722 13.1708 28.2623 10.9754 26.6434 9.35665C25.0246 7.73786 22.8292 6.82811 20.5398 6.82734C20.4245 6.82734 20.3103 6.85005 20.2038 6.89418C20.0972 6.93831 20.0004 7.00298 19.9189 7.08452C19.8374 7.16606 19.7727 7.26285 19.7286 7.36938C19.6844 7.47592 19.6617 7.5901 19.6617 7.7054C19.6617 7.82071 19.6844 7.93489 19.7286 8.04142C19.7727 8.14796 19.8374 8.24475 19.9189 8.32629C20.0004 8.40782 20.0972 8.4725 20.2038 8.51663C20.3103 8.56075 20.4245 8.58347 20.5398 8.58347V8.58361ZM19.2131 14.2061C19.0971 14.2072 18.9821 14.1852 18.8746 14.1416C18.7672 14.0979 18.6694 14.0334 18.5871 13.9518C18.5047 13.8701 18.4393 13.773 18.3947 13.6659C18.35 13.5589 18.3271 13.444 18.3271 13.328C18.3271 13.2121 18.35 13.0972 18.3947 12.9902C18.4393 12.8831 18.5047 12.786 18.5871 12.7043C18.6694 12.6227 18.7672 12.5582 18.8746 12.5145C18.9821 12.4709 19.0971 12.4489 19.2131 12.45C19.8054 12.4497 20.3921 12.5661 20.9394 12.7927C21.4868 13.0192 21.9841 13.3514 22.403 13.7702C22.8219 14.1891 23.1542 14.6864 23.3808 15.2337C23.6075 15.781 23.724 16.3676 23.7238 16.96C23.7238 17.1931 23.6312 17.4167 23.4664 17.5815C23.3016 17.7463 23.078 17.8389 22.8449 17.8389C22.6118 17.8389 22.3883 17.7463 22.2234 17.5815C22.0586 17.4167 21.966 17.1931 21.966 16.96C21.9661 16.5984 21.895 16.2403 21.7567 15.9062C21.6184 15.5721 21.4157 15.2685 21.1601 15.0128C20.9044 14.7571 20.6009 14.5542 20.2668 14.4158C19.9328 14.2774 19.5747 14.2061 19.2131 14.2061H19.2131ZM24.9311 35.9346C22.155 35.4445 19.4153 34.1708 17.024 32.7101C14.2579 31.0186 11.6742 28.9102 9.38232 26.6176C7.09048 24.3251 4.98103 21.7431 3.28967 18.9742C1.83026 16.5836 0.553316 13.843 0.0657693 11.0682C-0.0513951 10.4476 -0.0161434 9.80787 0.168496 9.2039C0.364705 8.60573 0.701329 8.06326 1.1502 7.62187L4.81186 3.96147C4.98335 3.79111 5.21526 3.69549 5.45698 3.69549C5.6987 3.69549 5.93062 3.79111 6.1021 3.96147L12.6791 10.5379C12.8491 10.7097 12.9445 10.9417 12.9445 11.1835C12.9445 11.4252 12.8491 11.6572 12.6791 11.8291L9.18333 15.3259C8.93425 15.5731 8.78142 15.901 8.75223 16.2508C8.72304 16.6005 8.81942 16.9492 9.02407 17.2343C10.3508 19.0976 11.9063 20.8624 13.5215 22.4783C15.1368 24.0943 16.9013 25.65 18.7654 26.9752C19.0501 27.1803 19.3986 27.277 19.7482 27.248C20.0978 27.219 20.4256 27.0662 20.6725 26.817L24.1717 23.3205C24.256 23.2357 24.3563 23.1686 24.4667 23.1229C24.5772 23.0773 24.6956 23.054 24.8151 23.0545C25.0575 23.0541 25.2901 23.1497 25.462 23.3205L32.0391 29.8972C32.2091 30.069 32.3044 30.301 32.3044 30.5427C32.3044 30.7843 32.2091 31.0163 32.0391 31.1881L28.3772 34.8491C27.939 35.3032 27.3941 35.6404 26.7922 35.8301C26.1903 36.0197 25.5504 36.0556 24.9311 35.9346ZM20.5398 1.75619C20.4238 1.75723 20.3088 1.73529 20.2014 1.69163C20.094 1.64798 19.9962 1.58347 19.9139 1.50184C19.8315 1.42021 19.7661 1.32308 19.7215 1.21604C19.6769 1.10901 19.6539 0.994197 19.6539 0.878236C19.6539 0.762276 19.6769 0.647464 19.7215 0.540429C19.7661 0.433395 19.8315 0.336259 19.9139 0.25463C19.9962 0.173002 20.094 0.108497 20.2014 0.0648405C20.3088 0.0211843 20.4238 -0.000758414 20.5398 0.0002793C22.57 0.000168482 24.5803 0.39997 26.456 1.17685C28.3317 1.95374 30.0359 3.09248 31.4715 4.52807C32.9071 5.96365 34.0458 7.66795 34.8226 9.54365C35.5994 11.4193 35.9992 13.4297 35.999 15.4599C35.999 15.693 35.9064 15.9165 35.7416 16.0814C35.5768 16.2462 35.3532 16.3388 35.1201 16.3388C34.887 16.3388 34.6635 16.2462 34.4987 16.0814C34.3338 15.9165 34.2412 15.693 34.2412 15.4599C34.2416 11.8257 32.7982 8.34029 30.2287 5.77031C27.6592 3.20033 24.1741 1.75634 20.5399 1.75598L20.5398 1.75619Z" fill="black"/>
</g>
<defs>
<clipPath id="clip0_3669_9188">
<rect width="36" height="36" fill="white"/>
</clipPath>
</defs>
</svg>
