<svg width="32" height="32" viewBox="0 0 32 32" fill="none" xmlns="http://www.w3.org/2000/svg">
<path d="M20.9548 16.1337C20.811 17.3081 20.2829 18.4275 19.4129 19.2975C18.3554 20.3556 16.8772 20.8538 15.021 20.7788C13.7191 20.7269 13.1178 21.0675 13.0191 21.1294C12.6203 21.4788 12.1141 21.67 11.5797 21.67C10.9953 21.67 10.446 21.4425 10.0328 21.0294C9.3197 20.3163 9.2047 19.2163 9.69157 18.3781L10.041 17.8244C10.1597 17.535 10.3203 16.9638 10.2828 16.0406C10.2085 14.1837 10.7066 12.7062 11.7641 11.6487C12.6303 10.7831 13.7378 10.2468 14.9354 10.1037C15.1047 9.28933 15.4716 8.52745 16.001 7.88745H3.43966C2.05965 7.88745 0.936523 9.00996 0.936523 10.39V22.8019H27.0492V10.4775L23.876 14.3662C23.1298 15.2781 22.0935 15.8987 20.9548 16.1337Z" fill="#147A6D"/>
<path d="M0.936586 25.4768C0.936586 26.8561 2.05972 27.9787 3.43973 27.9787H10.5535V30.1249H8.9767C8.45894 30.1249 8.03919 30.5447 8.03919 31.0624C8.03919 31.5802 8.45894 31.9999 8.9767 31.9999H19.0088C19.5266 31.9999 19.9463 31.5802 19.9463 31.0624C19.9463 30.5447 19.5266 30.1249 19.0088 30.1249H17.4321V27.9787H24.546C25.926 27.9787 27.0492 26.8561 27.0492 25.4768V24.6768H0.936523V25.4768H0.936586Z" fill="#147A6D"/>
<path d="M11.3811 19.2395C11.3809 19.2397 11.3807 19.2399 11.3806 19.24C11.3805 19.2401 11.3804 19.2402 11.3804 19.2403L11.3801 19.2405C11.38 19.2406 11.3799 19.2407 11.3798 19.2409C11.3797 19.241 11.3797 19.241 11.3795 19.2412L11.3794 19.2412C11.3794 19.2414 11.3792 19.2414 11.3791 19.2415C11.3791 19.2415 11.3791 19.2415 11.379 19.2416C11.379 19.2417 11.3789 19.2418 11.3788 19.2419C11.3788 19.2419 11.3788 19.2419 11.3787 19.242C11.3786 19.242 11.3785 19.2422 11.3784 19.2423C11.3784 19.2423 11.3784 19.2423 11.3784 19.2424L11.378 19.2427C11.2595 19.365 11.2607 19.5602 11.3815 19.681C11.4426 19.742 11.5225 19.7725 11.6025 19.7725C11.6818 19.7725 11.761 19.7426 11.8219 19.6827C11.841 19.6645 12.7877 18.7894 15.1198 18.8831C16.4319 18.936 17.4379 18.6217 18.1102 17.9494C19.4879 16.5717 19.4879 14.3301 18.1102 12.9524C17.4428 12.285 16.5555 11.9175 15.6117 11.9175C14.6679 11.9175 13.7805 12.285 13.1132 12.9524C12.4409 13.6247 12.1267 14.6308 12.1795 15.9428C12.2737 18.2876 11.3887 19.2317 11.3815 19.2391C11.3813 19.2393 11.3812 19.2394 11.3811 19.2395Z" fill="#147A6D"/>
<path d="M20.8736 14.2061C21.4849 14.023 22.0355 13.6605 22.4461 13.1586L23.644 11.6906L19.3768 7.42334L17.9149 8.61734C17.4118 9.02734 17.048 9.57734 16.8643 10.1886C17.8305 10.4155 18.7168 10.9073 19.4361 11.6267C20.1724 12.363 20.6518 13.2598 20.8736 14.2061Z" fill="#147A6D"/>
<path d="M30.5012 0.562954C29.803 -0.135171 28.6993 -0.190796 27.9343 0.434204L20.8369 6.23127L24.8361 10.2305L30.6305 3.12927C31.2549 2.36483 31.1993 1.26108 30.5012 0.562954Z" fill="#147A6D"/>
</svg>
