<svg width="67" height="64" viewBox="0 0 67 64" fill="none" xmlns="http://www.w3.org/2000/svg">
<path d="M37 7.72836C34.8333 2.22836 28.8 -3.6716 22 12.7284M32 9.31591C30.4571 1.7712 24.6971 -7.20891 14 15.2284M62.5 13.5V17.9784M62.5 17.9784V22.5M62.5 17.9784H67M62.5 17.9784H58M42 8.2284L44.5 11.2284H50L57 58.2284L42.5 62.2284L42 8.2284ZM39 7.7284V62.7284L1 55.7284L6 17.7284L39 7.7284ZM32 19.2284L29.5 28.2284C27.1667 27.3951 22.2 26.3284 21 28.7284C20.5001 29.7284 20.8 30.7284 24 32.7284C27.3334 34.7284 32.0974 40.4364 30 46.7284C29.1667 49.2284 25.4 54.1284 19 53.7284C16.3333 53.3951 10.8 52.1284 10 49.7284L11.5 42.2284C13.3333 43.5618 17.5 45.8284 19.5 44.2284C20.5 43.4284 20.8 41.6284 14 37.2284C12 35.9343 10 30.1284 14 23.7284C16 20.5284 23.6001 15.2284 32 19.2284Z" stroke="black" stroke-width="2" stroke-linejoin="round"></path>
</svg>