<svg xmlns="http://www.w3.org/2000/svg" width="771" height="352" viewBox="0 0 771 352" fill="none">
  <path d="M1 351L39.4819 349.301C39.4819 349.301 103.207 351.397 123.242 349.301C143.255 347.227 178.03 339.636 180.347 339.239C182.642 338.798 215.96 332.09 221.874 330.854C227.787 329.575 235.731 328.846 239.217 329.861C242.681 330.921 247.889 332.664 251.287 336.437C254.641 340.21 256.759 343.807 256.759 343.807C256.759 343.807 256.98 344.425 253.802 345.042C250.625 345.704 234.407 346.741 230.303 345.991C226.176 345.263 221.984 344.204 219.778 343.167C217.549 342.108 207.355 335.929 207.355 335.929C207.355 335.929 223.242 331.825 227.92 331.715C232.553 331.605 233.392 330.435 236.569 331.825C239.747 333.215 240.475 332.267 244.579 335.201C248.661 338.114 253.229 342.328 253.229 342.328C253.229 342.328 257.311 340.541 254.354 334.87C251.397 329.2 246.035 328.979 243.41 323.418C240.74 317.858 220.726 270.55 220.726 270.55C220.726 270.55 219.667 265.541 215.872 259.208C212.077 252.92 206.803 246.499 201.662 244.491C196.477 242.527 161.922 242.086 157.928 242.086C153.935 242.086 101.64 239.57 96.8076 239.35C91.9532 239.129 87.4298 239.636 81.5384 237.033C75.6249 234.407 71.8517 234.208 65.0997 228.957C58.3477 223.683 39.504 201.419 39.504 201.419C39.504 201.419 45.8808 216.137 53.2727 222.425C60.6425 228.758 65.2542 232.531 70.8808 235.687C76.4634 238.82 82.1341 241.027 89.6143 241.975C97.0944 242.924 130.612 243.564 130.612 243.564C130.612 243.564 168.851 244.689 175.581 244.689C182.333 244.689 193.961 245.241 197.514 246.477C201.088 247.756 204.155 248.794 205.943 250.801C207.73 252.809 212.077 257.642 213.754 261.635C215.431 265.629 236.944 316.909 239.041 320.859C241.159 324.853 242.615 326.861 245.351 329.575C248.131 332.333 258.326 338.842 259.164 341.777C260.003 344.711 244.116 343.785 240.938 344.182C237.761 344.623 231.362 345.131 227.346 343.343C223.33 341.556 213.026 337.055 213.026 337.055L212.408 349.257H319.689L313.357 310.157C313.357 310.157 312.121 309.319 310.113 307.62C308.105 305.943 304.928 299.544 303.052 297.337C301.154 295.131 299.147 294.182 297.58 293.233C295.969 292.284 294.888 290.938 294.447 290.144C294.049 289.35 293.498 288.07 293.498 287.673C293.498 287.231 293.343 286.878 293.674 287.055C293.961 287.209 294.557 287.562 294.91 288.246C295.285 288.93 297.977 297.58 297.977 299.323C297.977 301.066 299.191 307.818 299.102 309.385C298.992 310.974 298.926 312.143 298.418 312.628C297.867 313.092 295.947 313.688 295.02 313.467C294.138 313.246 293.785 313.004 293.343 311.944C292.902 310.885 288.643 295.837 287.915 294.402C287.187 292.946 285.4 286.989 285.179 286.018C284.958 285.003 285.753 285.003 286.084 285.576C286.371 286.15 285.069 303.008 284.341 304.508C283.613 305.965 280.943 307.134 279.994 307.024C279.045 306.914 276.64 301.684 276.64 299.257C276.64 296.852 276.816 292.527 276.816 292.527C276.816 292.527 273.904 294.425 269.226 292.417C264.592 290.409 262.364 288.864 260.378 287.695C258.37 286.525 253.339 284.65 250.603 285.069C247.823 285.466 239.085 283.48 233.392 280.457C227.699 277.412 222.756 273.705 222.756 273.705C222.756 273.705 234.738 276.574 238.246 280.126C241.755 283.679 241.534 285.179 244.667 286.746C247.845 288.312 255.303 288.026 257.862 289.681C260.378 291.357 266.909 294.954 270.285 294.733C273.683 294.513 276.816 291.799 278.096 289.901C279.376 288.004 281.891 276.64 281.274 273.087C280.612 269.535 280.435 268.873 280.435 268.873C280.435 268.873 255.435 244.535 253.979 242.814C252.478 241.137 251.64 240.298 244.292 236.746C236.9 233.149 236.282 233.811 233.326 229.597C230.369 225.426 229.089 225.426 227.633 222.028C226.177 218.652 224.235 220.131 221.41 222.359C218.564 224.544 196.763 232.134 194.976 232.642C193.189 233.149 190.519 235.378 192.527 235.267C194.535 235.157 193.586 234.981 198.22 233.811C202.876 232.642 219.733 227.92 221.719 226.353C223.727 224.764 227.412 217.637 227.633 212.981C227.853 208.37 227.633 206.693 227.015 202.081C226.353 197.425 230.81 193.476 234.605 180.854C238.401 168.255 236.282 165.298 231.428 159.407C226.574 153.515 207.818 144.91 202.346 142.174C196.874 139.416 185.466 138.401 185.466 138.401C185.466 138.401 193.056 141.953 207.818 149.522C222.58 157.09 222.183 158.458 227.876 160.245C233.524 161.989 239.019 162.562 239.019 162.562C239.019 162.562 245.351 153.295 244.094 141.534C242.814 129.751 242.924 129.575 241.247 126.53C239.526 123.485 235.223 118.652 232.509 112.32C229.773 106.031 228.891 102.258 226.375 97.4254C223.86 92.5931 219.116 85.6426 219.116 85.6426C219.116 85.6426 226.706 93.2992 229.001 96.8738C231.34 100.47 240.188 115.695 241.137 120.197C242.086 124.742 242.703 126.199 242.703 126.199C242.703 126.199 246.609 122.955 250.184 123.683C253.802 124.411 254.729 125.029 259.981 125.47C265.276 125.868 266.733 127.147 268.829 124.411C270.947 121.697 275.272 114.019 278.207 110.025C281.163 106.031 282.862 104.972 284.539 99.7423C286.216 94.4687 287.496 85.6426 287.496 85.6426L287.893 83.0168L276.221 77.9638C276.221 77.9638 271.256 75.6028 270.572 75.4484C269.888 75.2719 268.123 74.3892 266.424 74.3231C264.68 74.2789 257.465 74.6761 254.906 76.2868C252.39 77.8535 252.611 79.8394 251.441 78.692C250.272 77.5225 249.433 77.346 249.985 76.2868C250.492 75.2277 252.28 73.97 253.118 73.6611C253.957 73.3301 261.966 71.3442 264.526 71.3442C267.041 71.3442 271.168 72.1827 272.403 72.8005C273.683 73.4625 299.477 83.4139 299.477 83.4139C299.477 83.4139 298.749 85.113 298.021 85.7308C297.293 86.3486 296.719 87.7608 296.499 88.5552C296.278 89.3495 295.55 91.6002 294.711 92.1077C293.873 92.6594 292.262 93.3875 290.85 93.2771C289.438 93.1668 287.606 91.7105 287.386 90.9824C287.165 90.2101 288.379 84.6496 288.379 84.6496L289.725 84.9806C289.725 84.9806 289.151 85.9294 288.952 86.9885C288.798 88.0477 288.665 89.9232 288.842 90.4086C289.063 90.872 289.305 91.3575 289.967 91.4678C290.585 91.534 291.49 91.6443 292.196 91.3575C292.858 91.0265 294.27 89.3937 294.336 88.9965C294.38 88.5552 295.219 86.2383 295.219 86.2383L288.577 83.5905C288.577 83.5905 291.534 81.1633 292.372 77.9197C293.211 74.654 293.763 66.3575 293.145 61.5252C292.483 56.6929 293.542 52.0371 292.086 49.323C290.585 46.5869 290.585 45.6602 290.585 45.6602C290.585 45.6602 292.262 44.3804 293.873 47.6681C295.44 50.9338 295.77 52.0591 295.77 52.0591C295.77 52.0591 298.838 45.8808 295.991 40.3866C293.145 34.9365 281.737 28.4272 278.162 26.331C274.588 24.2348 265.298 18.7626 256.428 18.7626C247.602 18.7626 232.84 21.278 227.787 26.7502C222.712 32.2004 211.966 50.9118 210.731 55.5234C209.451 60.1351 209.451 64.7467 208.789 67.9241C208.171 71.0795 207.774 75.4925 207.774 75.4925C207.774 75.4925 213.246 78.8685 214.526 80.7661C215.762 82.6637 221.278 85.1571 224.213 87.0547C227.169 88.9523 230.523 89.7908 234.098 90.6073C237.717 91.4899 240.85 85.8853 244.954 83.7008C249.08 81.4943 250.537 81.4501 251.177 80.2145C251.794 78.9788 255.259 77.2798 257.2 76.8606C259.098 76.4193 262.121 76.0221 262.562 76.7502C263.004 77.4784 264.57 77.1474 262.893 78.4272C261.172 79.707 258.348 82.6417 258.149 83.5905C257.928 84.5393 257.818 86.9444 258.988 88.6434C260.113 90.3204 262.893 93.0344 262.893 93.0344C262.893 93.0344 260.047 95.5499 257.928 91.4678C255.81 87.3636 255.192 84.3186 254.751 83.3698C254.31 82.421 250.846 80.5455 249.786 80.3248C248.727 80.1042 248.838 78.5375 245.771 80.9426C242.703 83.3698 240.409 85.5984 238.18 86.7679C235.951 87.8932 235.775 88.6655 232.995 88.1139C230.259 87.6064 221.013 84.1201 218.167 81.9356C215.32 79.7291 210.576 75.0953 210.576 75.0953C210.576 75.0953 201.838 80.3248 195.925 83.7008C190.011 87.0327 188.952 82.8623 181.163 85.9956C173.352 89.1509 165.122 98.8155 153.758 105.104C142.395 111.437 124.279 124.875 119.601 129.486C114.967 134.098 119.601 134.539 121.94 136.216C124.279 137.915 160.289 162.099 162.628 162.717C164.967 163.335 168.763 162.099 163.07 158.502C157.355 154.95 127.633 134.12 124.897 133.723C122.161 133.282 117.306 133.282 114.151 135.841C110.974 138.357 76.6399 194.888 74.1024 201.618C71.5869 208.348 65.8941 225.669 65.8941 226.905C65.8941 228.184 68.6302 227.302 72.9329 231.34C77.2798 235.378 94.2259 237.011 94.2259 237.011L99.0803 237.231C99.0803 237.231 112.783 215.166 116.402 210.532C119.976 205.921 121.653 200.691 124.169 199.853C126.728 198.97 131.141 196.697 134.076 196.697C137.033 196.697 150.515 198.816 156.207 200.868C161.922 202.986 173.087 206.98 173.087 206.98C173.087 206.98 174.764 208.877 170.572 208.26C166.335 207.598 150.515 202.986 145.285 201.75C139.989 200.47 125.051 198.595 126.728 195.02C128.405 191.424 134.936 183.237 134.936 183.237C134.936 183.237 152.434 164.305 154.552 164.305C156.671 164.305 165.74 167.902 167.196 168.52C168.696 169.138 163.621 153.582 167.417 147.293C171.212 140.96 190.806 120.395 193.321 118.696C195.837 117.019 203.449 112.628 208.701 112.408C213.996 112.187 228.537 114.085 228.537 114.085C228.537 114.085 213.158 112.187 205.126 115.365C197.116 118.52 173.926 139.923 172.646 143.299C171.41 146.675 170.572 159.694 173.485 169.8C176.441 179.861 197.536 191.424 199.831 193.299C202.169 195.197 204.288 196.896 203.626 194.579C203.008 192.262 198.992 187.43 193.74 183.458C188.445 179.464 178.493 171.256 176.861 172.293C175.228 173.352 175.47 167.703 175.228 173.352C174.963 179.023 176.132 216.115 176.75 222.845C177.368 229.575 179.266 234.517 180.214 238.07C181.163 241.622 180.987 241.335 181.715 241.225C182.443 241.115 198.661 240.673 202.059 242.395C205.413 244.072 209.319 242.284 212.077 248.176C214.813 254.023 232.09 292.505 233.37 294.402C234.605 296.3 242.836 320.241 244.733 321.3C246.631 322.359 262.408 318.785 267.924 317.748C273.396 316.688 284.583 313.533 284.583 313.533C284.583 313.533 285.422 309.76 275.956 312.474C266.446 315.188 248.948 321.278 248.948 321.278C248.948 321.278 245.704 322.161 249.389 325.824C253.074 329.486 255.303 331.936 255.523 332.553C255.7 333.215 255.523 336.327 258.767 336.437C262.055 336.547 271.41 334.65 274.146 333.105C276.927 331.516 283.105 326.375 283.215 325.228C283.326 324.058 283.833 320.616 281.538 322.403C279.199 324.191 263.599 334.076 262.761 338.07C261.922 342.064 261.922 346.035 261.922 346.035L361.393 345.859C361.393 345.859 361.503 323.043 360.885 320.418C360.267 317.792 358.767 316.027 355.082 313.577C351.397 311.172 347.183 309.473 342.108 308.966C337.077 308.414 324.213 306.428 321.477 306.958C318.696 307.465 315.387 308.767 314.614 309.208C313.82 309.65 311.812 310.289 311.812 310.289C311.812 310.289 313.489 310.841 314.901 310.135C316.313 309.451 317.703 309.981 316.534 306.097C315.365 302.214 313.07 297.999 309.782 293.895C306.494 289.835 297.69 283.944 292.615 279.288C287.54 274.676 280.943 269.557 275.603 265.85C270.219 262.187 252.412 241.004 249.433 239.438C246.455 237.871 241.71 239.041 240.718 236.856C239.703 234.716 243.895 230.965 241.953 221.741C240.056 212.518 235.643 213.864 237.209 208.921C238.82 203.979 238.379 196.41 238.379 188.864C238.379 181.296 238.048 176.993 237.65 175.934C237.209 174.919 237.077 174.588 237.077 174.588C237.077 174.588 236.966 179.641 237.408 181.097C237.805 182.575 237.452 184.517 238.71 184.848C239.945 185.135 250.404 184.848 251.64 185.907C252.92 186.966 252.92 187.253 253.14 189.967C253.361 192.726 253.758 197.028 253.758 197.734C253.758 198.507 252.191 199.124 252.191 199.124C252.191 199.124 247.955 197.006 247.447 196.388C246.896 195.726 246.146 193.079 246.168 192.527C246.234 192.019 246.719 191.291 246.852 192.019C247.006 192.748 247.072 193.763 247.116 194.16C247.183 194.601 246.322 201.022 246.653 201.971C246.984 202.942 248.33 203.78 249.213 204.089C250.051 204.42 258.259 204.31 258.259 204.31L259.054 202.412C259.054 202.412 259.164 200.779 259.274 200.206C259.385 199.632 261.327 198.507 261.79 198.683C262.253 198.904 263.467 198.529 263.93 200.029C264.394 201.485 265.232 210.422 264.614 211.989C263.996 213.577 259.297 218.012 259.297 218.012C259.297 218.012 258.458 217.968 258.237 216.821C258.017 215.651 257.664 210.996 257.73 210.312C257.774 209.628 258.127 208.524 258.414 209.738C258.679 210.929 259.076 214.614 259.142 216.026C259.186 217.483 258.921 218.961 258.348 219.402C257.774 219.844 253.582 221.079 253.14 221.079C252.699 221.079 251.728 220.307 251.728 219.402C251.728 218.498 251.507 212.893 251.507 211.768C251.507 210.687 251.838 208.679 252.059 209.054C252.236 209.407 252.567 210.444 252.567 211.591C252.567 212.717 254.288 219.513 252.633 220.903C251 222.249 249.102 222.801 247.823 222.801C246.543 222.801 244.027 221.741 244.027 221.741C244.027 221.741 242.35 214.901 240.85 213.423C239.394 211.966 238.952 207.973 239.173 207.024C239.394 206.075 239.791 187.364 240.011 186.746C240.232 186.084 247.227 186.018 247.734 186.172C248.286 186.327 251.088 186.525 251.552 187.695C252.015 188.864 252.059 191.909 252.214 192.417C252.39 192.924 252.611 193.189 253.427 193.321C254.199 193.498 270.417 190.784 272.536 191.622C274.654 192.461 275.161 192.395 275.426 193.365C275.713 194.336 276.552 194.778 275.603 195.771C274.654 196.786 266.313 200.095 266.026 200.139C265.696 200.206 265.078 199.411 265.695 199.058C266.313 198.705 275.382 194.005 277.28 194.579C279.177 195.153 281.913 195.815 282.355 197.227C282.752 198.639 280.501 201.838 279.177 202.721C277.876 203.626 266.865 208.789 266.865 208.789L265.695 209.628C265.695 209.628 270.903 211.878 269.954 213.666C269.005 215.453 267.108 217.042 266.159 217.439C265.21 217.88 264.592 220.484 265.938 220.594C267.328 220.704 269.844 219.314 271.631 220.594C273.418 221.874 279.751 228.471 276.177 229.928C272.558 231.428 263.092 233.701 263.092 233.701C263.092 233.701 264.989 238.357 267.946 238.136C270.903 237.915 278.692 237.297 279.972 239.195C281.207 241.093 281.869 243.365 283.546 243.365C285.223 243.365 301.485 232.862 301.485 232.862L351.861 258.304C351.861 258.304 355.214 259.76 355.832 260.201C356.494 260.598 358.061 263.754 358.061 263.754C358.061 263.754 362.584 260.51 365.232 259.583C367.858 258.635 370.815 258.083 372.205 258.304C373.551 258.524 374.455 258.767 374.875 259.473C375.316 260.135 376.287 260.819 375.823 261.658C375.36 262.518 374.367 263.357 373.462 263.952C372.58 264.504 364.791 267.615 364.791 267.615C364.791 267.615 364.35 266.6 365.166 266.313C365.96 265.982 375.338 261.415 376.397 261.724C377.456 262.055 379.641 262.518 380.435 263.732C381.229 264.923 383.348 268.321 381.009 269.976C378.67 271.653 374.875 273.021 374.875 273.021C374.875 273.021 372.249 273.198 373.418 272.249C374.588 271.3 383.326 268.079 384.672 269.513C386.062 271.013 387.342 271.719 386.172 273.176C385.003 274.676 380.259 275.934 376.883 276.11C373.529 276.331 361.613 276.331 361.613 276.331C361.613 276.331 359.495 274.985 360.444 272.558C361.393 270.153 363.18 268.785 363.842 269.116C364.46 269.403 368.145 267.527 366.688 269.005C365.188 270.462 361.922 269.733 361.194 271.146C360.466 272.558 357.002 273.109 355.832 273.176C354.663 273.286 353.096 272.999 352.876 271.212C352.655 269.402 352.478 266.997 353.714 266.446C354.994 265.938 358.259 264.989 358.259 264.989C358.259 264.989 357.465 267.196 355.082 267.924C352.721 268.652 350.007 269.711 349.279 270.859C348.551 272.028 344.424 274.742 344.424 274.742L338.202 279.023L261.922 243.123L268.056 239.129L339.614 272.403L341.247 273.065L353.67 261.613L342.924 273.463L345.771 276.508L339.239 280.281C339.239 280.281 338.688 281.34 340.916 282.708C343.145 284.054 346.278 285.444 348.176 285.113C350.073 284.782 359.583 280.391 359.583 280.391C359.583 280.391 361.724 280.545 362.319 281.34C362.893 282.134 363.776 282.62 363.379 283.458C362.937 284.297 360.356 285.598 359.981 285.709C359.628 285.819 358.348 286.04 359.098 285.245C359.826 284.451 361.349 283.944 361.658 283.723C361.989 283.502 367.88 281.693 368.41 281.516C368.961 281.362 372.602 280.788 373.551 281.163C374.5 281.516 375.272 281.627 375.007 282.686C374.742 283.745 371.079 285.841 371.079 285.841C371.079 285.841 369.91 284.936 370.815 284.429C371.697 283.877 376.177 282.311 376.684 282.399C377.236 282.443 379.817 282.443 380.038 283.524C380.214 284.65 380.214 285.709 379.376 286.547C378.537 287.386 376.485 287.628 374.61 288.246C372.712 288.908 359.848 290.166 358.789 290.254C357.73 290.365 341.402 291.424 338.776 291.534C336.106 291.644 320.506 292.924 318.211 292.703C315.872 292.483 316.093 292.483 316.093 292.483V294.38L309.826 293.939L298.595 285.245C298.595 285.245 303.78 279.575 305.126 278.604C306.516 277.655 311.459 274.654 312.408 274.654C313.357 274.654 314.923 273.595 314.085 275.493C313.246 277.39 308.613 283.679 306.494 285.157C304.376 286.613 301.971 288.202 303.648 285.444C305.325 282.708 311.304 278.251 312.65 277.853C313.952 277.5 318.917 276.11 319.138 275.382C319.358 274.654 319.248 271.896 319.645 271.741C320.087 271.587 320.77 271.234 322.381 272.094C324.014 272.999 327.677 274.919 327.633 275.581C327.567 276.199 326.11 278.67 325.448 279.023C324.831 279.376 321.984 278.869 323.087 278.582C324.213 278.317 331.428 278.692 331.428 278.692C331.428 278.692 335.334 280.59 336.569 281.516C337.849 282.465 345.417 281.847 349.213 280.17C353.008 278.493 393.056 275.956 398.97 275.956C404.883 275.956 427.831 279.442 429.001 279.839C430.17 280.281 442.703 290.232 442.703 290.232L374.588 288.224L317.284 293.718L317.439 294.844L311.349 294.689L314.658 299.058L451.132 300.294L451.243 297.47L442.924 291.512L374.831 290.74L323.793 296.013L445.197 297.911H449.941L448.815 302.743L430.148 306.296L323.904 304.001C323.904 304.001 331.296 308.392 337.606 311.128C343.939 313.864 350.184 313.246 355.545 316.799C360.863 320.395 359.341 349.367 359.341 349.367H375.779C375.779 349.367 374.279 324.588 375.559 320.815C376.838 317.042 380.082 315.475 381.869 314.526C383.701 313.577 397.58 308.524 401.265 308.414C404.994 308.304 406.649 308.304 406.649 308.304L409.826 323.463C409.826 323.463 406.538 327.236 405.369 329.023C404.199 330.81 401.684 340.475 398.948 343.63C396.212 346.763 395.329 349.367 395.329 349.367H377.942V346.852L411.481 347.183C411.481 347.183 411.481 335.003 410.643 329.222C409.804 323.44 410.929 316.512 409.981 314.614C409.032 312.717 407.973 307.664 407.973 307.664L428.317 308.171C428.317 308.171 426.419 326.044 425.801 331.494C425.184 336.989 423.904 347.668 423.904 347.668L473.661 349.345C473.661 349.345 479.751 316.777 480.413 310.709C481.031 304.597 483.546 287.606 483.149 284.01C482.708 280.457 481.472 269.513 479.751 267.218C478.074 264.901 475.559 259.23 475.338 255.656C475.117 252.059 472.161 245.991 472.161 245.991C472.161 245.991 466.049 241.159 461.415 239.46C456.781 237.783 449.213 236.944 449.213 236.944C449.213 236.944 449.433 238.423 450.89 240.938C452.39 243.454 470.903 261.724 470.903 261.724C470.903 261.724 474.72 258.789 468.608 254.994C462.474 251.221 455.965 242.196 453.449 241.556C450.89 240.938 447.734 236.106 442.041 236.547C436.349 236.944 421.808 242.218 420.131 248.286C418.454 254.398 420.528 267.218 420.748 268.895C420.969 270.572 422.646 276.044 422.646 276.044L426.265 274.147L419.623 258.591C419.623 258.591 419.072 249.764 417.792 248.926C416.556 248.087 414.945 249.764 411.768 247.977C408.635 246.19 406.737 244.38 405.016 241.975C403.339 239.548 400.823 235.643 400.603 234.297C400.382 232.906 402.169 225.801 403.67 223.462C405.126 221.146 409.583 218.52 411.371 218.189C413.158 217.902 416.335 216.953 411.989 220.506C407.686 224.058 404.597 229.839 402.721 230.899C400.868 231.98 399.654 232.289 399.102 229.773C398.595 227.236 397.536 225.007 398.374 223.021C399.213 221.057 399.985 212.342 400.603 203.515C401.221 194.689 402.5 183.966 402.5 183.966C402.5 183.966 400.713 184.297 403.891 185.135C407.024 185.974 421.896 188.489 422.624 189.129C423.352 189.747 418.101 192.792 415.982 192.152C413.864 191.534 404.861 190.563 403.449 187.43C402.037 184.341 401.331 179.155 401.441 178.207C401.552 177.258 405.126 162.761 404.508 153.493C403.846 144.27 404.288 141.093 409.142 137.761C413.996 134.385 419.447 134.164 424.963 132.09C430.435 129.972 437.386 127.037 437.386 127.037C437.386 127.037 439.68 127.434 442.637 125.757C445.594 124.08 447.712 122.823 447.712 122.823C447.712 122.823 437.805 136.481 429.597 145.087C421.366 153.692 420.329 155.192 420.329 155.192L443.079 151.596C443.079 151.596 446.763 148.242 446.543 149.588C446.366 150.978 445.594 154.861 445.594 154.861L456.891 159.186C456.891 159.186 461.084 194.138 462.915 200.868C464.703 207.598 462.364 208.524 466.159 213.577C469.954 218.63 471.543 219.358 471.543 219.358C471.543 219.358 464.68 218.012 461.525 219.358C458.348 220.748 452.037 222.072 451.221 221.565C450.382 221.057 451 219.248 451.618 218.829C452.28 218.387 455.744 214.945 455.854 215.453C455.965 216.004 455.59 217.086 454.795 217.659C454.001 218.233 449.588 221.433 448.154 222.712C446.741 223.992 441.556 228.538 440.828 227.478C440.1 226.419 440.276 224.963 441.666 222.58C443.056 220.153 445.131 215.828 445.572 216.468C446.013 217.086 443.454 219.292 443.454 219.292C443.454 219.292 439.151 229.288 436.591 230.744C434.076 232.244 432.399 231.803 433.348 229.464C434.297 227.17 438.092 218.343 438.379 219.513C438.71 220.638 438.092 221.697 437.143 223.793C436.194 225.912 433.127 230.413 431.759 230.126C430.413 229.795 429.464 229.177 430.303 226.75C431.141 224.345 433.877 220.351 434.826 219.513C435.775 218.674 436.834 215.629 436.834 215.629C436.834 215.629 431.472 198.286 425.581 187.364C419.667 176.419 411.658 146.808 411.658 145.329C411.658 143.873 413.334 141.997 413.776 144.932C414.173 147.867 434.451 200.139 434.848 205.435C435.245 210.775 432.333 214.703 432.333 214.703C432.333 214.703 432.222 215.497 434.23 216.38C436.238 217.24 435.069 214.261 438.643 212.827C442.218 211.327 446.874 211.128 449.831 211.128C452.787 211.128 460.576 209.672 461.194 211.349C461.812 213.026 464.372 215.784 464.372 215.784L471.741 221.852C471.741 221.852 476.375 220.506 478.913 217.571C481.428 214.636 481.097 211.569 483.657 213.467C486.172 215.365 490.188 221.344 491.026 222.293C491.865 223.242 493.983 225.647 493.983 225.647C493.983 225.647 501.883 223.352 503.56 223.352C505.237 223.352 508.414 224.809 508.017 225.757C507.575 226.706 508.855 227.545 508.414 229.023C508.017 230.479 506.296 231.538 505.236 231.847C504.221 232.178 501.044 232.355 501.044 230.678C501.044 229.001 501.662 226.574 503.162 226.684C504.619 226.794 506.958 226.905 507.134 227.523C507.355 228.184 505.678 229.95 505.678 229.95C505.678 229.95 504.288 231.406 501.154 231.958C497.977 232.465 492.505 233.237 491.578 233.414C490.629 233.635 490.188 232.465 488.688 230.788C487.231 229.111 484.164 225.559 484.385 224.676C484.605 223.838 486.393 224.058 487.342 225.625C488.29 227.214 491.247 230.06 490.629 231.23C489.967 232.355 490.078 234.473 489.129 235.51C488.18 236.569 485.841 237.518 485.003 237.628C484.164 237.739 482.884 236.9 479.641 237.849C476.353 238.798 471.3 239.857 469.513 239.747C467.725 239.636 462.253 238.07 460.665 234.804C459.098 231.538 457.928 226.927 461.106 224.698C464.283 222.514 466.291 221.256 466.291 221.962C466.291 222.69 463.114 225.338 461.944 226.684C460.775 228.074 458.767 230.17 459.716 232.465C460.665 234.782 465.32 240.673 469.116 241.291C472.911 241.953 489.349 238.997 489.349 238.997C489.349 238.997 489.129 240.453 490.034 241.468C490.916 242.439 502.5 241.821 503.405 241.402C504.288 241.004 506.031 240.1 503.736 240.232C501.397 240.409 490.938 241.071 490.872 241.402C490.806 241.755 490.387 244.557 490.872 246.19C491.335 247.823 490.541 248.771 492.593 248.816C494.667 248.86 500.029 248.087 501.309 247.845C502.589 247.558 506.163 247.05 504.883 246.83C503.648 246.609 500.581 246.83 499.058 247.094C497.536 247.381 493.034 247.05 493.034 247.933C493.079 248.838 492.659 250.691 493.41 252.765C494.138 254.884 494.689 256.869 497.536 256.869C500.382 256.869 503.846 256.252 504.597 255.523C505.325 254.751 509.451 252.258 507.002 252.699C504.597 253.096 501.53 254.773 501.53 254.773C501.53 254.773 499.853 257.2 500.801 258.039C501.75 258.877 509.23 260.554 515.74 259.319C522.271 258.039 526.706 255.656 526.154 254.376C525.647 253.096 523.198 251.11 523.198 251.11C523.198 251.11 521.013 249.875 519.733 249.654C518.454 249.433 517.218 249.654 517.218 249.654L521.521 250.272C521.521 250.272 524.146 248.374 523.97 246.83C523.749 245.241 523.308 241.556 522.249 240.607C521.19 239.658 513.82 235.157 513.202 235.047C512.54 234.936 507.995 225.779 507.995 225.779C507.995 225.779 499.897 224.831 498.551 225.493C497.161 226.11 495.925 226.441 495.925 226.441C495.925 226.441 477.147 207.84 475.868 205.943C474.588 204.045 475.25 201.728 475.25 201.728L530.038 180.943C530.038 180.943 532.046 179.266 535.951 182.84C539.857 186.393 565.034 213.114 565.034 213.114C565.034 213.114 547.425 212.562 545.131 212.673C542.792 212.783 539.327 214.239 539.327 214.239C539.327 214.239 538.665 215.629 539.725 216.777C540.784 217.946 541.953 219.182 544.689 219.601C547.425 219.998 566.821 220.881 567.571 220.881C568.299 220.881 567.13 219.601 565.011 219.822C562.893 219.998 546.896 218.233 545.704 218.41C544.469 218.564 536.635 217.748 535.532 218.564C534.407 219.358 533.304 221.19 533.524 222.227C533.701 223.286 535.312 224.544 537.099 224.853M537.099 224.853C538.886 225.184 568.078 228.56 568.078 228.56C568.078 228.56 569.579 227.5 567.35 227.28C565.122 227.059 537.099 224.853 537.099 224.853ZM537.099 224.853C537.099 224.853 534.87 227.059 535.091 228.56C535.312 230.016 536.26 231.384 537.319 232.333C538.379 233.282 566.071 234.341 567.571 234.517C569.027 234.738 565.122 231.891 562.717 232.002C560.267 232.112 553.758 234.12 557.112 236.216C560.51 238.335 571.874 240.21 571.874 240.21C571.874 240.21 579.883 244.182 589.592 243.145C599.279 242.086 599.897 241.666 603.471 242.703C607.09 243.763 616.556 243.983 616.556 243.983C616.556 243.983 595.153 260.157 590.1 261.613C585.069 263.092 575.559 261.834 569.866 261.437C564.173 260.996 550.912 262.055 547.514 262.496C544.16 262.893 528.56 258.282 528.56 258.282C528.56 258.282 526.441 255.347 530.016 254.067C533.635 252.831 565.673 242.726 565.673 242.726L574.941 238.732C574.941 238.732 575.382 240.74 582.951 241.269C590.541 241.777 591.799 240.387 597.668 240.387C603.582 240.387 613.93 240.828 615.387 241.777C616.887 242.726 620.572 244.513 620.572 244.513C620.572 244.513 621.741 253.449 621.741 257.222C621.741 260.996 619.182 263.114 624.875 262.275C630.59 261.437 652.059 258.061 654.839 257.84C657.575 257.664 660.532 257.222 660.532 257.222C660.532 257.222 657.024 267.505 654.398 270.55C651.772 273.595 655.126 272.028 647.536 273.485C639.945 274.963 631.097 278.03 627.92 276.75C624.786 275.47 613.158 271.808 609.186 270.969C605.17 270.131 587.673 266.357 585.135 266.357C582.62 266.357 552.081 266.975 552.081 266.975C552.081 266.975 546.366 266.755 551.419 272.425C556.494 278.096 564.063 285.863 564.504 287.761C564.901 289.658 565.342 312.805 567.019 322.47C568.696 332.134 567.019 349.367 567.019 349.367H496.631C496.631 349.367 501.044 301.883 503.56 292.814C506.119 283.811 508.215 272.425 510.532 269.491C512.871 266.556 516.026 265.1 516.026 265.1C516.026 265.1 529.288 269.094 537.496 274.985C545.726 280.876 557.333 288.643 557.333 288.643C557.333 288.643 553.935 290.1 545.748 286.106C537.518 282.112 525.735 272.668 524.455 270.771C523.176 268.873 527.633 263.202 529.928 265.1C532.267 266.997 547.028 274.544 549.323 277.081C551.662 279.597 556.185 291.247 564.769 291.181C573.33 291.137 590.431 283.591 600.956 281.252C611.481 278.957 615.938 277.258 619.91 277.478C623.926 277.699 644.16 279.597 649.213 277.699C654.288 275.801 641.622 292.196 638.246 297.646C634.892 303.14 627.302 317.417 618.454 322.47C609.605 327.478 588.092 332.311 583.237 335.488C578.383 338.643 574.588 346.83 574.389 342.218C574.213 337.606 577.169 321.433 577.787 318.057C578.405 314.725 580.126 308.833 580.126 317.659C580.126 326.463 581.141 336.989 578.405 342.218C575.669 347.492 572.315 349.367 572.315 349.367H706.229C706.229 349.367 728.162 344.425 733.524 338.202C738.908 332.024 733.966 332.311 741.424 329.2C748.904 326.044 751.11 325.316 751.11 325.316C751.11 325.316 744.336 324.367 739.261 320.307C734.186 316.269 728.03 309.65 724.455 301.883C720.837 294.116 718.741 271.212 718.542 263.445C718.321 255.678 721.499 252.28 721.499 252.28C721.499 252.28 741.953 263.842 746.763 270.991C751.618 278.14 758.789 284.429 757.333 286.106C755.832 287.805 750.36 285.488 750.36 285.488L744.667 284.208L744.336 274.147C744.336 274.147 746.477 278.14 745.506 278.648C744.491 279.199 744.844 284.098 746.124 287.253C747.403 290.409 755.192 308.59 755.192 308.59C755.192 308.59 748.661 312.805 746.124 314.261C743.608 315.74 741.49 318.696 741.49 318.696C741.49 318.696 736.856 275.382 735.576 272.47C734.297 269.535 727.567 261.525 725.272 258.149C722.933 254.795 726.331 252.699 721.477 252.258C716.622 251.861 653.604 256.075 647.712 256.472C641.799 256.914 637.805 256.693 637.364 254.354C636.966 252.059 639.085 249.522 639.085 249.522C639.085 249.522 717.88 244.292 724.235 240.916C730.545 237.562 743.409 231.031 753.493 219.292C763.621 207.509 769.094 196.146 770.153 198.683C771.212 201.199 764.063 257.73 762.783 263.621C761.503 269.513 760.929 280.7 758.767 282.112C756.627 283.502 755.192 285.245 753.692 283.127C752.236 281.053 736.26 261.613 734.848 260.665C733.436 259.694 721.543 253.185 718.807 253.626C716.071 254.067 637.121 263.18 632.598 263.401C628.074 263.621 624.499 265.607 624.169 263.07C623.838 260.554 619.711 224.014 619.711 224.014C619.711 224.014 607.289 222.514 601.375 220.418C595.462 218.343 592.725 214.967 587.055 212.452C581.362 209.914 561.768 204.685 561.768 204.685C561.768 204.685 560.753 204.288 559.65 205.303C558.546 206.318 563.334 209.23 563.776 210.753C564.217 212.32 568.012 217.174 573.065 218.233C578.096 219.292 613.93 225.073 624.279 223.573C634.583 222.117 659.892 225.25 667.681 222.734C675.492 220.219 675.691 217.284 677.787 218.741C679.906 220.241 698.131 225.581 700.559 229.067C702.964 232.509 704.861 235.025 704.133 235.025C703.405 235.025 700.117 231.362 697.492 229.685C694.866 228.008 677.037 224.279 675.581 222.028C674.08 219.778 677.986 197.867 674.808 190.078C671.675 182.311 667.439 145.969 667.659 140.254C667.88 134.583 669.778 133.745 670.175 136.481C670.616 139.217 669.601 169.226 672.425 180.413C675.316 191.578 675.448 220.748 673.109 222.867C670.815 224.985 670.594 228.317 660.466 228.979C650.36 229.597 624.963 232.642 622.337 228.317C619.667 224.036 621.278 220.969 619.998 220.969C618.718 220.969 593.343 217.99 591.931 215.166C590.475 212.364 597.646 198.705 600.382 194.932C603.118 191.159 599.764 189.658 603.78 185.267C607.796 180.832 610.532 179.376 610.532 179.376C610.532 179.376 607.575 167.814 611.371 157.73C615.166 147.668 615.166 140.1 624.632 132.509C634.12 124.941 635.598 118.873 636.658 114.879C637.717 110.885 631.803 100.779 631.803 100.779L642.328 122.845C642.328 122.845 631.98 138.224 629.464 147.006C626.949 155.832 616.313 176 614.923 184.716C613.533 193.432 613.026 195.263 614.703 199.985C616.379 204.707 619.248 207.443 622.293 210.378C625.36 213.312 630.943 218.034 631.252 218.652C631.583 219.314 631.869 217.306 631.362 215.298C630.854 213.29 627.787 208.966 625.139 206.141C622.514 203.317 620.109 197.756 619.822 193.277C619.557 188.798 632.686 156.362 632.686 156.362L653.361 108.877L658.436 98.7714C658.436 98.7714 647.028 93.5419 644.91 88.0477C642.836 82.5975 640.276 69.9982 640.056 65.9824C639.879 61.9885 638.158 57.5975 636.702 54.2436C635.201 50.8676 633.127 47.9109 633.127 47.9109C633.127 47.9109 630.347 54.8614 630.347 57.5755C630.347 60.3116 632.068 66.6222 632.906 67.8579C633.745 69.1377 635.642 69.9541 635.201 66.6223C634.804 63.2463 633.966 58.6346 633.127 56.9577C632.244 55.2586 630.567 48.5287 628.67 51.9047C626.772 55.2586 624.654 59.6717 624.654 59.6717C624.654 59.6717 621.521 58.3919 620.638 56.2957C619.8 54.2216 617.174 50.6249 616.225 47.293C615.276 43.917 615.784 40.4528 611.79 40.6734C607.818 40.85 604.089 39.2833 603.14 37.0768C602.192 34.8923 597.999 36.3486 597.558 31.737C597.161 27.1253 595.881 33.414 594.38 40.1218C592.924 46.8517 591.865 52.8314 594.314 57.0459C596.719 61.2162 598.286 65.85 596.94 69.226C595.55 72.5578 593.52 77.4784 593.542 79.5084C593.608 81.5825 594.005 82.3107 595.44 82.5534C596.852 82.8182 598.838 82.3328 598.838 82.3328C598.838 82.3328 599.632 85.7529 599.632 86.4369C599.632 87.1209 599.301 89.3495 600.47 89.5922C601.596 89.857 604.155 89.9894 604.729 89.857C605.303 89.7026 607.134 88.7758 605.192 88.5111C603.229 88.2242 601.397 88.4007 601.397 88.4007C601.397 88.4007 600.713 90.8721 602.236 94.5349C603.758 98.1977 605.59 104.817 607.818 106.318C610.047 107.774 611.613 108.392 616.777 106.318C621.918 104.199 629.199 99.8967 629.199 99.8967C629.199 99.8967 631.759 99.0583 631.759 100.735C631.715 102.434 632.995 113.665 630.038 125.007C627.081 136.371 618.873 142.24 615.938 154.442C612.981 166.622 615.276 167.042 613.158 176.066C611.084 185.113 608.237 183.436 605.788 185.775C603.383 188.07 601.375 197.006 600.823 198.463C600.316 199.963 591.026 216.335 591.026 216.335C591.026 216.335 564.592 208.988 563.643 207.002C562.65 204.994 560.863 175.47 558.348 165.806C555.832 156.141 541.071 120.638 541.071 120.638C541.071 120.638 538.004 120.197 535.047 121.918C532.09 123.595 519.557 126.927 515.1 126.927C510.687 126.927 498.661 123.904 498.661 123.904C498.661 123.904 510.466 129.354 514.261 134.804C518.056 140.298 526.905 149.742 529.023 156.45C531.141 163.18 529.244 179.244 529.244 179.244C529.244 179.244 532.311 177.787 532.311 175.912C532.311 174.036 531.98 166.534 531.649 163.82C531.362 161.084 530.479 156.583 528.295 155.325C526.066 154.045 523.838 152.39 520.793 152.589C517.77 152.809 509.65 157.311 509.539 159.539C509.429 161.724 499.632 190.828 499.632 190.828L484.363 197.05C484.363 197.05 484.032 176.044 485.753 171.102C487.43 166.159 486.856 157.465 488.114 153.515C489.349 149.522 488.511 149.632 490.96 148.021C493.365 146.455 494.204 143.851 495.153 144.976C496.101 146.146 494.866 146.035 503.273 147.801C511.702 149.61 521.83 151.905 520.881 150.228C519.932 148.551 499.477 141.181 496.543 136.062C493.586 130.899 490.298 122.69 490.298 122.69C490.298 122.69 486.503 122.911 486.282 125.338C486.106 127.743 488.003 137.518 485.444 144.005C482.928 150.537 482.487 152.214 482.09 156.605C481.649 161.04 472.514 182.046 472.514 186.26C472.514 190.431 472.778 196.433 472.889 198.33C472.999 200.228 473.396 201.375 473.948 199.61C474.455 197.823 474.455 194.623 474.345 194.204C474.235 193.763 470.881 183.37 468.873 179.486C466.865 175.603 463.29 162.871 460.025 152.92C456.737 142.924 457.509 131.693 454.332 126.331C451.154 120.991 450.647 119.932 449.036 117.946C447.47 115.938 442.946 102.169 442.946 102.169C442.946 102.169 432.597 118.983 431.869 120.263C431.141 121.499 428.295 125.603 429.972 125.603C431.649 125.603 444.513 121.102 448.749 122.558C452.942 124.014 459.804 124.147 463.798 123.948C467.814 123.727 480.457 118.277 484.694 114.063C488.886 109.848 490.563 105.568 490.563 105.568C490.563 105.568 488.048 115.96 487.43 117.637C486.768 119.336 484.76 122.293 484.76 122.293C484.76 122.293 492.549 113.467 492.88 109.142C493.211 104.861 494.049 97.4696 495.329 94.9762C496.565 92.4387 498.904 89.9232 499.742 92.0415C500.581 94.1377 498.683 100.029 498.683 100.029C498.683 100.029 495.594 105.413 493.652 101.993C491.71 98.5507 491.313 96.4325 491.534 94.5349C491.71 92.6373 498.065 94.3142 492.152 83.6346C486.238 72.9109 479.729 66.3795 475.713 63.6434C471.697 60.9073 460.334 59.8703 459.672 56.406C459.054 52.9197 461.393 44.8438 462.011 43.4757C462.628 42.0856 464.526 38.1359 463.908 42.3063C463.29 46.5208 461.062 57.5313 458.723 58.5905C456.428 59.6496 449.875 57.3548 448.198 61.128C446.521 64.9012 442.174 86.8561 441.225 94.226C440.276 101.574 441.777 108.789 442.615 111.658C443.454 114.482 450.934 124.147 451.993 126.154C453.052 128.162 444.513 128.449 438.401 130.876C432.311 133.282 419.005 137.275 414.151 140.1C409.297 142.924 406.781 143.255 406.56 145.594C406.34 147.889 403.604 205.038 402.434 210.312C401.265 215.541 401.044 228.339 404.442 236.878C407.84 245.417 423.44 249.478 423.44 249.478C423.44 249.478 422.381 258.855 420.881 258.922C419.38 259.032 396.432 259.252 396.432 259.252C396.432 259.252 391.578 260.312 391.799 261.878C392.019 263.467 394.358 264.085 395.484 266.093C396.653 268.101 397.933 272.933 397.602 274.191C397.271 275.426 387.915 275.537 388.224 274.588C388.555 273.639 391.291 269.866 391.402 266.6C391.468 263.357 393.079 242.99 390.74 237.099C388.445 231.207 388.114 228.383 389.283 225.007C390.453 221.675 388.621 209.672 388.445 208.833C388.224 207.995 382.222 200.448 384.429 194.226C386.613 188.048 387.055 186.26 386.613 182.156C386.216 178.052 385.775 169.447 383.877 155.369C381.98 141.269 379.354 131.274 377.103 129.199C374.853 127.081 354.067 117.527 349.72 114.305C345.417 111.106 343.41 109.936 343.41 109.936C343.41 109.936 339.835 116.843 338.776 118.52C337.717 120.197 336.437 208.017 337.717 217.064C338.952 226.11 342.461 235.113 338.886 239.548C335.267 243.939 332.024 245.726 331.384 246.057C330.766 246.388 324.963 244.049 324.235 243.542C323.462 242.99 323.573 229.442 323.573 229.442C323.573 229.442 318.829 172.602 321.388 163.158C323.904 153.714 327.699 145.925 327.699 145.925L331.494 141.6L335.289 146.984C335.289 146.984 336.018 143.829 334.892 142.77C333.723 141.711 324.764 136.15 324.764 136.15C324.764 136.15 316.026 138.467 311.503 140.144C306.958 141.821 300.647 142.77 300.647 142.77C300.647 142.77 300.316 132.267 300.757 123.44C301.154 114.614 295.572 107.487 295.903 103.493C296.19 99.4996 299.367 92.0415 299.367 92.0415C299.367 92.0415 298.087 83.9435 301.706 79.9497C305.281 75.9559 306.737 73.5508 309.804 71.6752C312.871 69.7776 316.777 67.4607 317.814 68.4095C318.873 69.3583 325.823 72.293 329.906 73.0212C334.032 73.7935 342.262 68.9612 343.829 69.248C345.395 69.579 348.573 72.293 349.522 74.632C350.47 76.9268 351.64 83.5243 351.64 84.6937C351.64 85.8632 351.022 88.6876 354.155 85.1351C357.333 81.5825 367.35 75.6911 367.35 67.7035C367.35 59.7158 365.232 51.0883 363.114 45.6381C360.996 40.1439 361.878 34.6937 358.039 31.7591C354.244 28.8244 343.321 21.6973 339.703 21.256C336.128 20.8147 321.366 22.7123 315.894 25.8676C310.422 29.023 301.353 37.0327 299.853 38.6876C298.396 40.3645 294.16 54.023 294.822 57.399C295.44 60.7529 298.176 67.6814 298.838 68.9612C299.455 70.1968 295.66 77.0371 295.969 79.9276C296.3 82.7961 294.027 89.526 297.977 95.6602C301.883 101.838 306.538 114.438 308.326 117.284C310.113 120.109 312.408 123.065 315.254 124.124C318.123 125.139 325.713 125.912 327.611 125.25C329.508 124.632 336.988 116.975 336.988 116.975C336.988 116.975 340.056 113.202 343.851 108.37C347.646 103.538 352.169 94.7114 352.5 92.0856C352.831 89.4378 351.552 88.82 351.552 88.82C351.552 88.82 351.044 92.3725 348.264 97.2048C345.528 102.037 333.612 125.47 330.59 129.575C327.522 133.679 321.013 135.863 321.013 135.863C321.013 135.863 314.151 127.147 313.732 126.53C313.29 125.912 304.354 169.182 304.354 169.182L302.346 146.19L310.974 142.417C310.974 142.417 307.068 187.364 306.627 197.028C306.229 206.693 305.347 230.965 305.347 230.965L304.95 236.746C304.95 236.746 352.876 260.554 353.714 260.665C354.597 260.775 359.098 260.775 363.401 258.127C367.748 255.501 373.749 253.846 374.808 254.884C375.868 255.943 380.17 261.503 381.009 262.342C381.847 263.18 383.568 264.548 385.025 264.35C386.525 264.129 392.924 262.253 394.513 261.834C396.124 261.393 400.735 265.387 400.735 266.666C400.735 267.902 399.897 273.176 399.897 273.176C399.897 273.176 435.289 278.229 436.349 279.464C437.408 280.744 454.906 298.176 454.906 298.176L451.441 303.957L429.707 308.171L425.691 345.771L471.101 347.448L473.44 335.885L500.846 331.671L499.124 345.55L579.023 347.448C579.023 347.448 592.395 339.901 604.839 334.738C617.262 329.619 624.676 321.94 625.294 321.3C625.956 320.682 652.92 282.355 653.979 279.177C655.038 276.022 667.019 245.131 667.019 245.131C667.019 245.131 698.33 243.233 705.391 241.975C712.43 240.74 729.31 235.245 729.928 232.311C730.59 229.376 728.692 192.814 724.897 178.538C721.079 164.261 721.079 144.094 721.079 137.761C721.079 131.472 708.436 119.711 703.405 107.487C698.33 95.3072 705.082 89.0186 694.116 92.3725C683.171 95.7485 674.323 96.9842 672.205 99.9409C670.087 102.876 660.4 132.708 652.809 150.823C645.219 168.873 628.361 193.674 628.361 193.674C628.361 193.674 632.156 192.439 637.209 186.106C642.284 179.817 667.527 132.553 665.011 128.957C662.496 125.404 664.173 102.5 664.173 102.5C664.173 102.5 668.807 107.509 679.994 102.898C691.137 98.286 697.712 96.609 697.712 96.609C697.712 96.609 692.748 77.0592 689.372 66.5561C686.018 56.053 686.635 50.1615 681.163 37.1209C675.669 24.1024 671.874 15.4969 667.019 9.82613C662.165 4.11121 654.177 1 647.227 1C640.276 1 613.07 6.22949 608.855 12.7829C604.663 19.2922 594.027 31.5384 595.66 34.3407C597.271 37.143 595.153 41.3575 602.655 39.7908C610.135 38.2021 615.695 37.143 617.924 37.474C620.153 37.805 634.142 37.9815 637.717 47.2489C641.335 56.4722 646.057 75.9117 648.462 82.8623C650.912 89.8129 656.163 92.1959 661.437 97.0282C666.733 101.861 675.757 105.237 685.245 103.758C694.755 102.302 696.212 101.861 696.212 101.861C696.212 101.861 704.663 113.423 708.458 122.69C712.253 131.914 715.828 133.635 716.446 141.181C717.108 148.727 723.838 227.346 723.838 227.346C723.838 227.346 738.776 221.234 751.419 210.312C764.063 199.411 769.932 188.246 769.932 188.246V349.478M441.887 91.0486C441.887 91.0486 437.584 89.2392 436.525 85.4439C435.466 81.6266 431.891 67.7917 436.525 60.2233C441.159 52.6328 444.116 50.1174 449.169 45.7264C454.244 41.2913 457.178 37.2975 463.312 35.0027C469.402 32.6858 479.751 30.7882 487.562 34.1642C495.351 37.496 508.017 47.3813 511.371 57.8844C514.769 68.3875 508.855 87.7167 513.71 94.6673C518.564 101.618 528.251 105.391 533.281 107.267C538.357 109.164 541.953 109.385 543.189 112.32C544.469 115.254 545.307 119.049 545.307 119.049L541.291 120.682L535.245 121.852" stroke="white" stroke-width="1.2" stroke-miterlimit="10"></path>
</svg>