<svg width="38" height="38" viewBox="0 0 38 38" fill="none" xmlns="http://www.w3.org/2000/svg">
<g id="protection 1">
<path id="path4633" d="M3 6.87052V15.2801C3 25.0733 9.3719 33.6375 19 37C28.6281 33.6375 35 25.0733 35 15.2801V6.87052L19 0.999999L3 6.87052Z" stroke="white" stroke-width="2" stroke-miterlimit="10" stroke-linecap="round" stroke-linejoin="round"/>
<path id="path4637" d="M22.5625 14.8645V12.6071C22.5625 10.6428 20.9643 9.04464 19 9.04464C17.0357 9.04464 15.4375 10.6428 15.4375 12.6071V14.8645" stroke="white" stroke-width="2" stroke-miterlimit="10" stroke-linecap="round" stroke-linejoin="round"/>
<path id="path4641" d="M23.3881 14.8643H14.6118C13.7561 14.8643 13.0625 15.558 13.0625 16.4137V23.6694C13.0625 24.5251 13.7561 25.2188 14.6118 25.2188H23.3881C24.2438 25.2188 24.9375 24.5251 24.9375 23.6694V16.4137C24.9375 15.558 24.2438 14.8643 23.3881 14.8643Z" stroke="white" stroke-width="2" stroke-miterlimit="10" stroke-linecap="round" stroke-linejoin="round"/>
<path id="path4645" d="M19 21.9753V20.7797" stroke="white" stroke-width="2" stroke-miterlimit="10" stroke-linecap="round" stroke-linejoin="round"/>
<path id="path4649" d="M17.5156 19.2954C17.5156 18.4756 18.1802 17.811 19 17.811C19.8198 17.811 20.4844 18.4756 20.4844 19.2954C20.4844 20.1152 19.8198 20.7798 19 20.7798C18.1802 20.7798 17.5156 20.1152 17.5156 19.2954Z" stroke="white" stroke-width="2" stroke-miterlimit="10" stroke-linecap="round" stroke-linejoin="round"/>
</g>
</svg>
