<svg width="35" height="35" viewBox="0 0 35 35" fill="none" xmlns="http://www.w3.org/2000/svg">
<rect width="35" height="35" fill="#CCFF90"></rect>
<g clip-path="url(#clip0_7350_1047)">
<path d="M28.1487 11.0737C28.1487 10.7857 27.9748 10.5262 27.7084 10.4167L17.6763 6.29546C17.5034 6.22443 17.3094 6.22443 17.1365 6.29546L7.10443 10.4167C6.83803 10.5262 6.66406 10.7857 6.66406 11.0737V24.1134C6.66406 24.4014 6.83799 24.6609 7.10443 24.7704L17.1365 28.8916C17.3076 28.9619 17.4999 28.9634 17.6754 28.8916C17.684 28.8887 17.3042 29.0445 27.7084 24.7704C27.9748 24.6609 28.1487 24.4014 28.1487 24.1134V11.0737ZM17.4064 14.4869L13.71 12.9683L21.6984 9.48352L25.642 11.1036L17.4064 14.4869ZM8.08461 12.1931L11.2738 13.5033V17.1995C11.2738 17.5918 11.5918 17.9098 11.984 17.9098C12.3763 17.9098 12.6943 17.5918 12.6943 17.1995V14.0868L16.6961 15.7308V27.1749L8.08461 23.6372V12.1931ZM17.4064 7.72031L19.8686 8.73183L11.8803 12.2166L9.17079 11.1036L17.4064 7.72031ZM18.1167 15.7308L26.7282 12.1931V23.6372L18.1167 27.1749V15.7308Z" fill="#074E15"></path>
</g>
<defs>
<clipPath id="clip0_7350_1047">
<rect width="22.7027" height="22.7027" fill="white" transform="translate(6.05469 6.24219)"></rect>
</clipPath>
</defs>
</svg>