<svg width="957" height="444" viewBox="0 0 957 444" fill="none" xmlns="http://www.w3.org/2000/svg">
<path d="M1 376.198C1 376.198 176.535 362.737 184.006 364.235C191.493 365.732 436.826 452.002 441.817 441.037C446.809 430.072 442.059 237.084 438.694 250.174C435.328 263.264 434.733 433.792 438.694 435.305C442.654 436.819 584.554 364.621 585.311 357.891C586.051 351.161 591.3 304.789 585.311 307.768C579.321 310.763 534.817 341.435 525.463 341.049C516.108 340.679 436.826 244.185 439.434 240.063C442.059 235.941 586.422 161.892 590.157 162.648C593.892 163.389 681.032 218.745 679.551 223.237C678.053 227.729 540.05 333.948 530.325 332.065C520.6 330.197 453.764 240.417 447.292 239.692C440.819 238.968 320.125 197.056 313.024 201.162C305.923 205.284 274.88 301.022 273.013 307.382C271.145 313.741 276.378 320.842 259.923 323.467C243.467 326.091 260.663 361.24 246.832 363.864C233.001 366.489 213.551 323.853 182.122 335.446C150.708 347.039 149.211 363.864 145.089 352.658C140.967 341.435 158.179 217.263 183.99 177.993C209.8 138.722 227.543 147.996 240.843 156.627C254.142 165.273 249.151 169.588 262.611 170.264C276.072 170.94 308.162 174.257 318.788 185.882C329.415 197.507 335.405 201.178 330.429 200.679C325.438 200.18 318.788 196.364 311.478 196.525C304.168 196.686 268.585 299.75 269.422 302.905C270.259 306.061 364.499 350.114 374.305 343.303C384.111 336.492 436.472 246.229 433.815 241.576C431.158 236.923 316.373 208.794 318.627 206.926C320.865 205.059 387.057 225.04 388.184 223.253C389.311 221.466 383.451 123.023 382.452 127.258C381.454 131.493 385.447 189.586 384.948 193.079C384.449 196.573 428.952 166.03 425.458 156.546C421.964 147.079 382.951 103.686 378.958 102.945C374.965 102.205 352.037 89.8551 348.414 90.3542C344.792 90.8534 337.949 124.022 321.107 120.399C304.281 116.776 295.426 92.8499 292.189 92.8499C288.953 92.8499 284.702 92.4795 285.7 97.0845C286.699 101.689 298.791 129.367 312.509 132.62C326.227 135.856 343.793 122.154 346.788 113.427C349.783 104.7 352.021 95.5227 350.411 94.0575C348.785 92.6084 343.31 88.8407 341.926 90.3381C340.541 91.8355 335.324 117.774 323.731 115.907C312.139 114.039 298.678 92.7211 296.311 92.4635C293.944 92.2219 292.077 94.3312 266.637 101.689C241.197 109.048 214.405 146.193 221.006 147.191C227.608 148.19 250.552 163.518 251.421 162.149C252.291 160.781 256.654 127.741 254.287 127.5C251.92 127.258 236.705 129.625 229.846 136.468C222.986 143.327 183.796 156.949 172.332 165.772C160.868 174.579 85.9818 221.128 90.7156 229.098C95.4493 237.068 157.197 263.506 159.371 260.688C161.545 257.871 182.315 195.865 185.632 185.222C188.949 174.579 199.092 171.005 196.436 167.93C193.779 164.854 178.741 160.781 173.991 157.045C169.257 153.31 76.2567 91.2237 80.2337 86.2323C84.2268 81.241 262.998 6.95027 273.721 8.19006C284.445 9.42985 347.529 56.0588 347.77 59.5527C348.012 63.0467 347.03 75.3801 345.146 77.1352C343.278 78.8741 299.515 98.3243 305.376 94.8303C311.237 91.3364 404.607 53.8207 397.636 53.8207C390.664 53.8207 345.403 74.398 344.904 73.3997C344.405 72.4014 355.257 34.0002 359.363 32.7604C363.485 31.5206 407.602 41.8576 415.089 45.3515C422.576 48.8455 441.27 70.0346 440.771 72.7718C440.271 75.5089 439.772 92.9626 428.55 90.7245C417.327 88.4865 415.83 84.9925 413.833 87.7297C411.837 90.4669 401.87 123.635 400.872 117.646C399.874 111.656 404.607 91.7228 406.862 91.2237C409.1 90.7245 462.459 113.411 487.142 113.411C511.825 113.411 549.969 110.175 549.969 114.152C549.969 118.145 549.969 145.823 552.464 156.288C554.96 166.754 555.958 176.608 553.833 177.735C551.707 178.862 462.33 229.049 461.461 225.089C460.591 221.128 460.833 216.635 458.337 218.374C455.841 220.113 452.605 229.468 452.106 226.361C451.607 223.253 479.993 116.245 481.152 117.726C482.312 119.224 470.348 125.712 485.306 130.865C500.264 136.017 547.634 125.551 548.471 128.369C549.308 131.187 546.636 147.819 547.811 148.817C548.986 149.816 587.21 159.283 588.37 158.623C589.529 157.963 686.104 65.0432 676.636 56.5579C667.169 48.0726 457.967 -1.53502 448.741 2.20044C439.515 5.93591 410.017 41.1008 412.996 39.9254C415.991 38.7661 451.896 6.85367 453.716 7.01468C455.551 7.17569 663.401 58.6671 669.02 58.6671C674.624 58.6671 991.478 58.6672 991.478 58.6672" stroke="black" stroke-width="2.2" stroke-miterlimit="10"/>
</svg>
