<svg width="104" height="100" viewBox="0 0 104 100" fill="none" xmlns="http://www.w3.org/2000/svg">
<mask id="mask0_3104_8827" style="mask-type:luminance" maskUnits="userSpaceOnUse" x="0" y="0" width="104" height="100">
<path d="M103.117 0.107666H0.387207V99.0327H103.117V0.107666Z" fill="white"/>
</mask>
<g mask="url(#mask0_3104_8827)">
<path d="M8.43036 37.2319L29.5199 40.8193L40.1733 42.613C41.6952 42.8848 43.1628 42.3956 44.3042 41.5259C45.3913 40.7649 46.1523 39.5691 46.4241 38.1559L51.8052 6.24989C52.2943 3.47782 50.3919 0.814455 47.6199 0.325265L46.6958 0.162209C43.9238 -0.326981 41.2604 1.57541 40.8256 4.34749L37.7817 22.4475C37.0208 26.9589 32.7811 29.9484 28.3241 29.1874L10.3328 26.1436C7.56069 25.6544 4.89732 27.5568 4.46249 30.3289L4.29942 31.2529C3.75588 34.0793 5.65828 36.7427 8.43036 37.2319Z" fill="#074E15"/>
<path d="M41.0423 44.5694C40.6618 44.5694 40.2813 44.515 39.9008 44.4607L8.15788 39.0796C4.35307 38.4274 1.79841 34.7856 2.39631 30.9808L2.55938 30.0568C2.8855 28.2087 3.86388 26.5781 5.44016 25.491C6.96208 24.4039 8.81013 23.9691 10.6582 24.2952L28.6495 27.3391C30.2801 27.6108 31.9651 27.2304 33.324 26.252C34.6828 25.2736 35.6068 23.806 35.8786 22.1211L38.9225 4.02105C39.2486 2.17301 40.227 0.542361 41.8032 -0.544727C43.3252 -1.63181 45.1732 -2.06664 47.0213 -1.74051L47.9453 -1.57746C51.7501 -0.925204 54.3048 2.71654 53.7069 6.52134L48.3258 38.4274C47.9996 40.2754 47.0213 41.9061 45.4993 42.9931C44.1948 44.0259 42.6186 44.5694 41.0423 44.5694ZM9.40803 27.9913C8.75578 27.9913 8.10352 28.2088 7.55998 28.5892C6.85337 29.0784 6.36419 29.8394 6.25548 30.709L6.09241 31.6331C5.82064 33.3724 6.96208 35.0574 8.70142 35.3292L40.4444 40.7103C41.3684 40.8733 42.2924 40.6016 42.999 40.0037L43.1077 39.8949C43.8144 39.4058 44.3035 38.6448 44.4123 37.7751L49.7933 5.8691C50.0651 4.12976 48.9237 2.44476 47.1843 2.17299L46.2603 2.00994C45.445 1.84687 44.5753 2.06429 43.8687 2.55348C43.1621 3.04267 42.7273 3.80363 42.5642 4.6733L39.5204 22.7733C39.0855 25.4367 37.618 27.7739 35.3894 29.3502C33.2152 30.9265 30.4975 31.5244 27.8342 31.0895L9.84286 28.0457C9.78851 27.9913 9.62545 27.9913 9.40803 27.9913Z" fill="#CCFF90"/>
<path d="M55.5036 27.4479L57.0799 38.21C57.2973 39.732 58.167 41.0365 59.4171 41.7974C60.4499 42.6128 61.8087 42.9932 63.2219 42.7758L95.0736 38.047C97.8457 37.6121 99.8024 35.0031 99.3676 32.2311L99.2045 31.2527C98.7697 28.4806 96.215 26.5239 93.3886 26.9587L75.343 29.6221C70.8859 30.2743 66.7006 27.1761 66.0484 22.6647L63.385 4.5647C62.9502 1.73827 60.3955 -0.164135 57.5691 0.216346L56.6451 0.379403C53.873 0.814238 51.9162 3.42325 52.3511 6.19533L55.5036 27.4479Z" fill="#074E15"/>
<path d="M62.4602 44.7329C60.9926 44.7329 59.5251 44.2437 58.3293 43.374C56.6443 42.2869 55.5028 40.4932 55.231 38.4821L50.5022 6.46739C49.9587 2.66258 52.5677 -0.924814 56.4269 -1.52271L57.4052 -1.68577C59.2533 -1.95754 61.1013 -1.46835 62.6232 -0.381267C64.1452 0.760175 65.1236 2.39081 65.3953 4.23886L68.0587 22.3389C68.3305 24.0239 69.2001 25.4914 70.559 26.5241C71.9179 27.5569 73.5485 27.9374 75.2335 27.7199L93.2791 25.0566C95.1272 24.7848 96.9752 25.2196 98.4428 26.3611C99.9647 27.5025 100.943 29.1332 101.215 30.9812L101.378 31.9052C101.921 35.71 99.3125 39.2974 95.5076 39.8953L63.656 44.6242C63.1668 44.6785 62.7863 44.7329 62.4602 44.7329ZM58.3836 2.06468C58.2205 2.06468 58.0575 2.06468 57.8944 2.11904L56.9704 2.28209C55.2311 2.55387 54.0353 4.1845 54.2527 5.92384L58.9815 37.9386C59.0902 38.8626 59.6338 39.6779 60.4491 40.1671L60.5578 40.2758C61.2644 40.8194 62.0797 41.0368 62.9494 40.8737L94.801 36.1449C96.5404 35.8731 97.7362 34.2425 97.5188 32.5031L97.3557 31.5247C97.247 30.6551 96.7578 29.8941 96.1055 29.4049C95.3989 28.9158 94.5836 28.6983 93.7683 28.807L75.7227 31.4704C73.0593 31.8509 70.3959 31.1986 68.2217 29.568C66.0476 27.9374 64.6344 25.6001 64.2539 22.8824L61.5905 4.7824C61.4818 3.91273 60.9926 3.15177 60.3404 2.66258C59.6881 2.2821 59.0359 2.06468 58.3836 2.06468Z" fill="#CCFF90"/>
<path d="M80.2339 67.833C78.2228 63.7564 79.8534 58.8101 83.93 56.799L100.236 48.6459C102.737 47.3957 103.769 44.2975 102.519 41.7972L102.084 40.9275C100.834 38.3729 97.7904 37.3402 95.2357 38.5903L76.0486 48.1567L66.3736 52.9942C64.9603 53.7008 64.0363 54.8966 63.7102 56.3099C63.2754 57.56 63.3297 58.9732 63.982 60.2777L78.3315 89.2486C79.5817 91.8033 82.6255 92.836 85.1802 91.5315L86.0498 91.0967C88.5501 89.8465 89.5829 86.7483 88.3327 84.248L80.2339 67.833Z" fill="#074E15"/>
<path d="M82.9513 93.9778C82.1904 93.9778 81.4294 93.8691 80.7228 93.5973C78.9291 92.9994 77.5159 91.7493 76.6462 90.0643L62.351 61.0934C61.5357 59.4084 61.3726 57.506 61.9705 55.7667C62.5141 53.8099 63.8186 52.1793 65.6123 51.3096L94.4745 36.9057C96.1595 36.0904 98.0619 35.9273 99.8012 36.5252C101.595 37.1231 103.008 38.3733 103.823 40.0583L104.258 40.9279C105.943 44.4066 104.53 48.6463 101.106 50.3313L84.7994 58.4844C81.7012 60.0607 80.3967 63.8655 81.973 66.9637L90.0718 83.3787C91.7568 86.8574 90.3435 91.097 86.9192 92.782L86.0495 93.2168C85.0712 93.7604 84.0384 93.9778 82.9513 93.9778ZM97.5727 39.9496C97.0835 39.9496 96.5943 40.0583 96.1595 40.2757L67.2973 54.6796C66.482 55.1144 65.8297 55.8754 65.6123 56.7451L65.5579 56.9081C65.2862 57.7234 65.3405 58.5931 65.721 59.4084L80.0162 88.3793C80.3967 89.1403 81.0489 89.7382 81.8643 90.01C82.6796 90.2817 83.5492 90.2273 84.3102 89.8469L85.1799 89.412C86.7561 88.5967 87.4084 86.6943 86.6474 85.0637L78.5486 68.6487C76.0483 63.6481 78.1138 57.5604 83.1144 55.0601L99.4207 46.9069C100.997 46.0916 101.649 44.1892 100.888 42.5586L100.453 41.6889C100.073 40.9279 99.4207 40.33 98.6054 40.0583C98.2793 40.0039 97.9531 39.9496 97.5727 39.9496Z" fill="#CCFF90"/>
<path d="M24.1944 88.8146L34.0869 69.7362L39.0875 60.1155C39.7941 58.7566 39.8485 57.1803 39.305 55.8758C38.9245 54.6257 38.0548 53.4842 36.8047 52.832L8.26861 37.8302C5.76831 36.5257 2.67011 37.5041 1.3656 40.0044L0.930765 40.874C-0.37374 43.3743 0.604639 46.4725 3.10494 47.777L19.3025 56.2563C23.3248 58.3761 24.8467 63.3224 22.7812 67.3989L14.3563 83.6509C13.0518 86.1512 14.0302 89.2494 16.5305 90.5539L17.4001 90.9888C19.8461 92.2933 22.8899 91.3149 24.1944 88.8146Z" fill="#074E15"/>
<path d="M19.6811 93.434C18.5396 93.434 17.4525 93.1622 16.4198 92.6187L15.5501 92.1839C12.1258 90.3902 10.8213 86.1505 12.615 82.7262L21.0399 66.4742C22.6706 63.376 21.4748 59.5169 18.3766 57.8862L2.17896 49.407C-1.24537 47.6133 -2.54988 43.3736 -0.756181 39.9493L-0.321344 39.0796C0.548326 37.3946 2.0159 36.1988 3.80959 35.6009C5.60329 35.0574 7.50569 35.2205 9.13632 36.0901L37.6724 51.0919C39.303 51.9616 40.5531 53.4292 41.0967 55.2229C41.8033 57.1253 41.6946 59.1907 40.7706 60.9844L25.8231 89.6835C24.9534 91.3685 23.4859 92.5643 21.6922 93.1622C21.0943 93.3253 20.3877 93.434 19.6811 93.434ZM5.92941 39.134C5.60328 39.134 5.27716 39.1883 4.95103 39.297C4.13571 39.5688 3.48346 40.1124 3.04863 40.8733L2.6138 41.743C1.79848 43.3192 2.39638 45.276 3.97266 46.0913L20.1703 54.5706C25.1165 57.1796 27.0189 63.3217 24.4643 68.2679L16.0393 84.5199C15.224 86.0962 15.8219 88.0529 17.3982 88.8682L18.2679 89.3031C19.0288 89.6835 19.8985 89.7923 20.7138 89.5205C21.5291 89.2487 22.1814 88.7052 22.6162 87.9442L37.5093 59.2451C37.9441 58.4298 37.9985 57.4514 37.618 56.5817L37.5637 56.4187C37.2919 55.6033 36.7483 54.8967 35.9874 54.5163L7.45133 39.5145C6.96214 39.2427 6.4186 39.134 5.92941 39.134Z" fill="#CCFF90"/>
<path d="M62.9465 74.3016L55.3912 66.529C54.3041 65.4419 52.8365 64.8984 51.4233 65.0071C50.1188 65.0071 48.76 65.4419 47.7816 66.4746L24.7897 89.1404C22.7786 91.0971 22.7242 94.3584 24.7353 96.3695L25.3876 97.0762C27.3443 99.0873 30.6056 99.1416 32.6167 97.1305L45.6618 84.3029C48.923 81.096 54.0867 81.1503 57.2393 84.4116L70.0125 97.511C71.9693 99.5221 75.2306 99.5764 77.2417 97.5653L77.9483 96.9131C79.9594 94.9563 80.0137 91.695 78.0026 89.6839L62.9465 74.3016Z" fill="#074E15"/>
<path d="M73.6011 100.935H73.5467C71.6987 100.935 69.905 100.174 68.6005 98.8156L55.8272 85.7162C54.6314 84.5204 53.0551 83.8138 51.3701 83.8138C49.6852 83.7594 48.1089 84.4117 46.9131 85.6075L33.868 98.4351C32.5092 99.7396 30.7698 100.446 28.8674 100.446C27.0194 100.446 25.2257 99.6853 23.9212 98.3264L23.2689 97.6198C20.5512 94.8477 20.6056 90.3907 23.3776 87.6729L46.3695 65.0072C47.7284 63.7027 49.4677 62.9961 51.3158 62.9961C53.3269 62.8874 55.2837 63.6483 56.6969 65.1159L79.254 88.2165C81.9717 90.9886 81.9173 95.4456 79.1452 98.1634L78.4386 98.8156C77.1885 100.229 75.4492 100.935 73.6011 100.935ZM51.3158 80.0633C51.3701 80.0633 51.3701 80.0633 51.4245 80.0633C54.1422 80.1177 56.6425 81.1504 58.5449 83.1072L71.3182 96.2066C71.9161 96.8045 72.7314 97.185 73.5467 97.185C74.3621 97.185 75.1774 96.8589 75.8296 96.261L76.5362 95.6087C77.7864 94.3586 77.8407 92.2931 76.5906 91.0429L54.0335 67.9423C53.3813 67.2901 52.4572 66.9096 51.5332 66.9639H51.4789H51.4245C50.5548 66.9639 49.7395 67.2901 49.1416 67.888L26.1497 90.5538C24.8996 91.8039 24.8452 93.8693 26.0954 95.1195L26.7476 95.8261C27.3455 96.424 28.1608 96.8045 28.9761 96.8045C29.8458 96.8589 30.6068 96.4784 31.259 95.8805L44.3041 83.0528C46.1521 81.0417 48.6524 80.0633 51.3158 80.0633Z" fill="#CCFF90"/>
</g>
</svg>
