<svg width="1098" height="426" viewBox="0 0 1098 426" fill="none" xmlns="http://www.w3.org/2000/svg">
<path d="M1 421.322C77.5254 421.322 561.904 417.274 654.192 417.274C662.919 423.859 687.228 416.626 692.95 407.306C698.671 397.985 698.797 386.397 698.743 375.458C698.617 348.216 698.491 320.992 698.347 293.75C697.952 210.765 697.556 127.762 697.16 44.7771C697.124 36.3022 696.998 27.4855 693.165 19.9284C687.911 9.54623 676.396 3.51848 664.88 1.84511C653.364 0.171732 199.034 4.0043 185.917 6.52336C174.221 7.17112 161.122 8.48463 153.619 17.4993C147.375 25.0025 146.997 35.6185 146.908 45.3709C145.846 161.535 150.182 277.7 149.121 393.865C149.085 397.913 149.067 402.052 150.434 405.848C155.76 420.567 176.183 420.855 194.266 419.055C214.886 418.372 235.506 417.706 256.127 417.022C257.188 397.877 256.505 378.624 251.754 360.145C244.413 364.104 237.072 368.08 229.731 372.039C232.376 365.543 235.003 359.048 237.648 352.57C238.151 351.347 238.655 350.051 238.403 348.756C238.115 347.208 236.82 346.057 235.614 345.031C231.53 341.576 227.427 338.14 223.343 334.685C230.936 334.289 238.511 333.875 246.104 333.479C248.803 326.426 251.502 319.391 254.201 312.337C257.62 318.761 260.571 325.436 263.054 332.292C270.557 331.752 278.168 332.562 285.402 334.721C280.184 338.895 274.966 343.052 269.748 347.226C272.393 354.819 274.426 362.628 275.829 370.545C263.81 364.176 253.554 354.549 246.464 342.944C268.74 341.918 290.998 340.91 313.291 339.489C316.314 342.944 319.337 346.416 322.36 349.871C319.445 356.781 317.034 363.924 315.163 371.193C323.853 367.073 332.22 362.233 340.101 356.727C348.162 360.541 356.205 364.356 364.266 368.188C361.261 362.179 358.275 356.151 355.27 350.141C354.91 349.421 354.532 348.63 354.712 347.838C354.838 347.244 355.252 346.758 355.666 346.29C360.65 340.587 365.616 334.901 370.6 329.197C362.845 329.035 355.09 328.891 347.335 328.729C343.682 321.046 340.011 313.381 336.359 305.698C333.984 311.941 331.608 318.203 329.233 324.447C328.712 325.832 328.136 327.29 326.984 328.225C326.013 329.035 324.753 329.359 323.53 329.683C318.473 330.978 313.417 332.274 308.361 333.569C317.016 340.893 326.21 347.604 335.819 353.596C336.431 353.974 337.132 354.387 337.852 354.262C338.572 354.136 339.094 353.524 339.544 352.93C342.368 349.241 344.816 345.265 346.885 341.108C361.207 341.828 386.38 343.448 404.085 344.221C399.263 339.975 394.441 335.728 389.601 331.482C396.834 329.845 404.373 329.521 411.715 330.528C414.378 321.298 418.642 312.553 424.256 304.762C427.657 312.913 431.057 321.046 434.458 329.197C442.195 328.441 450.058 328.801 457.705 330.258C451.588 336.736 445.164 342.89 438.435 348.738C442.717 354.082 445.848 360.361 447.539 367.019C437.823 364.518 428.34 361.117 419.272 356.835C412.416 362.233 405.021 366.947 397.248 370.923C398.058 364.266 399.713 357.716 402.16 351.473C402.682 350.159 403.294 348.792 404.463 348.018C405.543 347.316 406.892 347.244 408.17 347.226C413.262 347.154 418.354 347.55 423.374 348.396C423.482 345.481 423.572 342.548 423.68 339.633C442.681 341.9 461.916 342.224 483.742 341.954C478.578 338.355 473.396 334.757 468.231 331.14C475.951 330.007 483.724 329.323 491.533 329.143C495.059 320.596 499.63 312.481 505.082 305.014C507.475 311.384 509.868 317.753 512.243 324.105C512.585 325.04 512.963 326.012 513.719 326.66C514.618 327.451 515.896 327.631 517.083 327.775C524.586 328.693 532.072 329.593 539.575 330.51C533.205 336.592 526.17 341.99 518.649 346.56C522.499 353.128 525.378 360.253 527.177 367.63C517.713 365.723 508.59 362.197 500.313 357.23C493.296 361.621 486.189 365.885 479.027 370.042C477.39 361.675 482.158 353.524 486.729 346.308C487.25 345.481 487.826 344.617 488.744 344.275C489.769 343.879 490.921 344.293 491.947 344.707C495.689 346.183 499.432 347.658 503.192 349.133C501.951 346.327 503.858 342.908 506.557 341.432C509.256 339.957 512.477 339.885 515.554 339.867C530.272 339.759 544.991 339.669 562.498 339.795C558.558 335.297 554.275 331.104 549.687 327.272C557.91 326.984 566.133 326.696 574.338 326.408C577.163 317.447 581.085 308.81 585.997 300.803C589.362 308.756 592.745 316.692 596.11 324.645C604.962 324.231 613.851 324.537 622.668 325.58C615.381 332.022 607.895 338.265 600.266 344.275C603.973 352.624 606.726 361.387 608.453 370.347C598.071 367.325 588.571 361.369 581.319 353.362C573.492 357.914 565.683 362.466 557.856 367.019C559.565 358.976 562.552 351.203 571.009 343.538C575.309 342.8 579.628 342.08 583.928 341.342C584.378 361.801 584.846 382.259 585.296 402.735C585.386 406.838 585.908 411.714 589.506 413.675C591.198 414.593 593.195 414.647 595.12 414.665C612.664 414.899 630.189 415.115 647.732 415.349C657.881 415.475 668.767 415.403 677.097 409.609C690.071 400.612 691.348 382.241 691.348 366.443C691.348 344.599 689.549 70.8493 687.57 46.7563C618.241 47.1882 554.311 46.4324 485.181 51.6325C486.711 57.8762 482.824 64.1199 484.353 70.3635C535.814 68.4203 587.257 68.2763 638.718 66.333C645.195 66.0811 652.177 67.4666 657.179 63.3281C662.181 59.2077 663.207 49.9411 657.503 46.8643C653.796 52.0823 652.591 59.0098 654.318 65.1815C655.47 62.7164 658.564 66.459 658.456 69.176C657.953 80.8176 657.449 92.4593 656.945 104.101C623.478 105.666 590.028 107.214 556.56 108.779C555.967 101.798 555.355 94.7984 554.761 87.817C589.146 89.1485 623.603 88.3208 657.863 85.3159C657.791 101.33 657.719 117.362 657.629 133.376C657.629 134.851 657.575 136.453 656.657 137.622C655.434 139.188 653.166 139.35 651.187 139.404C630.909 139.854 610.63 140.303 590.37 140.753C588.696 140.789 586.807 140.735 585.674 139.512C584.81 138.576 584.612 137.227 584.468 135.967C583.928 131.199 583.388 126.431 582.831 121.644C608.147 121.338 633.446 119.989 658.654 117.632C658.33 123.084 657.989 128.536 657.665 133.988C657.539 135.913 657.359 138 656.081 139.44C654.426 141.293 651.601 141.383 649.118 141.329C631.574 140.987 614.031 140.627 596.47 140.285C592.637 140.213 588.661 140.159 585.206 141.779C580.132 144.154 577.307 149.498 574.248 154.194C560.681 175.066 530.578 186.384 503.336 184.027C499.432 157.955 483.274 133.97 460.548 120.565C437.841 107.178 409.034 104.623 384.311 113.835C364.086 121.374 346.687 136.741 337.69 156.371C331.662 169.542 329.467 184.189 329.125 198.674C328.766 213.914 330.475 229.55 337.258 243.207C344.096 256.99 355.863 268.02 369.412 275.289C397.32 290.241 436.887 288.802 463.481 271.654C490.093 254.507 506.251 222.335 501.789 188.058C497.219 190.972 497.003 197.396 496.751 202.794C495.293 233.94 474.511 263.377 445.632 275.145C416.753 286.913 381.306 280.399 356.673 257.08C362.557 251.538 368.945 246.536 375.728 242.163L358.508 254.849C358.508 254.849 377.995 241.03 379.021 239.752C379.723 245.816 380.874 251.844 382.458 257.728C383.339 261.002 384.419 264.313 386.578 266.922C388.737 269.531 392.246 271.276 395.539 270.467C395.215 266.112 393.883 261.848 391.67 258.087C392.372 262.424 395.341 266.328 399.317 268.182C403.294 270.035 408.188 269.801 411.966 267.57C404.985 259.365 401.314 248.785 399.767 238.115C398.22 227.445 396.906 216.631 397.968 204.899C396.924 198.458 394.801 192.196 391.688 186.474C387.999 186.996 385.318 190.739 385.228 194.463C385.138 198.188 387.19 201.696 389.943 204.216C390.824 205.025 391.85 205.763 393.038 205.853C395.647 206.033 397.356 202.902 397.158 200.293C396.96 197.684 395.629 195.273 395.269 192.682C394.333 185.826 401.62 188.022 406.928 183.577C413.136 178.395 417.185 170.334 423.374 165.17C427.837 170.208 440.702 185.251 439.046 196.802C438.651 192.754 439.334 188.615 441.026 184.909C445.308 182.876 450.49 187.68 450.004 192.394C449.518 197.108 445.128 200.617 440.558 201.786C439.442 209.542 436.401 217.009 431.777 223.324C428.934 227.193 425.102 230.846 420.315 231.349C412.47 232.159 406.64 224.512 403.672 217.225C406.838 219.51 408.764 223.073 411.211 226.095C413.658 229.118 417.274 231.835 421.125 231.205C423.932 230.756 426.127 228.65 428.142 226.653C429.96 224.854 431.777 223.037 433.594 221.237C434.134 226.473 434.638 231.889 433.109 236.909C432.137 240.094 430.392 242.973 428.52 245.726C425.299 250.476 421.701 254.957 417.76 259.131C411.085 252.851 405.003 245.924 399.677 238.475C397.986 248.569 403.636 259.437 412.866 263.863C413.55 264.187 414.342 264.475 415.025 264.169C415.673 263.863 415.961 263.144 416.249 262.478C417.257 260.049 418.732 257.818 420.567 255.946C422.996 258.231 425.911 259.977 429.06 261.056C429.438 261.182 429.834 261.308 430.212 261.164C430.679 260.984 430.913 260.481 431.093 260.013C432.497 256.45 433.9 252.905 435.304 249.343C437.229 244.484 439.172 239.141 437.355 233.832C440.81 234.804 444.264 235.776 447.719 236.729C448.835 237.035 450.076 237.341 451.084 236.783C452.415 236.064 452.667 234.3 452.775 232.807C453.405 223.81 454.035 214.814 454.665 205.817C455.366 195.633 456.086 185.323 454.359 175.246C452.631 165.17 448.205 155.22 440.288 148.76C435.484 144.856 427.567 142.786 423.662 147.573C411.517 141.671 396.294 149.21 389.043 160.6C381.792 171.99 380.496 186.042 379.399 199.483C378.337 212.51 377.257 225.52 377.365 237.863C381.522 237.053 385.696 236.244 389.853 235.434C393.865 238.385 397.896 241.336 401.908 244.287C405.723 247.076 409.951 250.008 414.683 249.757C419.686 249.487 423.698 245.762 427.567 242.577C432.029 238.907 437.175 235.596 442.933 235.092C449.159 234.552 455.294 237.431 459.991 241.57C464.687 245.69 468.177 250.98 471.398 255.928C449.141 279.985 411.211 287.902 381.162 274.803C351.131 261.686 331.159 228.47 333.102 195.579C314.155 198.098 294.578 200.581 276.945 197.72C267.39 193.222 257.944 190.217 249.253 179.223C242.182 185.844 232.717 197.558 224.063 201.912C223.505 202.182 222.893 202.47 222.299 202.308C221.13 202.002 220.986 200.419 221.094 199.213C222.587 182.606 224.836 166.088 228.039 147.663C208.624 146.619 194.518 127.366 191.279 108.203C187.968 88.5907 193.51 67.2507 207.383 53C226.258 33.6212 259.671 30.7603 281.587 46.6484C303.485 62.5364 311.132 95.1942 298.555 119.161C285.978 143.128 254.759 155.382 229.245 146.385C227.769 144.838 227.571 142.229 228.795 140.483C221.903 142.157 215.192 137.137 210.73 131.613C198.584 116.57 194.698 95.0323 201.589 76.967C208.48 58.9018 226.222 45.2629 245.511 44.0393C264.44 42.8338 283.602 53.8277 292.095 70.7953C300.606 87.745 297.961 109.679 285.672 124.127C273.382 138.576 252.168 144.712 234.355 139.404C230.126 135.787 226.222 131.775 222.713 127.456C229.821 122.112 236.928 116.786 244.053 111.442C244.881 110.83 245.781 110.183 246.806 110.165C247.598 110.165 248.354 110.543 249.055 110.902C256.972 115.041 264.889 119.179 272.806 123.3C270.467 114.807 267.804 106.404 264.835 98.1092C271.403 93.233 277.971 88.3748 284.538 83.4986C275.901 82.2391 267.157 81.7533 258.43 82.0592C255.083 74.0521 251.143 66.297 246.626 58.8658C244.593 66.6209 242.038 74.2501 238.997 81.6633C230.054 82.9768 221.13 84.2723 212.187 85.5858C218.305 89.8502 224.62 93.8088 231.116 97.4794C226.834 106.224 223.613 115.491 222.065 124.271C229.011 130.479 232.555 140.483 240.904 144.604C247.688 147.951 255.731 146.439 263.126 144.856C269.964 160.186 273.562 179.475 279.104 195.111C259.887 195.489 243.387 174.671 248.138 156.048C248.606 154.212 249.307 152.323 250.729 151.063C252.366 149.642 254.633 149.282 256.756 148.868C283.836 143.578 304.457 115.671 301.578 88.2308C298.699 60.7911 272.716 37.7957 245.133 38.2455C244.593 28.7451 244.071 19.2446 249.037 10.122C377.833 7.24309 506.647 4.88597 635.479 3.06865C648.794 2.88872 662.829 2.87072 675.568 10.6618C687.605 17.4633 689.045 33.9091 689.045 47.728C689.045 82.7609 689.045 117.794 689.045 152.827C689.045 160.69 689.099 168.805 690.898 175.228C693.705 183.973 695.451 193.078 696.08 202.236C696.296 205.349 696.404 208.588 697.79 211.395C699.175 214.202 704.051 212.87 707.11 212.187C712.346 211.035 710.457 207.328 709.521 202.056C707.578 191.17 705.059 179.691 699.589 174.221C693.795 168.427 697.898 195.813 700.561 203.568C701.244 205.565 702.018 207.688 703.674 208.984C705.347 210.297 707.632 210.351 709.737 210.675C771.85 220.212 890.57 166.556 783.672 204.791C782.898 227.661 785.903 250.656 792.542 272.554C801.035 268.308 807.711 260.463 816.473 256.054C804.634 239.248 797.778 218.988 796.951 198.458C802.277 195.615 808.268 197.018 814.08 195.363C823.329 220.769 824.48 246.752 842.924 266.526C861.385 254.111 872.576 250.152 872.72 244.466C872.828 240.112 856.455 220.499 848.537 211.665C845.623 208.408 846.468 177.891 838.497 161.374C835.258 154.68 827.269 149.228 819.856 152.449C814.152 151.855 807.909 150.991 804.058 146.745C800.351 142.661 799.956 136.633 799.758 131.127C802.367 131.703 805.174 130.065 806.397 127.69C807.639 125.315 807.477 122.382 806.451 119.899C806.091 119.035 805.623 118.172 804.832 117.65C803.212 116.552 800.873 117.38 799.668 118.891C798.444 120.403 798.048 122.418 797.706 124.325C797.473 119.017 793.712 114.285 788.998 111.838C784.284 109.391 775.521 108.923 770.213 109.373C770.537 118.136 771.652 126.862 773.577 135.409C774.261 138.45 778.975 152.179 784.193 153.115C788.062 153.816 801.665 147.609 799.2 146.097C797.436 145.018 795.403 147.717 793.496 148.544C795.133 150.955 796.105 153.798 795.925 157.289C796.375 158.783 796.987 160.204 797.742 161.571C801.575 157.469 805.156 153.115 808.43 148.562C809.168 149.552 810.284 150.236 811.507 150.452C810.122 154.662 808.071 158.675 805.462 162.273C803.698 164.72 801.503 167.077 798.606 167.923C798.246 166.232 797.868 164.54 797.508 162.849C795.997 163.839 794.504 164.846 792.992 165.836C792.74 165.998 792.47 166.178 792.164 166.16C791.427 166.106 791.319 165.062 791.445 164.324C792.075 160.96 793.172 157.667 794.162 155.724C792.632 162.039 791.121 168.355 789.591 174.671C789.124 176.596 788.638 178.593 787.432 180.194C786.227 181.796 784.14 182.875 782.25 182.3C782.592 179.889 782.754 177.442 782.736 174.994C780.919 176.74 779.065 178.503 776.816 179.637C774.567 180.77 771.832 181.22 769.529 180.23C775.503 168.031 776.888 153.636 773.146 141.743C770.717 133.286 769.475 124.487 769.439 115.689C769.421 112.846 769.565 109.949 770.555 107.286C771.292 105.342 772.48 103.579 773.847 102.014C779.191 95.914 787.63 92.6932 795.691 93.6828C803.752 94.6724 811.147 99.8365 814.872 107.052C817.337 111.856 818.201 117.326 818.561 122.724C818.903 127.762 818.957 133.196 821.925 137.299C824.121 140.357 827.611 142.193 830.49 144.622C835.348 148.706 838.533 154.716 839.217 161.032C839.217 161.032 839.487 162.237 839.307 162.759C837.202 160.078 835.06 157.361 832.307 155.364C829.555 153.367 826.046 152.143 822.717 152.845C820.594 153.295 818.687 154.464 816.941 155.76C812.371 159.124 808.538 163.371 804.094 166.915C798.192 171.63 791.337 175.012 784.553 178.359C778.885 181.148 773.218 183.955 767.55 186.744C764.527 186.906 761.54 187.608 758.589 188.256C746.534 190.865 734.316 192.754 721.865 194.283C717.906 194.553 713.966 195.327 710.205 196.568C709.665 196.748 709.071 196.928 708.568 196.694C708.118 196.478 707.866 196.011 707.65 195.543C704.159 188.04 702.99 179.475 704.339 171.306C701.334 171.738 698.635 169.111 697.646 166.25C696.656 163.389 696.836 160.258 696.476 157.253C696.17 154.662 695.433 152.035 695.9 149.462C696.368 146.889 698.132 137.604 700.111 139.332C702.9 141.779 703.206 151.855 704.213 155.436C705.203 158.908 706.193 162.543 705.527 166.088C705.257 167.491 701.37 179.259 734.406 189.929C736.979 190.757 739.57 191.584 742.251 191.8C744.392 191.962 760.514 187.374 772.804 183.235C773.541 178.251 774.999 166.448 775.737 161.463C763.357 161.715 751.014 173.267 739.084 176.614C739.84 177.819 742.179 176.884 741.891 175.48C730.771 172.835 724.924 166.34 707.398 159.772C707.812 163.209 704.375 166.987 706.427 169.776C706.912 170.442 707.65 170.892 708.37 171.306C716.251 175.948 724.6 180.159 730.879 186.834C731.743 187.752 732.607 188.867 732.445 190.127C732.319 191.134 731.527 191.926 730.897 192.736C727.713 196.874 728.774 203.604 733.057 206.573C738.544 210.369 746.138 207.706 754.127 208.12C763.105 207.958 772.03 205.835 780.109 201.93C782.826 200.617 785.741 199.051 788.71 199.663C791.499 200.239 793.586 202.668 794.612 205.313C795.655 207.958 795.835 210.855 796.195 213.662C797.94 227.625 803.878 240.652 810.392 254.885C800.657 269.549 790.941 284.214 781.908 299.31C779.191 303.844 776.51 308.541 775.503 313.723C774.315 319.858 775.557 326.174 776.798 332.31C780.757 351.85 784.733 376.843 790.707 395.88C791.175 397.355 791.769 398.975 793.136 399.712C794.216 400.288 807.945 397.229 813.972 398.237C816.114 402.915 813.792 409.789 814.17 414.917C814.278 416.5 814.26 418.21 813.289 419.451C812.533 420.405 795.799 422.726 772.66 420.243C770.429 420.009 767.64 419.109 767.496 416.86C767.388 415.331 768.647 414.089 769.817 413.117C781.297 403.563 800.351 398.471 814.836 394.872C812.137 372.992 805.821 349.313 803.122 327.416C802.96 326.048 802.781 324.645 803.158 323.331C803.644 321.64 805.012 320.398 806.199 319.085C822.267 301.451 827.035 303.305 835.888 286.931C839.685 300.983 839.325 322.108 846.306 334.865C849.077 339.921 853.108 344.131 857.156 348.234C871.497 362.7 888.536 369.088 904.55 381.665C911.37 387.027 913.133 390.518 921.5 392.803C923.641 388.611 931.163 386.218 932.89 377.905C914.879 360.991 896.867 344.095 878.874 327.182C877.543 325.94 876.175 324.645 875.383 322.989C874.268 320.668 874.412 317.951 874.574 315.36C875.239 304.69 875.599 294.002 875.617 283.332C875.635 273.436 875.293 263.144 870.831 254.291C869.302 251.268 867.035 248.281 863.742 247.507C861.762 247.04 859.711 247.453 857.714 247.813C841.772 250.728 825.29 250.764 809.33 247.885C808.089 249.846 809.276 252.599 811.255 253.805C813.235 255.011 815.682 255.047 818.003 254.921C830.76 254.219 844.165 249.721 855.879 254.813C858.164 255.802 860.359 257.206 861.708 259.293C863.076 261.416 863.436 264.043 863.742 266.544C865.361 279.391 866.981 292.221 868.834 299.85C869.967 313.831 871.641 329.017 881.411 339.093C886.413 344.257 893.035 347.46 899.279 351.023C909.139 356.655 918.387 363.366 927.744 371.697C930.605 377.275 938.522 378.696 941.473 384.238C942.57 386.29 942.84 388.683 943.002 391.022C943.434 397.445 943.164 403.941 942.193 410.311C941.815 412.83 941.293 415.403 939.979 417.58C937.856 421.125 933.844 423.212 929.777 423.949C925.711 424.705 921.536 424.291 917.416 423.877C915.796 423.716 913.889 423.374 913.169 421.898C912.575 420.675 913.115 419.181 913.943 418.12C915.886 415.601 919.287 414.467 921.032 411.822C924.289 406.856 920.115 399.766 922.688 394.404C924.649 390.302 929.687 388.881 934.131 387.927C934.977 387.747 935.895 387.567 936.669 387.945C937.478 388.341 937.91 389.24 938.216 390.104C941.851 400.342 936.902 411.462 936.291 422.312C936.219 423.662 1040.02 424.885 1056 424.489H1099.5" stroke="black" stroke-width="2" stroke-miterlimit="10" stroke-linecap="round" stroke-linejoin="round"/>
</svg>
