<svg width="137" height="41" viewBox="0 0 137 41" fill="none" xmlns="http://www.w3.org/2000/svg">
<g clip-path="url(#clip0_7573_166)">
<path opacity="0.99" fill-rule="evenodd" clip-rule="evenodd" d="M20.1636 0.391607C20.3099 3.14863 21.403 5.44204 23.4429 7.27178C21.5975 6.89002 19.7328 6.72927 17.8488 6.78952C16.1409 6.84534 14.7155 7.49908 13.5728 8.75069C12.1456 10.9464 12.167 13.1327 13.6371 15.3094C14.6367 16.4252 15.8906 17.0147 17.3987 17.0776C19.8247 17.0241 22.2252 17.2385 24.6004 17.7206C31.5914 19.4958 34.6457 23.9647 33.7632 31.1273C32.5386 35.8242 29.57 38.7498 24.8576 39.9044C23.2583 40.2808 21.6508 40.3987 20.035 40.258C20.1138 40.2161 20.1567 40.1411 20.1636 40.033C20.0511 38.4737 19.5902 37.027 18.7811 35.6927C18.4187 35.1273 18.0221 34.5915 17.5916 34.0852C19.2924 34.3674 21.0071 34.4638 22.7356 34.3745C25.9098 33.7946 27.4423 31.8977 27.3331 28.6839C27.0418 26.528 25.8737 25.0812 23.8287 24.3436C23.1161 24.0905 22.3873 23.8975 21.6425 23.7649C19.8023 23.4867 17.959 23.2295 16.1127 22.9933C10.0583 22.2331 6.78971 18.8145 6.30681 12.7373C6.15146 7.71944 8.26265 4.02215 12.6404 1.64547C15.0327 0.546572 17.5404 0.128618 20.1636 0.391607Z" fill="#0190BF"></path>
<path opacity="0.992" fill-rule="evenodd" clip-rule="evenodd" d="M20.1621 0.391702C20.5936 0.378006 21.0223 0.399418 21.4481 0.456003C21.6439 0.553161 21.8582 0.59605 22.0911 0.584604C24.2285 1.25224 26.0396 2.43106 27.5245 4.12114C29.237 6.15073 30.6087 8.40125 31.6398 10.8727C32.4812 12.8717 33.1349 14.9293 33.6009 17.0456C32.1731 12.8849 29.3867 10.0449 25.2419 8.52573C24.5813 8.18558 23.9812 7.76763 23.4414 7.27187C21.4015 5.44213 20.3084 3.14872 20.1621 0.391702Z" fill="#44C7F4"></path>
<path opacity="0.983" fill-rule="evenodd" clip-rule="evenodd" d="M21.4492 0.456055C28.0949 1.05559 33.2711 4.0992 36.9778 9.58675C40.4967 15.3786 41.0969 21.4657 38.7782 27.8481C37.4477 31.1961 35.3686 33.9824 32.5411 36.2072C32.5208 36.1167 32.5422 36.031 32.6054 35.95C33.5943 34.5083 34.398 32.9651 35.0167 31.3204C36.5106 27.3863 37.0571 23.314 36.6563 19.1032C36.1934 14.0868 34.3716 9.65002 31.1908 5.79301C29.1807 3.47439 26.7052 1.85614 23.764 0.93831C23.2096 0.799613 22.6524 0.681686 22.0922 0.584656C21.8593 0.596102 21.6449 0.553213 21.4492 0.456055Z" fill="#D4EEF7"></path>
<path opacity="0.994" fill-rule="evenodd" clip-rule="evenodd" d="M22.0918 0.584961C22.652 0.681991 23.2092 0.799918 23.7636 0.938615C26.7047 1.85644 29.1803 3.4747 31.1903 5.79331C34.3712 9.65032 36.193 14.0871 36.6559 19.1035C37.0567 23.3143 36.5101 27.3866 35.0162 31.3207C35.1387 26.5017 34.6672 21.7434 33.6016 17.0459C33.1356 14.9297 32.4818 12.872 31.6404 10.8731C30.6094 8.40161 29.2377 6.15108 27.5252 4.1215C26.0403 2.43142 24.2292 1.25259 22.0918 0.584961Z" fill="#8AD6F5"></path>
<path opacity="0.983" fill-rule="evenodd" clip-rule="evenodd" d="M5.30961 9.32923C4.44239 11.4263 3.89583 13.6126 3.66994 15.8879C3.08317 21.4416 4.11198 26.6714 6.75637 31.5773C8.65909 34.9375 11.349 37.4559 14.8261 39.1326C15.8775 39.5937 16.9706 39.9045 18.1054 40.0649C18.3129 40.0763 18.5058 40.1192 18.6841 40.1935C12.1348 39.5644 7.0229 36.5423 3.34844 31.1272C0.125863 25.9089 -0.667178 20.3362 0.969311 14.409C2.20591 10.3687 4.47787 7.04656 7.78518 4.44238C7.27586 5.33089 6.76145 6.2311 6.24197 7.14301C5.87723 7.85077 5.56645 8.57955 5.30961 9.32923Z" fill="#D4EEF7"></path>
<path opacity="0.993" fill-rule="evenodd" clip-rule="evenodd" d="M5.30927 9.3291C5.1526 14.1925 5.62414 18.9937 6.72388 23.7324C7.58679 27.6862 9.11934 31.3514 11.3214 34.7279C12.541 36.5263 14.0735 37.9945 15.9189 39.1325C16.6317 39.5001 17.3604 39.8109 18.1051 40.0648C16.9703 39.9043 15.8771 39.5936 14.8258 39.1325C11.3487 37.4558 8.65875 34.9374 6.75603 31.5771C4.11164 26.6713 3.08283 21.4415 3.6696 15.8878C3.89549 13.6124 4.44205 11.4262 5.30927 9.3291Z" fill="#8AD6F5"></path>
<path opacity="0.968" fill-rule="evenodd" clip-rule="evenodd" d="M52.2502 14.2161C53.8536 14.068 55.2147 14.561 56.3333 15.695C56.8297 16.3376 57.0761 17.0663 57.0727 17.8812C56.3654 17.8812 55.6581 17.8812 54.9508 17.8812C54.8473 16.5247 54.1079 15.8817 52.7324 15.9522C52.2141 15.9237 51.7318 16.0416 51.2857 16.3059C50.6628 16.8673 50.5448 17.521 50.932 18.267C51.3471 18.6623 51.8293 18.9517 52.3788 19.1351C53.4307 19.4071 54.4381 19.7929 55.4009 20.2925C56.8772 21.2266 57.3809 22.5448 56.912 24.247C56.447 25.2683 55.6647 25.9221 54.565 26.2082C52.7075 26.6828 50.9928 26.3828 49.4209 25.3079C48.6115 24.6061 48.2043 23.7166 48.1992 22.6395C48.9065 22.6395 49.6138 22.6395 50.3211 22.6395C50.3831 23.7842 50.9832 24.4594 52.1216 24.6649C52.7531 24.7366 53.3747 24.6937 53.9863 24.5363C54.8441 24.1385 55.1335 23.4848 54.8543 22.5752C54.7426 22.3346 54.5818 22.131 54.3721 21.9643C53.9891 21.7222 53.5819 21.5293 53.1504 21.3856C52.122 21.1071 51.136 20.7213 50.1925 20.2282C48.6961 19.2757 48.2354 17.9575 48.8101 16.2737C49.213 15.5302 49.8024 14.9836 50.5783 14.634C51.1246 14.4159 51.6819 14.2765 52.2502 14.2161Z" fill="#0190BF"></path>
<path opacity="0.966" fill-rule="evenodd" clip-rule="evenodd" d="M72.6304 14.2161C74.2341 14.068 75.5947 14.561 76.7135 15.695C77.298 16.474 77.6092 17.3527 77.6459 18.3313C76.9585 18.3527 76.2731 18.3313 75.5882 18.267C75.3079 16.4002 74.236 15.6608 72.3732 16.0487C71.5817 16.2831 71.0351 16.7868 70.7335 17.5597C70.4326 18.4568 70.3143 19.3785 70.3799 20.3246C70.2616 21.5654 70.5079 22.7228 71.1194 23.7969C71.7392 24.518 72.5217 24.8073 73.4663 24.6649C74.3948 24.6033 75.0269 24.1425 75.3632 23.2825C75.4584 22.9867 75.5336 22.6866 75.5882 22.3823C76.2731 22.318 76.9585 22.2966 77.6459 22.318C77.5494 24.1948 76.628 25.4701 74.8809 26.1439C73.2805 26.629 71.7585 26.4575 70.3156 25.6295C69.092 24.6286 68.4168 23.3319 68.2901 21.7393C68.247 20.7962 68.247 19.8531 68.2901 18.91C68.4155 17.2548 69.1331 15.9366 70.4442 14.9555C71.1316 14.5585 71.8601 14.3121 72.6304 14.2161Z" fill="#0190BF"></path>
<path opacity="0.969" fill-rule="evenodd" clip-rule="evenodd" d="M83.4994 14.2158C86.7112 14.2228 88.5013 15.8303 88.8685 19.0384C88.9251 20.0481 88.9039 21.0554 88.8042 22.0605C88.194 25.2002 86.2971 26.6256 83.1136 26.3365C81.3093 25.9898 80.0985 24.9502 79.4806 23.2179C79.0292 21.6321 78.9431 20.0245 79.2234 18.3954C79.6954 16.0049 81.1209 14.6117 83.4994 14.2158ZM83.4351 16.0162C84.8459 15.848 85.8425 16.4052 86.4251 17.6881C86.5826 18.1262 86.69 18.5763 86.7466 19.0384C86.7897 19.8957 86.7897 20.7531 86.7466 21.6104C86.6771 22.5271 86.3447 23.3309 85.7499 24.0217C85.0748 24.5763 84.3032 24.7692 83.4351 24.6004C82.6821 24.4051 82.1144 23.9657 81.7311 23.2822C81.5164 22.8315 81.3665 22.36 81.281 21.8676C81.1846 21.0125 81.1634 20.1551 81.2167 19.2956C81.2695 18.2794 81.6231 17.3899 82.2777 16.6271C82.6236 16.3365 83.0094 16.1329 83.4351 16.0162Z" fill="#0190BF"></path>
<path opacity="0.98" fill-rule="evenodd" clip-rule="evenodd" d="M59.2578 14.4092C61.8298 14.4092 64.4019 14.4092 66.9739 14.4092C66.9739 14.9665 66.9739 15.5237 66.9739 16.081C65.1092 16.081 63.2445 16.081 61.3797 16.081C61.3797 17.1527 61.3797 18.2243 61.3797 19.296C62.9873 19.296 64.5948 19.296 66.2023 19.296C66.2023 19.8533 66.2023 20.4106 66.2023 20.9678C64.5948 20.9678 62.9873 20.9678 61.3797 20.9678C61.3797 22.1681 61.3797 23.3684 61.3797 24.5687C63.2659 24.5687 65.1523 24.5687 67.0382 24.5687C67.0382 25.126 67.0382 25.6832 67.0382 26.2405C64.4449 26.2405 61.8513 26.2405 59.2578 26.2405C59.2578 22.2967 59.2578 18.3529 59.2578 14.4092Z" fill="#0190BF"></path>
<path opacity="0.973" fill-rule="evenodd" clip-rule="evenodd" d="M90.8945 14.4091C91.816 14.4091 92.738 14.4091 93.6595 14.4091C94.7564 17.3885 95.8598 20.3678 96.9709 23.3469C98.0853 20.389 99.2002 17.4312 100.315 14.4734C101.221 14.4097 102.131 14.3882 103.047 14.4091C103.047 18.3528 103.047 22.2966 103.047 26.2404C102.34 26.2404 101.633 26.2404 100.925 26.2404C100.925 23.3237 100.978 20.4088 101.086 17.4955C99.9629 20.4052 98.8588 23.3202 97.7747 26.2404C97.2391 26.2404 96.7028 26.2404 96.1672 26.2404C95.0831 23.3202 93.979 20.4052 92.8557 17.4955C92.9669 20.4086 93.0203 23.3236 93.0165 26.2404C92.3091 26.2404 91.6018 26.2404 90.8945 26.2404C90.8945 22.2966 90.8945 18.3528 90.8945 14.4091Z" fill="#0190BF"></path>
<path opacity="0.975" fill-rule="evenodd" clip-rule="evenodd" d="M108.964 14.4092C109.607 14.4092 110.25 14.4092 110.893 14.4092C112.353 18.3365 113.832 22.2589 115.33 26.1762C114.581 26.2404 113.831 26.2618 113.079 26.2405C112.779 25.3189 112.479 24.3972 112.179 23.4756C110.678 23.4648 109.178 23.4756 107.678 23.5077C107.351 24.3937 107.029 25.2832 106.714 26.1762C105.986 26.2404 105.257 26.2618 104.527 26.2405C105.97 22.2831 107.449 18.3392 108.964 14.4092ZM109.864 17.0455C110.458 18.613 111.016 20.1991 111.536 21.8038C110.442 21.8252 109.349 21.8037 108.257 21.7395C108.832 20.1869 109.367 18.6223 109.864 17.0455Z" fill="#0190BF"></path>
<path opacity="0.985" fill-rule="evenodd" clip-rule="evenodd" d="M116.613 14.4093C118.392 14.3986 120.172 14.4093 121.95 14.4415C124.138 14.7538 125.317 16.0076 125.487 18.203C125.396 20.2367 124.346 21.4263 122.336 21.7717C121.117 21.8621 119.895 21.8943 118.671 21.8682C118.671 23.3257 118.671 24.7831 118.671 26.2406C117.985 26.2406 117.299 26.2406 116.613 26.2406C116.613 22.2969 116.613 18.3531 116.613 14.4093ZM118.671 16.0811C119.55 16.0704 120.429 16.0811 121.307 16.1133C122.549 16.2406 123.235 16.9265 123.365 18.1709C123.326 19.2374 122.79 19.8805 121.757 20.0999C120.729 20.1321 119.7 20.1428 118.671 20.1321C118.671 18.7817 118.671 17.4314 118.671 16.0811Z" fill="#0190BF"></path>
<path opacity="0.974" fill-rule="evenodd" clip-rule="evenodd" d="M127.16 14.4093C128.961 14.3986 130.761 14.4093 132.561 14.4415C135.38 14.9876 136.484 16.6702 135.873 19.4891C135.353 20.8221 134.378 21.5829 132.947 21.7717C131.728 21.8621 130.506 21.8943 129.282 21.8682C129.282 23.3257 129.282 24.7831 129.282 26.2406C128.575 26.2406 127.867 26.2406 127.16 26.2406C127.16 22.2969 127.16 18.3531 127.16 14.4093ZM129.282 16.0811C130.161 16.0704 131.04 16.0811 131.918 16.1133C133.449 16.3154 134.103 17.1835 133.88 18.7174C133.664 19.4898 133.161 19.9507 132.369 20.0999C131.34 20.1321 130.311 20.1428 129.282 20.1321C129.282 18.7817 129.282 17.4314 129.282 16.0811Z" fill="#0190BF"></path>
<path opacity="0.991" fill-rule="evenodd" clip-rule="evenodd" d="M6.72461 23.7324C7.83007 26.9282 9.84486 29.3823 12.7689 31.0948C13.8008 31.5388 14.8082 32.0318 15.791 32.5738C16.1125 32.8096 16.434 33.0453 16.7555 33.2811C17.0257 33.5621 17.3044 33.83 17.5914 34.0848C18.022 34.5911 18.4185 35.1269 18.781 35.6923C19.5901 37.0266 20.0509 38.4734 20.1634 40.0326C20.1565 40.1407 20.1136 40.2158 20.0348 40.2577C19.5727 40.2786 19.1226 40.2571 18.6845 40.1934C18.5062 40.119 18.3133 40.0761 18.1058 40.0648C17.3612 39.8109 16.6324 39.5 15.9196 39.1324C14.0742 37.9944 12.5418 36.5263 11.3221 34.7278C9.12007 31.3513 7.58752 27.6862 6.72461 23.7324Z" fill="#44C8F4"></path>
</g>
<defs>
<clipPath id="clip0_7573_166">
<rect width="135.893" height="40" fill="white" transform="translate(0.142578 0.31543)"></rect>
</clipPath>
</defs>
</svg>