<svg xmlns="http://www.w3.org/2000/svg" width="36" height="36" viewBox="0 0 36 36" fill="none">
  <path d="M32.2173 8.26197L18.6131 0.168645C18.235 -0.0562149 17.7641 -0.0562149 17.3861 0.168645L3.78179 8.26197C3.4182 8.47832 3.19531 8.87024 3.19531 9.29331V13.9133C3.19531 23.6442 8.8175 32.5318 17.5663 35.919C17.8448 36.0269 18.154 36.027 18.4328 35.919C27.1603 32.5402 32.8037 23.6719 32.8037 13.9133V9.29331C32.8038 8.87017 32.5809 8.47832 32.2173 8.26197ZM23.9281 15.3035L16.4071 22.8245C15.9385 23.2932 15.1787 23.2932 14.71 22.8245L12.0705 20.1851C11.6019 19.7165 11.6019 18.9566 12.0705 18.488C12.5391 18.0194 13.299 18.0194 13.7676 18.488L15.5585 20.2789L22.231 13.6064C22.6996 13.1379 23.4594 13.1379 23.9281 13.6064C24.3968 14.0751 24.3968 14.8349 23.9281 15.3035Z" fill="#49A3C9"></path>
</svg>