<svg width="205" height="42" viewBox="0 0 205 42" fill="none" xmlns="http://www.w3.org/2000/svg">
<path d="M159.049 15.9287C156.462 15.9287 154.318 16.8477 152.786 18.5494L153.092 17.0178C153.194 16.5413 152.854 16.1329 152.378 16.1329C151.901 16.1329 151.391 16.5413 151.323 17.0178L146.83 40.3323C146.728 40.8088 147.068 41.2172 147.545 41.2172C148.021 41.2172 148.532 40.8088 148.6 40.3323L150.267 31.6532C150.88 32.7763 152.31 34.2739 155.509 34.2739C158.028 34.2739 160.104 33.4911 161.737 31.9935C163.439 30.4279 164.596 28.0794 165.175 25.0502C165.754 22.0211 165.515 19.7066 164.426 18.141C163.371 16.6775 161.567 15.9287 159.049 15.9287ZM155.815 32.6742C152.003 32.6742 150.506 30.0535 151.459 25.0843C152.412 20.081 154.828 17.5284 158.606 17.5284C162.759 17.5284 164.29 20.013 163.303 25.0843C162.316 30.2917 159.934 32.6742 155.815 32.6742ZM197.815 24.1313C195.569 23.2804 193.425 22.4976 193.833 20.3874C194.037 19.3323 194.888 17.5624 198.36 17.5624C200.3 17.5624 201.525 18.107 202.58 19.4344C202.784 19.6726 203.023 19.6726 203.091 19.6726C203.567 19.6386 203.976 19.2982 204.078 18.8558C204.112 18.6515 204.078 18.4473 203.976 18.2771V18.2431C202.887 16.7115 201.117 15.9287 198.666 15.9287C195.126 15.9287 192.574 17.6305 192.063 20.3874C191.417 23.6888 194.344 24.778 196.93 25.765C199.143 26.6159 201.253 27.3987 200.878 29.4068C200.334 32.2658 197.339 32.6742 195.603 32.6742C193.22 32.6742 191.757 32.0275 190.668 30.4959C190.532 30.3258 190.361 30.2577 190.157 30.2577C189.681 30.2917 189.272 30.6321 189.17 31.0746C189.136 31.2788 189.17 31.483 189.272 31.6532C189.987 32.9806 192.131 34.342 195.297 34.342C199.313 34.342 202.07 32.5041 202.648 29.4408C203.261 26.1394 200.368 25.0502 197.815 24.1313ZM192.438 11.2998H190.566L190.94 9.42787C191.042 8.95137 190.702 8.54294 190.225 8.54294C189.749 8.54294 189.272 8.95137 189.17 9.42787L188.796 11.2998H186.924C186.447 11.2998 185.971 11.7083 185.869 12.1848C185.767 12.6613 186.107 13.0697 186.583 13.0697H188.455L188.081 14.9417C187.979 15.4182 188.319 15.8266 188.796 15.8266C189.272 15.8266 189.749 15.4182 189.851 14.9417L190.225 13.0697H192.097C192.574 13.0697 193.05 12.6613 193.152 12.1848C193.254 11.8104 193.016 11.4019 192.608 11.2998C192.574 11.3339 192.506 11.2998 192.438 11.2998ZM43.1572 29.4068C44.0762 29.8833 45.7099 30.53 47.2755 30.4959C48.705 30.4959 49.4538 29.7131 49.4538 28.7942C49.4538 27.8752 48.9092 27.2626 47.3776 26.3776C45.4716 25.2885 44.0421 23.7569 44.0421 21.7488C44.0421 18.2091 47.0713 15.6904 51.4959 15.6904C53.436 15.6904 54.9335 16.0648 55.7504 16.5413L54.5932 20.1151C53.6062 19.6726 52.5511 19.4344 51.4619 19.4344C50.0324 19.4344 49.1135 20.081 49.1135 21.1021C49.1135 21.919 49.7601 22.4976 51.0535 23.1783C53.0276 24.3015 54.6613 25.8331 54.6613 28.0113C54.6613 32.0276 51.3938 34.3079 46.8671 34.2739C44.7909 34.2399 42.8509 33.6953 41.8979 33.0146C41.9319 33.0146 43.1572 29.4068 43.1572 29.4068ZM55.6823 34.1378L60.5835 8.54294H65.6207L63.6807 18.4473L63.7488 18.3793C65.1102 16.7796 66.846 15.6564 69.0924 15.6564C71.7131 15.6564 73.2107 17.3582 73.2107 20.1831C73.2107 21.0681 73.0746 22.4635 72.8363 23.5867L70.8622 34.1037H65.825L67.731 23.893C67.8671 23.2123 67.9352 22.2934 67.9352 21.6126C67.9352 20.5235 67.4927 19.7066 66.3695 19.7066C64.7699 19.7066 63.034 21.8509 62.3874 25.1864L60.7196 34.1037L55.6823 34.1378ZM91.4538 22.7018C91.4538 28.9643 87.4376 34.2739 81.4814 34.2739C76.9546 34.2739 74.5381 31.1426 74.5381 27.2285C74.5381 21.1361 78.5543 15.6564 84.6126 15.6564C89.3436 15.6564 91.4538 19.094 91.4538 22.7018ZM79.7115 27.1264C79.7115 28.9643 80.4263 30.4279 82.1621 30.4279C84.8169 30.4279 86.3144 25.6629 86.3144 22.5656C86.3144 21.0681 85.7358 19.5365 83.9319 19.5365C81.2091 19.5024 79.7115 24.2334 79.7115 27.1264ZM90.2626 41.2512L93.7682 22.8039C94.1767 20.7277 94.5851 18.0389 94.7893 16.1329H99.248L98.9417 18.9919H99.0097C100.371 17.0859 102.345 15.8266 104.353 15.8266C108.029 15.8266 109.527 18.7877 109.527 22.1572C109.527 28.2836 105.647 34.342 99.7245 34.342C98.4992 34.342 97.342 34.1378 96.7634 33.6613H96.6613L95.2658 41.2512H90.2626ZM97.4441 29.7472C97.9887 30.1896 98.6013 30.4619 99.5203 30.4619C102.345 30.4619 104.285 25.8331 104.285 22.5656C104.285 21.2042 103.809 19.7747 102.277 19.7747C100.507 19.7747 98.8736 21.8509 98.295 25.0162L97.4441 29.7472ZM109.697 34.1378L113.1 16.1329H118.172L114.734 34.1378H109.697ZM116.232 14.2609C114.802 14.2609 113.849 13.0357 113.849 11.5381C113.849 9.90437 115.143 8.50891 116.742 8.50891C118.274 8.50891 119.261 9.70016 119.261 11.1637C119.227 13.0357 117.865 14.2269 116.3 14.2269C116.3 14.2609 116.232 14.2609 116.232 14.2609ZM119.125 34.1378L121.78 19.9109H119.431L120.146 16.1329H122.494L122.63 15.2139C123.039 13.1037 123.822 10.9254 125.558 9.49595C126.919 8.33873 128.689 7.79416 130.493 7.79416C131.718 7.79416 132.637 7.96434 133.216 8.23662L132.229 12.1848C131.718 12.0146 131.173 11.9125 130.629 11.9125C128.961 11.9125 127.94 13.5122 127.634 15.248L127.464 16.1669H130.969L130.288 19.9449H126.817L124.162 34.1718L119.125 34.1378ZM137.266 16.1329L138.083 24.1993C138.253 25.6288 138.389 27.0243 138.525 28.4538H138.593C139.002 27.5008 139.376 26.1054 140.091 24.1653L143.154 16.1329H148.429L142.269 29.3047C140.091 33.8314 137.947 37.1329 135.666 39.2771C133.862 40.9449 131.752 41.7958 130.731 42L129.335 37.7115C130.186 37.4052 131.241 36.9627 132.194 36.282C133.352 35.4651 134.339 34.376 134.951 33.2528C135.088 32.9805 135.122 32.8104 135.053 32.47L132.024 16.0989C131.956 16.1329 137.266 16.1329 137.266 16.1329ZM188.319 17.8347C187.843 17.8347 187.366 18.2431 187.264 18.7196L185.562 27.5689C184.643 32.0616 181.887 32.6742 179.266 32.6742C174.603 32.6742 174.467 30.0195 174.977 27.3987L176.985 17.0178C177.088 16.5413 176.747 16.1329 176.271 16.1329C175.794 16.1329 175.318 16.5413 175.216 17.0178L173.207 27.3987C172.799 29.5089 172.935 31.0405 173.65 32.1637C174.535 33.5592 176.305 34.2739 178.959 34.2739C181.614 34.2739 183.656 33.5592 185.086 32.1637C186.209 31.0405 186.958 29.4749 187.366 27.3987L189.034 18.6856C189.136 18.2431 188.796 17.8347 188.319 17.8347ZM172.22 8.57698C171.744 8.57698 171.233 8.98541 171.165 9.46191L166.605 33.1848C166.502 33.6613 166.843 34.0697 167.319 34.0697C167.796 34.0697 168.272 33.6613 168.374 33.1848L172.935 9.46191C173.037 8.98541 172.697 8.57698 172.22 8.57698ZM24.6759 4.83306L23.4506 5.20745C23.3144 4.69692 23.1102 4.22042 22.872 3.74392C21.987 2.07618 20.7277 1.19125 19.1961 1.19125C19.094 1.19125 18.9919 1.19124 18.8898 1.22528C18.8558 1.1572 18.7877 1.12317 18.7536 1.0551C18.0729 0.340348 17.222 0 16.201 0C14.1929 0.0680713 12.2188 1.49757 10.6191 4.05024C9.49595 5.85413 8.61102 8.10049 8.37277 9.87034L4.45867 11.0956C3.30146 11.47 3.26742 11.5041 3.13128 12.5932C3.02917 13.41 0 36.7925 0 36.7925L25.0843 41.1151V4.79902C24.8801 4.79902 24.778 4.79902 24.6759 4.83306ZM18.8898 6.63695L14.6694 7.96434C15.0778 6.3987 15.8606 4.83306 16.8136 3.81199C17.154 3.4376 17.6645 2.99513 18.2431 2.75688C18.7877 3.91409 18.8898 5.51378 18.8898 6.63695ZM16.1669 1.36143C16.5754 1.32739 17.0178 1.46353 17.3582 1.66775C16.7796 1.97407 16.269 2.38249 15.8266 2.85899C14.5673 4.22042 13.5802 6.33062 13.2058 8.37276L9.70016 9.46191C10.4149 6.26256 13.0697 1.46353 16.1669 1.36143ZM12.2869 19.6045C12.423 21.7488 18.0389 22.1912 18.3452 27.1945C18.5835 31.1426 16.269 33.8314 12.8995 34.0357C8.84927 34.3079 6.63695 31.9254 6.63695 31.9254L7.48784 28.2836C7.48784 28.2836 9.7342 29.9854 11.5041 29.8493C12.6613 29.7812 13.1037 28.8282 13.0357 28.1475C12.8655 25.3566 8.3047 25.5267 7.99838 20.966C7.76013 17.1199 10.2788 13.2058 15.8606 12.8655C18.0049 12.7293 19.094 13.2739 19.094 13.2739L17.8347 18.0389C17.8347 18.0389 16.4052 17.3922 14.7374 17.4943C12.2869 17.6645 12.2528 19.2301 12.2869 19.6045ZM20.2172 6.22852C20.2172 5.20745 20.081 3.81199 19.6045 2.5867C21.1021 2.85899 21.8509 4.59481 22.1912 5.61588C22.1572 5.61588 20.2172 6.22852 20.2172 6.22852ZM25.799 41.047L36.2139 38.4603C36.2139 38.4603 31.7212 8.16856 31.7212 7.96434C31.6872 7.79416 31.5511 7.65802 31.3468 7.62399C31.2107 7.62399 28.2836 7.55591 28.2836 7.55591C28.2836 7.55591 26.5138 5.82009 25.8331 5.17341V41.047H25.799Z" fill="black"/>
</svg>
