<svg width="115" height="47" viewBox="0 0 115 47" fill="none" xmlns="http://www.w3.org/2000/svg">
<g clip-path="url(#clip0_6887_45)">
<path fill-rule="evenodd" clip-rule="evenodd" d="M33.2378 22.3347C33.9394 22.6961 35.2023 23.1957 36.4096 23.1681C37.5041 23.1681 38.0936 22.584 38.0936 21.8628C38.0936 21.1685 37.6725 20.6965 36.4932 20.0298C35.0341 19.1964 33.9394 18.0294 33.9394 16.5017C33.9394 13.8068 36.2692 11.89 39.6648 11.89C41.1528 11.89 42.303 12.1679 42.9205 12.5293L42.0227 15.2517C41.4892 15.0016 40.6194 14.7238 39.6092 14.7238C38.5143 14.7238 37.8128 15.2241 37.8128 16.0014C37.8128 16.6121 38.3183 17.0572 39.3005 17.5851C40.8161 18.4461 42.079 19.6131 42.079 21.2521C42.079 24.3076 39.5812 26.0302 36.1009 26.0025C34.5007 25.9749 33.0129 25.5575 32.2842 25.0579L33.2378 22.3347Z" fill="black"/>
<path fill-rule="evenodd" clip-rule="evenodd" d="M42.8652 25.9271L46.6263 6.47607H50.4998L49.0118 14.0164L49.0678 13.9668C50.1056 12.7445 51.4532 11.9007 53.1649 11.9007C55.1863 11.9007 56.3369 13.1871 56.3369 15.354C56.3369 16.0208 56.2242 17.0986 56.0562 17.9327L54.5405 25.9279H50.6671L52.126 18.1724C52.2376 17.6445 52.2951 16.9613 52.2951 16.4343C52.2951 15.6009 51.9587 14.9959 51.0881 14.9959C49.8529 14.9959 48.5336 16.6284 48.0289 19.1568L46.7372 25.9279H42.8652V25.9271Z" fill="black"/>
<path fill-rule="evenodd" clip-rule="evenodd" d="M61.3063 20.5854C61.3063 21.9742 61.8674 23.0852 63.1871 23.0852C65.2354 23.0852 66.3867 19.4735 66.3867 17.1125C66.3867 15.9738 65.9369 14.8074 64.5623 14.8074C62.4569 14.8067 61.3063 18.39 61.3063 20.5854ZM70.3438 17.2237C70.3438 21.9742 67.2558 26.0302 62.6809 26.0302C59.2005 26.0302 57.3481 23.6407 57.3481 20.6682C57.3481 16.0289 60.4365 11.8617 65.0951 11.8617C68.7165 11.8625 70.3438 14.4737 70.3438 17.2237Z" fill="black"/>
<path fill-rule="evenodd" clip-rule="evenodd" d="M74.9482 22.5849C75.3692 22.9179 75.846 23.1404 76.5485 23.1404C78.71 23.1404 80.1976 19.6123 80.1976 17.14C80.1976 16.1127 79.8325 15.0291 78.654 15.0291C77.3063 15.0291 76.0438 16.6129 75.5947 19.0015L74.9482 22.5849ZM69.418 31.3306L72.1118 17.3123C72.4212 15.7285 72.7292 13.6801 72.8983 12.2385H76.3227L76.098 14.3998H76.1536C77.1918 12.9589 78.7082 11.9916 80.2511 11.9916C83.0852 11.9916 84.2365 14.2324 84.2365 16.816C84.2365 21.4836 81.262 26.0805 76.7147 26.0805C75.7605 26.0805 74.8907 25.927 74.4409 25.5673H74.3565L73.2896 31.3306H69.418Z" fill="black"/>
<path fill-rule="evenodd" clip-rule="evenodd" d="M89.3754 10.7985C88.2809 10.7985 87.5514 9.87181 87.5514 8.73315C87.5514 7.48319 88.5336 6.43628 89.7685 6.43628C90.9471 6.43628 91.7053 7.35406 91.7053 8.46512C91.6776 9.88155 90.6387 10.7993 89.4322 10.7993L89.3754 10.7985ZM84.3511 25.927L86.9613 12.2393H90.8627L88.2242 25.927H84.3511Z" fill="black"/>
<path fill-rule="evenodd" clip-rule="evenodd" d="M91.5918 25.9271L93.6413 15.121H91.8445L92.406 12.2394H94.2023L94.3147 11.5506C94.6242 9.93924 95.2405 8.3027 96.5602 7.19161C97.598 6.3031 98.9736 5.90106 100.35 5.90106C101.304 5.90106 102.006 6.03426 102.455 6.22837L101.697 9.22532C101.361 9.11488 100.967 9.02961 100.462 9.02961C99.1703 9.02961 98.3842 10.2454 98.1602 11.5514L98.0198 12.2394H100.714L100.181 15.121H97.5143L95.4652 25.9271H91.5918Z" fill="black"/>
<path fill-rule="evenodd" clip-rule="evenodd" d="M105.515 12.2393L106.132 18.3664C106.301 19.7276 106.413 20.8842 106.468 21.6046H106.524C106.834 20.8842 107.114 19.8105 107.676 18.3388L110.033 12.2401H114.075L109.332 22.2608C107.648 25.7053 106.02 28.2157 104.251 29.8547C102.876 31.1323 101.248 31.7626 100.461 31.9291L99.3945 28.6738C100.04 28.4513 100.854 28.1159 101.584 27.5888C102.482 26.978 103.24 26.1431 103.689 25.2822C103.801 25.088 103.829 24.9566 103.773 24.6787L101.444 12.241L105.515 12.2393Z" fill="black"/>
<path fill-rule="evenodd" clip-rule="evenodd" d="M15.5992 4.69742C15.5877 3.92989 15.495 2.86269 15.1339 1.94005C16.296 2.15772 16.8679 3.45884 17.1092 4.23447C16.6619 4.37175 16.1523 4.52767 15.5992 4.69742ZM9.51676 14.8773C9.62018 16.4992 13.9317 16.8533 14.1738 20.6527C14.3642 23.6416 12.572 25.6859 9.98946 25.8474C6.88996 26.0408 5.18389 24.2312 5.18389 24.2312L5.8404 21.4657C5.8404 21.4657 7.55796 22.7482 8.93251 22.662C9.83025 22.606 10.1511 21.8832 10.1191 21.3715C9.98455 19.2557 6.47389 19.38 6.25153 15.9038C6.06524 12.9784 8.006 10.0139 12.2897 9.74593C13.9399 9.6428 14.7852 10.0595 14.7852 10.0595L13.8053 13.6859C13.8053 13.6859 12.7131 13.1936 11.4173 13.2741C9.5176 13.3951 9.49709 14.5808 9.51676 14.8773ZM12.4956 1.01011C12.8551 1.0028 13.1579 1.08077 13.4164 1.24889C13.0028 1.46168 12.6023 1.76707 12.2273 2.16503C11.2549 3.19732 10.5097 4.80058 10.2127 6.34695C9.28535 6.63124 8.37858 6.90891 7.5448 7.16484C8.07084 4.73073 10.1323 1.07752 12.4956 1.01011ZM14.5817 5.00931C13.5624 5.32189 12.4497 5.66309 11.3328 6.00502C11.6471 4.8152 12.2421 3.63021 12.9732 2.85376C13.2449 2.56463 13.6256 2.243 14.0761 2.05864C14.5004 2.93255 14.5915 4.17193 14.5817 5.00931ZM19.0295 3.6456C19.027 3.64644 18.6766 3.75364 18.0841 3.93556C17.9856 3.61792 17.8395 3.22726 17.6319 2.83497C16.9623 1.57049 15.9808 0.900436 14.7959 0.898731H14.7917C14.7097 0.898731 14.6276 0.90604 14.5456 0.913433C14.5111 0.871931 14.4758 0.830589 14.438 0.791604C13.9219 0.245006 13.2588 -0.0214715 12.4661 0.00135087C10.9348 0.0452087 9.41007 1.13914 8.17422 3.08277C7.30356 4.4504 6.64295 6.16905 6.45502 7.49862C4.69724 8.03709 3.46713 8.41476 3.44088 8.42287C2.55378 8.69822 2.52588 8.72582 2.40935 9.55342C2.32155 10.1796 0 27.9494 0 27.9494L19.2633 31.2468V3.60655C19.1681 3.61305 19.0828 3.6301 19.0295 3.6456Z" fill="black"/>
<path fill-rule="evenodd" clip-rule="evenodd" d="M19.8999 31.1721L27.8911 29.2059C27.8911 29.2059 24.4503 6.18211 24.4289 6.02371C24.4068 5.86614 24.2673 5.77843 24.1524 5.76869C24.0375 5.75894 21.7874 5.72563 21.7874 5.72563C21.7874 5.72563 20.4153 4.40749 19.8999 3.90796V31.1721Z" fill="black"/>
<path d="M68.0028 48L69.7192 38.8531C69.9352 37.7042 70.0957 36.6881 70.2009 35.8991H70.9346L70.666 37.6349H70.702C71.4716 36.4722 72.5458 35.7192 73.6919 35.7192C75.3226 35.7192 75.9288 37.1145 75.9288 38.5125C75.9288 41.4139 73.9411 44.6696 71.2031 44.6696C70.3615 44.6696 69.8078 44.473 69.4839 44.2931H69.4479L68.7696 47.9972H68L68.0028 48ZM69.614 43.5096C70.0071 43.8141 70.5802 43.9913 71.2778 43.9913C73.5507 43.9913 75.126 40.7688 75.126 38.5651C75.126 37.5436 74.7329 36.4168 73.4621 36.4168C72.1914 36.4168 70.6522 37.9561 70.1677 40.5529L69.6112 43.5068L69.614 43.5096Z" fill="black"/>
<path d="M81.8555 44.4896C81.8361 43.9719 81.9441 43.1663 82.0687 42.1807H82.0355C81.0499 44.0771 79.9591 44.6696 78.8296 44.6696C77.5257 44.6696 76.7339 43.5954 76.7339 42.0562C76.7339 39.1382 78.8296 35.7192 82.16 35.7192C82.7691 35.7192 83.4501 35.8271 83.8959 35.9683L82.9823 40.6055C82.6777 42.1973 82.5698 43.5788 82.6058 44.4896H81.8527H81.8555ZM83.0044 36.5414C82.8079 36.4694 82.5033 36.4168 81.9663 36.4168C79.4968 36.4168 77.5617 39.1742 77.545 41.8762C77.5257 42.9864 77.8496 43.9885 79.0123 43.9885C80.4076 43.9885 81.9856 41.8956 82.3954 39.6753L83.0044 36.5414Z" fill="black"/>
<path d="M84.6294 44.4896L85.7229 38.7063C85.9361 37.6156 86.0635 36.6466 86.1354 35.8964H86.8525C86.7805 36.4528 86.7085 37.0231 86.6005 37.7595H86.6365C87.1736 36.6106 88.0152 35.7192 89.0894 35.7192C89.1973 35.7192 89.3053 35.733 89.4105 35.7552L89.2665 36.5608C89.1669 36.5386 89.0644 36.5248 88.962 36.5248C87.8353 36.5248 86.5812 38.2246 86.224 40.1238L85.4184 44.4924H84.6322L84.6294 44.4896Z" fill="black"/>
<path d="M92.669 34L92.2925 35.8992H94.3163L94.1723 36.5608H92.1486L91.199 41.6797C91.091 42.2527 91.019 42.7012 91.019 43.1663C91.019 43.6674 91.2516 43.9719 91.7887 43.9719C92.0738 43.9719 92.2538 43.9553 92.4143 43.9L92.4669 44.5256C92.1929 44.6087 91.9105 44.6502 91.6253 44.6502C90.6038 44.6502 90.2106 43.9719 90.2106 43.2549C90.2106 42.7898 90.2633 42.3413 90.4072 41.6797L91.3734 36.5608H90.1387L90.2632 35.8992H91.5146L91.7997 34.3599L92.6635 34.0028L92.669 34Z" fill="black"/>
<path d="M94.1185 44.4896L95.2674 38.4212C95.4418 37.5879 95.5719 36.7435 95.6605 35.8964H96.3748L96.1395 37.6516H96.1754C96.9285 36.4002 97.9999 35.7192 99.1654 35.7192C100.007 35.7192 101.081 36.2563 101.081 37.8841C101.081 38.3132 101.009 38.7423 100.921 39.2074L99.935 44.4896H99.1654L100.168 39.2074C100.248 38.7949 100.289 38.3769 100.292 37.9561C100.292 37.0619 99.935 36.4168 98.8775 36.4168C97.7286 36.4168 96.1201 37.8481 95.7463 39.9244L94.9047 44.4896H94.1157H94.1185Z" fill="black"/>
<path d="M107.381 44.0079C106.932 44.2931 106.11 44.653 105.036 44.653C103.032 44.653 102.334 43.0777 102.334 41.4305C102.334 38.961 104.053 35.7192 106.523 35.7192C107.937 35.7192 108.527 36.6494 108.527 37.5962C108.527 39.7805 106.022 40.3895 103.209 40.3702C103.12 40.7633 103.104 41.8928 103.281 42.4991C103.585 43.4847 104.247 43.9498 105.158 43.9498C106.069 43.9498 106.75 43.6093 107.146 43.3767L107.381 44.0051V44.0079ZM106.379 36.4168C105.055 36.4168 103.854 37.8481 103.336 39.6919C105.573 39.7085 107.721 39.3348 107.721 37.6322C107.721 36.8266 107.184 36.4141 106.379 36.4141V36.4168Z" fill="black"/>
<path d="M108.958 44.4896L110.052 38.7063C110.267 37.6156 110.392 36.6466 110.464 35.8964H111.181C111.109 36.4528 111.037 37.0231 110.929 37.7595H110.965C111.502 36.6106 112.344 35.7192 113.418 35.7192C113.526 35.7192 113.634 35.733 113.739 35.7552L113.595 36.5608C113.495 36.5386 113.393 36.5248 113.291 36.5248C112.164 36.5248 110.91 38.2246 110.553 40.1238L109.747 44.4924H108.961L108.958 44.4896Z" fill="black"/>
</g>
<defs>
<clipPath id="clip0_6887_45">
<rect width="115" height="47" fill="white"/>
</clipPath>
</defs>
</svg>
