<svg xmlns="http://www.w3.org/2000/svg" width="158" height="47" viewBox="0 0 158 47" fill="none">
  <path fill-rule="evenodd" clip-rule="evenodd" d="M147.909 8.56748H146.465L146.743 7.13803C146.815 6.7709 146.562 6.46065 146.191 6.46065C145.82 6.46065 145.446 6.7709 145.374 7.13803L145.096 8.56748H143.652C143.281 8.56748 142.908 8.8777 142.836 9.24483C142.765 9.61192 143.018 9.92217 143.389 9.92217H144.833L144.555 11.3516C144.484 11.7187 144.736 12.029 145.107 12.029C145.478 12.029 145.852 11.7187 145.923 11.3516L146.201 9.92217H147.645C148.015 9.92217 148.39 9.61192 148.461 9.24483C148.534 8.87854 148.28 8.56748 147.909 8.56748Z" fill="white"></path>
  <path fill-rule="evenodd" clip-rule="evenodd" d="M33.2388 22.3347C33.9404 22.6961 35.2033 23.1957 36.4105 23.1681C37.5051 23.1681 38.0945 22.5841 38.0945 21.8628C38.0945 21.1685 37.6734 20.6965 36.4942 20.0298C35.0351 19.1964 33.9404 18.0294 33.9404 16.5017C33.9404 13.8068 36.2701 11.89 39.6658 11.89C41.1538 11.89 42.304 12.1679 42.9214 12.5293L42.0236 15.2517C41.4902 15.0016 40.6204 14.7238 39.6102 14.7238C38.5153 14.7238 37.8138 15.2241 37.8138 16.0014C37.8138 16.6121 38.3193 17.0572 39.3014 17.5852C40.8171 18.4461 42.08 19.6131 42.08 21.2521C42.08 24.3076 39.5822 26.0302 36.1019 26.0025C34.5017 25.9749 33.0139 25.5575 32.2852 25.058L33.2388 22.3347Z" fill="white"></path>
  <path fill-rule="evenodd" clip-rule="evenodd" d="M42.8633 25.9271L46.6244 6.47607H50.4978L49.0098 14.0164L49.0658 13.9668C50.1037 12.7445 51.4513 11.9007 53.1629 11.9007C55.1844 11.9007 56.3349 13.1871 56.3349 15.354C56.3349 16.0208 56.2222 17.0986 56.0542 17.9327L54.5386 25.9279H50.6651L52.124 18.1724C52.2356 17.6445 52.2931 16.9613 52.2931 16.4343C52.2931 15.6009 51.9567 14.9959 51.0862 14.9959C49.8509 14.9959 48.5316 16.6284 48.0269 19.1568L46.7353 25.9279H42.8633V25.9271Z" fill="white"></path>
  <path fill-rule="evenodd" clip-rule="evenodd" d="M61.3058 20.5854C61.3058 21.9742 61.8669 23.0852 63.1866 23.0852C65.2349 23.0852 66.3862 19.4735 66.3862 17.1124C66.3862 15.9738 65.9364 14.8074 64.5618 14.8074C62.4564 14.8067 61.3058 18.39 61.3058 20.5854ZM70.3433 17.2236C70.3433 21.9742 67.2553 26.0302 62.6804 26.0302C59.2 26.0302 57.3477 23.6407 57.3477 20.6682C57.3477 16.0289 60.436 11.8617 65.0946 11.8617C68.716 11.8625 70.3433 14.4737 70.3433 17.2236Z" fill="white"></path>
  <path fill-rule="evenodd" clip-rule="evenodd" d="M74.9482 22.5849C75.3692 22.9179 75.846 23.1404 76.5485 23.1404C78.71 23.1404 80.1976 19.6123 80.1976 17.14C80.1976 16.1127 79.8325 15.0291 78.654 15.0291C77.3063 15.0291 76.0438 16.6129 75.5947 19.0015L74.9482 22.5849ZM69.418 31.3305L72.1118 17.3123C72.4212 15.7285 72.7292 13.6801 72.8983 12.2385H76.3227L76.098 14.3998H76.1536C77.1918 12.9589 78.7082 11.9916 80.2511 11.9916C83.0852 11.9916 84.2365 14.2324 84.2365 16.816C84.2365 21.4836 81.262 26.0805 76.7147 26.0805C75.7605 26.0805 74.8907 25.927 74.4409 25.5673H74.3565L73.2896 31.3305H69.418Z" fill="white"></path>
  <path fill-rule="evenodd" clip-rule="evenodd" d="M89.3759 10.7985C88.2814 10.7985 87.5519 9.87178 87.5519 8.73312C87.5519 7.48316 88.5341 6.43625 89.769 6.43625C90.9476 6.43625 91.7057 7.35403 91.7057 8.46508C91.6781 9.88152 90.6392 10.7993 89.4327 10.7993L89.3759 10.7985ZM84.3516 25.927L86.9617 12.2393H90.8632L88.2247 25.927H84.3516Z" fill="white"></path>
  <path fill-rule="evenodd" clip-rule="evenodd" d="M91.5938 25.927L93.6432 15.1209H91.8465L92.4079 12.2393H94.2043L94.3167 11.5506C94.6261 9.93923 95.2425 8.30268 96.5621 7.19159C97.5999 6.30308 98.9756 5.90105 100.352 5.90105C101.306 5.90105 102.008 6.03425 102.457 6.22836L101.699 9.2253C101.362 9.11487 100.969 9.02959 100.464 9.02959C99.1723 9.02959 98.3861 10.2454 98.1621 11.5514L98.0217 12.2393H100.716L100.182 15.1209H97.5163L95.4672 25.927H91.5938Z" fill="white"></path>
  <path fill-rule="evenodd" clip-rule="evenodd" d="M105.515 12.2393L106.132 18.3664C106.301 19.7277 106.413 20.8842 106.468 21.6046H106.524C106.834 20.8842 107.114 19.8105 107.676 18.3388L110.033 12.2401H114.075L109.332 22.2609C107.648 25.7053 106.02 28.2157 104.251 29.8548C102.876 31.1323 101.248 31.7626 100.461 31.9291L99.3945 28.6739C100.04 28.4513 100.854 28.1159 101.584 27.5888C102.482 26.978 103.24 26.1431 103.689 25.2822C103.801 25.0881 103.829 24.9566 103.773 24.6787L101.444 12.241L105.515 12.2393Z" fill="white"></path>
  <path fill-rule="evenodd" clip-rule="evenodd" d="M144.739 13.5267C144.368 13.5267 143.994 13.8369 143.923 14.204L142.614 20.9281C141.904 24.3531 139.779 24.8209 137.787 24.8209C134.198 24.8209 134.108 22.7977 134.493 20.8184L136.031 12.9158C136.102 12.5488 135.849 12.2385 135.478 12.2385C135.107 12.2385 134.733 12.5488 134.662 12.9158L133.124 20.8184C132.815 22.4111 132.924 23.6001 133.463 24.4521C134.138 25.521 135.511 26.0627 137.544 26.0627C139.578 26.0627 141.162 25.5202 142.253 24.4521C143.123 23.6001 143.697 22.4111 144.006 20.8184L145.293 14.204C145.363 13.8369 145.11 13.5267 144.739 13.5267Z" fill="white"></path>
  <path fill-rule="evenodd" clip-rule="evenodd" d="M132.374 6.49884C132.004 6.49884 131.629 6.8091 131.558 7.17622L128.047 25.2188C127.976 25.586 128.229 25.8962 128.6 25.8962C128.97 25.8962 129.345 25.586 129.416 25.2188L132.926 7.17622C132.998 6.8083 132.745 6.49884 132.374 6.49884Z" fill="white"></path>
  <path fill-rule="evenodd" clip-rule="evenodd" d="M15.5992 4.69742C15.5877 3.92989 15.495 2.86269 15.1339 1.94005C16.296 2.15772 16.8679 3.45884 17.1092 4.23447C16.6619 4.37175 16.1523 4.52767 15.5992 4.69742ZM9.51676 14.8773C9.62018 16.4992 13.9317 16.8533 14.1738 20.6527C14.3642 23.6416 12.572 25.6859 9.98946 25.8474C6.88996 26.0408 5.18389 24.2312 5.18389 24.2312L5.8404 21.4657C5.8404 21.4657 7.55796 22.7482 8.93251 22.662C9.83025 22.606 10.1511 21.8832 10.1191 21.3715C9.98455 19.2557 6.47389 19.38 6.25153 15.9038C6.06524 12.9784 8.006 10.0139 12.2897 9.74593C13.9399 9.6428 14.7852 10.0595 14.7852 10.0595L13.8053 13.6859C13.8053 13.6859 12.7131 13.1936 11.4173 13.2741C9.5176 13.3951 9.49709 14.5808 9.51676 14.8773ZM12.4956 1.01011C12.8551 1.0028 13.1579 1.08077 13.4164 1.24889C13.0028 1.46168 12.6023 1.76707 12.2273 2.16503C11.2549 3.19732 10.5097 4.80058 10.2127 6.34695C9.28535 6.63124 8.37858 6.90891 7.5448 7.16484C8.07084 4.73073 10.1323 1.07752 12.4956 1.01011ZM14.5817 5.00931C13.5624 5.32189 12.4497 5.66309 11.3328 6.00502C11.6471 4.8152 12.2421 3.63021 12.9732 2.85376C13.2449 2.56463 13.6256 2.243 14.0761 2.05864C14.5004 2.93255 14.5915 4.17193 14.5817 5.00931ZM19.0295 3.6456C19.027 3.64644 18.6766 3.75364 18.0841 3.93556C17.9856 3.61792 17.8395 3.22726 17.6319 2.83497C16.9623 1.57049 15.9808 0.900436 14.7959 0.898731H14.7917C14.7097 0.898731 14.6276 0.90604 14.5456 0.913433C14.5111 0.871931 14.4758 0.830589 14.438 0.791604C13.9219 0.245006 13.2588 -0.0214715 12.4661 0.00135087C10.9348 0.0452087 9.41007 1.13914 8.17422 3.08277C7.30356 4.4504 6.64295 6.16905 6.45502 7.49862C4.69724 8.03709 3.46713 8.41476 3.44088 8.42287C2.55378 8.69822 2.52588 8.72582 2.40935 9.55342C2.32155 10.1796 0 27.9494 0 27.9494L19.2633 31.2468V3.60655C19.1681 3.61305 19.0828 3.6301 19.0295 3.6456Z" fill="white"></path>
  <path fill-rule="evenodd" clip-rule="evenodd" d="M19.8984 31.1721L27.8897 29.2059C27.8897 29.2059 24.4488 6.18211 24.4275 6.02371C24.4053 5.86614 24.2658 5.77843 24.1509 5.76869C24.036 5.75894 21.7859 5.72563 21.7859 5.72563C21.7859 5.72563 20.4138 4.40749 19.8984 3.90796V31.1721Z" fill="white"></path>
  <path fill-rule="evenodd" clip-rule="evenodd" d="M119.777 24.8217C116.853 24.8217 115.696 22.8269 116.43 19.0535C117.172 15.2445 119.023 13.313 121.932 13.313C125.111 13.313 126.29 15.1908 125.538 19.0535C124.772 22.9886 122.941 24.8217 119.777 24.8217ZM122.258 12.0704C120.259 12.0704 118.62 12.7591 117.454 14.0749L117.68 12.915C117.751 12.5479 117.499 12.2377 117.128 12.2377C116.757 12.2377 116.383 12.5479 116.312 12.915L112.86 30.654C112.788 31.0211 113.041 31.3313 113.412 31.3313C113.783 31.3313 114.157 31.0211 114.228 30.654L115.51 24.0655C115.982 24.9078 117.077 26.0626 119.535 26.0626C121.458 26.0626 123.07 25.478 124.329 24.3229C125.628 23.1315 126.514 21.3585 126.963 19.0519C127.412 16.747 127.214 14.978 126.377 13.7946C125.568 12.6511 124.181 12.0704 122.258 12.0704Z" fill="white"></path>
  <path fill-rule="evenodd" clip-rule="evenodd" d="M152.047 18.3039C150.313 17.6672 148.674 17.0662 148.986 15.4662C149.143 14.6621 149.802 13.3123 152.458 13.3123C153.951 13.3123 154.893 13.7208 155.71 14.723C155.863 14.9098 156.037 14.9098 156.111 14.9098C156.451 14.9098 156.794 14.6255 156.86 14.2885C156.896 14.1058 156.861 13.9977 156.779 13.854C156.776 13.8483 156.773 13.8426 156.769 13.8369C155.94 12.6641 154.571 12.0696 152.7 12.0696C149.973 12.0696 148.026 13.3707 147.617 15.4654C147.13 17.9726 149.372 18.8123 151.352 19.5531C153.062 20.1931 154.679 20.7973 154.379 22.3308C153.958 24.4968 151.663 24.8201 150.332 24.8201C148.497 24.8201 147.364 24.3263 146.543 23.1681C146.54 23.1648 146.537 23.1608 146.535 23.1575C146.433 23.0333 146.298 22.9707 146.134 22.9707C145.831 22.9707 145.457 23.2209 145.385 23.592C145.349 23.774 145.384 23.8812 145.466 24.0258C146.012 25.0386 147.655 26.0627 150.091 26.0627C153.179 26.0627 155.294 24.6674 155.748 22.3308C156.234 19.8398 154.009 19.0235 152.047 18.3039Z" fill="white"></path>
  <path d="M110.003 47L111.719 37.8531C111.935 36.7042 112.096 35.6881 112.201 34.8991H112.935L112.666 36.6349H112.702C113.472 35.4722 114.546 34.7192 115.692 34.7192C117.323 34.7192 117.929 36.1145 117.929 37.5125C117.929 40.4139 115.941 43.6696 113.203 43.6696C112.361 43.6696 111.808 43.473 111.484 43.2931H111.448L110.77 46.9972H110L110.003 47ZM111.614 42.5096C112.007 42.8141 112.58 42.9913 113.278 42.9913C115.551 42.9913 117.126 39.7688 117.126 37.5651C117.126 36.5436 116.733 35.4168 115.462 35.4168C114.191 35.4168 112.652 36.9561 112.168 39.5529L111.611 42.5068L111.614 42.5096Z" fill="white"></path>
  <path d="M123.856 43.4896C123.837 42.9719 123.945 42.1663 124.069 41.1807H124.036C123.05 43.0771 121.96 43.6696 120.83 43.6696C119.526 43.6696 118.734 42.5954 118.734 41.0562C118.734 38.1382 120.83 34.7192 124.161 34.7192C124.77 34.7192 125.451 34.8271 125.896 34.9683L124.983 39.6055C124.678 41.1973 124.57 42.5788 124.606 43.4896H123.853H123.856ZM125.005 35.5414C124.808 35.4694 124.504 35.4168 123.967 35.4168C121.497 35.4168 119.562 38.1742 119.546 40.8762C119.526 41.9864 119.85 42.9885 121.013 42.9885C122.408 42.9885 123.986 40.8956 124.396 38.6753L125.005 35.5414Z" fill="white"></path>
  <path d="M126.629 43.4896L127.722 37.7063C127.936 36.6156 128.063 35.6466 128.135 34.8964H128.852C128.78 35.4528 128.708 36.0231 128.6 36.7595H128.636C129.173 35.6106 130.015 34.7192 131.089 34.7192C131.197 34.7192 131.305 34.733 131.41 34.7552L131.266 35.5608C131.166 35.5386 131.064 35.5248 130.962 35.5248C129.835 35.5248 128.581 37.2246 128.224 39.1238L127.418 43.4924H126.632L126.629 43.4896Z" fill="white"></path>
  <path d="M134.667 33L134.291 34.8992H136.314L136.17 35.5608H134.147L133.197 40.6797C133.089 41.2527 133.017 41.7012 133.017 42.1663C133.017 42.6674 133.25 42.9719 133.787 42.9719C134.072 42.9719 134.252 42.9553 134.412 42.9L134.465 43.5256C134.191 43.6087 133.909 43.6502 133.623 43.6502C132.602 43.6502 132.209 42.9719 132.209 42.2549C132.209 41.7898 132.261 41.3413 132.405 40.6797L133.371 35.5608H132.137L132.261 34.8992H133.513L133.798 33.3599L134.662 33.0028L134.667 33Z" fill="white"></path>
  <path d="M136.12 43.4896L137.269 37.4212C137.443 36.5879 137.573 35.7435 137.662 34.8964H138.376L138.141 36.6516H138.177C138.93 35.4002 140.001 34.7192 141.167 34.7192C142.008 34.7192 143.083 35.2563 143.083 36.8841C143.083 37.3132 143.011 37.7423 142.922 38.2074L141.936 43.4896H141.167L142.169 38.2074C142.249 37.7949 142.291 37.3769 142.294 36.9561C142.294 36.0619 141.936 35.4168 140.879 35.4168C139.73 35.4168 138.122 36.8481 137.748 38.9244L136.906 43.4896H136.117H136.12Z" fill="white"></path>
  <path d="M149.379 43.0079C148.93 43.2931 148.108 43.653 147.034 43.653C145.03 43.653 144.332 42.0777 144.332 40.4305C144.332 37.961 146.051 34.7192 148.521 34.7192C149.935 34.7192 150.525 35.6494 150.525 36.5962C150.525 38.7805 148.02 39.3895 145.207 39.3702C145.118 39.7633 145.102 40.8928 145.279 41.4991C145.583 42.4847 146.245 42.9498 147.156 42.9498C148.067 42.9498 148.748 42.6093 149.144 42.3767L149.379 43.0051V43.0079ZM148.377 35.4168C147.053 35.4168 145.852 36.8481 145.334 38.6919C147.571 38.7085 149.719 38.3348 149.719 36.6322C149.719 35.8266 149.182 35.4141 148.377 35.4141V35.4168Z" fill="white"></path>
  <path d="M150.957 43.4896L152.051 37.7063C152.267 36.6156 152.391 35.6466 152.463 34.8964H153.18C153.108 35.4528 153.036 36.0231 152.928 36.7595H152.964C153.501 35.6106 154.343 34.7192 155.417 34.7192C155.525 34.7192 155.633 34.733 155.738 34.7552L155.594 35.5608C155.495 35.5386 155.392 35.5248 155.29 35.5248C154.163 35.5248 152.909 37.2246 152.552 39.1238L151.746 43.4924H150.96L150.957 43.4896Z" fill="white"></path>
</svg>