<svg width="65" height="65" viewBox="0 0 65 65" fill="none" xmlns="http://www.w3.org/2000/svg">
<g clip-path="url(#clip0_7014_1737)">
<path d="M55.0972 16.6383L59.6129 16.6405C60.6641 16.6405 61.5172 17.4936 61.5159 18.5448L61.4994 57.1385M3.4958 25.6762L3.49834 18.5186C3.49961 17.4675 4.35146 16.6143 5.40391 16.6156L9.7749 16.6169M3.49326 30.1196L3.48184 57.1124M24.9077 57.252H62.7778C63.4786 57.252 64.0474 57.8208 64.0474 58.5216C64.0474 59.574 63.6208 60.5261 62.9314 61.2142C62.2421 61.9036 61.2899 62.3302 60.2388 62.3302H4.76025C2.65664 62.3302 0.95166 60.6252 0.95166 58.5216C0.95166 58.1712 1.09385 57.8538 1.32363 57.624C1.55342 57.3942 1.8708 57.252 2.22119 57.252H20.4644M54.7366 42.5483V48.7957C54.7366 49.9395 53.8099 50.8663 52.666 50.8663H12.333C11.1892 50.8663 10.2624 49.9395 10.2624 48.7957V4.74041C10.2624 3.59656 11.1892 2.6698 12.333 2.6698H39.4299M43.8732 2.6698H52.666C53.8099 2.6698 54.7366 3.59656 54.7366 4.74041V38.105M54.3917 10.7492H10.6073M23.1707 18.2527V43.5881M19.3622 18.2527H15.3412M19.3622 24.5866H15.3412M19.3622 30.9204H15.3412M19.3622 43.5881H15.3412M26.9793 18.2527H31.5947M29.2019 24.5866H32.4995M29.2019 30.9204H47.2578M29.2019 37.2542H49.6579M29.1403 43.5881H39.9079M37.9203 23.9625L35.4788 21.4196L37.9203 18.8768M47.2164 23.9625L49.6579 21.4196L47.2164 18.8768M41.4705 24.5866L43.6662 18.2527" stroke="black" stroke-width="2" stroke-miterlimit="10" stroke-linecap="round" stroke-linejoin="round"></path>
</g>
<defs>
<clipPath id="clip0_7014_1737">
<rect width="65" height="65" fill="white" transform="translate(-0.000488281)"></rect>
</clipPath>
</defs>
</svg>