<svg xmlns="http://www.w3.org/2000/svg" width="65" height="65" viewBox="0 0 65 65" fill="none">
<g clip-path="url(#clip0_7219_362)">
<path d="M60.5487 43.9246V50.3038C60.5487 51.3555 59.6961 52.2081 58.6444 52.2081H2.85646C1.80477 52.2081 0.952148 51.3555 0.952148 50.3038V12.7152C0.952148 11.6635 1.80477 10.8109 2.85646 10.8109H8.83917M60.5487 26.9657V31.1256M52.8203 10.8109H58.6444C59.6961 10.8109 60.5487 11.6635 60.5487 12.7152V14.1177M18.6978 60.112V52.2081M42.3587 52.2081V60.112M33.4683 64.0478H15.643C15.1522 64.0478 14.7543 63.65 14.7543 63.1592V60.9931C14.7543 60.5023 15.1522 60.1044 15.643 60.1044H45.4135C45.9043 60.1044 46.3022 60.5023 46.3022 60.9931V63.1592C46.3022 63.65 45.9043 64.0478 45.4135 64.0478H37.6179M56.6053 43.9246V47.3852C56.6053 47.876 56.2074 48.2739 55.7166 48.2739H5.78428C5.29347 48.2739 4.8956 47.876 4.8956 47.3852V15.6275C4.8956 15.1367 5.29347 14.7389 5.78428 14.7389H8.49627M56.6053 26.9657V31.1256M52.4395 8.83917V14.1177M52.4395 8.83917H9.06134M52.4395 8.83917L52.4397 1.84083C52.4397 1.35002 52.0418 0.952148 51.551 0.952148H9.95002C9.45922 0.952148 9.06134 1.35002 9.06134 1.84083V8.83917M9.06134 33.5819V8.83917M9.06134 48.2739V37.7315M52.4395 43.9246V48.2739M52.4395 26.9657V31.1256M26.807 4.8956H47.7125M21.7168 14.5474L19.5363 20.0297M25.2794 14.8103L26.7436 17.239L25.2794 19.7669M16.0558 14.8103L14.5915 17.239L16.0558 19.7669M13.7665 24.9127H17.2641M13.7665 32.5H22.8634M21.0467 24.9127H27.8561M13.7665 28.8562H17.2641M21.0467 28.8562H27.8561M13.7665 38.4152H17.2641M21.0467 38.4152H27.8561M13.7665 42.3587H17.2641M21.0467 42.3587H27.8561M32.7222 8.83917V48.2739M64.0478 23.5137V25.696C64.0478 26.1868 63.65 26.5847 63.1592 26.5847H38.1484C37.6576 26.5847 37.2598 26.1868 37.2598 25.696V15.4361C37.2598 14.9453 37.6576 14.5474 38.1484 14.5474H63.1592C63.65 14.5474 64.0478 14.9453 64.0478 15.4361V19.364M41.7647 18.6978H59.3427M41.7647 22.6412H56.1609M41.7647 35.6568H59.3427M41.7647 39.6003H56.1609M63.1592 43.5437H38.1484C37.6576 43.5437 37.2598 43.1459 37.2598 42.6551V32.3951C37.2598 31.9043 37.6576 31.5064 38.1484 31.5064H63.1592C63.65 31.5064 64.0478 31.9043 64.0478 32.3951V42.6551C64.0478 43.1459 63.65 43.5437 63.1592 43.5437Z" stroke="black" stroke-width="2" stroke-miterlimit="10" stroke-linecap="round" stroke-linejoin="round"></path>
</g>
<defs>
<clipPath id="clip0_7219_362">
<rect width="65" height="65" fill="white"></rect>
</clipPath>
</defs>
</svg>