<svg width="404" height="270" viewBox="0 0 404 270" fill="none" xmlns="http://www.w3.org/2000/svg">
<mask id="mask0_4690_8820" style="mask-type:alpha" maskUnits="userSpaceOnUse" x="0" y="0" width="404" height="270">
<rect width="404" height="270" fill="#D9D9D9"/>
</mask>
<g mask="url(#mask0_4690_8820)">
<path opacity="0.8" d="M-91.0837 -9.71519C-91.1199 -13.85 -90.2294 -18.7582 -85.532 -21.4763C-80.6158 -24.3209 -74.3343 -24.1667 -69.3226 -24.1262C-49.858 -23.9672 -31.1309 -21.6587 -10.9929 -25.3336C1.46329 -27.6072 13.8535 -31.9564 25.2325 -38.5615C31.6965 -42.3132 37.3746 -47.1159 44.5134 -49.4302C51.8848 -51.8192 59.5334 -52.1326 66.5511 -51.2492C73.6645 -50.3539 80.8197 -48.3316 86.2096 -44.5575C91.72 -40.6997 95.3844 -35.071 97.6052 -28.9094C102.619 -15.0015 100.215 0.939965 95.9148 16.3854C87.2213 47.6045 68.7142 87.3381 94.9707 109.686C117.187 128.595 154.096 123.659 185.377 120.597C200.571 119.109 215.999 117.981 230.394 120.162C245.502 122.452 257.338 128.938 267.023 138.605C277.574 149.134 285.979 162.121 300.037 169.294C311.937 175.367 326.76 175.612 341.364 174.699C355.078 173.841 369.063 171.979 382.422 173.011C396.423 174.092 408.358 179.077 416.508 188.51C436.629 211.8 430.882 247.234 420.881 278.072C418.194 286.359 415.17 294.608 412.101 302.849C412.018 303.07 411.659 303.028 411.738 302.806C423.323 270.579 436.142 235.584 425.511 205.558C420.612 191.721 410.646 180.088 395.087 175.678C382.534 172.118 368.214 173.12 354.359 174.209C340.869 175.269 327.031 176.656 314.292 174.443C299.956 171.952 289.804 164.043 280.997 154.632C271.198 144.163 262.521 132.286 248.552 125.886C235.611 119.958 219.999 118.952 204.475 119.621C174.285 120.922 142.704 128.271 114.835 120.309C101.952 116.628 90.9428 109.49 85.3594 98.3452C79.1489 85.948 80.3169 70.6417 83.6523 56.0665C87.4069 39.6563 94.2285 23.4216 97.7812 7.00082C101.238 -8.9729 101.354 -26.1008 92.0169 -38.2786C83.1848 -49.7985 63.3933 -54.2561 46.4622 -49.6072C38.9048 -47.5313 33.1666 -42.8383 26.4872 -38.8668C21.0847 -35.6547 15.4172 -32.9095 9.60638 -30.6842C-11.0111 -22.7894 -31.9893 -22.1556 -52.1689 -23.0976C-59.7775 -23.4526 -67.4085 -24.2014 -75.2133 -23.6891C-80.055 -23.3705 -86.2932 -22.4208 -89.1014 -17.6186C-90.5739 -15.0991 -90.7955 -12.302 -90.7763 -9.75338C-90.7789 -9.57749 -91.0833 -9.54126 -91.0837 -9.71519Z" fill="black"/>
<path opacity="0.8" d="M504.344 232.292C465.591 242.089 426.838 251.893 388.084 261.68C374.095 265.213 359.234 269.697 345.539 268.419C331.909 267.148 322.92 258.991 318.974 247.731C314.591 235.213 316.322 220.965 320.136 207.065C322.313 199.134 325.13 191.253 327.856 183.372C330.291 176.33 332.452 169.272 335.242 162.275C340.383 149.386 346.434 135.782 340.711 124.054C336.425 115.274 327.356 112.305 316.145 113.806C304.298 115.392 292.441 120.019 280.796 123.664C268.105 127.638 255.729 130.275 243.03 130.512C228.903 130.775 215.146 128.903 202.368 125.378C191.205 122.299 180.153 117.938 171.824 110.962C164.083 104.477 159.407 95.1885 154.68 86.5786C149.07 76.3582 143.803 65.8132 136.594 56.5915C133.507 52.6416 130.01 48.8577 125.605 46.0829C120.86 43.0929 114.938 41.435 108.992 40.4722C96.5442 38.4553 83.1407 39.6374 70.0395 40.3455C58.0691 40.9919 45.8671 41.4002 34.8768 38.6488C21.9486 35.4127 12.4143 27.4382 6.68078 16.8256C-6.45359 -7.48571 0.294545 -38.4323 10.4022 -66.6854C13.0846 -74.1831 16.0252 -81.643 19.0049 -89.0959C19.0928 -89.3159 19.4526 -89.2754 19.3672 -89.0535C7.91027 -59.4173 -4.68929 -27.7145 1.58993 1.06633C4.54873 14.6288 11.7057 27.3585 24.5105 34.1698C34.9466 39.7211 48.0152 40.6012 60.9487 40.249C83.1917 39.6426 111.116 34.4764 127.964 47.0427C136.469 53.3868 141.98 62.7523 147.078 71.6392C152.638 81.3327 157.466 91.5025 163.737 100.765C169.591 109.412 177.645 115.377 187.817 119.776C199.765 124.942 213.162 128.053 226.98 129.395C240.561 130.712 254.754 130.234 268.971 126.615C280.841 123.594 292.48 119.089 304.32 115.875C313.312 113.434 323.471 111.336 331.405 114.433C340.292 117.901 344.199 127.533 343.592 136.675C342.787 148.811 335.666 161.059 331.802 173.065C326.898 188.302 320.555 203.528 317.932 218.896C315.449 233.446 316.743 249.244 326.473 259.402C335.918 269.265 351.429 269.339 366.589 266.405C384.437 262.95 402.376 257.694 420.16 253.217C438.923 248.493 457.685 243.769 476.448 239.046C485.726 236.71 495.004 234.373 504.282 232.038C504.478 231.988 504.54 232.242 504.344 232.292Z" fill="black"/>
</g>
</svg>
