<svg width="158" height="47" viewBox="0 0 158 47" fill="none" xmlns="http://www.w3.org/2000/svg">
<path fill-rule="evenodd" clip-rule="evenodd" d="M147.909 8.56747H146.465L146.743 7.13801C146.815 6.77089 146.562 6.46063 146.191 6.46063C145.82 6.46063 145.446 6.77089 145.374 7.13801L145.096 8.56747H143.652C143.281 8.56747 142.908 8.87769 142.836 9.24481C142.765 9.6119 143.018 9.92216 143.389 9.92216H144.833L144.555 11.3516C144.484 11.7187 144.736 12.029 145.107 12.029C145.478 12.029 145.852 11.7187 145.923 11.3516L146.201 9.92216H147.645C148.015 9.92216 148.39 9.6119 148.461 9.24481C148.534 8.87852 148.28 8.56747 147.909 8.56747Z" fill="black"/>
<path fill-rule="evenodd" clip-rule="evenodd" d="M33.2378 22.3347C33.9394 22.6961 35.2023 23.1957 36.4096 23.1681C37.5041 23.1681 38.0936 22.584 38.0936 21.8628C38.0936 21.1685 37.6725 20.6965 36.4932 20.0298C35.0341 19.1964 33.9394 18.0294 33.9394 16.5017C33.9394 13.8068 36.2692 11.89 39.6648 11.89C41.1528 11.89 42.303 12.1679 42.9205 12.5293L42.0227 15.2517C41.4892 15.0016 40.6194 14.7238 39.6092 14.7238C38.5143 14.7238 37.8128 15.2241 37.8128 16.0014C37.8128 16.6121 38.3183 17.0572 39.3005 17.5851C40.8161 18.4461 42.079 19.6131 42.079 21.2521C42.079 24.3076 39.5812 26.0302 36.1009 26.0025C34.5007 25.9749 33.0129 25.5575 32.2842 25.0579L33.2378 22.3347Z" fill="black"/>
<path fill-rule="evenodd" clip-rule="evenodd" d="M42.8652 25.9271L46.6263 6.47607H50.4998L49.0118 14.0164L49.0678 13.9668C50.1056 12.7445 51.4532 11.9007 53.1649 11.9007C55.1863 11.9007 56.3369 13.1871 56.3369 15.354C56.3369 16.0208 56.2242 17.0986 56.0562 17.9327L54.5405 25.9279H50.6671L52.126 18.1724C52.2376 17.6445 52.2951 16.9613 52.2951 16.4343C52.2951 15.6009 51.9587 14.9959 51.0881 14.9959C49.8529 14.9959 48.5336 16.6284 48.0289 19.1568L46.7372 25.9279H42.8652V25.9271Z" fill="black"/>
<path fill-rule="evenodd" clip-rule="evenodd" d="M61.3063 20.5854C61.3063 21.9742 61.8674 23.0852 63.1871 23.0852C65.2354 23.0852 66.3867 19.4735 66.3867 17.1125C66.3867 15.9738 65.9369 14.8074 64.5623 14.8074C62.4569 14.8067 61.3063 18.39 61.3063 20.5854ZM70.3438 17.2237C70.3438 21.9742 67.2558 26.0302 62.6809 26.0302C59.2005 26.0302 57.3481 23.6407 57.3481 20.6682C57.3481 16.0289 60.4365 11.8617 65.0951 11.8617C68.7165 11.8625 70.3438 14.4737 70.3438 17.2237Z" fill="black"/>
<path fill-rule="evenodd" clip-rule="evenodd" d="M74.9482 22.5849C75.3692 22.9179 75.846 23.1404 76.5485 23.1404C78.71 23.1404 80.1976 19.6123 80.1976 17.14C80.1976 16.1127 79.8325 15.0291 78.654 15.0291C77.3063 15.0291 76.0438 16.6129 75.5947 19.0015L74.9482 22.5849ZM69.418 31.3306L72.1118 17.3123C72.4212 15.7285 72.7292 13.6801 72.8983 12.2385H76.3227L76.098 14.3998H76.1536C77.1918 12.9589 78.7082 11.9916 80.2511 11.9916C83.0852 11.9916 84.2365 14.2324 84.2365 16.816C84.2365 21.4836 81.262 26.0805 76.7147 26.0805C75.7605 26.0805 74.8907 25.927 74.4409 25.5673H74.3565L73.2896 31.3306H69.418Z" fill="black"/>
<path fill-rule="evenodd" clip-rule="evenodd" d="M89.3754 10.7985C88.2809 10.7985 87.5514 9.87181 87.5514 8.73315C87.5514 7.48319 88.5336 6.43628 89.7685 6.43628C90.9471 6.43628 91.7053 7.35406 91.7053 8.46512C91.6776 9.88155 90.6387 10.7993 89.4322 10.7993L89.3754 10.7985ZM84.3511 25.927L86.9613 12.2393H90.8627L88.2242 25.927H84.3511Z" fill="black"/>
<path fill-rule="evenodd" clip-rule="evenodd" d="M91.5918 25.9271L93.6413 15.121H91.8445L92.406 12.2394H94.2023L94.3147 11.5506C94.6242 9.93924 95.2405 8.3027 96.5602 7.19161C97.598 6.3031 98.9736 5.90106 100.35 5.90106C101.304 5.90106 102.006 6.03426 102.455 6.22837L101.697 9.22532C101.361 9.11488 100.967 9.02961 100.462 9.02961C99.1703 9.02961 98.3842 10.2454 98.1602 11.5514L98.0198 12.2394H100.714L100.181 15.121H97.5143L95.4652 25.9271H91.5918Z" fill="black"/>
<path fill-rule="evenodd" clip-rule="evenodd" d="M105.515 12.2393L106.132 18.3664C106.301 19.7276 106.413 20.8842 106.468 21.6046H106.524C106.834 20.8842 107.114 19.8105 107.676 18.3388L110.033 12.2401H114.075L109.332 22.2608C107.648 25.7053 106.02 28.2157 104.251 29.8547C102.876 31.1323 101.248 31.7626 100.461 31.9291L99.3945 28.6738C100.04 28.4513 100.854 28.1159 101.584 27.5888C102.482 26.978 103.24 26.1431 103.689 25.2822C103.801 25.088 103.829 24.9566 103.773 24.6787L101.444 12.241L105.515 12.2393Z" fill="black"/>
<path fill-rule="evenodd" clip-rule="evenodd" d="M144.741 13.5266C144.37 13.5266 143.996 13.8369 143.925 14.204L142.616 20.9281C141.906 24.353 139.781 24.8209 137.789 24.8209C134.2 24.8209 134.11 22.7977 134.495 20.8183L136.033 12.9158C136.104 12.5488 135.851 12.2385 135.48 12.2385C135.109 12.2385 134.735 12.5488 134.664 12.9158L133.126 20.8183C132.817 22.4111 132.926 23.6001 133.465 24.4521C134.139 25.521 135.513 26.0627 137.546 26.0627C139.58 26.0627 141.164 25.5202 142.255 24.4521C143.125 23.6001 143.699 22.4111 144.008 20.8183L145.295 14.204C145.365 13.8369 145.112 13.5266 144.741 13.5266Z" fill="black"/>
<path fill-rule="evenodd" clip-rule="evenodd" d="M132.375 6.49884C132.005 6.49884 131.63 6.8091 131.559 7.17622L128.048 25.2188C127.977 25.586 128.23 25.8962 128.601 25.8962C128.971 25.8962 129.346 25.586 129.417 25.2188L132.927 7.17622C132.999 6.8083 132.746 6.49884 132.375 6.49884Z" fill="black"/>
<path fill-rule="evenodd" clip-rule="evenodd" d="M15.5992 4.69742C15.5877 3.92989 15.495 2.86269 15.1339 1.94005C16.296 2.15772 16.8679 3.45884 17.1092 4.23447C16.6619 4.37175 16.1523 4.52767 15.5992 4.69742ZM9.51676 14.8773C9.62018 16.4992 13.9317 16.8533 14.1738 20.6527C14.3642 23.6416 12.572 25.6859 9.98946 25.8474C6.88996 26.0408 5.18389 24.2312 5.18389 24.2312L5.8404 21.4657C5.8404 21.4657 7.55796 22.7482 8.93251 22.662C9.83025 22.606 10.1511 21.8832 10.1191 21.3715C9.98455 19.2557 6.47389 19.38 6.25153 15.9038C6.06524 12.9784 8.006 10.0139 12.2897 9.74593C13.9399 9.6428 14.7852 10.0595 14.7852 10.0595L13.8053 13.6859C13.8053 13.6859 12.7131 13.1936 11.4173 13.2741C9.5176 13.3951 9.49709 14.5808 9.51676 14.8773ZM12.4956 1.01011C12.8551 1.0028 13.1579 1.08077 13.4164 1.24889C13.0028 1.46168 12.6023 1.76707 12.2273 2.16503C11.2549 3.19732 10.5097 4.80058 10.2127 6.34695C9.28535 6.63124 8.37858 6.90891 7.5448 7.16484C8.07084 4.73073 10.1323 1.07752 12.4956 1.01011ZM14.5817 5.00931C13.5624 5.32189 12.4497 5.66309 11.3328 6.00502C11.6471 4.8152 12.2421 3.63021 12.9732 2.85376C13.2449 2.56463 13.6256 2.243 14.0761 2.05864C14.5004 2.93255 14.5915 4.17193 14.5817 5.00931ZM19.0295 3.6456C19.027 3.64644 18.6766 3.75364 18.0841 3.93556C17.9856 3.61792 17.8395 3.22726 17.6319 2.83497C16.9623 1.57049 15.9808 0.900436 14.7959 0.898731H14.7917C14.7097 0.898731 14.6276 0.90604 14.5456 0.913433C14.5111 0.871931 14.4758 0.830589 14.438 0.791604C13.9219 0.245006 13.2588 -0.0214715 12.4661 0.00135087C10.9348 0.0452087 9.41007 1.13914 8.17422 3.08277C7.30356 4.4504 6.64295 6.16905 6.45502 7.49862C4.69724 8.03709 3.46713 8.41476 3.44088 8.42287C2.55378 8.69822 2.52588 8.72582 2.40935 9.55342C2.32155 10.1796 0 27.9494 0 27.9494L19.2633 31.2468V3.60655C19.1681 3.61305 19.0828 3.6301 19.0295 3.6456Z" fill="black"/>
<path fill-rule="evenodd" clip-rule="evenodd" d="M19.8999 31.1721L27.8911 29.2059C27.8911 29.2059 24.4503 6.18211 24.4289 6.02371C24.4068 5.86614 24.2673 5.77843 24.1524 5.76869C24.0375 5.75894 21.7874 5.72563 21.7874 5.72563C21.7874 5.72563 20.4153 4.40749 19.8999 3.90796V31.1721Z" fill="black"/>
<path fill-rule="evenodd" clip-rule="evenodd" d="M119.777 24.8217C116.853 24.8217 115.696 22.8269 116.431 19.0535C117.173 15.2445 119.023 13.313 121.932 13.313C125.111 13.313 126.291 15.1908 125.539 19.0535C124.772 22.9886 122.942 24.8217 119.777 24.8217ZM122.258 12.0704C120.26 12.0704 118.62 12.7591 117.455 14.0749L117.681 12.915C117.752 12.5479 117.499 12.2377 117.128 12.2377C116.757 12.2377 116.383 12.5479 116.313 12.915L112.86 30.654C112.789 31.0211 113.042 31.3313 113.413 31.3313C113.783 31.3313 114.158 31.0211 114.229 30.654L115.511 24.0655C115.983 24.9078 117.078 26.0626 119.535 26.0626C121.458 26.0626 123.07 25.478 124.329 24.3229C125.628 23.1315 126.515 21.3585 126.963 19.0519C127.413 16.747 127.215 14.978 126.378 13.7946C125.569 12.6511 124.182 12.0704 122.258 12.0704Z" fill="black"/>
<path fill-rule="evenodd" clip-rule="evenodd" d="M152.047 18.3039C150.313 17.6671 148.674 17.0661 148.986 15.4661C149.143 14.6621 149.802 13.3122 152.458 13.3122C153.951 13.3122 154.893 13.7207 155.71 14.723C155.863 14.9098 156.037 14.9098 156.111 14.9098C156.451 14.9098 156.794 14.6255 156.86 14.2885C156.896 14.1057 156.861 13.9977 156.779 13.8539C156.776 13.8483 156.773 13.8426 156.769 13.8369C155.94 12.6641 154.571 12.0696 152.7 12.0696C149.973 12.0696 148.026 13.3707 147.617 15.4653C147.13 17.9725 149.372 18.8123 151.352 19.553C153.062 20.193 154.679 20.7973 154.379 22.3308C153.958 24.4968 151.663 24.8201 150.332 24.8201C148.497 24.8201 147.364 24.3262 146.543 23.1681C146.54 23.1648 146.537 23.1607 146.535 23.1575C146.433 23.0333 146.298 22.9707 146.134 22.9707C145.831 22.9707 145.457 23.2209 145.385 23.592C145.349 23.7739 145.384 23.8811 145.466 24.0257C146.012 25.0385 147.655 26.0627 150.091 26.0627C153.179 26.0627 155.294 24.6674 155.748 22.3308C156.234 19.8397 154.009 19.0235 152.047 18.3039Z" fill="black"/>
<path d="M110.003 47L111.719 37.8531C111.935 36.7042 112.096 35.6881 112.201 34.8991H112.935L112.666 36.6349H112.702C113.472 35.4722 114.546 34.7192 115.692 34.7192C117.323 34.7192 117.929 36.1145 117.929 37.5125C117.929 40.4139 115.941 43.6696 113.203 43.6696C112.361 43.6696 111.808 43.473 111.484 43.2931H111.448L110.77 46.9972H110L110.003 47ZM111.614 42.5096C112.007 42.8141 112.58 42.9913 113.278 42.9913C115.551 42.9913 117.126 39.7688 117.126 37.5651C117.126 36.5436 116.733 35.4168 115.462 35.4168C114.191 35.4168 112.652 36.9561 112.168 39.5529L111.611 42.5068L111.614 42.5096Z" fill="black"/>
<path d="M123.856 43.4896C123.836 42.9719 123.944 42.1663 124.069 41.1807H124.035C123.05 43.0771 121.959 43.6696 120.83 43.6696C119.526 43.6696 118.734 42.5954 118.734 41.0562C118.734 38.1382 120.83 34.7192 124.16 34.7192C124.769 34.7192 125.45 34.8271 125.896 34.9683L124.982 39.6055C124.678 41.1973 124.57 42.5788 124.606 43.4896H123.853H123.856ZM125.004 35.5414C124.808 35.4694 124.503 35.4168 123.966 35.4168C121.497 35.4168 119.562 38.1742 119.545 40.8762C119.526 41.9864 119.85 42.9885 121.012 42.9885C122.408 42.9885 123.986 40.8956 124.395 38.6753L125.004 35.5414Z" fill="black"/>
<path d="M126.629 43.4896L127.723 37.7063C127.936 36.6156 128.063 35.6466 128.135 34.8964H128.852C128.78 35.4528 128.708 36.0231 128.601 36.7595H128.637C129.174 35.6106 130.015 34.7192 131.089 34.7192C131.197 34.7192 131.305 34.733 131.411 34.7552L131.267 35.5608C131.167 35.5386 131.064 35.5248 130.962 35.5248C129.835 35.5248 128.581 37.2246 128.224 39.1238L127.418 43.4924H126.632L126.629 43.4896Z" fill="black"/>
<path d="M134.669 33L134.293 34.8992H136.316L136.172 35.5608H134.149L133.199 40.6797C133.091 41.2527 133.019 41.7012 133.019 42.1663C133.019 42.6674 133.252 42.9719 133.789 42.9719C134.074 42.9719 134.254 42.9553 134.414 42.9L134.467 43.5256C134.193 43.6087 133.91 43.6502 133.625 43.6502C132.604 43.6502 132.211 42.9719 132.211 42.2549C132.211 41.7898 132.263 41.3413 132.407 40.6797L133.373 35.5608H132.139L132.263 34.8992H133.515L133.8 33.3599L134.663 33.0028L134.669 33Z" fill="black"/>
<path d="M136.118 43.4896L137.267 37.4212C137.442 36.5879 137.572 35.7435 137.661 34.8964H138.375L138.139 36.6516H138.175C138.928 35.4002 140 34.7192 141.165 34.7192C142.007 34.7192 143.081 35.2563 143.081 36.8841C143.081 37.3132 143.009 37.7423 142.921 38.2074L141.935 43.4896H141.165L142.168 38.2074C142.248 37.7949 142.289 37.3769 142.292 36.9561C142.292 36.0619 141.935 35.4168 140.877 35.4168C139.729 35.4168 138.12 36.8481 137.746 38.9244L136.905 43.4896H136.116H136.118Z" fill="black"/>
<path d="M149.381 43.0079C148.932 43.2931 148.11 43.653 147.036 43.653C145.032 43.653 144.334 42.0777 144.334 40.4305C144.334 37.961 146.053 34.7192 148.523 34.7192C149.937 34.7192 150.527 35.6494 150.527 36.5962C150.527 38.7805 148.022 39.3895 145.209 39.3702C145.12 39.7633 145.104 40.8928 145.281 41.4991C145.585 42.4847 146.247 42.9498 147.158 42.9498C148.069 42.9498 148.75 42.6093 149.146 42.3767L149.381 43.0051V43.0079ZM148.379 35.4168C147.055 35.4168 145.854 36.8481 145.336 38.6919C147.573 38.7085 149.721 38.3348 149.721 36.6322C149.721 35.8266 149.184 35.4141 148.379 35.4141V35.4168Z" fill="black"/>
<path d="M150.958 43.4896L152.052 37.7063C152.267 36.6156 152.392 35.6466 152.464 34.8964H153.181C153.109 35.4528 153.037 36.0231 152.929 36.7595H152.965C153.502 35.6106 154.344 34.7192 155.418 34.7192C155.526 34.7192 155.634 34.733 155.739 34.7552L155.595 35.5608C155.495 35.5386 155.393 35.5248 155.291 35.5248C154.164 35.5248 152.91 37.2246 152.553 39.1238L151.747 43.4924H150.961L150.958 43.4896Z" fill="black"/>
</svg>
