<svg xmlns="http://www.w3.org/2000/svg" width="65" height="65" viewBox="0 0 65 65" fill="none">
  <g clip-path="url(#clip0_7219_201)">
    <path d="M48.2174 30.6564C45.5374 30.6564 43.3433 28.4801 43.3433 25.8218C43.3433 23.1635 45.5374 20.9872 48.2174 20.9872M35.3178 50.5203C38.0015 50.5203 40.192 48.3439 40.192 45.6855C40.192 43.0272 38.0015 40.8509 35.3178 40.8509M12.1659 27.714H25.6204M21.3883 22.3181H25.8344M16.8297 22.3181H12.166M12.456 48.5525H25.9105M21.6784 43.1568H26.1245M17.1198 43.1568H12.4561M3.87207 39.171V5.44717C3.87207 2.97945 5.90294 0.965088 8.39071 0.965088H56.6093C59.0935 0.965088 61.1279 2.97945 61.1279 5.44717V59.5528C61.1279 62.0168 59.0935 64.035 56.6093 64.035H8.39071C5.90294 64.035 3.87207 62.0168 3.87207 59.5528V43.5633M48.3698 5.93282H48.3988M43.2962 5.93282H43.3253M53.4723 5.93282H53.5014M33.3558 6.04068H10.9547M35.8147 10.8897H61.1243M3.87212 10.8897H30.9042M35.4339 20.9872H48.4785C51.1585 20.9872 53.3489 23.1636 53.3489 25.8218C53.3489 28.4801 51.1585 30.6565 48.4785 30.6565H35.4339C32.754 30.6565 30.5597 28.4801 30.5597 25.8218C30.5597 23.1636 32.754 20.9872 35.4339 20.9872ZM48.1013 40.8509H35.0603C32.3767 40.8509 30.1862 43.0272 30.1862 45.6855C30.1862 48.3439 32.3767 50.5203 35.0603 50.5203H48.1013C50.7813 50.5203 52.9755 48.3439 52.9755 45.6855C52.9755 43.0272 50.7813 40.8509 48.1013 40.8509Z" stroke="black" stroke-width="2" stroke-miterlimit="10" stroke-linecap="round" stroke-linejoin="round"></path>
  </g>
  <defs>
    <clipPath id="clip0_7219_201">
      <rect width="65" height="65" fill="white"></rect>
    </clipPath>
  </defs>
</svg>