<svg width="102" height="106" viewBox="0 0 102 106" fill="none" xmlns="http://www.w3.org/2000/svg">
<path d="M101.35 55.3831C101.204 68.6877 96.7042 80.3019 87.5953 90.0432C80.0309 98.1184 70.7396 103.238 59.8551 105.135C44.471 107.823 30.5583 104.248 18.4334 94.3605C9.84741 87.3555 4.10722 78.3804 1.55332 67.5932C-2.35049 51.1023 1.12767 36.156 11.7203 22.9243C15.0282 18.8016 19.0171 15.4086 23.456 12.5506C26.995 10.2765 33.3068 11.5291 34.4621 17.1112C34.8878 19.1786 34.4013 21.088 33.1 22.7662C32.9298 22.9851 32.6987 23.1676 32.4676 23.3135C22.7507 29.0415 16.6213 37.4207 14.5539 48.4876C12.2797 60.6855 15.5633 71.4727 23.9668 80.5938C29.5975 86.6988 36.6512 90.408 44.848 91.6485C56.7905 93.4605 67.2858 90.1769 76.1271 81.9315C82.3173 76.1548 86.0022 68.9431 87.1454 60.5761C88.7507 48.8646 85.3941 38.6247 77.3919 29.9293C75.1299 27.4727 72.5395 25.3809 69.6329 23.7391C68.1614 22.9122 67.4074 21.6595 67.0304 20.1272C65.9602 15.7977 69.0978 11.7358 73.5489 11.5169C75.4582 11.4196 77.1 11.9183 78.6689 12.9885C89.3831 20.2367 96.4367 30.0996 99.7811 42.5893C100.73 46.1405 101.24 49.7646 101.362 53.4373C101.362 54.094 101.35 54.7386 101.35 55.3831Z" fill="#074E15"/>
<path d="M57.6297 20.8082C57.6297 25.4052 57.6418 30.0022 57.6297 34.5993C57.6175 37.7977 55.4771 40.4975 52.3881 41.288C49.3721 42.0664 46.1615 40.68 44.6291 37.9072C44.0454 36.8613 43.7657 35.7303 43.7657 34.5385C43.7657 25.3444 43.7535 16.1504 43.7657 6.9442C43.7657 3.05255 46.8425 -0.0121253 50.6977 3.6069e-05C54.565 3.6069e-05 57.6175 3.05255 57.6297 6.9442C57.6418 11.5777 57.6297 16.1869 57.6297 20.8082Z" fill="#074E15"/>
</svg>
