<svg width="36" height="36" viewBox="0 0 36 36" fill="none" xmlns="http://www.w3.org/2000/svg">
<path d="M32.4713 21.2447C34.6976 11.25 25.9344 2.15526 15.6555 3.8842C10.0423 0.42631 2.60547 4.3342 2.60547 11.0132C2.60547 12.5053 2.98442 13.9737 3.766 15.2526C1.68178 25.2947 10.5397 34.2237 20.8186 32.3763C28.1134 36.2132 36.1186 28.5395 32.4713 21.2447ZM22.6897 27.2842C19.9897 28.3974 15.537 28.3974 12.8844 26.9763C9.04757 24.9395 8.38442 20.321 11.7002 20.321C14.2107 20.321 13.3818 23.2342 15.9397 24.3947C17.1002 24.9395 19.587 24.9632 21.0081 24.0158C22.4292 23.0684 22.2634 21.5526 21.5055 20.8421C19.4686 18.9474 13.5713 19.6816 10.8949 16.3895C9.59231 14.6605 9.616 12.2684 10.9423 10.5868C13.4292 7.3421 20.7713 7.15263 23.9213 9.56842C26.8344 11.8421 26.0292 14.8026 23.6844 14.8026C20.866 14.8026 22.3344 11.1079 17.787 11.1079C14.4713 11.1079 13.1686 13.4526 15.5134 14.6132C18.6397 16.2237 26.6686 15.6789 26.6686 21.8368C26.6923 24.3947 25.1292 26.3132 22.6897 27.2842Z" fill="black"/>
</svg>
