<svg xmlns="http://www.w3.org/2000/svg" version="1.1" id="Layer_1" x="0px" y="0px" width="200" height="95" viewBox="0 0 517.475 247.487" enable-background="new 0 0 517.475 247.487" xmlns:xlink="http://www.w3.org/1999/xlink" xml:space="preserve">
<path fill="#8F7D4B" d="M-671.176,211.315c-1.609-0.234-3.17-0.102-4.637,0.393c-1.479,0.494-2.694,1.236-3.629,2.203  c-0.174,0.188-0.344,0.369-0.51,0.557c0.059-2.963,0.219-6.361,0.471-10.146c0-0.355-0.159-0.666-0.451-0.898  c-0.262-0.213-0.578-0.316-0.952-0.316c-0.355,0-0.672,0.092-0.944,0.271c-0.441,0.297-0.505,0.672-0.505,0.834  c-0.657,9.641-0.628,17.777,0.088,24.133l0.058,0.531c0.063,0.336,0.253,0.615,0.559,0.82c0.238,0.158,0.506,0.236,0.797,0.236  c0.059,0,0.111,0,0.152-0.006c0.549-0.033,0.875-0.246,1.068-0.479c1.781-0.236,3.564-0.697,5.31-1.371  c1.829-0.709,3.389-1.566,4.634-2.549c1.901-1.467,3.199-3.381,3.865-5.686c0.791-2.66,0.375-4.861-1.254-6.549  C-668.15,212.212-669.537,211.544-671.176,211.315 M-672.604,213.567c1.359,0,2.445,0.414,3.307,1.271  c1.078,1.061,1.32,2.508,0.736,4.418c-0.572,1.879-1.604,3.42-3.056,4.576c-1.002,0.779-2.282,1.475-3.794,2.07  c-1.355,0.533-2.729,0.91-4.089,1.119c-0.21-2.074-0.345-4.258-0.413-6.488l-0.005-0.031c0.161-1.666,1.079-3.398,2.743-5.145  c0.995-1.053,2.299-1.631,3.972-1.768C-672.998,213.571-672.805,213.567-672.604,213.567"></path>
<path fill="#8F7D4B" d="M-646.072,222.583c-0.067-0.504-0.131-1.229-0.205-2.201c-0.033-0.895-0.066-1.572-0.105-2.049  c-0.068-0.83-0.116-1.752-0.152-2.727c0-0.541-0.023-0.699-0.033-0.752c-0.014-0.119-0.049-0.223-0.084-0.307  c-0.026-0.172-0.104-0.324-0.232-0.439c-0.252-0.307-0.613-0.484-1.061-0.518l-0.125-0.006c-0.816,0-1.25,0.359-1.483,0.672  c-0.146,0.211-0.239,0.469-0.281,0.771l-0.006,0.369c-0.149,0.277-0.5,1.006-1.474,3.217c-0.861,1.939-1.682,3.557-2.439,4.811  c-1.031,1.691-2.076,2.859-3.112,3.482c-0.953,0.566-1.896,0.592-2.892,0.059c-1.084-0.559-1.531-1.703-1.354-3.506  c0.189-1.869,0.992-3.873,2.383-5.957c1.43-2.105,3.033-3.641,4.77-4.553c1.688-0.875,3.205-0.932,4.512-0.174  c0.297,0.182,0.632,0.256,0.979,0.215c0.34-0.033,0.641-0.162,0.891-0.383c0.416-0.359,0.412-0.758,0.369-0.963  c-0.045-0.217-0.18-0.533-0.6-0.785c-2.339-1.355-4.93-1.322-7.642,0.111c-2.155,1.143-4.089,2.949-5.749,5.373  c-1.588,2.367-2.517,4.703-2.76,6.947c-0.254,2.721,0.626,4.637,2.615,5.695c2.115,1.084,4.22,1.002,6.168-0.205  c1.383-0.83,2.719-2.266,3.969-4.27c0.672-1.088,1.393-2.434,2.129-4.033c0.006,0.01,0.006,0.023,0.006,0.035l0.155,2.264  c0.276,2.594,0.608,4.66,0.997,6.195c0.115,0.32,0.342,0.58,0.666,0.732c0.219,0.105,0.459,0.162,0.711,0.162  c0.087,0,0.178-0.01,0.276-0.025c0.368-0.055,0.669-0.197,0.886-0.439c0.242-0.266,0.34-0.598,0.268-0.963  C-645.514,227.022-645.834,225.06-646.072,222.583"></path>
<path fill="#8F7D4B" d="M-631.208,211.118c-1.62-0.158-3.175,0.049-4.62,0.605c-1.449,0.563-2.635,1.359-3.52,2.365  c-0.166,0.191-0.326,0.383-0.484,0.582c-0.076-2.963-0.076-6.361,0-10.162c-0.016-0.355-0.182-0.656-0.484-0.879  c-0.271-0.191-0.598-0.285-0.968-0.268c-0.354,0.016-0.669,0.125-0.929,0.313c-0.428,0.316-0.48,0.695-0.467,0.857  c-0.219,9.66,0.188,17.789,1.191,24.107l0.084,0.52c0.071,0.332,0.273,0.609,0.586,0.797c0.25,0.148,0.521,0.213,0.813,0.203  c0.055-0.006,0.113-0.01,0.148-0.016c0.549-0.059,0.865-0.285,1.049-0.523c1.77-0.32,3.529-0.863,5.235-1.619  c1.8-0.785,3.321-1.717,4.513-2.754c1.833-1.549,3.049-3.521,3.604-5.852c0.67-2.695,0.15-4.877-1.553-6.492  C-628.146,211.872-629.563,211.276-631.208,211.118 M-632.537,213.427c1.367-0.061,2.459,0.307,3.359,1.121  c1.128,1.016,1.436,2.453,0.943,4.383c-0.484,1.904-1.447,3.494-2.848,4.713c-0.963,0.824-2.207,1.58-3.689,2.24  c-1.33,0.592-2.681,1.033-4.043,1.309c-0.301-2.072-0.533-4.25-0.704-6.465V220.7c0.073-1.678,0.918-3.449,2.499-5.275  c0.947-1.092,2.223-1.725,3.891-1.943C-632.931,213.458-632.73,213.437-632.537,213.427"></path>
<path fill="#8F7D4B" d="M-606.646,226.636c-0.035-0.775-0.098-1.764-0.186-2.961c-0.081-1.178-0.125-1.99-0.129-2.43  c-0.103-2.902-0.195-5.162-0.266-6.787c-0.031-0.818-0.07-1.426-0.1-1.781v-0.443l-0.055-0.186c0-0.123-0.033-0.244-0.102-0.35  c-0.034-0.086-0.096-0.182-0.195-0.27c-0.199-0.229-0.543-0.479-1.133-0.479c-0.682,0-1.045,0.32-1.229,0.59l-0.189,0.283v1.744  c0.004,1.178-0.029,2.217-0.094,3.088c-0.195,2.305-0.82,4.51-1.852,6.545c-0.672,1.232-1.406,2.172-2.189,2.785  c-0.813,0.615-1.695,0.867-2.68,0.787c-0.889-0.078-1.551-0.605-2.016-1.627c-0.507-1.021-0.744-2.51-0.715-4.408  c0.028-1.939,0.445-4.938,1.244-8.914c0.063-0.361-0.059-0.705-0.326-0.973c-0.236-0.227-0.549-0.361-0.918-0.395  c-0.355-0.035-0.686,0.029-0.978,0.188c-0.433,0.236-0.567,0.553-0.614,0.781c-0.805,4.115-1.229,7.244-1.257,9.303  c-0.036,2.182,0.257,3.963,0.869,5.309c0.89,1.863,2.376,2.898,4.42,3.086c1.813,0.158,3.466-0.316,4.911-1.395  c1.089-0.82,2.021-1.996,2.785-3.488c0.059,0.82,0.098,1.463,0.113,1.928c0.02,0.496,0.029,1.119,0.029,1.857  c0,0.719-0.049,1.375-0.143,1.941c-0.092,0.572-0.229,1.117-0.384,1.604c-0.458,1.408-1.268,2.316-2.479,2.781  c-1.475,0.572-3.715,0.531-6.643-0.125c-0.324-0.063-0.65-0.049-0.951,0.055c-0.473,0.158-0.668,0.471-0.755,0.701  c-0.121,0.334-0.087,0.668,0.104,0.967c0.179,0.287,0.479,0.469,0.868,0.537c1.789,0.412,3.419,0.621,4.843,0.621  c1.429,0,2.7-0.205,3.774-0.621c1.96-0.768,3.301-2.205,3.985-4.26c0.284-0.799,0.472-1.746,0.556-2.816  C-606.637,228.366-606.613,227.435-606.646,226.636"></path>
<path fill="#0033A0" d="M-750.879,173.605l-5.154-3.121c-1.967-1.195-5.264-3.721-5.311-7.395c-0.018-0.91,0.112-2.639,1.092-4.1  c1.145-1.711,3.15-2.6,5.947-2.635c2.976-0.031,6.609,0.695,8.375,6.818l0.064,0.127c0.221,0.254,0.598,0.377,1.051,0.346  c0.42-0.02,1.004-0.207,1.271-0.619l0.072-0.117v-0.137c-0.033-2.836-0.709-6.457-1.285-7.941l-0.121-0.283h-0.311  c-0.457,0.01-1.305-0.1-2.12-0.346c-1.526-0.389-3.923-0.789-6.073-0.75c-3.943,0.047-7.297,1.189-9.701,3.271  c-2.416,2.104-3.666,4.988-3.627,8.35c0.052,3.047,1.344,7.473,7.266,11.268l6.123,3.879c4.453,2.775,5.104,5.725,5.146,8.486  c0.024,1.82-0.591,3.51-1.737,4.748c-1.32,1.433-3.291,2.208-5.694,2.247c-6.489,0.064-9.382-4.888-10.688-9.097l-0.041-0.066  c-0.186-0.283-0.511-0.42-0.93-0.426c-0.463,0.01-1.061,0.209-1.354,0.627l-0.092,0.137l0.012,0.158  c0.16,2.885,1.051,7.59,1.91,9.106l0.059,0.111l0.115,0.061c1.219,0.688,4.635,2.285,9.858,2.285h0.362  c4.109-0.059,7.605-1.271,10.119-3.506c2.516-2.257,3.817-5.358,3.772-8.962C-742.576,181.031-745.314,176.945-750.879,173.605"></path>
<path fill="#0033A0" d="M-717.527,174.998c-2.432-2.264-5.688-3.447-9.18-3.359c-7.672,0.221-13.285,6.258-13.059,14.033  c0.111,3.805,1.509,7.047,4.029,9.36c2.318,2.119,5.456,3.289,8.861,3.289c0.146,0,0.302,0,0.442-0.008  c7.853-0.232,13.169-5.97,12.938-13.964C-713.604,180.658-715.037,177.334-717.527,174.998 M-720.482,192.543  c-1.153,2.271-2.963,3.456-5.389,3.53c-3.793,0.119-7.962-3.407-8.203-11.38c-0.092-3.242,0.531-5.988,1.784-7.918  c1.195-1.836,2.889-2.83,4.907-2.889c6.205-0.18,8.075,7.227,8.195,11.623C-719.098,188.229-719.564,190.727-720.482,192.543"></path>
<path fill="#0033A0" d="M-607.748,195.938l-1.452-0.215c-2.048-0.285-2.216-0.674-2.216-5.251v-10.729  c0-4.945-2.791-7.914-7.473-7.914c-3.182,0-6.092,1.529-8.779,3.182c-0.338-0.02-0.459-0.277-0.459-0.5c0-0.563,0-1.484,0.124-2.916  v-0.045l-0.009-0.039c-0.164-0.404-0.559-0.553-0.855-0.553h-0.061l-0.039,0.033c-1.262,0.953-4.818,2.559-6.225,3.053  c-0.176,0.098-0.283,0.307-0.324,0.572c-0.037,0.322,0.053,0.648,0.258,0.848l0.561,0.377c1.598,1.074,1.598,1.316,1.598,3.719  v10.912c0,4.534-0.061,4.95-2.213,5.251l-1.313,0.191l-0.076,0.023c-0.301,0.219-0.377,0.662-0.34,1.014  c0.039,0.322,0.187,0.729,0.498,0.852l0.043,0.023h0.039c1.791-0.127,3.646-0.191,5.857-0.191c2.137,0,3.934,0.064,5.654,0.191  h0.039l0.049-0.023c0.305-0.123,0.456-0.529,0.486-0.852c0.041-0.352-0.03-0.795-0.336-1.014l-1.194-0.215  c-2.073-0.348-2.222-0.691-2.222-5.251v-9.537c0-1.811,0.137-2.641,0.902-3.633c0.748-1.025,2.682-2.111,5.154-2.111  c4.698,0,5.686,3.254,5.686,5.986v9.295c0,4.479-0.065,4.903-2.223,5.251l-1.18,0.191l-0.082,0.023  c-0.299,0.219-0.371,0.666-0.334,1.014c0.035,0.322,0.187,0.729,0.496,0.852l0.037,0.023h0.052c1.704-0.127,3.593-0.191,5.776-0.191  c2.1,0,3.907,0.053,5.852,0.191h0.049l0.031-0.023c0.318-0.123,0.461-0.529,0.498-0.852  C-607.373,196.601-607.443,196.157-607.748,195.938"></path>
<path fill="#0033A0" d="M-596.063,182.434l-0.291-0.154c-2.104-1.133-4.484-2.408-4.541-4.742c-0.049-2.172,1.439-3.668,3.721-3.725  c2.324-0.059,4.256,1.473,5.434,4.305l0.027,0.055c0.177,0.203,0.511,0.295,0.881,0.256c0.318-0.033,0.734-0.195,0.9-0.516  l0.029-0.047v-0.039c-0.043-1.609-0.488-3.613-1.139-5.09l-0.055-0.059c-0.643-0.559-3.064-1.102-5.627-1.039  c-5.176,0.127-8.589,3.139-8.48,7.492c0.094,3.744,3.152,5.898,6.447,7.678c2.519,1.342,4.789,2.777,4.846,5.457  c0.07,2.827-2.059,3.864-3.9,3.909c-3.717,0.092-5.635-3.282-6.592-6.136l-0.035-0.064c-0.168-0.188-0.455-0.297-0.791-0.297  c-0.367,0.031-0.724,0.164-0.916,0.406l-0.034,0.047v0.061c-0.075,2.055,0.368,5.146,0.911,6.356l0.059,0.068  c1.631,1.246,3.869,1.809,6.832,1.736c4.408-0.104,9.098-2.496,8.971-7.501C-589.516,186.305-592.748,184.209-596.063,182.434"></path>
<path fill="#0033A0" d="M-668.271,182.434l-0.292-0.154c-2.104-1.133-4.482-2.408-4.543-4.742c-0.052-2.172,1.443-3.668,3.723-3.725  c2.326-0.059,4.254,1.473,5.43,4.305l0.025,0.055c0.182,0.203,0.51,0.295,0.883,0.256c0.326-0.033,0.729-0.195,0.898-0.516  l0.024-0.047v-0.039c-0.042-1.609-0.481-3.613-1.138-5.09l-0.042-0.059c-0.651-0.559-3.065-1.102-5.638-1.039  c-5.173,0.127-8.584,3.139-8.477,7.492c0.088,3.744,3.154,5.898,6.455,7.678c2.513,1.342,4.778,2.777,4.843,5.457  c0.067,2.827-2.06,3.864-3.901,3.909c-3.719,0.092-5.637-3.282-6.6-6.136l-0.029-0.064c-0.173-0.188-0.459-0.297-0.789-0.297  c-0.371,0.031-0.727,0.164-0.922,0.406l-0.031,0.047l-0.004,0.061c-0.078,2.055,0.369,5.146,0.916,6.356l0.055,0.068  c1.639,1.246,3.875,1.809,6.823,1.736c4.418-0.104,9.106-2.496,8.983-7.501C-661.727,186.305-664.965,184.209-668.271,182.434"></path>
<path fill="#0033A0" d="M-680.381,172.547l-0.047-0.025h-6.465c-0.949,0-0.949,0-0.949-1.018v-3.232l-0.018-0.041  c-0.305-0.541-1.164-0.541-1.533-0.385l-0.068,0.018l-0.027,0.064c-0.623,1.25-1.612,3.375-2.38,4.088  c-0.614,0.582-1.485,1.248-2.747,1.561c-0.138,0.033-0.479,0.051-0.557,0.051c-0.263,0-0.866,0.023-1.08,0.547  c-0.164,0.377-0.49,1.314-0.49,1.314h2.734c1.113,0,1.135,0,1.135,1.637v14.279c0,3.221,0.758,6.909,6.66,6.909  c3.313,0,4.563-1.133,5.66-2.416l0.036-0.061c0.099-0.283,0.017-0.67-0.179-0.947c-0.162-0.224-0.279-0.312-0.521-0.312  c-0.189,0-0.406,0.241-0.691,0.337c-0.528,0.209-1.078,0.303-1.615,0.303c-4.043,0-4.378-3.333-4.378-6.745v-11.66  c0-1.271,0.036-1.324,0.94-1.324h6.593l0.039-0.023c0.382-0.246,0.532-0.863,0.54-1.352  C-679.766,173.424-679.992,172.842-680.381,172.547"></path>
<path fill="#0033A0" d="M-695.667,152.273c-7.169,0-10.423,5.668-11.489,8.104c-1.328,3.09-1.971,6.73-1.971,11.145  c0,0.461-0.266,0.811-0.842,1.104l-2.746,1.344l-0.031,0.035c-0.154,0.236-0.215,0.539-0.162,0.834  c0.063,0.258,0.195,0.479,0.396,0.613l0.053,0.031h2.254c1.078,0,1.078,0,1.078,1.646V190.4c0,4.585-0.063,5.011-2.23,5.304  l-1.451,0.193l-0.08,0.023c-0.313,0.229-0.379,0.674-0.34,1.02c0.04,0.334,0.188,0.74,0.496,0.863l0.041,0.023h0.044  c1.933-0.127,3.849-0.191,6.029-0.191c2.194,0,4.036,0.064,6.856,0.191h0.035l0.039-0.023c0.313-0.123,0.466-0.529,0.502-0.863  c0.035-0.34-0.032-0.791-0.34-1.02l-0.045-0.023l-2.312-0.193c-2.104-0.176-2.222-0.768-2.222-5.304v-13.271  c0-1.646,0-1.646,0.883-1.646h3.636l0.06-0.018c0.229-0.072,0.436-0.303,0.59-0.59c0.014-0.023,0.035-0.045,0.049-0.064  c0.283-0.582,0.75-2.031,0.766-2.102l0.088-0.225h-1.045h-4.143c-0.883,0-0.883,0-0.883-1.588v-1.826  c0-2.643,0.172-7.521,1.369-10.568c0.911-2.199,2.398-3.357,4.301-3.357c2.121,0,3.832,1.479,4.898,2.721  c0.453,0.508,0.875,0.813,1.649,0.813c1.364,0,2.565-1.141,2.565-2.441C-689.32,153.98-692.051,152.273-695.667,152.273"></path>
<path fill="#0033A0" d="M-637.739,191.979c-0.149-0.389-0.494-0.607-0.888-0.607c-0.229,0-0.453,0.109-0.614,0.297  c-1.64,1.994-3.21,2.809-5.442,2.809c-5.068,0-10.171-3.563-10.171-11.496c0-1.895,0.438-4.508,1.704-6.123  c1.428-1.846,3.619-2.988,5.717-2.988c3.418,0,4.629,2.018,4.629,3.746c0,0.842-0.213,0.986-0.301,1.049  c-0.305,0.223-0.845,0.398-2.176,0.486h-0.016c-0.706,0.057-3.842,0.014-4.328-0.002c-0.051,0-1.197-0.045-1.5,0.68  c-0.208,0.488-0.521,1.375-0.537,1.418l-0.079,0.234h9.925c2.811,0,3.596-0.066,3.838-0.529c0.119-0.25,0.266-0.738,0.266-1.709  c0-3.732-3.383-7.604-9.033-7.604c-7.244,0-12.715,6.141-12.715,14.277c0,2.178,0.467,5.365,2.662,8.219  c2.027,2.657,5.376,4.179,9.184,4.179c3.182,0,7.672-1.482,9.838-5.671C-637.666,192.428-637.654,192.188-637.739,191.979"></path>
<path fill="#0033A0" d="M-591.396,166.961v-0.018c0-1.459,1.188-2.684,2.692-2.684c1.504,0,2.676,1.209,2.676,2.67v0.014  c0,1.463-1.184,2.686-2.691,2.686C-590.225,169.629-591.396,168.42-591.396,166.961 M-586.271,166.943v-0.014  c0-1.344-1.045-2.439-2.432-2.439c-1.393,0-2.447,1.111-2.447,2.453v0.018c0,1.34,1.046,2.439,2.432,2.439  C-587.324,169.4-586.271,168.287-586.271,166.943 M-589.766,165.492h1.232c0.35,0,0.639,0.109,0.816,0.289  c0.133,0.125,0.223,0.311,0.223,0.533v0.016c0,0.443-0.299,0.709-0.712,0.807l0.853,1.105h-0.504l-0.794-1.037h-0.704v1.037h-0.41  V165.492z M-588.57,166.84c0.387,0,0.653-0.18,0.653-0.49v-0.014c0-0.289-0.237-0.475-0.63-0.475h-0.809v0.979H-588.57z"></path>
<g>
	<path fill="#0033A0" d="M59.239,118.88l-13.634-8.261c-5.2-3.126-13.929-9.826-14.066-19.557   c-0.031-2.396,0.303-6.977,2.896-10.827c3.049-4.531,8.347-6.872,15.754-6.979c7.854-0.092,17.48,1.869,22.127,18.058l0.181,0.292   c0.604,0.693,1.59,1.027,2.786,0.943c1.108-0.081,2.655-0.556,3.369-1.643l0.204-0.311l-0.01-0.36   c-0.103-7.49-1.889-17.077-3.414-20.994l-0.313-0.78l-0.826,0.018c-1.197,0.023-3.445-0.267-5.611-0.896   c-4.034-1.029-10.37-2.118-16.06-2.015c-10.425,0.144-19.296,3.137-25.657,8.674c-6.402,5.557-9.717,13.19-9.594,22.083   c0.111,8.054,3.535,19.77,19.208,29.809l16.204,10.246c11.785,7.377,13.501,15.152,13.603,22.458   c0.074,4.829-1.57,9.288-4.594,12.572c-3.495,3.778-8.7,5.83-15.058,5.918c-17.161,0.206-24.826-12.922-28.28-24.029l-0.104-0.208   c-0.485-0.717-1.355-1.106-2.469-1.114c-1.216,0.025-2.798,0.55-3.573,1.663l-0.246,0.343l0.035,0.42   c0.427,7.626,2.779,20.09,5.042,24.113l0.164,0.291l0.298,0.171c3.239,1.822,12.271,6.047,26.097,6.047   c0.317,0,0.63-0.005,0.955-0.005c10.872-0.159,20.122-3.374,26.755-9.303c6.664-5.951,10.109-14.155,9.975-23.673   C81.203,138.558,73.953,127.707,59.239,118.88z"></path>
	<g>
		<g>
			<path fill="#0033A0" d="M147.462,122.597c-6.438-6.007-15.05-9.151-24.271-8.902c-20.294,0.592-35.145,16.553-34.545,37.125     c0.281,10.064,3.973,18.629,10.657,24.77c6.137,5.633,14.427,8.691,23.451,8.691c0.392,0,0.775,0,1.161-0.021     c20.771-0.59,34.832-15.797,34.226-36.943C157.863,137.532,154.061,128.759,147.462,122.597z M139.643,168.974     c-3.049,6.025-7.838,9.167-14.249,9.353c-10.031,0.322-21.075-8.992-21.691-30.09c-0.246-8.601,1.382-15.85,4.713-20.95     c3.163-4.844,7.65-7.488,12.975-7.645c16.427-0.486,21.364,19.107,21.71,30.751C143.304,157.582,142.076,164.179,139.643,168.974     z"></path>
		</g>
	</g>
	<g>
		<g>
			<path fill="#0033A0" d="M437.883,177.987l-3.841-0.586c-5.411-0.748-5.853-1.796-5.853-13.882V135.15     c0-13.111-7.393-20.932-19.779-20.932c-8.416,0-16.125,4.028-23.222,8.396c-0.894-0.051-1.211-0.739-1.211-1.329     c0-1.468,0-3.949,0.329-7.714v-0.103l-0.035-0.115c-0.432-1.073-1.474-1.448-2.256-1.448h-0.154L381.738,112     c-3.326,2.498-12.739,6.75-16.457,8.047c-0.462,0.28-0.761,0.823-0.849,1.537c-0.102,0.857,0.124,1.713,0.669,2.236l1.479,0.985     c4.245,2.839,4.245,3.503,4.245,9.839v28.874c0,11.978-0.168,13.112-5.868,13.882l-3.465,0.498l-0.201,0.088     c-0.811,0.559-0.99,1.743-0.897,2.653c0.092,0.867,0.483,1.919,1.306,2.279l0.106,0.05l0.113-0.014     c4.743-0.33,9.655-0.493,15.483-0.493c5.651,0,10.411,0.163,14.975,0.493l0.113,0.014l0.107-0.05     c0.826-0.36,1.223-1.412,1.303-2.279c0.104-0.914-0.08-2.095-0.881-2.653l-3.173-0.581c-5.482-0.909-5.869-1.829-5.869-13.887     v-25.241c0-4.796,0.36-6.973,2.382-9.621c1.978-2.688,7.091-5.581,13.646-5.581c12.428,0,15.031,8.62,15.031,15.854v24.59     c0,11.838-0.165,12.961-5.873,13.882l-3.142,0.498l-0.189,0.088c-0.817,0.563-0.991,1.748-0.898,2.653     c0.097,0.877,0.488,1.929,1.319,2.279l0.098,0.05l0.123-0.014c4.497-0.33,9.513-0.493,15.309-0.493     c5.549,0,10.318,0.158,15.462,0.493l0.124,0.014l0.097-0.05c0.832-0.36,1.228-1.412,1.311-2.279     C438.873,179.727,438.693,178.546,437.883,177.987z"></path>
		</g>
	</g>
	<g>
		<g>
			<path fill="#0033A0" d="M468.803,142.248l-0.766-0.416c-5.554-2.978-11.875-6.363-12.017-12.554     c-0.136-5.738,3.824-9.688,9.852-9.826c6.139-0.154,11.242,3.886,14.354,11.392l0.075,0.123c0.484,0.542,1.355,0.791,2.327,0.683     c0.851-0.097,1.924-0.506,2.391-1.37l0.062-0.1l-0.005-0.127c-0.102-4.258-1.281-9.549-3.002-13.476l-0.128-0.172     c-1.715-1.447-8.112-2.882-14.898-2.721c-13.701,0.334-22.717,8.301-22.431,19.829c0.237,9.903,8.343,15.607,17.066,20.296     c6.658,3.562,12.655,7.354,12.818,14.459c0.185,7.44-5.447,10.222-10.323,10.34c-9.82,0.242-14.903-8.692-17.44-16.238     l-0.093-0.158c-0.457-0.523-1.215-0.799-2.082-0.786c-0.993,0.066-1.932,0.427-2.434,1.061l-0.1,0.115l-0.005,0.16     c-0.194,5.438,0.985,13.612,2.429,16.821l0.149,0.175c4.338,3.296,10.24,4.805,18.059,4.62     c11.669-0.286,24.068-6.622,23.751-19.864C486.118,152.495,477.555,146.92,468.803,142.248z"></path>
		</g>
	</g>
	<g>
		<g>
			<path fill="#0033A0" d="M277.767,142.248l-0.77-0.416c-5.562-2.978-11.859-6.363-12.013-12.554     c-0.14-5.738,3.819-9.688,9.847-9.826c6.148-0.154,11.257,3.886,14.358,11.392l0.083,0.123c0.476,0.542,1.343,0.791,2.319,0.683     c0.857-0.097,1.936-0.506,2.394-1.37l0.065-0.1l-0.012-0.127c-0.102-4.258-1.276-9.549-2.997-13.476l-0.128-0.172     c-1.715-1.447-8.112-2.882-14.903-2.721c-13.697,0.334-22.712,8.301-22.435,19.829c0.241,9.903,8.347,15.607,17.075,20.296     c6.658,3.562,12.644,7.354,12.823,14.459c0.18,7.44-5.452,10.222-10.333,10.34c-9.821,0.242-14.907-8.692-17.45-16.238     l-0.092-0.158c-0.446-0.523-1.207-0.799-2.078-0.786c-0.977,0.066-1.927,0.427-2.434,1.061l-0.093,0.115l-0.007,0.16     c-0.194,5.438,0.985,13.612,2.434,16.821l0.145,0.175c4.328,3.296,10.235,4.805,18.066,4.62     c11.657-0.286,24.065-6.622,23.748-19.864C295.082,152.495,286.52,146.92,277.767,142.248z"></path>
		</g>
	</g>
	<g>
		<g>
			<path fill="#0033A0" d="M245.738,116.107l-0.119-0.09h-17.116c-2.495,0-2.495,0-2.495-2.67v-8.572l-0.062-0.103     c-0.81-1.43-3.07-1.43-4.056-1.025l-0.164,0.067l-0.075,0.154c-1.663,3.318-4.268,8.935-6.301,10.829     c-1.628,1.518-3.933,3.278-7.278,4.114c-0.355,0.096-1.254,0.145-1.469,0.145c-0.683,0-2.289,0.063-2.86,1.433     c-0.426,1.006-1.298,3.498-1.298,3.498h7.26c2.926,0,2.987,0,2.987,4.308v37.774c0,8.522,2.007,18.289,17.628,18.289     c8.765,0,12.074-3.023,14.96-6.386l0.088-0.163c0.256-0.756,0.062-1.794-0.457-2.523c-0.427-0.583-0.744-0.827-1.382-0.827     c-0.497,0-1.092,0.671-1.821,0.912c-1.413,0.523-2.86,0.794-4.299,0.794c-10.671,0-11.569-8.821-11.569-17.844v-30.845     c0-3.355,0.098-3.489,2.5-3.489h17.424l0.123-0.085c0.996-0.665,1.379-2.284,1.422-3.576     C247.365,118.423,246.769,116.88,245.738,116.107z"></path>
		</g>
	</g>
	<g>
		<g>
			<path fill="#0033A0" d="M205.3,62.463c-18.969,0-27.579,14.985-30.403,21.43c-3.507,8.168-5.21,17.812-5.21,29.491     c0,1.224-0.708,2.143-2.223,2.911l-7.269,3.553l-0.074,0.104c-0.419,0.627-0.585,1.43-0.419,2.192     c0.138,0.683,0.502,1.261,1.052,1.625l0.113,0.079h5.972c2.848,0,2.848,0,2.848,4.359v35.137c0,12.088-0.154,13.232-5.904,14.01     l-3.834,0.51l-0.206,0.08c-0.814,0.571-1,1.768-0.898,2.685c0.093,0.874,0.488,1.931,1.32,2.291l0.102,0.05l0.114-0.014     c5.108-0.33,10.179-0.493,15.95-0.493c5.813,0,10.662,0.163,18.125,0.493l0.104,0.009l0.106-0.045     c0.827-0.36,1.219-1.412,1.315-2.284c0.102-0.924-0.083-2.115-0.894-2.691l-0.108-0.076l-6.13-0.514     c-5.559-0.457-5.888-2.014-5.888-14.01v-35.137c0-4.359,0-4.359,2.353-4.359h9.615l0.168-0.027     c0.598-0.222,1.125-0.807,1.557-1.584c0.035-0.057,0.098-0.101,0.123-0.16c0.744-1.54,1.998-5.39,2.047-5.549l0.202-0.611h-2.741     h-0.012h-10.959c-2.353,0-2.353,0-2.353-4.196v-4.827c0-6.979,0.474-19.891,3.63-27.96c2.412-5.801,6.35-8.866,11.383-8.866     c5.61,0,10.147,3.894,12.962,7.165c1.201,1.371,2.299,2.158,4.357,2.158c3.62,0,6.803-3.024,6.803-6.463     C222.097,66.967,214.875,62.463,205.3,62.463z"></path>
		</g>
	</g>
	<g>
		<g>
			<path fill="#0033A0" d="M358.55,167.493c-0.415-1.007-1.308-1.621-2.376-1.621l0,0c-0.586,0-1.186,0.306-1.607,0.813     c-4.333,5.255-8.501,7.399-14.4,7.399c-13.398,0-26.916-9.39-26.916-30.386c0-5.017,1.183-11.911,4.514-16.208     c3.779-4.877,9.579-7.894,15.149-7.894c9.025,0,12.229,5.342,12.229,9.924c0,2.218-0.571,2.601-0.801,2.755     c-0.801,0.59-2.223,1.034-5.755,1.299l0,0h-0.031c-1.884,0.134-10.174,0.032-11.453-0.031c-0.133,0-3.168-0.115-3.974,1.807     c-0.56,1.311-1.376,3.651-1.407,3.743l-0.226,0.632h26.255c7.433,0,9.532-0.183,10.16-1.417c0.317-0.638,0.708-1.951,0.708-4.505     c0-9.881-8.944-20.096-23.899-20.096c-19.173,0-33.635,16.228-33.635,37.746c0,5.75,1.227,14.189,7.034,21.743     c5.369,7.044,14.219,11.063,24.298,11.063c8.423,0,20.298-3.926,26.022-15C358.729,168.681,358.772,168.024,358.55,167.493z"></path>
		</g>
	</g>
	<path fill="#0033A0" d="M482.763,103.574v-0.072c0-6.156,5.012-11.323,11.359-11.323c6.345,0,11.292,5.101,11.292,11.264v0.06   c0,6.173-4.994,11.33-11.356,11.33C487.705,114.832,482.763,109.732,482.763,103.574 M504.381,103.502v-0.06   c0-5.667-4.409-10.29-10.259-10.29c-5.876,0-10.323,4.689-10.323,10.35v0.072c0,5.657,4.411,10.292,10.259,10.292   C499.938,113.866,504.381,109.169,504.381,103.502 M489.639,97.379h5.198c1.477,0,2.699,0.462,3.448,1.219   c0.557,0.527,0.938,1.309,0.938,2.249v0.068c0,1.871-1.26,2.99-3.004,3.403l3.599,4.664h-2.125l-3.353-4.376h-2.969v4.376h-1.732   V97.379z M494.684,103.066c1.63,0,2.758-0.758,2.758-2.07v-0.056c0-1.223-1.002-2.003-2.656-2.003h-3.414v4.129H494.684z"></path>
</g>
<g>
	<g>
		<path fill="#0033A0" d="M-533.591,29.966l-5.188-3.143c-1.979-1.189-5.299-3.738-5.352-7.44c-0.012-0.911,0.115-2.654,1.102-4.119    c1.16-1.724,3.176-2.614,5.994-2.655c2.988-0.035,6.65,0.711,8.418,6.87l0.068,0.111c0.23,0.264,0.605,0.391,1.061,0.358    c0.422-0.03,1.01-0.211,1.281-0.625l0.078-0.118l-0.004-0.137c-0.039-2.85-0.719-6.497-1.299-7.987l-0.119-0.297l-0.314,0.007    c-0.455,0.009-1.311-0.102-2.135-0.341c-1.535-0.392-3.945-0.806-6.109-0.767c-3.967,0.055-7.342,1.193-9.762,3.3    c-2.436,2.114-3.697,5.019-3.65,8.401c0.043,3.064,1.346,7.521,7.309,11.341l6.164,3.898c4.484,2.807,5.137,5.765,5.176,8.544    c0.027,1.837-0.598,3.534-1.748,4.783c-1.33,1.438-3.311,2.219-5.729,2.252c-6.529,0.078-9.445-4.917-10.76-9.143l-0.039-0.079    c-0.186-0.272-0.516-0.421-0.939-0.424c-0.463,0.01-1.064,0.209-1.359,0.633l-0.094,0.13l0.014,0.16    c0.162,2.901,1.057,7.644,1.918,9.174l0.063,0.111l0.113,0.064c1.232,0.693,4.668,2.301,9.928,2.301    c0.121,0,0.24-0.002,0.363-0.002c4.137-0.061,7.656-1.283,10.18-3.539c2.535-2.265,3.846-5.386,3.795-9.007    C-525.235,37.452-527.993,33.324-533.591,29.966z"></path>
		<g>
			<g>
				<path fill="#0033A0" d="M-500.026,31.38c-2.449-2.285-5.727-3.481-9.234-3.387c-7.721,0.226-13.371,6.298-13.143,14.124      c0.107,3.829,1.512,7.088,4.055,9.424c2.334,2.143,5.488,3.307,8.922,3.307c0.148,0,0.295,0,0.441-0.008      c7.902-0.225,13.252-6.01,13.021-14.056C-496.069,37.063-497.517,33.725-500.026,31.38z M-503.001,49.024      c-1.16,2.292-2.982,3.487-5.422,3.558c-3.816,0.123-8.018-3.421-8.252-11.447c-0.094-3.272,0.525-6.03,1.793-7.971      c1.203-1.843,2.91-2.849,4.936-2.908c6.25-0.186,8.129,7.27,8.26,11.699C-501.608,44.69-502.075,47.2-503.001,49.024z"></path>
			</g>
		</g>
		<g>
			<g>
				<path fill="#0033A0" d="M-389.536,52.453l-1.461-0.223c-2.059-0.284-2.227-0.683-2.227-5.281V36.156      c0-4.988-2.813-7.964-7.525-7.964c-3.201,0-6.135,1.532-8.834,3.194c-0.34-0.02-0.461-0.281-0.461-0.506      c0-0.559,0-1.502,0.125-2.935v-0.039l-0.014-0.044c-0.164-0.408-0.561-0.551-0.857-0.551h-0.059l-0.047,0.036      c-1.266,0.95-4.848,2.568-6.262,3.062c-0.176,0.106-0.289,0.313-0.322,0.585c-0.039,0.326,0.047,0.651,0.254,0.851l0.563,0.375      c1.615,1.08,1.615,1.333,1.615,3.743v10.985c0,4.557-0.064,4.988-2.232,5.281l-1.318,0.189l-0.076,0.033      c-0.309,0.213-0.377,0.664-0.342,1.01c0.035,0.33,0.184,0.73,0.496,0.867l0.041,0.02l0.043-0.006      c1.805-0.125,3.674-0.188,5.891-0.188c2.15,0,3.961,0.063,5.697,0.188l0.043,0.006l0.041-0.02      c0.314-0.137,0.465-0.537,0.496-0.867c0.039-0.348-0.031-0.797-0.336-1.01l-1.207-0.221c-2.086-0.346-2.232-0.695-2.232-5.283      v-9.604c0-1.824,0.137-2.652,0.906-3.66c0.752-1.022,2.697-2.123,5.191-2.123c4.729,0,5.719,3.279,5.719,6.031v9.355      c0,4.504-0.063,4.931-2.234,5.281l-1.195,0.189l-0.072,0.033c-0.311,0.215-0.377,0.666-0.342,1.01      c0.037,0.334,0.186,0.734,0.502,0.867l0.037,0.02l0.047-0.006c1.711-0.125,3.619-0.188,5.824-0.188      c2.111,0,3.926,0.061,5.883,0.188l0.047,0.006l0.037-0.02c0.316-0.137,0.467-0.537,0.498-0.867      C-389.159,53.115-389.228,52.666-389.536,52.453z"></path>
			</g>
		</g>
		<g>
			<g>
				<path fill="#0033A0" d="M-377.772,38.856l-0.291-0.158c-2.113-1.133-4.518-2.421-4.572-4.776      c-0.051-2.183,1.455-3.686,3.748-3.738c2.336-0.059,4.277,1.479,5.461,4.334l0.029,0.047c0.184,0.206,0.516,0.301,0.885,0.26      c0.324-0.037,0.732-0.192,0.91-0.521l0.023-0.038l-0.002-0.048c-0.039-1.62-0.488-3.633-1.143-5.127l-0.049-0.065      c-0.652-0.551-3.086-1.097-5.668-1.035c-5.213,0.127-8.643,3.158-8.533,7.544c0.09,3.768,3.174,5.938,6.492,7.722      c2.533,1.354,4.814,2.798,4.877,5.501c0.07,2.83-2.072,3.889-3.928,3.934c-3.736,0.092-5.67-3.307-6.635-6.178l-0.035-0.061      c-0.174-0.199-0.463-0.304-0.793-0.299c-0.377,0.025-0.734,0.162-0.926,0.403l-0.037,0.044l-0.002,0.061      c-0.074,2.069,0.375,5.18,0.924,6.4l0.057,0.066c1.65,1.254,3.896,1.828,6.871,1.758c4.439-0.109,9.156-2.52,9.035-7.558      C-371.185,42.755-374.442,40.634-377.772,38.856z"></path>
			</g>
		</g>
		<g>
			<g>
				<path fill="#0033A0" d="M-450.452,38.856l-0.293-0.158c-2.115-1.133-4.512-2.421-4.57-4.776      c-0.053-2.183,1.453-3.686,3.746-3.738c2.34-0.059,4.283,1.479,5.463,4.334l0.031,0.047c0.182,0.206,0.512,0.301,0.883,0.26      c0.326-0.037,0.736-0.192,0.91-0.521l0.025-0.038l-0.004-0.048c-0.039-1.62-0.486-3.633-1.141-5.127l-0.049-0.065      c-0.652-0.551-3.086-1.097-5.67-1.035c-5.211,0.127-8.641,3.158-8.535,7.544c0.092,3.768,3.176,5.938,6.496,7.722      c2.533,1.354,4.811,2.798,4.879,5.501c0.068,2.83-2.074,3.889-3.932,3.934c-3.736,0.092-5.672-3.307-6.639-6.178l-0.035-0.061      c-0.17-0.199-0.459-0.304-0.791-0.299c-0.371,0.025-0.732,0.162-0.926,0.403l-0.035,0.044l-0.002,0.061      c-0.074,2.069,0.375,5.18,0.926,6.4l0.055,0.066c1.646,1.254,3.895,1.828,6.873,1.758c4.436-0.109,9.156-2.52,9.035-7.558      C-443.864,42.755-447.122,40.634-450.452,38.856z"></path>
			</g>
		</g>
		<g>
			<g>
				<path fill="#0033A0" d="M-462.638,28.911l-0.045-0.034h-6.512c-0.949,0-0.949,0-0.949-1.016V24.6l-0.023-0.039      c-0.309-0.544-1.168-0.544-1.543-0.39l-0.063,0.025l-0.029,0.059c-0.633,1.263-1.623,3.399-2.396,4.12      c-0.619,0.577-1.496,1.247-2.77,1.565c-0.135,0.036-0.477,0.055-0.559,0.055c-0.26,0-0.871,0.024-1.088,0.545      c-0.162,0.383-0.494,1.331-0.494,1.331h2.762c1.113,0,1.137,0,1.137,1.639v14.372c0,3.242,0.764,6.958,6.707,6.958      c3.334,0,4.594-1.15,5.691-2.43l0.033-0.063c0.098-0.287,0.023-0.682-0.174-0.96c-0.162-0.222-0.283-0.314-0.525-0.314      c-0.189,0-0.416,0.255-0.693,0.348c-0.537,0.199-1.088,0.302-1.635,0.302c-4.061,0-4.402-3.356-4.402-6.789V33.198      c0-1.276,0.037-1.327,0.951-1.327h6.629l0.047-0.032c0.379-0.253,0.525-0.869,0.541-1.36      C-462.019,29.792-462.245,29.205-462.638,28.911z"></path>
			</g>
		</g>
		<g>
			<g>
				<path fill="#0033A0" d="M-478.022,8.502c-7.217,0-10.492,5.701-11.566,8.153c-1.334,3.107-1.982,6.776-1.982,11.22      c0,0.466-0.27,0.815-0.846,1.107l-2.766,1.352l-0.027,0.04c-0.16,0.238-0.223,0.544-0.16,0.834      c0.053,0.26,0.191,0.479,0.4,0.618l0.043,0.03h2.271c1.084,0,1.084,0,1.084,1.658v13.368c0,4.599-0.059,5.034-2.246,5.33      l-1.459,0.193l-0.078,0.031c-0.311,0.217-0.381,0.672-0.342,1.021c0.035,0.332,0.186,0.734,0.502,0.871l0.039,0.02l0.043-0.006      c1.943-0.125,3.873-0.188,6.068-0.188c2.211,0,4.057,0.063,6.896,0.188l0.039,0.004l0.041-0.018      c0.314-0.137,0.463-0.537,0.5-0.869c0.039-0.352-0.031-0.805-0.34-1.023l-0.041-0.029l-2.332-0.195      c-2.115-0.174-2.24-0.767-2.24-5.33V33.515c0-1.658,0-1.658,0.895-1.658h3.658l0.064-0.011c0.227-0.084,0.428-0.307,0.592-0.603      c0.014-0.021,0.037-0.038,0.047-0.061c0.283-0.586,0.76-2.051,0.779-2.111l0.076-0.232h-1.043h-0.004h-4.17      c-0.895,0-0.895,0-0.895-1.597v-1.836c0-2.655,0.18-7.567,1.381-10.638c0.918-2.207,2.416-3.373,4.33-3.373      c2.135,0,3.861,1.481,4.932,2.726c0.457,0.521,0.875,0.821,1.658,0.821c1.377,0,2.588-1.15,2.588-2.459      C-471.632,10.216-474.38,8.502-478.022,8.502z"></path>
			</g>
		</g>
		<g>
			<g>
				<path fill="#0033A0" d="M-419.718,48.461c-0.158-0.383-0.498-0.616-0.904-0.616l0,0c-0.223,0-0.451,0.116-0.611,0.309      c-1.648,2-3.234,2.815-5.479,2.815c-5.098,0-10.24-3.572-10.24-11.561c0-1.908,0.449-4.531,1.717-6.166      c1.438-1.855,3.645-3.003,5.764-3.003c3.434,0,4.652,2.032,4.652,3.775c0,0.844-0.217,0.989-0.305,1.048      c-0.305,0.225-0.846,0.394-2.189,0.494l0,0h-0.012c-0.717,0.051-3.871,0.013-4.357-0.012c-0.051,0-1.205-0.044-1.512,0.688      c-0.213,0.498-0.523,1.389-0.535,1.424l-0.086,0.24h9.988c2.828,0,3.627-0.069,3.865-0.539c0.121-0.242,0.27-0.742,0.27-1.714      c0-3.759-3.402-7.646-9.092-7.646c-7.295,0-12.797,6.174-12.797,14.36c0,2.188,0.467,5.398,2.676,8.272      c2.043,2.68,5.41,4.209,9.244,4.209c3.205,0,7.723-1.494,9.9-5.707C-419.649,48.913-419.634,48.663-419.718,48.461z"></path>
			</g>
		</g>
		<g>
			<path fill="#8E7D4B" stroke="#8E7D4B" stroke-width="1.0349" stroke-miterlimit="10" d="M-464.763,85.098     c-0.723-6.455-0.756-14.541-0.092-24.264c0-0.172,0.092-0.322,0.281-0.447c0.184-0.121,0.406-0.184,0.662-0.184     c0.254,0,0.469,0.066,0.635,0.201c0.174,0.135,0.26,0.305,0.26,0.502c-0.299,4.477-0.465,8.4-0.492,11.762     c0.406-0.596,0.881-1.18,1.426-1.748c0.881-0.916,2.027-1.611,3.438-2.084c1.41-0.469,2.889-0.598,4.436-0.379     c1.549,0.223,2.832,0.836,3.855,1.852c1.496,1.553,1.875,3.584,1.131,6.082c-0.643,2.227-1.881,4.049-3.715,5.463     c-1.223,0.963-2.736,1.791-4.535,2.486c-1.801,0.699-3.615,1.162-5.451,1.385c-0.139,0.273-0.408,0.422-0.816,0.447     c-0.238,0.023-0.453-0.025-0.639-0.146c-0.186-0.125-0.297-0.285-0.332-0.48l-0.051-0.262v-0.074V85.098z M-463.452,77.232     c0.074,2.469,0.23,4.844,0.473,7.121c1.598-0.201,3.188-0.611,4.764-1.234c1.58-0.621,2.898-1.34,3.951-2.158     c1.563-1.24,2.646-2.859,3.254-4.865c0.645-2.102,0.352-3.76-0.875-4.971c-1.088-1.082-2.533-1.555-4.336-1.398     c-1.801,0.148-3.248,0.793-4.332,1.934c-1.764,1.855-2.73,3.691-2.898,5.494V77.232z"></path>
			<path fill="#8E7D4B" stroke="#8E7D4B" stroke-width="1.0349" stroke-miterlimit="10" d="M-431.571,68.979     c-1.498-0.865-3.184-0.811-5.049,0.154c-1.836,0.971-3.5,2.555-4.992,4.76c-1.459,2.18-2.287,4.258-2.484,6.238     c-0.203,2.025,0.344,3.375,1.639,4.041c1.156,0.615,2.293,0.588,3.418-0.08c1.119-0.67,2.219-1.898,3.307-3.68     c0.781-1.287,1.609-2.92,2.488-4.904c0.914-2.078,1.424-3.178,1.525-3.301v-0.111v-0.188V71.76     c0.033-0.219,0.1-0.408,0.203-0.557c0.236-0.322,0.625-0.471,1.17-0.445c0.307,0.023,0.547,0.145,0.717,0.367     c0.066,0.053,0.102,0.127,0.102,0.223c0.031,0.049,0.061,0.129,0.078,0.242c0.014,0.111,0.025,0.344,0.027,0.686     c0.031,1.014,0.086,1.945,0.154,2.783c0.033,0.467,0.068,1.152,0.107,2.043c0.068,0.988,0.137,1.74,0.209,2.262     c0.24,2.521,0.568,4.512,0.977,5.967c0.035,0.178-0.018,0.336-0.15,0.484c-0.139,0.148-0.332,0.242-0.588,0.279     c-0.254,0.039-0.486,0.008-0.688-0.09c-0.203-0.1-0.34-0.246-0.408-0.445c-0.379-1.482-0.703-3.525-0.977-6.123l-0.16-2.26     c-0.07-0.965-0.119-1.643-0.158-2.041v-0.074l-0.355,0.857c-0.912,2.053-1.777,3.734-2.59,5.047     c-1.221,1.955-2.494,3.332-3.818,4.123c-1.832,1.143-3.738,1.207-5.711,0.197c-1.807-0.961-2.59-2.705-2.355-5.229     c0.234-2.176,1.131-4.43,2.691-6.754c1.629-2.377,3.494-4.125,5.6-5.24c2.582-1.365,4.977-1.406,7.193-0.125     c0.203,0.125,0.322,0.271,0.357,0.445c0.031,0.17-0.033,0.332-0.203,0.482c-0.172,0.148-0.377,0.234-0.609,0.262     C-431.146,69.15-431.368,69.104-431.571,68.979z"></path>
			<path fill="#8E7D4B" stroke="#8E7D4B" stroke-width="1.0349" stroke-miterlimit="10" d="M-422.497,85.027     c-0.729-6.453-0.758-14.541-0.094-24.264c0-0.176,0.094-0.322,0.279-0.445c0.188-0.125,0.41-0.186,0.664-0.189     c0.254,0,0.465,0.07,0.639,0.205c0.17,0.137,0.256,0.305,0.256,0.5c-0.301,4.479-0.465,8.398-0.49,11.76     c0.404-0.592,0.881-1.174,1.422-1.744c0.883-0.916,2.031-1.607,3.441-2.082c1.406-0.473,2.889-0.6,4.436-0.379     c1.547,0.219,2.832,0.836,3.854,1.848c1.494,1.557,1.875,3.584,1.131,6.082c-0.641,2.229-1.879,4.049-3.715,5.461     c-1.223,0.965-2.732,1.797-4.533,2.492c-1.801,0.697-3.617,1.158-5.453,1.383c-0.135,0.271-0.408,0.42-0.818,0.447     c-0.238,0.027-0.449-0.023-0.633-0.146c-0.188-0.125-0.299-0.287-0.334-0.482l-0.051-0.262v-0.074V85.027z M-421.187,77.16     c0.072,2.473,0.229,4.846,0.471,7.119c1.6-0.199,3.186-0.609,4.768-1.23c1.578-0.621,2.895-1.34,3.945-2.158     c1.563-1.238,2.648-2.861,3.258-4.865c0.641-2.102,0.35-3.762-0.875-4.971c-1.092-1.082-2.537-1.551-4.338-1.402     c-1.801,0.152-3.244,0.797-4.33,1.938c-1.766,1.855-2.732,3.689-2.898,5.496V77.16z"></path>
			<path fill="#8E7D4B" stroke="#8E7D4B" stroke-width="1.0349" stroke-miterlimit="10" d="M-400.155,68.293     c-0.809,4.035-1.229,7.051-1.26,9.057c-0.031,2.002,0.225,3.561,0.771,4.674c0.549,1.184,1.361,1.828,2.453,1.924     c1.123,0.1,2.139-0.203,3.057-0.898c0.85-0.666,1.629-1.654,2.34-2.971c1.088-2.127,1.729-4.393,1.93-6.791     c0.064-0.891,0.1-1.941,0.096-3.152v-0.631l-0.004-0.408v-0.334V68.65v-0.115l0.102-0.146c0.17-0.246,0.441-0.371,0.816-0.371     c0.34-0.002,0.596,0.109,0.766,0.332c0.068,0.053,0.104,0.098,0.104,0.148c0.033,0.023,0.051,0.061,0.051,0.111     s0.016,0.111,0.051,0.186v0.447c0.033,0.393,0.068,1,0.104,1.814c0.07,1.633,0.162,3.91,0.266,6.828     c0,0.443,0.047,1.266,0.135,2.467c0.086,1.199,0.148,2.184,0.184,2.967c0.035,0.779,0.01,1.688-0.074,2.729     c-0.082,1.037-0.258,1.941-0.529,2.709c-0.645,1.932-1.881,3.252-3.715,3.975c-2.074,0.795-4.861,0.787-8.365-0.021     c-0.273-0.051-0.459-0.156-0.563-0.316c-0.098-0.16-0.119-0.332-0.049-0.52c0.064-0.184,0.209-0.314,0.43-0.391     c0.223-0.072,0.451-0.086,0.688-0.037c3.061,0.688,5.391,0.721,6.988,0.1c1.357-0.521,2.291-1.564,2.799-3.121     c0.17-0.52,0.307-1.082,0.408-1.689c0.1-0.604,0.148-1.285,0.148-2.041c-0.002-0.752-0.012-1.385-0.029-1.893     c-0.018-0.504-0.063-1.223-0.129-2.148c-0.07-0.932-0.107-1.555-0.107-1.875c-0.236,0.619-0.508,1.211-0.814,1.783     c-0.746,1.484-1.643,2.623-2.695,3.418c-1.357,1.016-2.891,1.451-4.588,1.305c-1.869-0.17-3.215-1.107-4.031-2.813     c-0.58-1.285-0.855-2.99-0.826-5.121c0.029-2.049,0.453-5.143,1.258-9.273c0.035-0.174,0.154-0.316,0.357-0.428     c0.205-0.113,0.438-0.156,0.688-0.131c0.254,0.023,0.461,0.111,0.615,0.26C-400.183,67.922-400.122,68.098-400.155,68.293z"></path>
		</g>
	</g>
	<g>
		<g>
			<path fill="#0033A0" d="M-372.845,21.875v-0.592h4.027v0.592h-1.68v4.364h-0.672v-4.364H-372.845z"></path>
			<path fill="#0033A0" d="M-363.46,26.239h-0.652v-2.926c0-0.071,0-0.142,0.002-0.213c0.002-0.076,0.002-0.16,0.006-0.257     c0.002-0.098,0.004-0.211,0.006-0.339c0.002-0.127,0.002-0.269,0.002-0.431h-0.016l-1.395,4.165h-0.662l-1.396-4.158h-0.012     c0,0.178,0,0.424,0.006,0.732c0.004,0.31,0.006,0.478,0.006,0.5v2.926h-0.648v-4.956h0.957l1.42,4.192h0.012l1.41-4.192h0.955     V26.239z"></path>
		</g>
	</g>
</g>
<g>
	<path fill="#8F7D4B" d="M-671.176,67.529c-1.609-0.234-3.17-0.102-4.637,0.393c-1.479,0.494-2.694,1.236-3.629,2.203   c-0.174,0.188-0.344,0.369-0.51,0.557c0.059-2.963,0.219-6.361,0.471-10.146c0-0.355-0.159-0.666-0.451-0.898   c-0.262-0.213-0.578-0.316-0.952-0.316c-0.355,0-0.672,0.092-0.944,0.271c-0.441,0.297-0.505,0.672-0.505,0.834   c-0.657,9.641-0.628,17.777,0.088,24.133l0.058,0.531c0.063,0.336,0.253,0.615,0.559,0.82c0.238,0.158,0.506,0.236,0.797,0.236   c0.059,0,0.111,0,0.152-0.006c0.549-0.033,0.875-0.246,1.068-0.479c1.781-0.236,3.564-0.697,5.31-1.371   c1.829-0.709,3.389-1.566,4.634-2.549c1.901-1.467,3.199-3.381,3.865-5.686c0.791-2.66,0.375-4.861-1.254-6.549   C-668.15,68.426-669.537,67.758-671.176,67.529 M-672.604,69.781c1.359,0,2.445,0.414,3.307,1.271   c1.078,1.061,1.32,2.508,0.736,4.418c-0.572,1.879-1.604,3.42-3.056,4.576c-1.002,0.779-2.282,1.475-3.794,2.07   c-1.355,0.533-2.729,0.91-4.089,1.119c-0.21-2.074-0.345-4.258-0.413-6.488l-0.005-0.031c0.161-1.666,1.079-3.398,2.743-5.145   c0.995-1.053,2.299-1.631,3.972-1.768C-672.998,69.785-672.805,69.781-672.604,69.781"></path>
	<path fill="#8F7D4B" d="M-646.072,78.797c-0.067-0.504-0.131-1.229-0.205-2.201c-0.033-0.895-0.066-1.572-0.105-2.049   c-0.068-0.83-0.116-1.752-0.152-2.727c0-0.541-0.023-0.699-0.033-0.752c-0.014-0.119-0.049-0.223-0.084-0.307   c-0.026-0.172-0.104-0.324-0.232-0.439c-0.252-0.307-0.613-0.484-1.061-0.518l-0.125-0.006c-0.816,0-1.25,0.359-1.483,0.672   c-0.146,0.211-0.239,0.469-0.281,0.771l-0.006,0.369c-0.149,0.277-0.5,1.006-1.474,3.217c-0.861,1.939-1.682,3.557-2.439,4.811   c-1.031,1.691-2.076,2.859-3.112,3.482c-0.953,0.566-1.896,0.592-2.892,0.059c-1.084-0.559-1.531-1.703-1.354-3.506   c0.189-1.869,0.992-3.873,2.383-5.957c1.43-2.105,3.033-3.641,4.77-4.553c1.688-0.875,3.205-0.932,4.512-0.174   c0.297,0.182,0.632,0.256,0.979,0.215c0.34-0.033,0.641-0.162,0.891-0.383c0.416-0.359,0.412-0.758,0.369-0.963   c-0.045-0.217-0.18-0.533-0.6-0.785c-2.339-1.355-4.93-1.322-7.642,0.111c-2.155,1.143-4.089,2.949-5.749,5.373   c-1.588,2.367-2.517,4.703-2.76,6.947c-0.254,2.721,0.626,4.637,2.615,5.695c2.115,1.084,4.22,1.002,6.168-0.205   c1.383-0.83,2.719-2.266,3.969-4.27c0.672-1.088,1.393-2.434,2.129-4.033c0.006,0.01,0.006,0.023,0.006,0.035l0.155,2.264   c0.276,2.594,0.608,4.66,0.997,6.195c0.115,0.32,0.342,0.58,0.666,0.732c0.219,0.105,0.459,0.162,0.711,0.162   c0.087,0,0.178-0.01,0.276-0.025c0.368-0.055,0.669-0.197,0.886-0.439c0.242-0.266,0.34-0.598,0.268-0.963   C-645.514,83.236-645.834,81.273-646.072,78.797"></path>
	<path fill="#8F7D4B" d="M-631.208,67.332c-1.62-0.158-3.175,0.049-4.62,0.605c-1.449,0.563-2.635,1.359-3.52,2.365   c-0.166,0.191-0.326,0.383-0.484,0.582c-0.076-2.963-0.076-6.361,0-10.162c-0.016-0.355-0.182-0.656-0.484-0.879   c-0.271-0.191-0.598-0.285-0.968-0.268c-0.354,0.016-0.669,0.125-0.929,0.313c-0.428,0.316-0.48,0.695-0.467,0.857   c-0.219,9.66,0.188,17.789,1.191,24.107l0.084,0.52c0.071,0.332,0.273,0.609,0.586,0.797c0.25,0.148,0.521,0.213,0.813,0.203   c0.055-0.006,0.113-0.01,0.148-0.016c0.549-0.059,0.865-0.285,1.049-0.523c1.77-0.32,3.529-0.863,5.235-1.619   c1.8-0.785,3.321-1.717,4.513-2.754c1.833-1.549,3.049-3.521,3.604-5.852c0.67-2.695,0.15-4.877-1.553-6.492   C-628.146,68.086-629.563,67.49-631.208,67.332 M-632.537,69.641c1.367-0.061,2.459,0.307,3.359,1.121   c1.128,1.016,1.436,2.453,0.943,4.383c-0.484,1.904-1.447,3.494-2.848,4.713c-0.963,0.824-2.207,1.58-3.689,2.24   c-1.33,0.592-2.681,1.033-4.043,1.309c-0.301-2.072-0.533-4.25-0.704-6.465v-0.027c0.073-1.678,0.918-3.449,2.499-5.275   c0.947-1.092,2.223-1.725,3.891-1.943C-632.931,69.672-632.73,69.65-632.537,69.641"></path>
	<path fill="#8F7D4B" d="M-606.646,82.85c-0.035-0.775-0.098-1.764-0.186-2.961c-0.081-1.178-0.125-1.99-0.129-2.43   c-0.103-2.902-0.195-5.162-0.266-6.787c-0.031-0.818-0.07-1.426-0.1-1.781v-0.443l-0.055-0.186c0-0.123-0.033-0.244-0.102-0.35   c-0.034-0.086-0.096-0.182-0.195-0.27c-0.199-0.229-0.543-0.479-1.133-0.479c-0.682,0-1.045,0.32-1.229,0.59l-0.189,0.283v1.744   c0.004,1.178-0.029,2.217-0.094,3.088c-0.195,2.305-0.82,4.51-1.852,6.545c-0.672,1.232-1.406,2.172-2.189,2.785   c-0.813,0.615-1.695,0.867-2.68,0.787c-0.889-0.078-1.551-0.605-2.016-1.627c-0.507-1.021-0.744-2.51-0.715-4.408   c0.028-1.939,0.445-4.938,1.244-8.914c0.063-0.361-0.059-0.705-0.326-0.973c-0.236-0.227-0.549-0.361-0.918-0.395   c-0.355-0.035-0.686,0.029-0.978,0.188c-0.433,0.236-0.567,0.553-0.614,0.781c-0.805,4.115-1.229,7.244-1.257,9.303   c-0.036,2.182,0.257,3.963,0.869,5.309c0.89,1.863,2.376,2.898,4.42,3.086c1.813,0.158,3.466-0.316,4.911-1.395   c1.089-0.82,2.021-1.996,2.785-3.488c0.059,0.82,0.098,1.463,0.113,1.928c0.02,0.496,0.029,1.119,0.029,1.857   c0,0.719-0.049,1.375-0.143,1.941c-0.092,0.572-0.229,1.117-0.384,1.604c-0.458,1.408-1.268,2.316-2.479,2.781   c-1.475,0.572-3.715,0.531-6.643-0.125c-0.324-0.063-0.65-0.049-0.951,0.055c-0.473,0.158-0.668,0.471-0.755,0.701   c-0.121,0.334-0.087,0.668,0.104,0.967c0.179,0.287,0.479,0.469,0.868,0.537c1.789,0.412,3.419,0.621,4.843,0.621   c1.429,0,2.7-0.205,3.774-0.621c1.96-0.768,3.301-2.205,3.985-4.26c0.284-0.799,0.472-1.746,0.556-2.816   C-606.637,84.58-606.613,83.648-606.646,82.85"></path>
	<path fill="#0033A0" d="M-750.879,29.819l-5.154-3.121c-1.967-1.195-5.264-3.721-5.311-7.395c-0.018-0.91,0.112-2.639,1.092-4.1   c1.145-1.711,3.15-2.6,5.947-2.635c2.976-0.031,6.609,0.695,8.375,6.818l0.064,0.127c0.221,0.254,0.598,0.377,1.051,0.346   c0.42-0.02,1.004-0.207,1.271-0.619l0.072-0.117v-0.137c-0.033-2.836-0.709-6.457-1.285-7.941l-0.121-0.283h-0.311   c-0.457,0.01-1.305-0.1-2.12-0.346c-1.526-0.389-3.923-0.789-6.073-0.75c-3.943,0.047-7.297,1.189-9.701,3.271   c-2.416,2.104-3.666,4.988-3.627,8.35c0.052,3.047,1.344,7.473,7.266,11.268l6.123,3.879c4.453,2.775,5.104,5.725,5.146,8.486   c0.024,1.82-0.591,3.51-1.737,4.748c-1.32,1.433-3.291,2.208-5.694,2.247c-6.489,0.064-9.382-4.888-10.688-9.097l-0.041-0.066   c-0.186-0.283-0.511-0.42-0.93-0.426c-0.463,0.01-1.061,0.209-1.354,0.627l-0.092,0.137l0.012,0.158   c0.16,2.885,1.051,7.59,1.91,9.106l0.059,0.111l0.115,0.061c1.219,0.688,4.635,2.285,9.858,2.285h0.362   c4.109-0.059,7.605-1.271,10.119-3.506c2.516-2.257,3.817-5.358,3.772-8.962C-742.576,37.245-745.314,33.159-750.879,29.819"></path>
	<path fill="#0033A0" d="M-717.527,31.212c-2.432-2.264-5.688-3.447-9.18-3.359c-7.672,0.221-13.285,6.258-13.059,14.033   c0.111,3.805,1.509,7.047,4.029,9.36c2.318,2.119,5.456,3.289,8.861,3.289c0.146,0,0.302,0,0.442-0.008   c7.853-0.232,13.169-5.97,12.938-13.964C-713.604,36.872-715.037,33.548-717.527,31.212 M-720.482,48.757   c-1.153,2.271-2.963,3.456-5.389,3.53c-3.793,0.119-7.962-3.407-8.203-11.38c-0.092-3.242,0.531-5.988,1.784-7.918   c1.195-1.836,2.889-2.83,4.907-2.889c6.205-0.18,8.075,7.227,8.195,11.623C-719.098,44.442-719.564,46.94-720.482,48.757"></path>
	<path fill="#0033A0" d="M-607.748,52.152l-1.452-0.215c-2.048-0.285-2.216-0.674-2.216-5.251V35.958   c0-4.945-2.791-7.914-7.473-7.914c-3.182,0-6.092,1.529-8.779,3.182c-0.338-0.02-0.459-0.277-0.459-0.5   c0-0.563,0-1.484,0.124-2.916v-0.045l-0.009-0.039c-0.164-0.404-0.559-0.553-0.855-0.553h-0.061l-0.039,0.033   c-1.262,0.953-4.818,2.559-6.225,3.053c-0.176,0.098-0.283,0.307-0.324,0.572c-0.037,0.322,0.053,0.648,0.258,0.848l0.561,0.377   c1.598,1.074,1.598,1.316,1.598,3.719v10.912c0,4.534-0.061,4.95-2.213,5.251l-1.313,0.191l-0.076,0.023   c-0.301,0.219-0.377,0.662-0.34,1.014c0.039,0.322,0.187,0.729,0.498,0.852l0.043,0.023h0.039c1.791-0.127,3.646-0.191,5.857-0.191   c2.137,0,3.934,0.064,5.654,0.191h0.039l0.049-0.023c0.305-0.123,0.456-0.529,0.486-0.852c0.041-0.352-0.03-0.795-0.336-1.014   l-1.194-0.215c-2.073-0.348-2.222-0.691-2.222-5.251v-9.537c0-1.811,0.137-2.641,0.902-3.633c0.748-1.025,2.682-2.111,5.154-2.111   c4.698,0,5.686,3.254,5.686,5.986v9.295c0,4.479-0.065,4.903-2.223,5.251l-1.18,0.191l-0.082,0.023   c-0.299,0.219-0.371,0.666-0.334,1.014c0.035,0.322,0.187,0.729,0.496,0.852l0.037,0.023h0.052   c1.704-0.127,3.593-0.191,5.776-0.191c2.1,0,3.907,0.053,5.852,0.191h0.049l0.031-0.023c0.318-0.123,0.461-0.529,0.498-0.852   C-607.373,52.814-607.443,52.371-607.748,52.152"></path>
	<path fill="#0033A0" d="M-596.063,38.647l-0.291-0.154c-2.104-1.133-4.484-2.408-4.541-4.742c-0.049-2.172,1.439-3.668,3.721-3.725   c2.324-0.059,4.256,1.473,5.434,4.305l0.027,0.055c0.177,0.203,0.511,0.295,0.881,0.256c0.318-0.033,0.734-0.195,0.9-0.516   l0.029-0.047V34.04c-0.043-1.609-0.488-3.613-1.139-5.09l-0.055-0.059c-0.643-0.559-3.064-1.102-5.627-1.039   c-5.176,0.127-8.589,3.139-8.48,7.492c0.094,3.744,3.152,5.898,6.447,7.678c2.519,1.342,4.789,2.777,4.846,5.457   c0.07,2.827-2.059,3.864-3.9,3.909c-3.717,0.092-5.635-3.282-6.592-6.136l-0.035-0.064c-0.168-0.188-0.455-0.297-0.791-0.297   c-0.367,0.031-0.724,0.164-0.916,0.406l-0.034,0.047v0.061c-0.075,2.055,0.368,5.146,0.911,6.356l0.059,0.068   c1.631,1.246,3.869,1.809,6.832,1.736c4.408-0.104,9.098-2.496,8.971-7.501C-589.516,42.519-592.748,40.423-596.063,38.647"></path>
	<path fill="#0033A0" d="M-668.271,38.647l-0.292-0.154c-2.104-1.133-4.482-2.408-4.543-4.742c-0.052-2.172,1.443-3.668,3.723-3.725   c2.326-0.059,4.254,1.473,5.43,4.305l0.025,0.055c0.182,0.203,0.51,0.295,0.883,0.256c0.326-0.033,0.729-0.195,0.898-0.516   l0.024-0.047V34.04c-0.042-1.609-0.481-3.613-1.138-5.09l-0.042-0.059c-0.651-0.559-3.065-1.102-5.638-1.039   c-5.173,0.127-8.584,3.139-8.477,7.492c0.088,3.744,3.154,5.898,6.455,7.678c2.513,1.342,4.778,2.777,4.843,5.457   c0.067,2.827-2.06,3.864-3.901,3.909c-3.719,0.092-5.637-3.282-6.6-6.136l-0.029-0.064c-0.173-0.188-0.459-0.297-0.789-0.297   c-0.371,0.031-0.727,0.164-0.922,0.406l-0.031,0.047l-0.004,0.061c-0.078,2.055,0.369,5.146,0.916,6.356l0.055,0.068   c1.639,1.246,3.875,1.809,6.823,1.736c4.418-0.104,9.106-2.496,8.983-7.501C-661.727,42.519-664.965,40.423-668.271,38.647"></path>
	<path fill="#0033A0" d="M-680.381,28.761l-0.047-0.025h-6.465c-0.949,0-0.949,0-0.949-1.018v-3.232l-0.018-0.041   c-0.305-0.541-1.164-0.541-1.533-0.385l-0.068,0.018l-0.027,0.064c-0.623,1.25-1.612,3.375-2.38,4.088   c-0.614,0.582-1.485,1.248-2.747,1.561c-0.138,0.033-0.479,0.051-0.557,0.051c-0.263,0-0.866,0.023-1.08,0.547   c-0.164,0.377-0.49,1.314-0.49,1.314h2.734c1.113,0,1.135,0,1.135,1.637v14.279c0,3.221,0.758,6.909,6.66,6.909   c3.313,0,4.563-1.133,5.66-2.416l0.036-0.061c0.099-0.283,0.017-0.67-0.179-0.947c-0.162-0.224-0.279-0.312-0.521-0.312   c-0.189,0-0.406,0.241-0.691,0.337c-0.528,0.209-1.078,0.303-1.615,0.303c-4.043,0-4.378-3.333-4.378-6.745v-11.66   c0-1.271,0.036-1.324,0.94-1.324h6.593l0.039-0.023c0.382-0.246,0.532-0.863,0.54-1.352   C-679.766,29.638-679.992,29.056-680.381,28.761"></path>
	<path fill="#0033A0" d="M-695.667,8.487c-7.169,0-10.423,5.668-11.489,8.104c-1.328,3.09-1.971,6.73-1.971,11.145   c0,0.461-0.266,0.811-0.842,1.104l-2.746,1.344l-0.031,0.035c-0.154,0.236-0.215,0.539-0.162,0.834   c0.063,0.258,0.195,0.479,0.396,0.613l0.053,0.031h2.254c1.078,0,1.078,0,1.078,1.646v13.271c0,4.585-0.063,5.011-2.23,5.304   l-1.451,0.193l-0.08,0.023c-0.313,0.229-0.379,0.674-0.34,1.02c0.04,0.334,0.188,0.74,0.496,0.863l0.041,0.023h0.044   c1.933-0.127,3.849-0.191,6.029-0.191c2.194,0,4.036,0.064,6.856,0.191h0.035l0.039-0.023c0.313-0.123,0.466-0.529,0.502-0.863   c0.035-0.34-0.032-0.791-0.34-1.02l-0.045-0.023l-2.312-0.193c-2.104-0.176-2.222-0.768-2.222-5.304V33.343   c0-1.646,0-1.646,0.883-1.646h3.636l0.06-0.018c0.229-0.072,0.436-0.303,0.59-0.59c0.014-0.023,0.035-0.045,0.049-0.064   c0.283-0.582,0.75-2.031,0.766-2.102l0.088-0.225h-1.045h-4.143c-0.883,0-0.883,0-0.883-1.588v-1.826   c0-2.643,0.172-7.521,1.369-10.568c0.911-2.199,2.398-3.357,4.301-3.357c2.121,0,3.832,1.479,4.898,2.721   c0.453,0.508,0.875,0.813,1.649,0.813c1.364,0,2.565-1.141,2.565-2.441C-689.32,10.194-692.051,8.487-695.667,8.487"></path>
	<path fill="#0033A0" d="M-637.739,48.192c-0.149-0.389-0.494-0.607-0.888-0.607c-0.229,0-0.453,0.109-0.614,0.297   c-1.64,1.994-3.21,2.809-5.442,2.809c-5.068,0-10.171-3.563-10.171-11.496c0-1.895,0.438-4.508,1.704-6.123   c1.428-1.846,3.619-2.988,5.717-2.988c3.418,0,4.629,2.018,4.629,3.746c0,0.842-0.213,0.986-0.301,1.049   c-0.305,0.223-0.845,0.398-2.176,0.486h-0.016c-0.706,0.057-3.842,0.014-4.328-0.002c-0.051,0-1.197-0.045-1.5,0.68   c-0.208,0.488-0.521,1.375-0.537,1.418l-0.079,0.234h9.925c2.811,0,3.596-0.066,3.838-0.529c0.119-0.25,0.266-0.738,0.266-1.709   c0-3.732-3.383-7.604-9.033-7.604c-7.244,0-12.715,6.141-12.715,14.277c0,2.178,0.467,5.365,2.662,8.219   c2.027,2.657,5.376,4.179,9.184,4.179c3.182,0,7.672-1.482,9.838-5.671C-637.666,48.642-637.654,48.401-637.739,48.192"></path>
	<path fill="#0033A0" d="M-591.396,23.175v-0.018c0-1.459,1.188-2.684,2.692-2.684c1.504,0,2.676,1.209,2.676,2.67v0.014   c0,1.463-1.184,2.686-2.691,2.686C-590.225,25.843-591.396,24.634-591.396,23.175 M-586.271,23.157v-0.014   c0-1.344-1.045-2.439-2.432-2.439c-1.393,0-2.447,1.111-2.447,2.453v0.018c0,1.34,1.046,2.439,2.432,2.439   C-587.324,25.614-586.271,24.501-586.271,23.157 M-589.766,21.706h1.232c0.35,0,0.639,0.109,0.816,0.289   c0.133,0.125,0.223,0.311,0.223,0.533v0.016c0,0.443-0.299,0.709-0.712,0.807l0.853,1.105h-0.504l-0.794-1.037h-0.704v1.037h-0.41   V21.706z M-588.57,23.054c0.387,0,0.653-0.18,0.653-0.49V22.55c0-0.289-0.237-0.475-0.63-0.475h-0.809v0.979H-588.57z"></path>
</g>
</svg>