<svg width="38" height="38" viewBox="0 0 38 38" fill="none" xmlns="http://www.w3.org/2000/svg">
<rect x="0.5" y="0.5" width="37" height="37" rx="4.5" stroke="#F5C300"/>
<rect x="5" y="5" width="28" height="28" rx="3" fill="#F5C300"/>
<g clip-path="url(#clip0_5708_10085)">
<path d="M27.5224 16.4378L21.9889 15.5925L19.5086 10.3095C19.3234 9.91505 18.6761 9.91505 18.4909 10.3095L16.0114 15.5925L10.4779 16.4378C10.0234 16.5075 9.84186 17.0603 10.1606 17.3865L14.1806 21.507L13.2304 27.3323C13.1546 27.795 13.6489 28.1423 14.0576 27.915L19.0001 25.1835L23.9426 27.9158C24.3476 28.1408 24.8464 27.8003 24.7699 27.333L23.8196 21.5078L27.8396 17.3873C28.1584 17.0603 27.9761 16.5075 27.5224 16.4378Z" fill="white"/>
</g>
<defs>
<clipPath id="clip0_5708_10085">
<rect width="18" height="18" fill="white" transform="translate(10 10)"/>
</clipPath>
</defs>
</svg>
