<svg width="150" height="40" viewBox="0 0 192 51" fill="none" xmlns="http://www.w3.org/2000/svg">
<g clip-path="url(#clip0_7573_343)">
<path d="M120.433 15.0701C121.084 11.9756 123.899 9.60241 127.482 9.09055C131.414 8.53215 134.881 10.3004 136.789 13.9533C135.649 14.628 134.509 15.3027 133.369 15.9775C130.507 12.3944 127.389 12.185 124.946 15.326C123.434 15.2562 121.945 15.1631 120.433 15.0701Z" fill="#0F80E7"></path>
<path d="M36.0913 14.6279C37.0918 11.3706 39.5115 9.81173 42.6758 9.16026C46.6311 8.3692 50.5166 10.2771 52.2849 13.9764C51.1681 14.6279 50.0513 15.3027 48.8414 16.0239C47.934 14.6279 46.9568 13.325 45.1188 13.2086C43.397 13.0923 41.908 13.5577 40.7446 14.8839C39.209 14.7908 37.6502 14.721 36.0913 14.6279Z" fill="#0F80E7"></path>
<path d="M13.2197 7.62444C16.6399 6.06557 20.0601 4.52998 23.4803 2.97111C24.9927 2.29638 26.505 1.62166 28.1336 0.900391C28.1336 2.90132 28.1569 4.73938 28.1104 6.57744C28.1104 6.81011 27.8777 7.15911 27.6683 7.25218C26.4584 7.81058 25.202 8.32244 23.9689 8.85757C23.6664 8.6947 23.3873 8.39224 23.0848 8.36897C20.3161 8.25264 17.5706 8.2061 14.8019 8.08977C14.29 8.06651 13.7549 7.78731 13.2197 7.62444Z" fill="#107FE8"></path>
<path d="M183.346 34.6836C185.905 35.94 188.674 36.0331 191.722 32.4268C191.722 34.3114 191.745 35.9633 191.699 37.6385C191.699 37.8479 191.35 38.1038 191.117 38.2434C186.789 40.477 181.345 39.2206 178.437 35.3816C179.739 35.2885 181.019 35.242 182.322 35.1257C182.671 35.0791 182.997 34.8232 183.346 34.6836Z" fill="#6D43F9"></path>
<path d="M1.84277 44.3626C4.4021 43.2225 6.98469 42.0824 9.54402 40.9424C9.89302 41.082 10.2188 41.3612 10.5678 41.3612C13.5692 41.4775 16.5938 41.524 19.5952 41.6404C19.8977 41.6404 20.1769 41.9428 20.4793 42.1057C18.0131 43.1992 15.5235 44.316 13.0573 45.4096C12.3825 45.2234 11.7078 44.921 11.0098 44.8977C8.63662 44.8279 6.24016 44.921 3.86696 44.8512C3.19223 44.8512 2.51751 44.5487 1.84277 44.3626Z" fill="#763BFB"></path>
<path d="M6.49589 20.7703C4.84396 20.049 3.19203 19.3045 1.51683 18.6298C0.60943 18.2575 1.00497 17.5595 0.981699 16.9546C3.02916 17.0244 5.05336 17.164 7.10082 17.164C8.52008 17.164 9.91609 16.9778 11.3354 16.8848C13.6853 17.9783 16.0585 19.0951 18.4084 20.1886C18.3153 20.2584 18.2223 20.398 18.1525 20.398C14.8486 20.3748 11.568 20.305 8.26415 20.305C7.65922 20.305 7.07756 20.6074 6.49589 20.7703Z" fill="#3267EE"></path>
<path d="M10.7304 25.749C12.7313 26.6564 14.7323 27.5405 16.7332 28.4479C17.2916 28.7039 17.85 29.0064 18.4084 29.2856C17.9198 29.3786 17.4312 29.5182 16.9426 29.5182C13.7085 29.4717 10.4512 29.3553 7.21716 29.3088C6.82163 29.3088 6.44936 29.5648 6.05383 29.7044C4.56476 29.0529 3.09896 28.3782 1.58663 27.7732C0.632699 27.401 1.00497 26.6564 0.981704 26.0282C3.9133 26.098 6.82163 26.1911 9.75323 26.2144C10.079 26.2376 10.4047 25.9352 10.7304 25.749Z" fill="#4C57F3"></path>
<path d="M13.2201 7.625C13.7553 7.78787 14.2904 8.06707 14.8255 8.09033C17.5943 8.20667 20.3397 8.2532 23.1085 8.36954C23.4109 8.3928 23.6901 8.672 23.9926 8.85813C21.9219 9.78879 19.8279 10.7195 17.7571 11.6501C16.1983 11.4873 14.6627 11.2546 13.1038 11.1848C11.2657 11.0917 9.42768 11.1848 7.56635 11.1383C7.19409 11.1383 6.84509 10.7893 6.49609 10.6264C8.72969 9.60267 10.9865 8.62547 13.2201 7.625Z" fill="#1978E9"></path>
<path d="M80.8326 35.9865C77.2495 40.4305 69.7344 40.4305 66.0815 36.0331C66.4538 35.8935 66.8261 35.6375 67.1983 35.6143C68.2919 35.5677 69.3621 35.6143 70.4557 35.5677C70.8047 35.5445 71.1304 35.3351 71.4794 35.2188C72.7823 35.2188 74.1085 35.242 75.4347 35.242C76.7842 35.3583 78.1569 35.4514 79.5064 35.591C79.9485 35.6375 80.3905 35.8469 80.8326 35.9865Z" fill="#7140FA"></path>
<path d="M6.05371 29.7274C6.44924 29.5878 6.84478 29.3319 7.21704 29.3319C10.4511 29.3784 13.7084 29.4715 16.9425 29.5413C17.4311 29.5413 17.9197 29.4017 18.4083 29.3086C19.7112 29.8437 21.0374 30.4021 22.3404 30.9605C23.3408 31.3793 24.318 31.8214 25.2952 32.2634C24.7834 32.3798 24.2482 32.5892 23.7364 32.5659C20.5488 32.5194 17.338 32.403 14.1505 32.3798C13.7782 32.3798 13.406 32.6822 13.0337 32.8218C10.707 31.7749 8.38037 30.7511 6.05371 29.7274Z" fill="#5451F5"></path>
<path d="M6.49609 20.7701C7.07776 20.6073 7.68269 20.3281 8.26435 20.3048C11.5682 20.3048 14.8488 20.3513 18.1527 20.3979C18.2457 20.3979 18.3388 20.2583 18.4086 20.1885C19.1299 20.4211 19.8744 20.6305 20.5724 20.933C22.0382 21.5612 23.504 22.2592 24.9465 22.9107C24.7371 23.0968 24.551 23.4458 24.3416 23.4458C21.6194 23.4225 18.8739 23.3295 16.1517 23.3295C15.1745 23.3295 14.081 22.7711 13.2434 23.7715C10.9866 22.7711 8.72969 21.7706 6.49609 20.7701Z" fill="#3A63F0"></path>
<path d="M1.84245 44.3623C2.51719 44.5484 3.21518 44.8509 3.88992 44.8509C6.26311 44.9207 8.65958 44.8276 11.0328 44.8974C11.7075 44.9207 12.3822 45.2232 13.0802 45.4093C9.12491 47.2008 5.16957 48.9924 0.958312 50.9003C0.958312 48.783 0.935048 46.8751 1.00485 44.9673C1.00485 44.7811 1.53999 44.5717 1.84245 44.3623Z" fill="#8135FD"></path>
<path d="M20.4793 42.1293C20.1768 41.9664 19.8976 41.6639 19.5951 41.6639C16.5937 41.5476 13.5691 41.5011 10.5677 41.3848C10.2187 41.3615 9.86968 41.1055 9.54395 40.9659C11.7077 39.9887 13.8483 39.0348 16.0121 38.0576C16.4309 38.2438 16.8497 38.5928 17.2685 38.5928C19.8278 38.6393 22.3639 38.5695 24.9232 38.6393C25.691 38.6625 26.4588 38.965 27.2266 39.1279C24.993 40.1283 22.7361 41.1288 20.4793 42.1293Z" fill="#6D43F9"></path>
<path d="M13.0337 32.7986C13.406 32.6358 13.7782 32.3333 14.1505 32.3566C17.338 32.4031 20.5488 32.4962 23.7363 32.5427C24.2482 32.5427 24.7833 32.3333 25.2952 32.2402C25.6442 32.3798 26.0165 32.4962 26.3655 32.659C28.2268 33.4734 28.2268 33.4734 28.1105 35.5906C25.8536 35.5906 23.5967 35.5674 21.3399 35.6139C20.8513 35.6139 20.3859 35.7768 19.8973 35.8698C17.6172 34.8461 15.3138 33.8224 13.0337 32.7986Z" fill="#5C4CF6"></path>
<path d="M147.259 40.9421C146.026 43.3851 144.816 45.8281 143.537 48.2479C143.397 48.5271 142.908 48.783 142.559 48.8063C141.256 48.8761 139.93 48.8295 138.348 48.8295C139.884 46.0143 141.35 43.3386 142.815 40.6396C143.164 40.7327 143.513 40.9189 143.886 40.9189C145.002 40.9654 146.142 40.9421 147.259 40.9421Z" fill="#8634FE"></path>
<path d="M6.49582 10.6025C6.84482 10.7887 7.21708 11.1144 7.56608 11.1144C9.40414 11.1609 11.2655 11.0679 13.1035 11.1609C14.6624 11.2307 16.198 11.4634 17.7569 11.6263C15.6629 12.5569 13.5456 13.5109 11.4516 14.4415C11.2422 14.3485 11.0561 14.1856 10.8467 14.1856C8.6596 14.0925 6.47254 14.0227 4.30875 13.9297C3.19195 13.8831 2.09841 13.7901 1.00488 13.697C1.14448 13.3945 1.21429 12.9059 1.44695 12.7896C3.07562 12.0218 4.79735 11.3238 6.49582 10.6025Z" fill="#2173EB"></path>
<path d="M13.2432 23.771C14.0808 22.7938 15.1743 23.329 16.1515 23.329C18.8737 23.329 21.6191 23.422 24.3413 23.4453C24.5507 23.4453 24.7369 23.0963 24.9463 22.9102C25.4116 23.0963 25.8769 23.2824 26.319 23.4686C28.2269 24.3062 28.2269 24.3062 28.1105 26.4932C25.7839 26.4234 23.4339 26.3071 21.1073 26.2838C20.735 26.2838 20.3628 26.5863 19.9905 26.7492C17.7569 25.772 15.5 24.7715 13.2432 23.771Z" fill="#435DF1"></path>
<path d="M102.633 15.5587C102.61 12.8598 102.61 10.1608 102.587 7.43863C102.587 7.29903 102.61 7.13616 102.657 6.92676C104.029 6.92676 105.356 6.92676 106.798 6.92676C106.798 9.88162 106.798 12.8365 106.798 15.7914C105.402 15.7216 104.006 15.6518 102.633 15.5587Z" fill="#107FE8"></path>
<path d="M52.5171 33.4968C51.9355 34.4274 51.3305 35.3581 50.7489 36.2888C50.2603 36.219 49.7717 36.0561 49.2831 36.0561C45.5604 36.0328 41.8145 36.0328 38.0918 36.0561C37.7196 36.0561 37.324 36.2888 36.9518 36.4051C36.4166 35.521 35.8815 34.6601 35.3696 33.776C35.7652 33.5898 36.1374 33.2874 36.533 33.2641C37.6498 33.1943 38.7666 33.2176 39.8834 33.2176C42.117 35.9398 45.5604 35.8235 47.9103 33.2176C49.4227 33.3107 50.9583 33.4037 52.5171 33.4968Z" fill="#6745F8"></path>
<path d="M93.071 35.4043C93.9319 35.4043 94.7694 35.4043 95.6303 35.4276C95.9793 35.637 96.3051 36.0092 96.6541 36.0325C97.6778 36.1256 98.7015 36.0558 99.7252 36.0558C99.8648 38.08 99.8648 38.08 97.9337 38.7314C93.9086 40.1042 89.5577 39.0339 87.0449 36.0558C88.6038 36.0558 90.1859 36.1023 91.7448 36.0325C92.2101 35.986 92.6289 35.6137 93.071 35.4043Z" fill="#7140FA"></path>
<path d="M158.497 22.7711C158.497 22.0498 158.497 21.3053 158.497 20.5142C159.846 20.5142 161.172 20.5142 162.615 20.5142C162.638 20.9097 162.661 21.3518 162.708 21.98C163.243 21.5845 163.639 21.3053 164.034 21.0261C166.756 19.188 170.572 19.4905 172.666 21.7241C172.945 22.0265 173.131 22.4221 173.364 22.7711C168.408 22.7711 163.452 22.7711 158.497 22.7711Z" fill="#2F6CED"></path>
<path d="M36.9287 36.4055C37.301 36.2892 37.6732 36.0565 38.0688 36.0565C41.7914 36.0332 45.5374 36.0332 49.26 36.0565C49.7486 36.0565 50.2372 36.1961 50.7258 36.2892C47.3056 40.291 40.2791 40.3608 36.9287 36.4055Z" fill="#7140FA"></path>
<path d="M66.7563 22.4916C70.2929 18.8155 77.0867 18.9551 80.4837 22.7941C79.9951 22.8639 79.5065 23.0035 79.0179 23.0035C75.1789 22.957 71.3166 22.8639 67.4776 22.7708C67.2217 22.7708 66.989 22.5847 66.7563 22.4916Z" fill="#316AEE"></path>
<path d="M19.8972 35.87C20.3858 35.7769 20.8512 35.6141 21.3398 35.6141C23.5966 35.5908 25.8535 35.5908 28.1104 35.5908C28.1336 36.3819 28.0871 37.1962 28.1569 37.9873C28.2267 38.7318 27.901 39.0343 27.2262 39.1273C26.4584 38.9645 25.6906 38.662 24.9228 38.6387C22.3635 38.5689 19.8275 38.6388 17.2681 38.5922C16.8493 38.5922 16.4305 38.2432 16.0117 38.0571C17.1518 37.5219 18.3151 37.0101 19.4552 36.4517C19.6413 36.3586 19.7576 36.0561 19.8972 35.87Z" fill="#6445F8"></path>
<path d="M87.4868 22.7714C89.6273 20.4214 92.3728 19.7002 95.4207 19.8863C96.3049 19.9328 97.1657 20.1655 98.0033 20.4214C99.8647 21.0031 99.8647 21.0264 99.7251 23.004C95.6534 22.9342 91.5585 22.8644 87.4868 22.7714Z" fill="#316AEE"></path>
<path d="M134.951 36.5216C131.67 40.221 124.737 40.2675 121.619 36.6379C122.038 36.5216 122.457 36.2889 122.876 36.2889C126.296 36.2657 129.716 36.2657 133.136 36.2889C133.764 36.2889 134.346 36.4285 134.951 36.5216Z" fill="#7140FA"></path>
<path d="M0.981934 13.6973C2.07547 13.7671 3.19227 13.8834 4.2858 13.9299C6.47286 14.023 8.65992 14.0928 10.8237 14.1859C11.0331 14.1859 11.2192 14.3487 11.4286 14.4418C10.6608 14.8373 9.86978 15.2096 8.98565 15.6517C9.82325 16.0937 10.5678 16.4893 11.3356 16.8615C9.91632 16.9546 8.52032 17.1407 7.10106 17.1407C5.05359 17.1407 3.0294 17.0011 0.981934 16.9313C0.981934 15.8843 0.981934 14.7908 0.981934 13.6973Z" fill="#286DEC"></path>
<path d="M66.7563 22.4922C66.989 22.5853 67.2216 22.7714 67.4776 22.7714C71.3166 22.8645 75.1788 22.9575 79.0178 23.0041C79.5064 23.0041 79.995 22.8645 80.4836 22.7947C81.0188 23.4694 81.5306 24.1674 82.0658 24.8421C80.4604 24.9352 78.8782 25.0282 77.2728 25.1213C74.667 23.0971 72.0146 23.1902 69.4087 25.3772C67.8498 25.2842 66.291 25.2144 64.7554 25.1213C65.4068 24.2372 66.0816 23.3763 66.7563 22.4922Z" fill="#3A63F0"></path>
<path d="M158.497 22.7715C163.452 22.7715 168.408 22.7715 173.364 22.7715C173.597 23.3997 173.806 24.0046 174.039 24.6328C172.526 24.7026 170.991 24.7957 169.478 24.8655C167.64 23.0042 165.011 23.2368 163.406 25.4006C163.057 25.3075 162.708 25.1214 162.359 25.1214C161.102 25.0749 159.823 25.0981 158.566 25.0981C158.52 24.3303 158.52 23.5625 158.497 22.7715Z" fill="#3665EF"></path>
<path d="M134.951 36.5215C134.346 36.4517 133.741 36.3121 133.136 36.2888C129.716 36.2656 126.296 36.2656 122.876 36.2888C122.457 36.2888 122.038 36.5215 121.619 36.6378C121.131 35.9864 120.665 35.3349 120.177 34.6834C120.665 34.6834 121.177 34.6834 121.666 34.6602C122.922 34.5904 124.179 34.4973 125.435 34.4042C127.133 35.5443 129.856 35.5908 131.926 33.7295C133.16 33.7993 134.416 33.8691 135.649 33.9622C135.975 33.9854 136.277 34.125 136.58 34.2181C136.068 34.9859 135.509 35.7537 134.951 36.5215Z" fill="#6745F8"></path>
<path d="M87.4868 22.7715C91.5585 22.8413 95.6534 22.9344 99.7251 23.0042C99.7251 24.1675 99.7018 25.3308 99.7018 26.4941H99.6785C99.2597 26.0986 98.8409 25.7031 98.4221 25.3308C95.8628 23.074 93.1173 23.0972 90.5347 25.3541C90.3719 25.4937 90.1858 25.6565 90.0229 25.7961C88.9061 25.7961 87.8125 25.8427 86.6957 25.7729C86.3235 25.7496 85.9745 25.4704 85.6255 25.3075C86.2537 24.4932 86.8586 23.6323 87.4868 22.7715Z" fill="#3A63F0"></path>
<path d="M102.634 31.4031C102.634 30.4725 102.634 29.5418 102.634 28.6112C103.541 28.6577 104.472 28.7275 105.379 28.7042C107.194 28.681 109.032 28.6112 110.847 28.5879C111.545 29.4488 112.22 30.3096 112.918 31.1472C112.522 31.2403 112.103 31.3799 111.708 31.3799C110.451 31.4264 109.195 31.4031 107.939 31.4031C107.45 30.8913 107.124 31.1937 106.845 31.6591C106.496 31.566 106.124 31.4031 105.775 31.4031C104.705 31.3799 103.681 31.4031 102.634 31.4031Z" fill="#5153F4"></path>
<path d="M10.7306 25.749C10.4049 25.9118 10.0792 26.2376 9.75346 26.2376C6.82186 26.2143 3.91353 26.1212 0.981934 26.0514C0.981934 24.5391 0.981934 23.0268 0.981934 21.3516C4.2858 22.8174 7.49658 24.2832 10.7306 25.749Z" fill="#435DF1"></path>
<path d="M180.298 22.0265C182.811 19.8627 185.742 19.5603 188.86 20.0954C189.395 20.1885 189.907 20.3979 190.419 20.5375C191.443 20.8167 192.001 21.4216 191.699 22.5384C188.162 22.4686 184.649 22.3988 181.112 22.2825C180.833 22.3057 180.577 22.1196 180.298 22.0265Z" fill="#2F6CED"></path>
<path d="M46.933 21.7705C48.2592 22.6314 49.5854 23.469 50.9116 24.3298C50.1671 24.4462 49.3993 24.5858 48.6548 24.6323C47.0028 24.7486 45.3509 24.8184 43.7223 24.8882C42.0936 24.0739 40.4649 23.2596 38.813 22.4452C39.1853 22.3289 39.5575 22.0962 39.9531 22.0962C41.7911 22.0497 43.6524 22.0963 45.5138 22.073C45.9558 22.0497 46.4444 21.8868 46.933 21.7705Z" fill="#3665EF"></path>
<path d="M63.6618 21.3752C63.6618 22.143 63.6618 22.9341 63.6618 23.7019C60.544 23.7019 57.4263 23.7019 54.3086 23.7019C54.3086 22.841 54.3086 22.0034 54.3086 21.1426C57.4263 21.2356 60.544 21.3054 63.6618 21.3752Z" fill="#3267EE"></path>
<path d="M180.298 22.0264C180.577 22.1194 180.833 22.3056 181.112 22.3056C184.649 22.3986 188.162 22.4684 191.698 22.5615C191.698 23.0966 191.698 23.655 191.698 24.1902C190.931 24.2832 190.139 24.353 189.372 24.4461C187.254 23.3991 185.207 23.4456 183.183 24.6788C182.741 24.5857 182.299 24.4694 181.833 24.4228C180.647 24.3298 179.46 24.26 178.273 24.1902C178.925 23.4689 179.623 22.7476 180.298 22.0264Z" fill="#3267EE"></path>
<path d="M128.599 20.6309C130.182 21.3521 131.764 22.0966 133.346 22.8179C132.997 22.9575 132.648 23.2135 132.299 23.2367C130.344 23.2833 128.39 23.2367 126.436 23.2832C126.087 23.2832 125.761 23.5857 125.435 23.7253C124.318 22.9343 123.178 22.1432 122.062 21.3289C122.504 21.1893 122.946 20.9799 123.411 20.9333C125.109 20.7937 126.854 20.7239 128.599 20.6309Z" fill="#316AEE"></path>
<path d="M110.847 28.5648C109.032 28.6113 107.194 28.6811 105.379 28.6811C104.472 28.6811 103.541 28.6113 102.634 28.5881C102.634 27.8203 102.634 27.0292 102.634 26.2614C104.076 26.2381 105.519 26.2149 106.961 26.1916C107.101 26.0753 107.264 25.9357 107.403 25.8193C107.869 25.9589 108.334 26.1683 108.823 26.2381C109.846 26.4243 110.87 26.5406 111.917 26.6802C111.615 27.0059 111.242 27.2619 111.01 27.6341C110.847 27.8901 110.893 28.2623 110.847 28.5648Z" fill="#465AF2"></path>
<path d="M43.6992 24.9119C45.3511 24.8188 47.0031 24.749 48.6317 24.656C49.3995 24.6094 50.1441 24.4466 50.8886 24.3535C51.5168 25.4703 52.145 26.5871 52.7732 27.7039C51.2143 27.797 49.6555 27.8668 48.1199 27.9598C47.0031 26.3777 45.3046 25.7262 43.6992 24.9119Z" fill="#435DF1"></path>
<path d="M125.412 23.7248C125.737 23.5619 126.086 23.2827 126.412 23.2827C128.366 23.2362 130.321 23.2827 132.275 23.2362C132.624 23.2362 132.973 22.9802 133.322 22.8174C134.276 23.655 135.23 24.4926 136.161 25.3302C134.602 25.4233 133.066 25.4698 131.507 25.5861C131.089 25.6094 130.67 25.7955 130.251 25.8886C128.646 25.1673 127.04 24.4461 125.412 23.7248Z" fill="#3A63F0"></path>
<path d="M147.724 30.7051C147.817 30.7051 147.934 30.7051 148.027 30.7051C149.492 30.7749 150.958 30.8447 152.401 30.9377C151.959 31.8219 151.493 32.6828 151.051 33.5669C150.656 33.4738 150.283 33.2877 149.888 33.2877C148.096 33.2644 146.305 33.2644 144.49 33.2644C144.071 32.4966 143.653 31.7521 143.21 30.9843C144.723 30.8912 146.212 30.7981 147.724 30.7051Z" fill="#5B51F6"></path>
<path d="M109.939 23.3059C110.777 22.445 111.591 21.5609 112.452 20.7233C112.708 20.4906 113.127 20.3277 113.476 20.3045C115.058 20.2579 116.64 20.2812 118.618 20.2812C117.082 21.7237 115.779 22.9336 114.476 24.1667C113.569 24.0039 112.662 23.8643 111.754 23.7014C111.149 23.5851 110.544 23.4455 109.939 23.3059Z" fill="#376EEE"></path>
<path d="M20.0137 26.7729C20.3859 26.6101 20.7582 26.3076 21.1305 26.3076C23.4571 26.3309 25.8071 26.4472 28.1337 26.517C28.1337 27.7734 28.1337 29.0531 28.1337 30.4956C25.3417 29.2159 22.6893 27.9828 20.0137 26.7729Z" fill="#4C57F3"></path>
<path d="M46.9332 21.7707C46.4446 21.8638 45.9793 22.0499 45.4907 22.0732C43.6526 22.0964 41.7913 22.0732 39.9299 22.0964C39.5577 22.0964 39.1854 22.3291 38.7899 22.4454C38.0221 21.5613 37.2776 20.6539 36.5098 19.7698C36.9286 19.7698 37.3474 19.793 37.7894 19.7698C39.1622 19.7 40.5349 19.6069 41.9076 19.5371C43.5828 20.2816 45.258 21.0262 46.9332 21.7707Z" fill="#2F6CED"></path>
<path d="M139.372 23.9581C138.697 22.818 138.045 21.6547 137.254 20.3052C138.906 20.3052 140.302 20.2587 141.722 20.3285C142.024 20.3518 142.396 20.6542 142.559 20.9334C143.071 21.8176 143.513 22.7715 143.978 23.7022C143.513 23.7022 143.071 23.6789 142.606 23.7022C141.535 23.7952 140.442 23.8883 139.372 23.9581Z" fill="#376EEE"></path>
<path d="M128.599 20.6309C126.854 20.7239 125.132 20.7937 123.387 20.9333C122.945 20.9799 122.503 21.1893 122.038 21.3289C121.48 20.2586 120.921 19.1883 120.363 18.1181C121.852 18.025 123.364 17.9319 124.853 17.8389C125.714 19.3047 127.157 19.9561 128.599 20.6309Z" fill="#286DEC"></path>
<path d="M158.543 31.8686C158.543 30.5657 158.543 29.2395 158.543 27.9365C159.963 28.0063 161.382 28.0761 162.801 28.1459C162.755 29.3791 162.731 30.6122 162.685 31.8686C161.312 31.8453 159.916 31.8453 158.543 31.8686Z" fill="#5153F4"></path>
<path d="M151.656 23.4689C152.052 22.608 152.424 21.7006 152.889 20.863C153.029 20.6071 153.471 20.3512 153.774 20.3279C155.076 20.2814 156.403 20.3046 157.985 20.3046C157.31 21.5378 156.728 22.6313 156.123 23.7016C154.634 23.6318 153.145 23.5387 151.656 23.4689Z" fill="#376EEE"></path>
<path d="M158.543 31.8682C159.916 31.8682 161.312 31.8682 162.685 31.8682C162.685 33.1013 162.685 34.3344 162.708 35.5908C161.312 35.5908 159.939 35.5908 158.543 35.5908C158.543 34.3344 158.543 33.1013 158.543 31.8682Z" fill="#604AF7"></path>
<path d="M63.6619 21.3748C60.5442 21.305 57.4265 21.2119 54.3087 21.1421C54.1459 19.5367 55.5186 20.7465 56.0537 20.0253C56.077 19.7694 56.1235 19.304 56.1701 18.8154C57.5428 18.8154 58.9388 18.8154 60.3115 18.8154C60.3581 19.2575 60.4279 19.7228 60.4977 20.2812C61.5447 20.2812 62.5451 20.2812 63.6852 20.2812C63.6619 20.7233 63.6619 21.049 63.6619 21.3748Z" fill="#286DEC"></path>
<path d="M56.147 36.0331C56.147 34.8698 56.147 33.7065 56.147 32.5664C57.5197 32.5664 58.9157 32.5664 60.2884 32.5664C60.2884 33.7297 60.2884 34.8698 60.3117 36.0331C58.939 36.0331 57.543 36.0331 56.147 36.0331Z" fill="#6445F8"></path>
<path d="M183.345 34.684C182.996 34.8236 182.671 35.0563 182.298 35.1028C181.019 35.2191 179.716 35.2889 178.413 35.3587C177.901 34.2652 177.366 33.1717 176.854 32.0781C178.32 32.0781 179.786 32.0781 181.228 32.0781C181.949 32.9623 182.647 33.8231 183.345 34.684Z" fill="#604AF7"></path>
<path d="M102.634 15.5586C104.03 15.6284 105.403 15.7215 106.799 15.7913C106.799 16.9546 106.799 18.1179 106.799 19.2813C105.403 19.2813 104.03 19.2813 102.634 19.2813C102.634 18.0481 102.634 16.815 102.634 15.5586Z" fill="#2173EB"></path>
<path d="M85.6255 25.3301C85.9745 25.4929 86.3235 25.7721 86.6957 25.7954C87.8125 25.8652 88.9061 25.8187 90.0229 25.8187C89.6506 26.9122 89.2551 27.9825 88.8828 29.076C87.4868 29.076 86.0908 29.076 84.6948 29.076C84.9973 27.8196 85.323 26.5865 85.6255 25.3301Z" fill="#465AF2"></path>
<path d="M54.3086 23.7021C57.4263 23.7021 60.544 23.7021 63.6618 23.7021C63.8479 24.3769 63.4058 24.3769 62.9405 24.3769C62.1494 24.3769 61.3351 24.3769 60.4743 24.3769C60.4045 25.0749 60.3346 25.6565 60.2881 26.2615C58.9154 26.2615 57.5194 26.2615 56.1466 26.2615C56.1234 25.7031 56.0769 25.1214 56.0536 24.6095C55.6813 23.865 54.3319 25.1214 54.3086 23.7021Z" fill="#3F61F0"></path>
<path d="M39.86 33.2411C38.7432 33.2411 37.6264 33.2179 36.5096 33.2877C36.1141 33.3109 35.7418 33.6134 35.3463 33.7996C35.0206 32.8456 34.6948 31.8684 34.2993 30.7749C35.8814 30.4259 37.2774 30.1001 38.72 29.7744C39.1155 30.9377 39.4878 32.0778 39.86 33.2411Z" fill="#5C4CF6"></path>
<path d="M102.634 19.2812C104.03 19.2812 105.403 19.2812 106.799 19.2812C106.799 20.4446 106.799 21.6079 106.799 22.7712C105.403 22.7712 104.03 22.7712 102.634 22.7712C102.634 21.6079 102.634 20.4446 102.634 19.2812Z" fill="#2F6CED"></path>
<path d="M116.617 35.7539C117.431 36.7078 118.222 37.6618 119.176 38.8251C117.292 38.8251 115.686 38.8484 114.081 38.8019C113.778 38.8019 113.406 38.4994 113.174 38.2202C112.662 37.6153 112.196 36.9405 111.731 36.2891C112.987 36.2891 114.244 36.3356 115.5 36.2658C115.849 36.2425 116.221 35.9168 116.617 35.7539Z" fill="#7140FA"></path>
<path d="M130.274 25.8885C130.693 25.7721 131.112 25.6093 131.531 25.586C133.09 25.4697 134.625 25.3999 136.184 25.3301C136.58 26.2607 136.975 27.1914 137.371 28.1221C135.858 28.2151 134.369 28.2849 132.857 28.378C131.996 27.5404 131.135 26.7261 130.274 25.8885Z" fill="#435DF1"></path>
<path d="M56.1699 26.2607C57.5427 26.2607 58.9386 26.2607 60.3114 26.2607C60.3114 27.3543 60.3114 28.4245 60.3114 29.5181C58.9386 29.5181 57.5427 29.5181 56.1699 29.5181C56.1699 28.4478 56.1699 27.3543 56.1699 26.2607Z" fill="#4C57F3"></path>
<path d="M158.543 35.5674C159.939 35.5674 161.312 35.5674 162.708 35.5674C162.708 36.5911 162.708 37.6381 162.708 38.7549C161.359 38.7549 160.033 38.7549 158.543 38.7549C158.543 37.7079 158.543 36.6376 158.543 35.5674Z" fill="#7B55FA"></path>
<path d="M80.8328 35.9865C80.3907 35.8469 79.9486 35.6608 79.4833 35.6143C78.1338 35.4747 76.7611 35.3816 75.4116 35.2653C76.3656 34.4509 77.2962 33.6366 78.2269 32.8223C79.716 32.8223 81.205 32.8455 82.6941 32.8455C82.0892 33.8693 81.461 34.9163 80.8328 35.9865Z" fill="#6445F8"></path>
<path d="M109.939 23.3057C110.544 23.4453 111.149 23.5849 111.754 23.7012C112.661 23.8641 113.569 24.0269 114.476 24.1665C113.615 25.0041 112.754 25.8417 111.894 26.6793C110.87 26.5397 109.823 26.4234 108.799 26.2373C108.311 26.1442 107.845 25.9581 107.38 25.8185C108.241 25.0041 109.102 24.1433 109.939 23.3057Z" fill="#3F61F0"></path>
<path d="M48.1431 27.9132C49.7019 27.8201 51.2608 27.7503 52.7964 27.6572C52.8662 28.8206 52.9593 29.9839 53.0291 31.1472C51.5865 31.0774 50.1207 30.9844 48.6782 30.9146C48.4921 29.9141 48.3292 28.9136 48.1431 27.9132Z" fill="#5153F4"></path>
<path d="M162.801 28.1457C161.382 28.0759 159.963 28.0061 158.543 27.9363C158.543 27.0056 158.543 26.0517 158.543 25.1211C159.8 25.1211 161.08 25.0978 162.336 25.1443C162.685 25.1443 163.034 25.3305 163.383 25.4235C163.197 26.3076 162.987 27.2151 162.801 28.1457Z" fill="#435DF1"></path>
<path d="M119.595 33.2642C119.339 32.4732 119.083 31.6821 118.804 30.7514C120.363 30.4024 121.782 30.0767 123.271 29.751C123.527 30.798 123.783 31.7752 124.039 32.7756C123.644 32.892 123.248 33.1014 122.829 33.1246C121.759 33.1944 120.666 33.2177 119.595 33.2642Z" fill="#5B51F6"></path>
<path d="M116.617 35.7536C116.245 35.9398 115.872 36.2423 115.477 36.2655C114.22 36.3353 112.964 36.2888 111.708 36.2888C111.149 35.5908 110.614 34.8928 110.056 34.1715C110.428 34.0319 110.777 33.7527 111.149 33.7527C112.429 33.7062 113.685 33.7295 114.965 33.7295C115.523 34.3809 116.058 35.0556 116.617 35.7536Z" fill="#6745F8"></path>
<path d="M147.259 40.9425C146.142 40.9425 145.002 40.9658 143.885 40.9425C143.536 40.9425 143.187 40.7564 142.815 40.6633C143.35 39.6629 143.908 38.6391 144.444 37.6387C144.839 37.8248 145.211 38.1273 145.607 38.1505C146.607 38.2203 147.608 38.1738 148.632 38.1738C148.19 39.0812 147.724 40.0119 147.259 40.9425Z" fill="#763BFB"></path>
<path d="M132.857 28.378C134.369 28.2849 135.858 28.2151 137.371 28.1221C137.417 29.1458 137.464 30.1463 137.487 31.17C136.044 31.1002 134.579 31.0071 133.136 30.9373C133.043 30.0765 132.95 29.2156 132.857 28.378Z" fill="#5153F4"></path>
<path d="M71.4796 35.2191C71.1306 35.3355 70.8049 35.5449 70.4559 35.5681C69.3624 35.6147 68.2921 35.5448 67.1986 35.6146C66.8263 35.6379 66.454 35.8939 66.0818 36.0335C65.5234 35.1261 64.965 34.1954 64.3833 33.288C65.8258 33.1949 67.2916 33.1019 68.7342 33.0088C69.6648 33.7301 70.5722 34.4746 71.4796 35.2191Z" fill="#6745F8"></path>
<path d="M56.1699 29.5186C57.5427 29.5186 58.9386 29.5186 60.3114 29.5186C60.3114 30.5423 60.3114 31.5427 60.3114 32.5665C58.9386 32.5665 57.5427 32.5665 56.1699 32.5665C56.1699 31.5427 56.1699 30.5423 56.1699 29.5186Z" fill="#5B51F6"></path>
<path d="M133.136 30.9375C134.579 31.0073 136.045 31.1004 137.487 31.1702C137.185 32.1939 136.905 33.2176 136.603 34.2414C136.301 34.1483 135.975 34.0087 135.672 33.9854C134.439 33.8924 133.183 33.8226 131.95 33.7528C132.345 32.7988 132.741 31.8682 133.136 30.9375Z" fill="#5C4CF6"></path>
<path d="M144.49 33.2646C146.282 33.2646 148.073 33.2413 149.888 33.2879C150.284 33.2879 150.656 33.474 151.051 33.5671C150.702 34.2418 150.377 34.9165 150.028 35.5913C148.515 35.5913 147.003 35.5913 145.491 35.5913C145.165 34.8002 144.839 34.0324 144.49 33.2646Z" fill="#6445F8"></path>
<path d="M114.965 33.7068C113.685 33.7068 112.429 33.6835 111.149 33.7301C110.777 33.7533 110.428 34.0093 110.055 34.1489C109.334 33.2415 108.613 32.3108 107.892 31.4034C109.148 31.4034 110.404 31.4034 111.661 31.3801C112.056 31.3569 112.475 31.2173 112.871 31.1475C113.592 32.0083 114.29 32.8459 114.965 33.7068Z" fill="#5C4CF6"></path>
<path d="M151.656 23.4688C153.145 23.5618 154.635 23.6316 156.124 23.7247C155.588 24.7484 155.077 25.7954 154.541 26.8191C154.146 26.633 153.774 26.3305 153.378 26.3073C152.354 26.2375 151.307 26.284 150.284 26.284C150.726 25.3301 151.191 24.3994 151.656 23.4688Z" fill="#3F61F0"></path>
<path d="M41.8846 19.5142C40.5119 19.584 39.1391 19.677 37.7664 19.7468C37.3476 19.7701 36.9288 19.7468 36.4867 19.7468C36.2541 18.886 36.0447 18.0484 35.812 17.1875C37.2778 17.1875 38.7203 17.1875 40.1861 17.1875C40.7911 17.9786 41.3262 18.7464 41.8846 19.5142Z" fill="#2173EB"></path>
<path d="M181.252 32.1008C179.786 32.1008 178.32 32.1008 176.878 32.1008C176.784 31.1004 176.715 30.0766 176.622 29.0762C178.018 29.146 179.437 29.239 180.833 29.3088C180.972 30.2395 181.112 31.1702 181.252 32.1008Z" fill="#5153F4"></path>
<path d="M124.853 17.839C123.364 17.9321 121.852 18.0252 120.363 18.1182C120.386 17.0945 120.409 16.0708 120.433 15.0703C121.945 15.1634 123.434 15.2565 124.946 15.3263C124.923 16.1639 124.877 17.0014 124.853 17.839Z" fill="#1978E9"></path>
<path d="M82.7172 32.8221C81.2281 32.8221 79.7391 32.7988 78.25 32.7988C78.4827 31.8682 78.7386 30.9375 78.9713 30.0068C80.3905 30.0068 81.8098 30.0068 83.2058 30.0068C83.0429 30.9375 82.8801 31.8682 82.7172 32.8221Z" fill="#5B51F6"></path>
<path d="M56.147 36.0332C57.543 36.0332 58.9157 36.0332 60.3117 36.0332C60.3582 36.9173 60.4048 37.7782 60.4513 38.7554C58.9622 38.7554 57.636 38.7554 56.147 38.7554C56.147 37.848 56.147 36.9406 56.147 36.0332Z" fill="#7B55FA"></path>
<path d="M139.372 23.9579C140.442 23.8648 141.535 23.7717 142.606 23.7252C143.071 23.7019 143.513 23.7252 143.978 23.7252C144.304 24.493 144.63 25.2608 144.979 26.0286C144.56 26.1217 144.118 26.238 143.699 26.2845C142.722 26.3776 141.745 26.4474 140.791 26.5172C140.302 25.6563 139.837 24.8187 139.372 23.9579Z" fill="#3F61F0"></path>
<path d="M93.0708 35.4047C92.6287 35.6141 92.21 36.0096 91.7679 36.0329C90.209 36.1027 88.6269 36.0562 87.068 36.0562C86.5794 35.3582 86.1141 34.6602 85.6255 33.9622C87.1844 33.8924 88.7432 33.7993 90.2788 33.7295C91.2095 34.2646 92.1401 34.823 93.0708 35.4047Z" fill="#6745F8"></path>
<path d="M83.2058 30.0075C81.7865 30.0075 80.3672 30.0075 78.9712 30.0075C78.8549 29.0768 78.7618 28.1461 78.6455 27.2155C80.088 27.1922 81.5306 27.1922 82.9731 27.1689C83.0429 28.1229 83.136 29.0535 83.2058 30.0075Z" fill="#4C57F3"></path>
<path d="M64.709 25.1211C66.2678 25.2142 67.8267 25.284 69.3623 25.377C68.9435 26.2146 68.5247 27.0755 68.1059 27.9131C66.6634 27.9131 65.2209 27.9131 63.7783 27.9131C64.1041 26.9824 64.4065 26.0518 64.709 25.1211Z" fill="#465AF2"></path>
<path d="M63.8016 27.9131C65.2441 27.9131 66.6867 27.9131 68.1292 27.9131C68.0826 28.8438 68.0361 29.7744 67.9896 30.7051C66.5936 30.7051 65.1743 30.7051 63.7783 30.7051C63.7783 29.7744 63.8016 28.8438 63.8016 27.9131Z" fill="#5153F4"></path>
<path d="M180.833 29.3086C179.437 29.2388 178.018 29.1457 176.622 29.0759C176.784 28.2151 176.924 27.3775 177.087 26.5166C178.553 26.5864 179.995 26.6795 181.461 26.7493C181.252 27.5869 181.042 28.4477 180.833 29.3086Z" fill="#465AF2"></path>
<path d="M60.3114 18.8389C58.9386 18.8389 57.5427 18.8389 56.1699 18.8389C56.1699 17.9082 56.1699 16.9775 56.1699 16.0469C57.5427 16.1167 58.9386 16.2097 60.3114 16.2795C60.3114 17.1171 60.3114 17.978 60.3114 18.8389Z" fill="#2173EB"></path>
<path d="M84.6948 29.0527C86.0908 29.0527 87.4868 29.0527 88.8828 29.0527C88.9992 29.9834 89.1155 30.8908 89.2551 31.8215C87.7893 31.7517 86.3235 31.7051 84.8577 31.6353C84.7879 30.7977 84.7414 29.9369 84.6948 29.0527Z" fill="#5451F5"></path>
<path d="M106.799 36.0566C106.799 36.9408 106.799 37.8249 106.799 38.7556C105.379 38.7556 104.053 38.7556 102.634 38.7556C102.634 37.8249 102.634 36.9408 102.634 36.0566C104.007 36.0566 105.403 36.0566 106.799 36.0566Z" fill="#7140FA"></path>
<path d="M174.271 31.8682C174.271 32.7988 174.271 33.7295 174.271 34.6602C172.899 34.6602 171.503 34.6602 170.13 34.6602C170.13 33.7295 170.13 32.7988 170.13 31.8682C171.503 31.8682 172.899 31.8682 174.271 31.8682Z" fill="#5C4CF6"></path>
<path d="M174.271 31.8682C172.899 31.8682 171.503 31.8682 170.13 31.8682C170.13 30.9375 170.13 30.0068 170.13 29.0762C171.503 29.0762 172.899 29.0762 174.271 29.0762C174.271 30.0068 174.271 30.9375 174.271 31.8682Z" fill="#5153F4"></path>
<path d="M145.491 35.5908C147.003 35.5908 148.515 35.5908 150.028 35.5908C149.562 36.4517 149.097 37.2893 148.655 38.1501C147.654 38.1501 146.631 38.1967 145.63 38.1269C145.235 38.1036 144.839 37.8011 144.467 37.615C144.816 36.9403 145.142 36.2656 145.491 35.5908Z" fill="#6D43F9"></path>
<path d="M60.3114 16.2797C58.9386 16.2099 57.5427 16.1168 56.1699 16.047C56.1699 15.2792 56.1699 14.5114 56.1699 13.6738C57.5194 13.6738 58.8688 13.6738 60.3114 13.6738C60.3114 14.5347 60.3114 15.3956 60.3114 16.2797Z" fill="#1978E9"></path>
<path d="M40.2325 17.1873C38.7667 17.1873 37.3242 17.1873 35.8584 17.1873C35.9515 16.3264 36.0213 15.4888 36.1143 14.6279C37.6732 14.721 39.2321 14.7908 40.7677 14.8839C40.5815 15.6517 40.3954 16.4195 40.2325 17.1873Z" fill="#1978E9"></path>
<path d="M48.6783 30.9375C50.1208 31.0073 51.5866 31.1004 53.0291 31.1702C52.8663 31.938 52.6801 32.729 52.5173 33.4968C50.9817 33.4038 49.4228 33.334 47.8872 33.2409C48.1431 32.4731 48.4223 31.7053 48.6783 30.9375Z" fill="#604AF7"></path>
<path d="M150.283 26.2613C151.33 26.2613 152.354 26.2148 153.378 26.2846C153.773 26.3078 154.146 26.6103 154.541 26.7964C154.192 27.4712 153.843 28.1459 153.518 28.8206C152.052 28.7508 150.586 28.6578 149.12 28.588C149.492 27.8202 149.888 27.0291 150.283 26.2613Z" fill="#465AF2"></path>
<path d="M140.768 26.4935C141.745 26.4237 142.722 26.3539 143.676 26.2608C144.118 26.2143 144.537 26.0979 144.956 26.0049C145.444 26.7959 145.933 27.5638 146.398 28.3548C144.909 28.4479 143.397 28.5177 141.908 28.6107C141.559 27.9127 141.163 27.1915 140.768 26.4935Z" fill="#465AF2"></path>
<path d="M181.461 26.7498C179.995 26.68 178.553 26.5869 177.087 26.5171C177.482 25.7493 177.855 24.9582 178.25 24.1904C179.437 24.2602 180.623 24.33 181.81 24.4231C182.252 24.4696 182.717 24.586 183.159 24.679C182.601 25.3538 182.019 26.0518 181.461 26.7498Z" fill="#3F61F0"></path>
<path d="M141.931 28.6114C143.42 28.5183 144.933 28.4485 146.422 28.3555C146.84 29.1465 147.282 29.9376 147.701 30.7054C146.212 30.7985 144.7 30.8915 143.211 30.9846C142.792 30.1935 142.373 29.4025 141.931 28.6114Z" fill="#5153F4"></path>
<path d="M149.12 28.5879C150.586 28.6577 152.052 28.7508 153.518 28.8206C153.146 29.5186 152.773 30.2166 152.401 30.9146C150.935 30.8448 149.469 30.775 148.027 30.6819C148.376 30.0072 148.748 29.2859 149.12 28.5879Z" fill="#5153F4"></path>
<path d="M63.7783 30.7051C65.1743 30.7051 66.5936 30.7051 67.9896 30.7051C68.2455 31.4729 68.5015 32.2407 68.7574 32.9852C67.3149 33.0783 65.8491 33.1713 64.4065 33.2644C64.1971 32.4035 63.9877 31.5427 63.7783 30.7051Z" fill="#5C4CF6"></path>
<path d="M84.8345 31.6592C86.3003 31.729 87.7661 31.7755 89.2319 31.8453C89.5809 32.4735 89.9299 33.1017 90.2789 33.7299C88.72 33.7997 87.1611 33.8928 85.6255 33.9626C85.3696 33.1948 85.0904 32.427 84.8345 31.6592Z" fill="#604AF7"></path>
<path d="M82.9501 27.1685C81.5076 27.1917 80.0651 27.1917 78.6226 27.215C78.1572 26.517 77.6919 25.819 77.2266 25.121C78.832 25.0279 80.4141 24.9349 82.0195 24.8418C82.3452 25.6096 82.6477 26.4007 82.9501 27.1685Z" fill="#435DF1"></path>
<path d="M106.799 36.0562C105.403 36.0562 104.03 36.0562 102.634 36.0562C102.634 35.2884 102.634 34.4973 102.634 33.7295C104.03 33.7295 105.403 33.7295 106.799 33.7295C106.799 34.4973 106.799 35.2651 106.799 36.0562Z" fill="#6445F8"></path>
<path d="M174.272 29.0767C172.899 29.0767 171.503 29.0767 170.13 29.0767C170.107 28.3089 170.084 27.5411 170.061 26.75C171.457 26.75 172.876 26.75 174.272 26.75C174.272 27.5178 174.272 28.2856 174.272 29.0767Z" fill="#465AF2"></path>
<path d="M170.13 34.6602C171.503 34.6602 172.899 34.6602 174.271 34.6602C174.271 35.428 174.271 36.219 174.271 36.9868C172.899 36.9868 171.503 36.9868 170.13 36.9868C170.13 36.1958 170.13 35.428 170.13 34.6602Z" fill="#6745F8"></path>
<path d="M106.799 33.7299C105.403 33.7299 104.03 33.7299 102.634 33.7299C102.634 32.9621 102.634 32.1711 102.634 31.4033C103.681 31.4033 104.728 31.38 105.775 31.4265C106.124 31.4498 106.496 31.5894 106.845 31.6825C106.822 32.3572 106.799 33.0319 106.799 33.7299Z" fill="#5C4CF6"></path>
<path d="M174.272 26.7501C172.876 26.7501 171.456 26.7501 170.06 26.7501C169.851 26.1219 169.665 25.4937 169.456 24.8655C170.968 24.7957 172.503 24.7026 174.016 24.6328C174.109 25.3541 174.179 26.0521 174.272 26.7501Z" fill="#3F61F0"></path>
<path d="M102.634 22.7715C104.03 22.7715 105.403 22.7715 106.799 22.7715C106.799 23.4695 106.799 24.1675 106.799 24.8655C105.403 24.8655 104.03 24.8655 102.634 24.8655C102.634 24.1675 102.634 23.4695 102.634 22.7715Z" fill="#3A63F0"></path>
<path d="M119.595 33.264C120.665 33.2175 121.759 33.2175 122.829 33.1244C123.225 33.1011 123.62 32.8917 124.039 32.7754C124.504 33.3105 124.993 33.8689 125.458 34.4041C124.202 34.4971 122.946 34.5669 121.689 34.66C121.201 34.6832 120.689 34.6832 120.2 34.6832C119.991 34.2179 119.781 33.7293 119.595 33.264Z" fill="#6445F8"></path>
<path d="M170.13 36.9873C171.503 36.9873 172.899 36.9873 174.271 36.9873C174.271 37.5457 174.271 38.1274 174.271 38.7556C172.875 38.7556 171.526 38.7556 170.13 38.7556C170.13 38.1274 170.13 37.5457 170.13 36.9873Z" fill="#7140FA"></path>
<path d="M99.7253 36.0568C98.7016 36.0568 97.6778 36.1033 96.6541 36.0335C96.3051 36.0103 95.9794 35.638 95.6304 35.4286C97.3056 35.0563 98.3758 33.8232 99.5857 32.7529C99.6322 32.9158 99.702 33.1019 99.7486 33.2648C99.7486 34.1722 99.7486 35.1261 99.7253 36.0568Z" fill="#6745F8"></path>
<path d="M102.634 24.8887C104.03 24.8887 105.403 24.8887 106.799 24.8887C106.845 25.3307 106.892 25.7728 106.961 26.2149C105.519 26.2381 104.076 26.2614 102.634 26.2847C102.634 25.8193 102.634 25.354 102.634 24.8887Z" fill="#3F61F0"></path>
<path d="M189.348 24.4464C190.116 24.3533 190.907 24.2835 191.675 24.1904C191.675 24.9582 191.675 25.726 191.675 26.6567C190.86 25.8424 190.116 25.1444 189.348 24.4464Z" fill="#3F61F0"></path>
</g>
<defs>
<clipPath id="clip0_7573_343">
<rect width="190.865" height="50" fill="white" transform="translate(0.915527 0.900391)"></rect>
</clipPath>
</defs>
</svg>