<svg width="65" height="65" viewBox="0 0 65 65" fill="none" xmlns="http://www.w3.org/2000/svg">
<g id="code" clip-path="url(#clip0_7014_1706)">
<path id="Vector" d="M25.8832 64.0479H49.3441C49.6945 64.0479 49.9789 63.7635 49.9789 63.4131V60.3611C49.9789 60.0107 49.6945 59.7264 49.3441 59.7264H15.3626C15.0109 59.7264 14.7278 60.0107 14.7278 60.3611V63.4131C14.7278 63.7635 15.0109 64.0479 15.3626 64.0479H21.4398M56.8509 14.5311H62.7783C63.4791 14.5311 64.0479 15.0998 64.0479 15.8006V51.3475C64.0479 52.0482 63.4791 52.617 62.7783 52.617H55.1738M8.27353 14.5311H2.22168C1.5209 14.5311 0.952148 15.0998 0.952148 15.8006V51.3475C0.952148 52.0482 1.5209 52.617 2.22168 52.617H50.7305M45.1101 59.5673L41.4899 52.8096M23.6613 59.6755C26.0632 57.1449 29.2816 55.881 32.5 55.881C35.7079 55.881 38.9157 57.1368 41.3151 59.6507M23.5101 52.8096L19.8522 59.6379M1.16416 48.0519H63.7872M8.56934 24.5921V3.02275C8.56934 1.87891 9.49609 0.952148 10.6399 0.952148H54.3601C55.5039 0.952148 56.4307 1.87891 56.4307 3.02275V47.6506M8.56934 47.7801V29.0354M28.6457 9.03271H8.91338M56.0866 9.03271H33.0891M26.4238 32.2031L22.5346 28.3138L26.4238 24.4246M38.5762 32.2031L42.4654 28.3138L38.5762 24.4246M30.7512 33.1576L34.2489 23.4701M24.4791 18.7321H12.9581M52.0419 18.7321H28.9225M42.7247 14.2887H12.9581M52.0419 14.2887H47.168M26.4238 42.339H12.9581M52.0419 42.339H30.8671M35.7843 37.8956H12.9581M52.0419 37.8956H40.2276" stroke="black" stroke-width="2" stroke-miterlimit="10" stroke-linecap="round" stroke-linejoin="round"></path>
</g>
<defs>
<clipPath id="clip0_7014_1706">a
<rect width="65" height="65" fill="white"></rect>
</clipPath>
</defs>
</svg>