<svg width="86" height="104" viewBox="0 0 86 104" fill="none" xmlns="http://www.w3.org/2000/svg">
<path d="M31.5931 94.0199C32.525 94.9385 33.4578 95.8561 34.3882 96.7763C34.9318 97.3137 35.4775 97.8493 36.0118 98.3959C36.9805 99.3869 37.2103 100.759 36.6143 101.928C36.0146 103.103 34.7441 103.823 33.4335 103.559C32.8227 103.436 32.1578 103.127 31.7151 102.698C28.3955 99.4814 25.1172 96.2222 21.8438 92.9584C20.5557 91.6742 20.5991 89.822 21.8976 88.5389C25.0699 85.4042 28.2425 82.2697 31.4171 79.1374C32.6533 77.9177 34.0593 77.6562 35.3749 78.3917C37.1118 79.3628 37.4845 81.6969 36.0943 83.1249C34.7059 84.551 33.2748 85.9355 31.8636 87.3396C31.7668 87.436 31.6814 87.5438 31.5403 87.7035C31.7188 87.7303 31.8304 87.7615 31.9422 87.7618C36.176 87.774 40.4116 87.8699 44.643 87.7744C52.2977 87.6018 59.2605 85.3044 65.399 80.661C70.667 76.6759 74.5264 71.6139 77.0475 65.5069C79.221 60.2418 80.0142 54.7673 79.5722 49.1179C79.1936 44.2771 77.7822 39.7174 75.5169 35.423C75.3178 35.0455 75.1111 34.6722 74.9109 34.2953C74.1432 32.8504 74.6105 31.061 75.9591 30.2755C77.3906 29.4416 79.2693 29.8885 80.1119 31.3254C81.4717 33.6435 82.5596 36.0895 83.4478 38.6276C84.3176 41.1138 84.944 43.6576 85.3196 46.2619C85.9463 50.6076 85.8909 54.9435 85.1221 59.2714C84.2443 64.2132 82.5653 68.861 80.0139 73.182C75.9718 80.0278 70.4699 85.3652 63.4337 89.0973C60.5855 90.608 57.5935 91.7369 54.4696 92.5433C50.3034 93.6189 46.0689 93.9366 41.7842 93.8733C38.6005 93.8265 35.4158 93.8522 32.2315 93.8458C32.043 93.8454 31.8545 93.8458 31.6659 93.8458C31.6418 93.9037 31.6175 93.9618 31.5931 94.0199Z" fill="#074E15"/>
<path d="M17.0819 18.4859C17.109 18.4846 17.1269 18.4712 17.1358 18.4455C17.2197 18.3839 17.3034 18.322 17.3873 18.2604C17.4189 18.2568 17.4399 18.24 17.45 18.2098C17.5758 18.1238 17.7015 18.0377 17.8272 17.9516C17.8562 17.9477 17.8739 17.9316 17.8801 17.903C18.5872 17.406 19.2942 16.9092 20.0012 16.4122L20.0106 16.4058C20.2726 16.2403 20.5345 16.0748 20.7965 15.9091C20.8294 15.9068 20.8529 15.8907 20.867 15.8611C20.9532 15.8077 21.0395 15.7543 21.1257 15.7009C21.1551 15.7023 21.1767 15.6899 21.1902 15.6637C21.4137 15.5309 21.6372 15.3982 21.8607 15.2654C21.8923 15.266 21.9171 15.2533 21.935 15.2272C22.8433 14.7482 23.7515 14.269 24.6599 13.79C24.6858 13.7997 24.707 13.7934 24.7234 13.7712C24.8489 13.7124 24.9744 13.6534 25.0999 13.5946C25.1482 13.5692 25.1963 13.544 25.2446 13.5187C25.3946 13.4681 25.5456 13.4205 25.6944 13.3665C27.4922 12.715 29.2775 12.0262 31.0915 11.4241C32.1815 11.0623 33.3163 10.8354 34.4309 10.5478C34.499 10.5395 34.5671 10.5313 34.6351 10.523C34.8329 10.474 35.0306 10.4251 35.2284 10.3763C35.3176 10.3682 35.4067 10.3602 35.4959 10.3522C35.7439 10.3031 35.9919 10.2539 36.24 10.2049C36.4147 10.1893 36.5893 10.1735 36.7639 10.1578C36.9209 10.1555 37.0787 10.1632 37.2347 10.1491C38.1843 10.0629 39.132 9.93857 40.0835 9.89C41.6167 9.8118 43.1525 9.7826 44.6872 9.7326C44.8624 9.72847 45.0377 9.72434 45.2129 9.72021C45.4244 9.72391 45.6358 9.72761 45.8474 9.73132C45.9164 9.73359 45.9854 9.73588 46.0543 9.7383C46.2728 9.75026 46.4913 9.76237 46.7098 9.77433C48.4195 9.8098 50.1293 9.84527 51.839 9.8806C51.9086 9.88331 51.9784 9.88601 52.0481 9.88872C53.1519 9.90567 54.2556 9.92262 55.3594 9.93957C55.4625 9.94114 55.5656 9.9427 55.6689 9.94426C55.7186 9.92475 55.7683 9.90524 55.8182 9.88587C55.7676 9.83131 55.7171 9.77676 55.6665 9.72221C54.9254 8.98963 54.1842 8.25706 53.4433 7.52435C53.4195 7.49429 53.3956 7.46423 53.3718 7.43404C53.3286 7.38888 53.2854 7.34359 53.2423 7.29844C52.7435 6.80032 52.2446 6.30234 51.7457 5.80423C51.5582 5.60923 51.3708 5.41423 51.1833 5.21923C50.4882 4.18938 50.2881 3.09117 50.7242 1.90464C50.7496 1.86077 50.7751 1.8169 50.8004 1.77302C50.9333 1.5709 51.0662 1.36892 51.1991 1.16679L51.1947 1.17093C51.2317 1.13162 51.2689 1.09244 51.3061 1.05313C51.3387 1.02051 51.3715 0.987889 51.4041 0.95527C51.5461 0.846018 51.6881 0.736771 51.8301 0.627519L51.831 0.626806C53.0281 0.294777 54.2082 0.261018 55.3543 0.826792C55.4118 0.87223 55.4694 0.917668 55.5269 0.962964C55.6054 1.03675 55.6839 1.11053 55.7625 1.18432L55.756 1.17834C56.4343 1.86219 57.1127 2.54619 57.791 3.23005C57.7887 3.26922 57.8072 3.28931 57.8464 3.29045C57.9789 3.42534 58.1113 3.56008 58.2438 3.69497C59.1281 4.59448 60.0124 5.494 60.8966 6.39337C61.0741 6.57441 61.2516 6.75545 61.4292 6.93649L61.4248 6.9325C61.5685 7.07608 61.7124 7.21966 61.8561 7.36324L61.8521 7.35925C61.9954 7.5034 62.1387 7.6477 62.282 7.79185L62.2777 7.78729C62.421 7.93485 62.5643 8.08257 62.7076 8.23013C62.7364 8.26161 62.7652 8.29324 62.7939 8.32472C63.1503 8.68765 63.5066 9.05074 63.8629 9.41368L63.8577 9.40798C64.0409 9.59216 64.2239 9.77647 64.4069 9.96064C64.8385 10.4079 65.2701 10.8552 65.7019 11.3024C65.767 11.3932 65.832 11.4838 65.897 11.5745C65.9199 11.6239 65.943 11.6734 65.9659 11.7228C66.2936 12.5224 66.4447 13.3363 66.1651 14.1851C65.8684 14.6157 65.6231 15.0959 65.2653 15.4678C64.1528 16.6237 62.9976 17.7386 61.859 18.8694C61.7167 19.0135 61.5744 19.1576 61.4321 19.3016L61.4329 19.3009C61.3218 19.4039 61.2109 19.5067 61.0998 19.6097L61.1006 19.6089C61.0255 19.6802 60.9505 19.7514 60.8754 19.8228C60.234 20.4527 59.5926 21.0826 58.9512 21.7124C58.9123 21.756 58.8734 21.7996 58.8345 21.843C58.7291 21.9399 58.6238 22.0366 58.5186 22.1335C58.48 22.1773 58.4412 22.2212 58.4026 22.2651C58.2757 22.3822 58.1489 22.4991 58.022 22.6162C57.9514 22.6874 57.8807 22.7585 57.8101 22.8297C57.7856 22.8383 57.7738 22.8555 57.7746 22.8816C57.7154 22.9357 57.6562 22.9898 57.597 23.044L57.5964 23.0448C57.4533 23.186 57.3103 23.327 57.1672 23.4681L57.1668 23.4687C56.8412 23.7855 56.5154 24.1023 56.1898 24.4191C56.0833 24.5202 55.9766 24.6212 55.87 24.7223C55.7581 24.8313 55.6461 24.9403 55.5342 25.0492C55.5025 25.0539 55.4805 25.071 55.4681 25.1004C54.9422 25.2918 54.43 25.573 53.8874 25.6556C52.8573 25.8126 51.9991 25.3313 51.2159 24.7097C51.2154 24.6807 51.2018 24.6601 51.1756 24.6478C51.1128 24.5692 51.05 24.4906 50.9872 24.4118C50.9818 24.3785 50.9651 24.3524 50.9369 24.3336C50.8792 24.2229 50.8215 24.1123 50.7637 24.0016L50.7638 24.0019C50.4408 23.0249 50.3565 22.0573 50.9346 21.1397C51.1298 20.83 51.3763 20.5527 51.5994 20.2605C51.6398 20.2243 51.6803 20.1883 51.7207 20.1521C52.4386 19.4478 53.1565 18.7435 53.8744 18.0392L53.8723 18.041C54.3028 17.617 54.7334 17.1929 55.1635 16.769C55.2752 16.6625 55.3873 16.5556 55.4993 16.449C55.53 16.418 55.5608 16.3871 55.5916 16.3562C55.674 16.2793 55.7567 16.2024 55.8391 16.1256C55.8176 16.081 55.7961 16.0365 55.7746 15.9919C55.5231 16.0095 55.2717 16.0272 55.0201 16.045C54.9571 16.0441 54.8942 16.0433 54.8311 16.0424C53.9116 16.008 52.9925 15.958 52.0726 15.9426C50.7796 15.9209 49.4863 15.9251 48.1931 15.9182C47.9103 15.9142 47.6276 15.9102 47.3448 15.9064C46.461 15.8778 45.5774 15.8429 44.6934 15.8216C42.5833 15.7712 40.4744 15.7541 38.3836 16.1185C38.3142 16.1236 38.245 16.1287 38.1756 16.1337C37.514 16.2514 36.8524 16.369 36.1907 16.4867C36.1393 16.4925 36.0879 16.4984 36.0365 16.5042C35.451 16.6129 34.8559 16.6857 34.2823 16.839C33.4352 17.0653 32.6034 17.3488 31.765 17.608C31.6973 17.6193 31.6297 17.6305 31.562 17.6419C30.2283 18.1882 28.8945 18.7343 27.5608 19.2805C27.5321 19.2767 27.5104 19.2872 27.4957 19.3123C27.3762 19.3734 27.2569 19.4347 27.1374 19.4958C27.0821 19.519 27.0268 19.5422 26.9716 19.5656C26.629 19.7499 26.2863 19.9343 25.9437 20.1187C25.8937 20.1413 25.8437 20.1638 25.7939 20.1865C25.6349 20.2752 25.4759 20.3638 25.317 20.4525C25.2872 20.4528 25.2671 20.4669 25.2567 20.495C25.0997 20.5879 24.9426 20.6809 24.7857 20.7737C24.7562 20.7712 24.7347 20.7831 24.7213 20.8095C24.567 20.9059 24.4129 21.0023 24.2586 21.0988C24.1659 21.1532 24.0732 21.2078 23.9805 21.2622C23.8956 21.315 23.8108 21.3679 23.7259 21.4207C23.6939 21.4238 23.6716 21.4402 23.6591 21.4698C23.5751 21.525 23.4912 21.5801 23.4071 21.6352C23.3755 21.6365 23.3526 21.6512 23.3383 21.6794C22.8998 21.9811 22.4612 22.2826 22.0225 22.5843L22.0428 22.6136L22.0209 22.5854C21.7775 22.7698 21.534 22.9541 21.2906 23.1382L21.2932 23.1367C21.1084 23.2768 20.9237 23.4171 20.7388 23.5573C20.681 23.6063 20.6233 23.6552 20.5656 23.7042C20.1626 24.0445 19.7595 24.3846 19.357 24.7245C19.2272 24.8416 19.0972 24.9589 18.967 25.0763L18.96 25.0819C18.8885 25.1498 18.8171 25.2177 18.7456 25.2855L18.7429 25.2881C18.6 25.429 18.4573 25.5697 18.3145 25.7106L18.314 25.711C18.0252 25.9919 17.7363 26.2727 17.4474 26.5535L17.4493 26.5517C17.1755 26.843 16.9017 27.1343 16.628 27.4256C16.5772 27.4817 16.5264 27.538 16.4757 27.5941C16.2754 27.8233 16.075 28.0523 15.8747 28.2815L15.869 28.2878C15.6898 28.4971 15.5106 28.7064 15.3315 28.9158C15.2533 29.0131 15.1751 29.1104 15.0967 29.2076C15.0315 29.2877 14.9662 29.3677 14.901 29.4478C14.8754 29.4553 14.8621 29.4726 14.8614 29.4994C14.7984 29.5868 14.7356 29.6741 14.6728 29.7616C14.5985 29.8586 14.5243 29.9555 14.4499 30.0525C14.2869 30.2816 14.1241 30.5108 13.9612 30.74L13.9518 30.751C13.774 30.9937 13.5962 31.2363 13.4185 31.479C13.3934 31.4969 13.3823 31.5214 13.385 31.5521C13.3238 31.6343 13.2624 31.7163 13.2011 31.7985C13.1775 31.8167 13.1672 31.8407 13.1702 31.8703C12.6106 32.8068 12.0511 33.7434 11.4915 34.6799C11.4662 34.6937 11.4548 34.7151 11.4571 34.7439C11.081 35.4622 10.6493 36.1576 10.3413 36.9041C9.81574 38.1783 9.36762 39.4844 8.88702 40.7771C8.87093 40.8439 8.85469 40.9107 8.83859 40.9775C8.77791 41.159 8.71738 41.3406 8.6567 41.5221C8.64345 41.5896 8.63034 41.6571 8.6171 41.7246C8.49702 42.1559 8.37709 42.5872 8.25701 43.0185C8.23793 43.1215 8.21869 43.2246 8.19961 43.3276C8.1479 43.541 8.0962 43.7544 8.04449 43.9678C8.0358 44.017 8.02697 44.0665 8.01828 44.1158C7.81288 45.1898 7.54638 46.2563 7.41391 47.3393C7.07447 50.1126 7.06863 52.8946 7.40706 55.6702C7.4941 56.3833 7.67072 57.0853 7.80618 57.7923C7.81188 57.8419 7.81744 57.8915 7.82314 57.941C7.8888 58.2471 7.95433 58.5531 8.01999 58.8592C8.02996 58.9451 8.04008 59.031 8.05005 59.1169C8.1066 59.3283 8.16314 59.5396 8.21969 59.751C8.22952 59.8203 8.23934 59.8895 8.24917 59.9587C8.309 60.1746 8.36883 60.3906 8.4288 60.6065C8.44162 60.6748 8.45443 60.743 8.46725 60.8112C8.52266 60.9925 8.57821 61.1739 8.63362 61.3552C8.64815 61.423 8.66254 61.4907 8.67707 61.5585C8.68063 61.6274 8.66952 61.7009 8.6896 61.7644C9.49553 64.3046 10.5147 66.7524 11.8381 69.0705C12.0385 69.4216 12.2173 69.7934 12.3459 70.1757C12.7148 71.2722 12.3411 72.2237 11.7108 73.1124L11.7048 73.1184C11.6357 73.1876 11.5666 73.2568 11.4974 73.326L11.4914 73.332C10.5701 73.9562 9.57302 74.1971 8.47523 73.9284C8.40899 73.9096 8.34276 73.8908 8.27652 73.872C8.20402 73.838 8.13152 73.8039 8.05887 73.77C8.01215 73.7434 7.96544 73.7168 7.91872 73.6903C7.78824 73.6077 7.65776 73.5249 7.52728 73.4423C7.43213 73.3591 7.33698 73.276 7.24198 73.1928C7.20152 73.1544 7.16121 73.1159 7.12076 73.0775C7.07033 73.0181 7.02006 72.9588 6.96963 72.8994C5.54038 70.423 4.29802 67.8603 3.35065 65.1575C2.29516 62.1464 1.56002 59.0598 1.22315 55.889C0.823035 52.1248 0.936275 48.371 1.57113 44.6318C2.00928 42.0512 2.65439 39.5279 3.59094 37.0873C4.16754 35.5848 4.84841 34.1226 5.48241 32.6422C5.50164 32.5899 5.52087 32.5376 5.5401 32.4853C5.66673 32.2536 5.79336 32.0218 5.91998 31.7901C5.94107 31.7679 5.94976 31.7417 5.94577 31.7113C6.13237 31.3961 6.31896 31.0809 6.5057 30.7657L6.4832 30.7498L6.50798 30.7617C6.97091 30.0292 7.41006 29.2804 7.90205 28.5681C8.71724 27.3878 9.56646 26.2312 10.4013 25.0646C10.4285 25.0542 10.4418 25.0346 10.4409 25.0054C10.5359 24.8831 10.6309 24.7611 10.7259 24.6389C10.7736 24.5835 10.8215 24.528 10.8692 24.4726C10.94 24.3959 11.0108 24.3189 11.0816 24.2422C11.2118 24.0899 11.342 23.9378 11.4723 23.7855C11.6578 23.5807 11.8432 23.3758 12.0287 23.171C12.2028 22.9863 12.3768 22.8014 12.5509 22.6166L12.551 22.6165C13.1964 21.9805 13.842 21.3445 14.4874 20.7085L14.4856 20.7103C14.6009 20.6065 14.7161 20.5027 14.8314 20.3988C14.9228 20.3156 15.0142 20.2325 15.1057 20.1493C15.3335 19.9473 15.5612 19.7453 15.789 19.5435C15.8462 19.4972 15.9035 19.4509 15.9608 19.4046C16.0771 19.3089 16.1935 19.2133 16.3095 19.118C16.4087 19.0397 16.5086 18.9609 16.6084 18.8821C16.766 18.7501 16.9239 18.618 17.0819 18.4859Z" fill="#074E15"/>
<path d="M46.7732 42.6814C44.7633 42.6814 42.7533 42.6817 40.7433 42.6814C38.9604 42.6811 37.6243 43.9364 37.6152 45.6209C37.6058 47.359 38.9434 48.7206 40.709 48.7451C42.7189 48.7729 44.7295 48.7647 46.7393 48.8012C50.7705 48.8744 54.1398 51.3322 55.4612 55.1387C57.049 59.712 54.5377 64.902 49.9479 66.4426C49.0825 66.733 48.1556 66.8609 47.2468 66.9924C46.8679 67.0473 46.7791 67.1645 46.788 67.5179C46.8083 68.3178 46.7923 69.1188 46.7835 69.9193C46.7657 71.536 45.6668 72.8352 44.1395 73.0524C42.6821 73.2597 41.2492 72.3339 40.7875 70.8484C40.6843 70.5167 40.6811 70.1469 40.6738 69.7937C40.6583 69.029 40.649 68.263 40.6786 67.4992C40.6949 67.0802 40.5655 66.9447 40.1366 66.947C38.2512 66.957 36.3651 66.9484 34.4798 66.9172C32.6891 66.8877 31.3424 65.4015 31.4589 63.6246C31.5596 62.0888 32.8851 60.8256 34.4313 60.8353C38.5228 60.8609 42.6141 60.9079 46.7056 60.9373C48.1575 60.9477 49.3843 60.0192 49.7052 58.699C50.1747 56.7679 48.8207 54.9424 46.8348 54.8918C44.8788 54.842 42.9214 54.8388 40.9646 54.8368C38.795 54.8347 36.8285 54.2204 35.1022 52.9043C30.2312 49.1912 30.2125 41.9745 35.1291 38.3595C36.647 37.2434 38.3544 36.6589 40.2373 36.606C40.559 36.597 40.6671 36.4852 40.6645 36.1636C40.6571 35.2211 40.6516 34.2771 40.6951 33.336C40.7597 31.9409 41.82 30.815 43.2303 30.5875C44.5845 30.3691 46.0192 31.1645 46.4829 32.4503C46.6543 32.9253 46.7409 33.4463 46.7742 33.9522C46.8221 34.6784 46.8103 35.4114 46.7758 36.1391C46.7557 36.5627 46.8893 36.6881 47.3118 36.6896C49.1973 36.6963 51.0833 36.7146 52.968 36.7695C54.62 36.8177 55.9541 38.2348 55.9418 39.867C55.93 41.4409 54.5924 42.8033 53.0171 42.8134C50.9359 42.8267 48.8546 42.8167 46.7734 42.8167C46.7732 42.7713 46.7732 42.7264 46.7732 42.6814Z" fill="#074E15"/>
</svg>
