<svg width="46" height="46" viewBox="0 0 46 46" fill="none" xmlns="http://www.w3.org/2000/svg">
<path d="M22.2634 21.7006C21.3736 22.3904 21.7245 23.6782 22.4348 24.3657C23.4666 25.3964 24.5402 26.4071 25.6275 27.3787C27.1501 28.7803 30.086 26.2717 29.6731 24.5269C29.4633 23.8381 29.0529 23.2274 28.4944 22.7728C27.4266 21.7 26.1016 20.6231 24.4842 20.7832C23.0535 19.12 21.4487 17.6122 19.9504 16.0093C20.3863 15.5932 20.7818 15.1369 21.1318 14.6464C21.1664 14.5974 21.1885 14.5407 21.1963 14.4812C21.2041 14.4217 21.1973 14.3612 21.1765 14.3049C22.3523 14.4191 21.1085 12.2611 21.0488 11.6963C20.8445 10.9074 21.3287 10.3549 21.7979 9.77265C22.6155 8.75365 23.5321 7.81818 24.5342 6.97995C25.4405 7.44229 26.3775 7.80531 27.3002 8.24093C25.9867 9.32266 24.7698 10.5166 23.6632 11.8093C22.6292 12.8798 23.6209 13.7536 24.4067 14.5496C25.0713 15.3904 25.8634 16.1114 26.9103 15.3434C28.1696 14.4019 29.3614 13.3733 30.4769 12.2653C30.4637 13.5194 31.3717 14.8419 30.3157 15.8564C28.8079 17.0707 27.0086 19.5788 24.8721 18.3218C24.6697 18.1558 24.6035 17.9156 24.3301 17.7877C24.2001 17.7176 24.0525 17.6867 23.9052 17.6986C23.7579 17.7104 23.6172 17.7647 23.5001 17.8547C23.3829 17.9448 23.2943 18.0668 23.245 18.2061C23.1956 18.3454 23.1876 18.496 23.2219 18.6397C23.3187 19.2458 24.1411 19.6207 24.6686 19.783C27.107 20.3843 29.1875 18.0961 30.8454 16.6205C32.0421 15.4771 31.5124 13.829 31.1953 12.4318C31.1431 12.141 31.1344 11.8454 31.0613 11.559C31.0534 11.5219 31.0328 11.4887 31.003 11.4653C30.9732 11.4418 30.936 11.4296 30.8981 11.4308C30.9081 11.3908 30.902 11.3484 30.8812 11.3128C30.8604 11.2771 30.8265 11.251 30.7868 11.2399C30.2621 11.0875 29.6181 11.7651 29.257 12.0629C28.2282 12.9235 27.2562 13.8501 26.3474 14.8366C25.9883 15.5288 25.6818 14.4624 25.37 14.1611C25.0887 13.7312 24.4471 13.0881 24.3457 12.8084C25.6133 11.4003 27.2363 10.1408 28.2157 8.47121C28.2428 8.42484 28.2589 8.37285 28.2627 8.31926C28.2664 8.26568 28.2578 8.21195 28.2374 8.16224C28.7631 7.25468 26.9358 7.05389 26.3939 6.72618C25.7999 6.4896 25.2133 6.2513 24.6015 6.06455C24.5348 6.04755 24.4649 6.04686 24.3979 6.06255C24.3309 6.07823 24.2686 6.10983 24.2163 6.15466C24.1641 6.1995 24.1234 6.25626 24.0977 6.32014C24.072 6.38402 24.0621 6.45315 24.0687 6.52167C22.8661 7.34879 21.7957 8.35332 20.894 9.50108C20.6159 9.769 20.4008 10.0954 20.2642 10.4566C20.1277 10.8178 20.073 11.2048 20.1043 11.5897C20.2927 12.4108 20.5424 13.2166 20.8515 14.0004C20.797 13.9826 20.7394 13.9766 20.6825 13.9827C20.6255 13.9888 20.5705 14.0068 20.5211 14.0357C20.0132 14.3528 19.5366 14.7174 19.0975 15.1246C18.1301 14.182 17.2621 13.0903 16.2343 12.2278C16.5901 9.7463 12.598 6.3153 11.4446 9.8486C11.2134 11.4981 12.5354 14.3578 14.5569 13.7379C14.5571 13.8025 14.5701 13.8665 14.5952 13.926C14.6203 13.9855 14.6571 14.0395 14.7033 14.0846C15.5825 14.9748 16.464 15.8627 17.3478 16.7484C15.7354 18.3171 14.039 19.8158 12.5088 21.4637C12.1913 21.7489 11.9833 22.136 11.9207 22.5582C11.8581 22.9803 11.9449 23.4111 12.1659 23.7762C12.7971 24.6454 13.4926 25.466 14.2467 26.2311C14.3886 26.4354 14.5837 26.5969 14.8109 26.6982C15.0381 26.7994 15.2887 26.8365 15.5354 26.8053C16.8095 26.608 17.7956 25.3775 18.6349 24.5125C19.7583 23.4846 20.7764 22.3474 21.6743 21.1177C21.8678 21.315 22.0642 21.5093 22.2634 21.7006ZM23.7089 22.0488C25.3507 21.3044 26.9326 22.8059 27.9997 23.93C29.1366 24.9842 28.2216 25.8542 27.2058 26.4747C27.1061 26.5612 26.9817 26.6144 26.8503 26.6267C26.7188 26.6389 26.5868 26.6097 26.4728 26.5431C25.4241 25.5826 24.4256 24.5423 23.4084 23.5416C23.3322 23.4856 23.2687 23.4139 23.2225 23.3314C23.1762 23.2489 23.1481 23.1574 23.1402 23.0631C23.1322 22.9688 23.1445 22.8739 23.1763 22.7848C23.2081 22.6957 23.2586 22.6144 23.3244 22.5464C23.3873 22.5536 23.4509 22.5445 23.5091 22.5199C23.5674 22.4953 23.6183 22.4561 23.657 22.406C23.6956 22.356 23.7207 22.2968 23.7298 22.2342C23.7389 22.1717 23.7317 22.1078 23.7089 22.0488ZM13.6589 12.6612C13.2313 12.455 13.0224 11.891 12.8011 11.4591C12.4568 10.8242 12.2962 9.77705 13.0428 9.49217C13.2937 9.42439 13.5994 9.22812 13.8896 9.35692C14.4593 9.61022 14.9269 10.0482 15.2168 10.6002C15.5068 11.1521 15.6022 11.7857 15.4875 12.3985C14.9581 12.3041 14.2405 12.9122 13.6589 12.6612ZM15.4866 13.3683C15.5583 13.3403 15.623 13.2971 15.6765 13.2419C15.7134 13.2397 15.7493 13.2288 15.7812 13.2102C18.3821 15.8129 20.9433 18.4543 23.5673 21.0331C23.4129 21.1098 23.2681 21.2044 23.1357 21.3148C20.6049 18.6476 18.0339 16.0202 15.4866 13.3683ZM18.9251 23.1865C18.0608 23.9743 16.1144 27.1079 14.8471 26.2464C14.5211 25.934 14.243 25.5752 14.0219 25.1816C13.552 24.417 12.5245 23.5751 12.9259 22.5967C13.2128 22.2009 13.5646 21.8565 13.9665 21.5781C15.4089 20.2883 16.8292 18.9715 18.2397 17.6468C19.2035 18.6194 20.1716 19.5874 21.1312 20.5641C20.3794 21.4242 19.6908 22.3381 18.9251 23.1865Z" fill="#147A6D"/>
<path d="M15.1073 22.4116C13.9692 23.1632 14.9896 24.5087 16.0143 23.6057C16.5194 23.26 17.3741 22.6332 16.9337 21.9519C16.3907 21.3565 15.5699 22.0129 15.1073 22.4116Z" fill="#147A6D"/>
<path d="M25.799 24.6664C26.2296 24.9665 26.9139 24.6902 26.7711 24.1097C26.5859 23.5298 24.549 22.1172 24.3086 23.1995C24.3454 23.8873 25.2507 24.3659 25.799 24.6664Z" fill="#147A6D"/>
<path d="M43.6579 25.0108C43.6106 22.2161 43.0711 20.6449 39.9181 21.1589C40.1338 17.7042 40.2391 14.2415 40.2013 10.7811C40.0181 7.58319 41.1561 2.14181 36.823 1.43569C31.3484 0.963472 25.8211 2.14352 20.3533 2.15677C17.0305 1.77537 13.7548 2.70614 10.4474 2.91882C6.20109 2.86692 4.94016 4.63673 3.88007 8.52287C2.79893 13.2681 2.58128 18.183 2.13667 23.022C2.07025 27.5404 0.188753 32.1805 6.69018 32.2268C6.66202 32.9075 6.77058 33.5868 7.00944 34.2248C7.2483 34.8628 7.61262 35.4464 8.08087 35.9412C8.54911 36.4359 9.11179 36.8318 9.73564 37.1054C10.3595 37.3791 11.0319 37.5248 11.713 37.5342C11.8128 37.5383 11.9107 37.5059 11.9884 37.443C12.1149 37.5886 12.2426 37.7332 12.3722 37.8736C13.243 38.8172 14.6341 37.4136 13.7778 36.468C12.8345 35.4266 10.9801 32.8242 13.2813 32.1101C14.6289 31.7548 16.0857 31.9172 17.4702 31.8326C17.5109 33.5864 17.6503 35.3366 17.8875 37.0749C17.9498 37.7474 18.1994 38.3891 18.6081 38.9268C19.0168 39.4646 19.568 39.877 20.1993 40.1172C23.2556 41.162 26.6093 41.1799 29.8078 41.1304C30.5465 41.0414 31.2953 41.1649 31.9663 41.4865C32.3698 41.7335 32.8995 42.4547 32.333 42.8272C31.2705 43.5258 32.25 45.2345 33.3363 44.5435C33.4646 44.4611 33.586 44.3686 33.6994 44.2667C34.2577 44.3641 34.8312 44.3269 35.3723 44.1584C35.9133 43.9898 36.4064 43.6946 36.8106 43.2974C37.2149 42.9002 37.5185 42.4123 37.6965 41.8742C37.8745 41.3362 37.9216 40.7634 37.834 40.2035C39.985 40.0562 42.6085 40.657 43.6036 38.1534C44.7599 33.8993 43.8904 29.3461 43.6579 25.0108ZM14.0664 29.9013C10.2114 30.1481 9.07901 33.6821 11.301 36.5742C10.2103 36.4012 9.23302 35.8021 8.58397 34.9087C7.93492 34.0152 7.6673 32.9006 7.83995 31.8098C7.8613 31.7257 7.86337 31.6378 7.84602 31.5527C7.82866 31.4676 7.79232 31.3875 7.7397 31.3185C7.68709 31.2494 7.61956 31.1931 7.54215 31.1538C7.46474 31.1144 7.37945 31.0931 7.29264 31.0913C5.04619 31.1948 2.77057 30.7283 3.10775 27.9422C3.20782 25.8324 3.37316 23.723 3.54179 21.6177C3.99641 17.5642 4.04927 7.2283 7.33181 4.79448C7.91162 4.44662 8.57914 4.27258 9.25499 4.29306C10.2867 4.2462 11.309 4.12885 12.3318 3.98795C14.3486 3.71004 16.4199 3.25174 18.4548 3.16786C24.5259 3.63734 30.7062 2.61247 36.7659 3.12886C38.6773 3.58684 38.3104 6.09488 38.33 7.59858C38.3018 13.7881 38.3468 20.0554 37.5434 26.1916C37.1653 28.072 35.7146 28.5648 34.004 28.8975C27.4349 30.2042 20.6907 29.2681 14.0664 29.9013ZM31.7551 34.3764C31.4681 34.3664 31.1961 34.2454 30.9965 34.0389C30.797 33.8323 30.6855 33.5563 30.6855 33.2691C30.6855 32.9819 30.797 32.7059 30.9965 32.4993C31.1961 32.2928 31.4681 32.1718 31.7551 32.1619C32.0421 32.1718 32.3141 32.2928 32.5137 32.4993C32.7132 32.7059 32.8247 32.9819 32.8247 33.2691C32.8247 33.5563 32.7132 33.8323 32.5137 34.0389C32.3141 34.2454 32.0421 34.3664 31.7551 34.3764ZM25.0111 32.5059C25.2981 32.5158 25.5701 32.6368 25.7696 32.8434C25.9692 33.05 26.0807 33.326 26.0807 33.6132C26.0807 33.9004 25.9692 34.1764 25.7696 34.3829C25.5701 34.5895 25.2981 34.7105 25.0111 34.7204C24.724 34.7105 24.4521 34.5895 24.2525 34.3829C24.053 34.1764 23.9414 33.9004 23.9414 33.6132C23.9414 33.326 24.053 33.05 24.2525 32.8434C24.4521 32.6368 24.724 32.5158 25.0111 32.5059ZM42.8487 35.1504C42.8941 39.6746 40.9153 39.0381 37.3384 39.3333C37.2821 39.2692 37.2095 39.2215 37.1284 39.1952C37.0472 39.1688 36.9605 39.1648 36.8773 39.1834C36.794 39.2021 36.7173 39.2428 36.6552 39.3013C36.5931 39.3597 36.5479 39.4339 36.5242 39.5158C36.3463 40.0996 36.5061 40.7464 36.239 41.3041C36.0947 41.6394 35.8592 41.9275 35.5592 42.1355C35.2592 42.3435 34.9068 42.4631 34.5421 42.4805C34.6223 39.9287 31.8796 38.8561 29.6551 39.0463C26.9286 39.1783 24.1961 38.9738 21.5196 38.4374C20.0686 38.0774 19.8504 37.2751 19.7255 35.8966C19.6022 34.5355 19.5196 33.1707 19.4536 31.805C20.8325 31.7924 22.2147 31.7821 23.5969 31.7568C21.5813 33.7235 23.3122 36.3693 25.933 35.0938C26.3375 34.9128 26.6721 34.605 26.8861 34.2169C27.1001 33.8289 27.1818 33.3817 27.119 32.943C27.0927 32.7587 27.0302 32.5814 26.9353 32.4213C26.8403 32.2612 26.7147 32.1214 26.5656 32.01C26.4165 31.8985 26.2469 31.8175 26.0665 31.7717C25.8861 31.7259 25.6984 31.7161 25.5142 31.743C25.5117 31.7305 25.5034 31.7207 25.5003 31.7084C27.412 31.6457 29.3209 31.5342 31.2187 31.3136C28.1338 32.5837 29.6725 36.6608 32.7701 34.9291C33.1627 34.7175 33.4953 34.41 33.737 34.0352C33.9786 33.6604 34.1214 33.2306 34.1521 32.7857C34.1698 32.3935 34.0467 32.0079 33.8049 31.6986C33.5631 31.3893 33.2187 31.1767 32.8339 31.0992C39.0363 30.3846 39.5844 28.2201 39.8223 22.4922C40.2765 22.497 40.7306 22.3215 41.1857 22.3596C42.6106 22.4669 42.3347 24.8041 42.4202 25.8424C42.7605 28.9328 42.9036 32.0418 42.8487 35.1504Z" fill="#147A6D"/>
<path d="M40.1759 31.3362C39.952 31.0765 39.6482 30.8985 39.3122 30.83C38.9762 30.7615 38.627 30.8065 38.3193 30.9579C38.2197 30.8744 38.0965 30.8239 37.9669 30.8134C37.8373 30.803 37.7077 30.8332 37.5961 30.8998C36.2688 31.6388 35.9726 33.7709 37.4378 34.5223C39.1484 35.451 41.5536 32.8789 40.1759 31.3362ZM38.4073 33.8487C38.1202 33.8388 37.8483 33.7178 37.6487 33.5112C37.4492 33.3047 37.3376 33.0287 37.3376 32.7415C37.3376 32.4542 37.4492 32.1783 37.6487 31.9717C37.8483 31.7651 38.1202 31.6441 38.4073 31.6342C38.6943 31.6441 38.9663 31.7651 39.1658 31.9717C39.3654 32.1783 39.4769 32.4542 39.4769 32.7415C39.4769 33.0287 39.3654 33.3047 39.1658 33.5112C38.9663 33.7178 38.6943 33.8388 38.4073 33.8487Z" fill="#147A6D"/>
</svg>
