<svg width="30" height="30" viewBox="0 0 30 30" fill="none" xmlns="http://www.w3.org/2000/svg">
            <g clip-path="url(#clip0_3212_9783)">
                <path d="M1.17185 13.8281H25.9897L21.8785 9.73687C21.4198 9.28031 21.418 8.53834 21.8746 8.07961C22.3312 7.62082 23.0732 7.61912 23.5319 8.07562L29.6552 14.1694C29.6556 14.1697 29.6559 14.1701 29.6563 14.1705C30.1138 14.627 30.1153 15.3714 29.6564 15.8295C29.656 15.8299 29.6557 15.8303 29.6553 15.8306L23.532 21.9244C23.0734 22.3808 22.3313 22.3792 21.8747 21.9204C21.4182 21.4617 21.4199 20.7197 21.8786 20.2631L25.9897 16.1719H1.17185C0.524628 16.1719 -2.09808e-05 15.6472 -2.09808e-05 15C-2.09808e-05 14.3528 0.524628 13.8281 1.17185 13.8281Z" fill="#070707"></path>
            </g>
            <defs>
                <clipPath id="clip0_3212_9783">
                    <rect width="30" height="30" fill="white" transform="matrix(-1 0 0 1 30 0)"></rect>
                </clipPath>
            </defs>
          </svg>