<svg xmlns="http://www.w3.org/2000/svg" width="35" height="35" viewBox="0 0 35 35" fill="none">
  <g clip-path="url(#clip0_7685_269)">
    <path d="M25.7566 0H9.24339C4.06 0 0 4.06 0 9.24339V25.7566C0 30.94 4.06 35 9.24339 35H25.7566C30.94 35 35 30.94 35 25.7566V9.24339C35 4.06 30.9389 0 25.7566 0ZM32.7419 25.7566C32.7419 29.6744 29.6732 32.7419 25.7566 32.7419H9.24339C5.32677 32.7419 2.25806 29.6732 2.25806 25.7566V9.24339C2.25806 5.32677 5.32677 2.25806 9.24339 2.25806H25.7566C29.6744 2.25806 32.7419 5.32677 32.7419 9.24339V25.7566Z" fill="black"></path>
    <path d="M23.6831 9H26.7366L20.0655 16.6246L27.9135 27H21.7686L16.9557 20.7074L11.4486 27H8.39323L15.5286 18.8446L8 9H14.3009L18.6514 14.7517L23.6831 9ZM22.6114 25.1723H24.3034L13.3815 10.7317H11.5658L22.6114 25.1723Z" fill="black"></path>
  </g>
  <defs>
    <clipPath id="clip0_7685_269">
      <rect width="35" height="35" fill="white"></rect>
    </clipPath>
  </defs>
</svg>