<svg width="46" height="46" viewBox="0 0 46 46" fill="none" xmlns="http://www.w3.org/2000/svg">
<path d="M40.8694 1.23862C40.3386 1.15016 39.8078 1.15016 39.454 1.15016C39.2771 1.15016 32.6425 1.15016 33.0848 1.15016H22.9117C16.8078 1.06169 12.3848 1.15016 6.36938 1.15016C6.01553 1.15016 5.3963 1.15016 4.954 1.23862C3.98092 1.504 3.00784 1.94631 2.30015 2.74246C1.59246 3.45016 1.15015 4.42323 0.973227 5.39631C0.884766 5.83862 0.884766 6.36939 0.884766 6.8117V8.05016C0.973227 18.6655 0.796304 11.0579 1.15015 39.8963C1.15015 40.3386 1.15015 40.7809 1.23861 41.2232C1.41553 42.1079 1.9463 42.9925 2.654 43.6117C3.36169 44.2309 4.2463 44.6732 5.13092 44.8502C5.57323 44.9386 6.01554 44.9386 6.45784 44.9386H7.6963C14.4194 44.7617 16.6309 44.7617 23.0002 44.5848C16.7194 44.4079 14.4194 44.4079 7.6963 44.2309C6.90015 44.2309 5.92707 44.2309 5.21938 44.1425C3.62707 43.8771 2.47707 42.5502 2.12323 41.0463C1.9463 40.3386 2.03477 39.454 2.03477 38.5694C2.38861 9.46554 2.30015 20.1694 2.30015 9.90785L12.3848 10.0848H23.0002C29.8117 10.0848 36.7117 10.0848 43.5232 9.99631C43.6117 19.904 43.4348 10.5271 43.7886 38.4809C43.7886 39.2771 43.8771 40.2502 43.7886 40.9579C43.7002 41.6655 43.3463 42.3732 42.8155 42.9925C42.2848 43.5232 41.5771 43.9655 40.8694 44.1425C40.0732 44.2309 39.1886 44.2309 38.3925 44.2309C31.7578 44.3194 29.3694 44.4079 23.0886 44.5848C26.4502 44.6732 29.9002 44.7617 33.2617 44.8502L38.3925 44.9386C39.2771 44.9386 40.0732 45.0271 41.0463 44.8502C41.9309 44.6732 42.8155 44.2309 43.4348 43.5232C44.054 42.904 44.5848 42.0194 44.7617 41.0463C44.8502 40.604 44.8502 40.0732 44.8502 39.7194V38.4809C45.1155 19.8155 45.1155 17.7809 45.1155 13.004C45.1155 12.8271 45.1155 6.28093 45.1155 6.63477C45.1155 6.28093 45.1155 5.6617 45.0271 5.21939C44.4963 3.09631 42.8155 1.59246 40.8694 1.23862ZM23.0002 8.404H12.3848L2.47707 8.49247C2.47707 8.404 2.47707 6.63477 2.47707 6.72323C2.47707 6.28093 2.47707 5.92708 2.56554 5.57323C2.74246 4.33477 3.804 3.18477 5.30784 2.83093C5.92707 2.74246 6.81169 2.74246 7.6963 2.74246C9.46554 2.74246 13.0925 2.74246 23.0002 2.83093C37.9501 2.74246 20.6117 2.83093 39.5425 2.74246C39.9848 2.74246 40.3386 2.74246 40.6925 2.83093C42.0194 3.09631 43.1694 4.06939 43.5232 5.48477C43.7002 6.104 43.6117 6.98862 43.6117 7.87323V8.49247C36.7117 8.404 29.8117 8.404 23.0002 8.404Z" fill="#147A6D"/>
<path d="M37.6849 27.6002C38.3041 27.6002 39.0118 27.3348 39.4541 26.8925C39.8964 26.4502 40.2503 25.831 40.3387 25.2117C40.3387 25.0348 40.3387 24.8579 40.3387 24.7694C40.3387 24.681 40.3387 23.6194 40.3387 23.7079V22.2925C40.3387 22.204 40.2503 15.9233 40.2503 16.1002C40.2503 15.8348 40.1618 15.481 40.0733 15.2156C39.808 14.331 39.0118 13.7117 38.0387 13.6233C37.6849 13.6233 37.508 13.6233 37.2426 13.6233C37.1541 13.6233 32.8195 13.7117 33.0849 13.7117C29.458 13.8886 25.7426 13.9771 22.1157 14.154C25.7426 14.331 29.458 14.4194 33.0849 14.5963C33.1733 14.5963 37.508 14.6848 37.2426 14.6848C37.7733 14.6848 38.0387 14.6848 38.3041 14.8617C38.5695 15.0386 38.7464 15.304 38.8349 15.5694C38.9234 15.8348 38.9234 15.9233 38.9234 16.1886C38.9234 16.2771 38.8349 19.8156 38.8349 19.6386L38.7464 25.0348C38.658 25.5656 38.2157 26.0079 37.6849 26.0079H34.9426L23.8849 25.831L12.9157 25.9194C12.7387 25.9194 8.58104 26.0079 8.75796 26.0079C8.2272 26.0079 8.05027 26.0079 7.78489 25.9194C7.5195 25.831 7.34258 25.5656 7.25412 25.3002C7.16566 25.1233 7.16566 25.0348 7.16566 24.8579V24.1502C7.16566 24.0617 7.0772 15.3925 7.0772 15.9233C7.0772 15.304 7.69643 14.6848 8.40412 14.6848L11.1464 14.5963C14.7733 14.4194 18.4887 14.331 22.1157 14.154C18.4887 13.9771 14.7733 13.8886 11.1464 13.7117L8.40412 13.6233C7.25412 13.5348 6.10412 14.5079 5.9272 15.7463V16.454V17.1617C5.9272 17.3386 5.75027 24.504 5.83873 24.0617V24.7694C5.83873 26.1848 6.81181 27.2463 8.13873 27.4233H8.93489C9.02335 27.4233 13.181 27.5117 13.0926 27.5117L23.8849 27.6002L34.8541 27.5117L37.6849 27.6002Z" fill="#147A6D"/>
<path d="M37.5079 40.6041H37.8618C39.1887 40.5157 40.2502 39.3657 40.2502 38.0388C40.2502 37.5965 40.2502 36.9772 40.1618 36.0041L40.0733 33.2618C40.0733 32.9965 40.0733 32.8195 39.9848 32.5541C39.8079 31.4041 38.8348 30.5195 37.5964 30.608L36.8887 30.6965C36.181 30.7849 35.031 30.7849 32.8195 31.0503C33.7041 31.1388 34.5887 31.2272 35.5618 31.3157L36.8887 31.4041L37.5964 31.4926C38.1271 31.5811 38.5695 31.8465 38.7464 32.3772C38.9233 32.7311 38.8348 32.9965 38.8348 33.4388L38.7464 36.1811L38.6579 37.508V38.1272C38.6579 38.658 38.1271 39.1003 37.6848 39.1003L37.1541 38.9234H31.7579C31.581 38.9234 27.5118 38.9234 27.6887 38.9234H26.981C26.8925 38.9234 26.7156 38.9234 26.6271 38.8349C26.3618 38.7465 26.1848 38.5695 26.0964 38.3926C25.9195 38.1272 25.9195 37.9503 25.9195 37.4195C25.9195 36.2695 25.831 35.208 25.7425 33.3503V32.7311C25.7425 32.5541 25.7425 32.4657 25.831 32.2888C26.0079 31.8465 26.3618 31.4926 26.8925 31.4041H27.5118C29.281 31.3157 31.1387 31.1388 32.9079 30.9618C31.1387 30.7849 29.281 30.608 27.5118 30.5195C27.2464 30.5195 27.0695 30.5195 26.8041 30.5195C25.5656 30.5195 24.5925 31.5811 24.5041 32.7311C24.4156 34.2349 24.3271 36.1811 24.3271 37.508V38.3041C24.4156 39.2772 25.0348 40.1618 26.0079 40.5157C26.2733 40.6041 26.6271 40.6926 26.981 40.6926C27.0695 40.6926 31.7579 40.6926 31.6695 40.6926L37.0656 40.6041H37.5079Z" fill="#147A6D"/>
<path d="M21.6731 33.6158V32.9081C21.6731 32.6427 21.6731 32.2888 21.4962 32.0235C21.2308 31.1388 20.4346 30.6081 19.55 30.4312C19.2846 30.4312 19.0192 30.4312 18.7538 30.4312C16.8962 30.5196 15.1269 30.6965 13.2692 30.8735C15.1269 31.0504 16.8962 31.2273 18.7538 31.3158C19.2846 31.3158 19.55 31.4042 19.8154 31.5812C20.0808 31.7581 20.2577 32.0235 20.3462 32.3773V32.9081V33.6158C20.2577 35.385 20.2577 36.4465 20.1692 37.685C20.1692 37.9504 20.1692 38.0388 20.0808 38.2158C19.9923 38.5696 19.6385 38.9235 19.2846 38.9235C19.1077 38.9235 18.5769 38.9235 18.1346 38.9235C18.0462 38.9235 13.8 38.9235 14.0654 38.9235H8.66923H8.31538C8.22692 38.9235 8.13846 38.9235 8.13846 38.9235C7.69615 38.835 7.43077 38.5696 7.25385 38.2158C7.16538 38.0388 7.16539 38.0388 7.16539 37.7735V37.0658L7.07692 35.7388V33.085C7.07692 32.8196 7.07692 32.7312 7.07692 32.5542C7.16538 32.0235 7.51923 31.6696 8.05 31.4927C8.31539 31.4042 8.84615 31.4042 9.28846 31.4042C9.99615 31.3158 11.1462 31.3158 13.3577 31.0504C12.4731 30.9619 11.5 30.8735 10.6154 30.785L9.28846 30.6965C8.84615 30.6965 8.40385 30.6081 7.87308 30.6965C6.98846 30.8735 6.28077 31.4927 6.10385 32.3773C6.01538 32.6427 6.01538 32.9965 6.01538 33.1735L5.92692 35.9158L5.75 37.1542V37.8619C5.75 38.1273 5.75 38.4811 5.83846 38.7465C6.10385 39.7196 6.9 40.4273 7.87308 40.6042H8.31538H8.66923L14.1538 40.6927C14.2423 40.6927 18.4885 40.6927 18.2231 40.6927H18.9308C19.1077 40.6927 19.4615 40.6927 19.8154 40.6042C20.7885 40.3388 21.5846 39.6311 21.7615 38.5696C21.85 38.2158 21.85 37.8619 21.85 37.685C21.7615 36.4465 21.7615 35.5619 21.6731 33.6158Z" fill="#147A6D"/>
<path d="M8.75761 4.95392C8.13838 4.68854 7.43069 4.68854 6.81146 4.95392C6.45761 5.04238 6.19223 5.21931 5.83838 5.57315C6.19223 6.01546 6.45761 6.19238 6.81146 6.28084C7.43069 6.54623 8.13838 6.54623 8.75761 6.28084C9.11146 6.10392 9.37684 5.927 9.73069 5.57315C9.37684 5.21931 9.02299 5.04238 8.75761 4.95392Z" fill="#147A6D"/>
<path d="M13.9768 4.95392C13.3576 4.68854 12.6499 4.68854 12.0307 4.95392C11.6768 5.13084 11.4115 5.30777 11.0576 5.66161C11.4115 6.01546 11.6768 6.19238 12.0307 6.36931C12.6499 6.63469 13.3576 6.63469 13.9768 6.36931C14.3307 6.19238 14.5961 6.01546 14.9499 5.66161C14.6845 5.21931 14.3307 5.04238 13.9768 4.95392Z" fill="#147A6D"/>
<path d="M24.15 4.95392C22.3807 5.04238 20.6115 5.30777 18.8423 5.66161C20.6115 6.01546 22.3807 6.19238 24.15 6.36931C27.8654 6.63469 31.3154 6.63469 34.7654 6.36931C36.5346 6.28084 38.3038 6.01546 40.0731 5.66161C38.3038 5.30777 36.5346 5.13084 34.7654 4.95392C31.3154 4.68854 27.8654 4.68854 24.15 4.95392Z" fill="#147A6D"/>
</svg>
