<svg xmlns="http://www.w3.org/2000/svg" width="853" height="402" viewBox="0 0 853 402" fill="none">
<path d="M1 382.075C1 382.075 135.178 380.153 135.813 376.96C136.449 373.766 119.181 328.984 135.813 296.679C152.446 264.375 192.579 281.643 202.344 281.814C212.11 281.984 219.504 280.697 229.859 284.96C240.198 289.223 251.282 294.447 269.201 294.447C287.12 294.447 293.352 290.773 294.468 289.332C295.584 287.89 305.35 265.243 302.358 264.809C299.366 264.375 292.174 263.801 291.321 263.522C290.468 263.259 288.701 260.158 288.546 260.592C288.391 261.026 273.882 291.564 275.386 291.889C276.874 292.215 289.12 265.429 289.12 264.065C289.12 262.701 279.68 252.873 276.285 248.75C272.89 244.626 269.728 243.836 269.929 241.836C270.131 239.836 273.2 239.759 273.789 240.022C274.378 240.286 290.267 255.059 289.042 255.105C287.818 255.152 274.068 242.999 274.223 241.991C274.378 240.983 275.975 237.62 279.075 238.426C282.16 239.232 291.957 244.921 291.802 245.882C291.647 246.843 291.647 248.083 293.398 249.075C295.15 250.067 307.675 252.671 311.023 252.671C314.387 252.671 316.743 250.796 316.495 250.672C316.262 250.548 312.341 252.036 307.334 251.307C302.327 250.579 293.941 249.308 293.414 247.587C292.887 245.866 293.615 243.836 296.529 243.634C299.444 243.433 313.007 244.068 317.874 243.278C322.742 242.487 345.776 237.837 348.892 238.72C352.008 239.604 354.411 245.603 360.239 245.2C366.068 244.797 366.564 242.875 367.199 243.681C367.835 244.487 368.718 252.95 375.353 254.718C381.987 256.469 382.235 254.392 382.793 253.121C383.351 251.834 380.949 234.566 380.236 236.643C379.523 238.72 381.197 254.547 384.157 255.353C387.118 256.159 396.558 255.508 397.504 253.353C398.465 251.199 394.698 230.164 393.83 232.241C392.947 234.318 398.79 253.276 398.062 254.547C397.349 255.834 393.66 256.624 393.908 257.43C394.14 258.236 399.023 259.182 402.464 257.833C405.905 256.469 411.827 250.718 411.827 248.393C411.827 246.068 406.944 224.087 406.386 226.97C405.828 229.854 407.998 237.325 408.944 237.759C409.889 238.209 417.733 241.991 419.655 243.991C421.577 245.99 428.351 257.182 432.025 257.074C435.699 256.965 437.404 254.516 437.094 252.377C436.768 250.238 427.452 235.419 424.569 232.752C421.686 230.086 409.006 218.677 404.898 217.778C400.79 216.879 364.595 216.492 360.859 216.492C357.123 216.492 297.366 199.967 297.103 199.006C296.839 198.045 295.925 189.086 298.855 188.404C301.784 187.706 304.078 190.961 304.978 192.992C305.877 195.023 311.162 197.177 313.379 198.448C315.596 199.719 318.681 203.812 317.828 203.858C316.975 203.905 283.291 193.782 278.858 192.403C274.44 191.023 259.234 192.325 248.6 206.803C237.966 221.282 238.679 229.745 240.291 231.915C241.903 234.085 268.565 241.619 268.147 241.03C267.713 240.441 243.872 229.032 242.074 230.474C240.291 231.915 242.291 235.915 238.989 235.481C235.687 235.047 224.279 224.506 219.799 215.965C215.319 207.439 212.87 201.518 215.272 197.844C217.675 194.17 242.213 175.135 251.809 173.693C261.404 172.251 275.804 177.367 277.401 179.211C278.998 181.056 284.919 191.039 281.4 191.287C277.882 191.519 272.208 189.69 262.055 192.48C251.902 195.286 240.865 213.748 239.02 219.669C237.175 225.591 237.548 230.737 236.214 230.706C234.881 230.675 219.861 213.36 219.039 208.555C218.218 203.75 217.334 184.621 214.885 185.582C212.436 186.543 166.165 194.961 160.724 203.92C155.283 212.88 137.689 284.526 138.821 284.526C139.952 284.526 152.896 275.567 158.166 274.125C163.437 272.683 191.432 278.605 192.703 274.125C193.989 269.645 223.085 227.901 223.565 230.148C224.046 232.38 198.144 276.202 196.702 276.047C195.26 275.892 193.338 264.049 195.741 252.051C198.144 240.053 213.645 190.806 214.296 172.406C214.931 154.022 214.761 129.809 219.039 117.439C223.317 105.069 241.748 94.2031 263.605 93.025C285.462 91.8469 316.913 80.9806 316.479 82.0502C316.045 83.1198 305.706 91.1184 306.14 106.573C306.574 122.028 313.286 149 314.666 148.473C316.045 147.946 344.862 130.755 345.746 130.755C346.629 130.755 352.147 131.313 353.186 132.599C354.225 133.886 354.783 135.638 354.783 136.599C354.783 137.56 352.628 144.535 352.411 145.93C352.194 147.31 345.373 147.589 345.528 147.744C345.683 147.899 352.938 148.55 353.31 149.341C353.682 150.131 351.574 211.361 350.938 211.764C350.303 212.167 331.19 207.129 331.112 205.532C331.035 203.936 342.428 149.155 341.948 147.078C341.467 145 336.786 138.257 336.972 137.854C337.158 137.451 345.234 131.638 345.265 132.863C345.296 134.088 336.786 139.156 336.956 141.234C337.111 143.311 321.285 198.169 318.572 194.961C315.859 191.767 308.977 186.171 303.536 184.73C298.095 183.288 283.865 178.762 279.602 175.77C275.339 172.778 271.821 174.282 271.077 170.329C270.332 166.376 259.668 127.05 262.659 130.026C265.651 133.018 271.619 169.585 275.029 168.624C278.44 167.663 284.671 159.928 281.478 143.621C278.285 127.314 272.518 122.586 274.363 119.625C276.207 116.664 304.745 114.82 304.667 111.146C304.59 107.472 304.264 98.745 307.783 91.2424C311.302 83.7243 320.339 78.8415 320.572 80.5311C320.804 82.2052 318.246 94.6836 324.974 105.162C331.686 115.641 342.568 128.43 344.567 128.352C346.567 128.275 352.644 128.43 358.084 131.065C363.525 133.7 371.756 135.7 376.314 131.948C380.871 128.197 386.235 116.013 389.691 111.471C393.148 106.93 399.72 105.55 401.953 100.59C404.185 95.6292 405.037 85.507 406.433 83.4763C407.812 81.4457 413.997 78.0354 414.648 73.8346C415.284 69.6183 415.175 45.638 413.47 45.0025C411.765 44.3669 410.277 47.2346 404.51 43.8244C398.759 40.4141 383.878 27.3467 376.531 28.6333C369.168 29.9199 367.897 46.8626 365.23 49.1103C362.564 51.3579 351.047 58.597 350.194 61.0462C349.342 63.4953 349.869 71.0754 348.706 72.3465C347.528 73.6331 341.033 67.0141 341.25 62.8598C341.467 58.7055 340.909 43.4214 335.391 44.4754C329.872 45.5295 324.912 54.7062 327.64 64.1464C330.353 73.5866 333.965 81.2597 337.468 77.6634C340.987 74.0671 340.026 56.5508 338.754 52.722C337.468 48.8778 332.43 47.7617 330.911 50.9704C329.392 54.1636 333.314 68.8742 332.508 70.1608C331.701 71.4474 324.354 80.1591 322.587 77.9114C320.835 75.6792 325.299 47.2036 326.106 38.895C326.912 30.5864 344.815 6.59063 352.892 7.47419C360.968 8.35776 378.236 24.51 374.159 24.3394C370.082 24.1844 354.271 11.3185 354.333 9.55135C354.395 7.78422 358.658 -2.67906 382.886 2.35881C407.115 7.39669 426.46 28.0287 420.554 39.5461C414.648 51.0634 410.075 52.505 397.612 46.7386C385.134 40.9877 376.019 25.9516 368.346 29.4703C360.673 32.9891 361.309 43.7004 355.558 48.9863C349.807 54.2567 343.73 56.9074 344.04 61.6972C344.366 66.5026 337.809 81.4457 339.406 92.002C341.002 102.558 356.085 129.918 364.672 131.747C373.26 133.576 379.46 129.034 385.63 122.152C391.784 115.269 401.705 104.635 404.743 104.635C407.781 104.635 413.78 111.595 415.625 117.672C417.469 123.748 421.887 143.822 421.779 147.868C421.67 151.914 419.639 158.424 413.144 161.618C406.634 164.811 379.352 173.662 380.205 170.686C381.057 167.694 400.573 122.927 399.721 130.166C398.868 137.405 382.049 167.989 383.708 168.144C385.366 168.299 413.827 157.432 415.981 155.076C418.136 152.735 421.128 153.79 417.392 161.153C413.656 168.516 422.476 182.715 419.608 197.348C416.725 211.981 422.569 224.056 419.686 223.576C416.803 223.095 408.014 214.213 399.938 212.229C391.861 210.229 372.671 217.592 370.671 213.19C368.672 208.788 367.711 196.325 369.075 190.884C370.439 185.443 376.825 173.538 377.073 176.731C377.306 179.924 371.322 194.883 370.671 199.363C370.02 203.843 371.71 211.33 371.555 212.027C371.4 212.725 357.154 212.353 351.93 219.437C346.707 226.521 348.629 239.852 347.234 240.704C345.854 241.557 332.833 241.774 331.035 243.696C329.221 245.618 327.625 249.246 326.028 252.005C324.431 254.78 316.851 264.266 312.697 264.685C308.543 265.119 303.21 264.793 303.954 263.615C304.698 262.437 313.767 262.236 317.487 257.756C321.223 253.276 324.106 246.347 326.013 247.416C327.919 248.471 343.823 254.237 343.823 255.725C343.823 257.213 319.084 369.597 317.967 370.558C316.851 371.519 313.813 362.078 314.929 354.56C316.045 347.042 328.043 251.571 328.849 255.725C329.655 259.879 329.485 280.186 327.888 283.55C326.292 286.913 301.505 295.703 289.988 299.547C278.471 303.391 221.457 287.549 213.071 287.549C204.67 287.549 249.778 306.739 249.049 317.776C248.336 328.813 211.382 367.674 220.496 364.078C229.611 360.482 268.193 343.989 294.142 353.289C320.091 362.59 334.755 362.404 339.08 359.521C343.405 356.638 368.672 326.41 362.595 328.968C356.519 331.526 341.173 359.04 340.522 363.505C339.886 367.984 354.271 368.945 363.231 368.945C372.19 368.945 409.13 368.945 410.091 366.868C411.052 364.791 425.437 292.509 424.321 284.511C423.205 276.512 410.726 258.918 389.459 259.089C368.191 259.244 341.002 275.086 341.638 275.164C342.273 275.241 367.308 269.01 365.943 267.165C364.579 265.32 345.466 259.089 346.908 257.973C348.35 256.857 367.385 265.088 368.811 264.855C370.253 264.623 395.907 259.414 404.402 263.414C412.896 267.413 419.686 286.619 421.593 284.046C423.499 281.472 423.515 265.181 427.824 263.739C432.149 262.298 587.114 251.586 587.114 253.818C587.114 256.051 579.27 374.882 576.883 379.037C574.48 383.191 420.802 397.964 418.988 397.003C417.175 396.041 427.948 268.855 429.436 267.568C430.924 266.281 582.851 255.942 583.177 257.446C583.502 258.934 575.922 374.727 572.403 376.805C568.885 378.882 424.631 391.887 421.965 391.67C419.298 391.453 345.622 378.231 346.474 376.324C347.327 374.402 417.671 368.403 417.671 369.767C417.671 371.131 416.787 387.764 416.307 387.996C415.826 388.229 345.699 374.882 345.466 375.363C345.234 375.844 345.947 382.245 346.753 382.804C347.559 383.362 418.291 399.576 420.26 399.188C422.228 398.816 432.784 272.203 434.381 270.777C435.978 269.335 466.685 269.49 467.011 267.413C467.336 265.336 461.415 259.104 463.167 251.896C464.918 244.704 483.644 229.993 490.356 214.322C497.068 198.65 506.663 180.576 508.585 169.229C510.507 157.882 522.071 138.366 524.737 136.335C527.403 134.305 541.37 137.079 549.043 125.407C556.716 113.735 560.39 96.7763 559.119 85.259C557.832 73.7416 551.756 65.3555 554.003 57.3569C556.236 49.3583 562.312 53.3576 565.04 56.9538C567.768 60.5501 569.443 72.3 566.482 76.8573C563.521 81.4147 561.211 82.9338 560.25 81.1822C559.289 79.4305 555.135 62.7668 556.096 59.031C557.057 55.2952 562.235 57.0004 561.955 55.4037C561.676 53.8071 558.964 26.7266 544.253 15.7363C529.543 4.76149 511.732 13.1786 504.586 16.6974C497.44 20.2161 472.281 31.2995 465.678 33.5471C459.074 35.7793 458.315 53.3731 473.351 55.1867C488.387 57.0004 516.429 27.3622 522.505 29.4858C528.582 31.625 531.031 36.3063 530.504 44.0879C529.977 51.8695 530.612 59.0155 534.131 59.124C537.65 59.2325 544.253 64.0224 545.757 69.5718C547.245 75.1212 549.601 82.5773 551.306 79.601C553.011 76.6093 549.384 62.7513 551.632 56.2563C553.879 49.7613 558.034 50.5984 556.856 44.956C555.678 39.298 547.679 19.2551 532.224 17.1314C516.77 14.9922 508.663 26.3081 498.432 32.3845C488.201 38.461 474.762 44.1189 473.583 47.7307C472.405 51.3579 479.66 77.6944 483.923 85.786C488.186 93.8931 502.152 114.045 505.252 117.765C508.353 121.485 519.436 136.537 523.156 134.925C526.876 133.313 536.596 131.514 536.906 132.041C537.231 132.568 544.579 145.791 547.88 142.923C551.182 140.056 570.59 89.2893 570.156 85.1349C569.722 80.9806 569.086 75.4932 568.295 76.9813C567.489 78.4695 568.776 85.4605 568.931 85.507C569.086 85.5535 586.153 94.6837 585.827 96.4353C585.502 98.1869 575.349 151.604 574.31 152.084C573.271 152.565 552.717 143.853 550.237 145.202C547.756 146.566 544.455 145.419 543.494 147.171C542.533 148.922 541.463 169.725 542.967 169.554C544.455 169.399 555.554 165.229 555.926 166.516C556.298 167.803 567.272 250.269 564.885 251.54C562.483 252.826 541.277 254.206 540.951 253.028C540.626 251.85 541.478 227.234 539.99 230.427C538.502 233.62 533.387 252.501 531.248 253.57C529.109 254.64 498.618 256.562 496.494 254.532C494.355 252.501 486.79 247.602 481.784 247.928C476.777 248.254 465.895 257.74 465.895 255.927C465.895 254.113 469.259 237.744 484.45 238.705C499.641 239.666 509.872 254.035 510.197 253.555C510.523 253.074 533.976 251.447 534.983 250.703C535.991 249.959 539.091 237.806 540.052 233.326C541.013 228.846 543.416 172.344 543.99 171.275C544.579 170.205 556.887 168.872 557.522 166.469C558.158 164.067 561.041 150.55 558.886 149.124C556.732 147.682 553.445 147.202 553.445 147.45C553.445 147.698 569.753 154.565 571.117 153.123C572.481 151.681 583.115 98.4349 584.076 96.1098C585.037 93.7846 616.752 101.117 626.983 103.783C637.214 106.449 669.549 135.684 672.432 142.644C675.315 149.604 647.723 289.456 639.089 295.207C630.455 300.957 586.897 301.872 586.68 300.167C586.463 298.462 590.617 255.276 592.648 252.516C594.678 249.742 601.902 225.916 599.732 201.068C597.562 176.22 590.369 141.683 605.731 126.337C621.077 110.991 664.031 133.53 677.703 155.123C691.375 176.716 714.409 222.77 718.006 246.037C721.602 269.304 730.965 289.223 724.485 296.416C718.006 303.608 686.585 287.301 677.703 287.533C668.82 287.766 648.033 291.688 648.204 286.092C648.359 280.496 667.069 203.409 668.355 206.927C669.642 210.446 698.428 257.942 700.815 269.785C703.217 281.612 724.64 302.415 723.849 308.01C723.043 313.606 696.505 299.221 674.106 304.972C651.723 310.723 633.493 324.488 624.208 341.911C614.923 359.335 609.653 371.023 605.018 371.333C600.383 371.643 578.154 372.449 579.425 370.372C580.712 368.294 604.537 366.853 605.173 368.449C605.808 370.046 604.46 376.603 600.693 376.851C596.926 377.099 577.984 376.216 582.867 375.564C587.749 374.929 679.625 382.276 686.337 388.043C693.049 393.794 690.181 398.289 691.375 399.157C692.568 400.025 755.844 404.753 766.307 394.507C776.77 384.261 807.478 250.253 799.48 218.584C791.481 186.915 704.489 191.07 704.489 194.589C704.489 198.107 709.929 216.972 714.409 213.779C718.889 210.586 755.022 206.416 773.903 219.53C792.768 232.644 781.901 293.098 776.786 304.926C771.671 316.753 749.194 318.675 715.138 312.924C681.066 307.173 660.682 316.521 643.895 331.154C627.107 345.787 623.991 372.418 625.665 373.131C627.339 373.844 698.35 376.495 697.637 383.439C696.924 390.384 706.752 395.669 711.309 395.437C715.866 395.204 852.602 395.437 852.602 395.437" stroke="white" stroke-width="1.2" stroke-miterlimit="10"></path>
</svg>