<svg xmlns="http://www.w3.org/2000/svg" width="112" height="48" viewBox="0 0 112 48" fill="none">
  <g clip-path="url(#clip0_6799_238)">
    <mask id="mask0_6799_238" style="mask-type:luminance" maskUnits="userSpaceOnUse" x="0" y="0" width="112" height="48">
      <path d="M111.968 0.0664062H0.0107422V48.0001H111.968V0.0664062Z" fill="white"></path>
    </mask>
    <g mask="url(#mask0_6799_238)">
      <path d="M110.065 9.4148L52.5875 9.40619C52.5255 8.8126 52.1355 8.23696 51.5946 7.97392L50.3911 7.41339C50.1542 7.31335 49.8944 6.90772 49.9041 6.64522V1.88302C49.893 1.21049 49.4106 0.607065 48.7551 0.44689L47.2608 0.0984063C47.1669 0.0771315 47.0772 0.0664062 46.986 0.0664062C46.9633 0.0664062 46.9424 0.071681 46.9202 0.0730876L46.9213 0.0664062L2.03035 5.31212C0.898127 5.45085 0.00637975 6.44302 0 7.57252V40.3185C0.00637975 41.4501 0.898127 42.4427 2.03035 42.5782L46.7003 47.9773L46.8865 47.9999L46.8874 47.9913C46.9188 47.994 46.9491 48.0003 46.9806 48.0003H46.984C47.0708 48.0003 47.1614 47.9906 47.258 47.9704L48.7602 47.6203C49.4118 47.4559 49.893 46.853 49.9041 46.1833V41.4134C49.8949 41.1635 50.1585 40.753 50.3973 40.6524L51.5976 40.0915C52.1746 39.8146 52.587 39.1716 52.6001 38.5239V38.2962H109.878C111.03 38.2953 111.968 37.364 111.968 36.2204V11.4846C111.968 10.4031 111.13 9.51045 110.065 9.4148ZM45.9216 47.0037L2.13225 41.7107C1.46008 41.6402 0.874203 40.9897 0.879696 40.3177V7.57111C0.874203 6.90245 1.45972 6.25155 2.13243 6.17858L45.9228 1.06087C45.9196 1.09533 45.9127 1.12856 45.9127 1.16408V46.904C45.9127 46.9381 45.9189 46.9703 45.9216 47.0037ZM49.2288 11.1667C49.2373 11.1657 49.2456 11.1623 49.2545 11.1623C50.1005 11.1623 50.7886 12.3403 50.7886 13.7879C50.7886 15.2353 50.1005 16.4126 49.2545 16.4126C49.2456 16.4126 49.2373 16.4093 49.2288 16.4082V11.1667ZM49.2288 21.3126C49.2373 21.3116 49.2456 21.3083 49.2545 21.3083C50.1005 21.3083 50.7886 22.4863 50.7886 23.9337C50.7886 25.3812 50.1005 26.5585 49.2545 26.5585C49.2456 26.5585 49.2373 26.5552 49.2288 26.5543V21.3126ZM49.2288 31.4586C49.2373 31.4575 49.2456 31.4542 49.2545 31.4542C50.1005 31.4542 50.7886 32.6322 50.7886 34.0798C50.7886 35.5273 50.1005 36.7046 49.2545 36.7046C49.2456 36.7046 49.2373 36.7013 49.2288 36.7004V31.4586ZM49.0142 41.4201V46.1889C49.0216 46.4163 48.7827 46.715 48.5524 46.7614L47.0595 47.1082C47.0341 47.114 47.007 47.1173 46.9929 47.1173C46.8724 47.1122 46.8102 47.0763 46.8027 46.9046V1.17181C46.8102 0.993703 46.8743 0.955549 46.9904 0.949395C47.0138 0.949747 47.0366 0.952736 47.06 0.958011L48.5594 1.30808C48.7833 1.35168 49.0211 1.65146 49.0142 1.88583V6.64909C49.0149 6.67669 49.0202 6.7043 49.0223 6.7319V41.3315H49.0229C49.0206 41.361 49.0149 41.3904 49.0142 41.4201ZM51.7103 38.5306C51.7195 38.7845 51.4583 39.1948 51.2189 39.2915L50.0153 39.8544C49.6817 40.0173 49.4067 40.3031 49.2288 40.638V36.9142C49.2373 36.9153 49.2456 36.9183 49.2545 36.9183C50.2191 36.9183 51.0041 35.6446 51.0041 34.0794C51.0041 32.5137 50.2191 31.2402 49.2545 31.2402C49.2456 31.2402 49.2373 31.2435 49.2288 31.2444V26.7681C49.2373 26.7692 49.2456 26.7722 49.2545 26.7722C50.2191 26.7722 51.0041 25.4987 51.0041 23.9333C51.0041 22.3676 50.2191 21.0941 49.2545 21.0941C49.2456 21.0941 49.2373 21.0973 49.2288 21.0983V16.6224C49.2373 16.6234 49.2456 16.6266 49.2545 16.6266C50.2191 16.6266 51.0041 15.3529 51.0041 13.7879C51.0041 12.2222 50.2191 10.9485 49.2545 10.9485C49.2456 10.9485 49.2373 10.9517 49.2288 10.9527V7.42887C49.4069 7.76399 49.683 8.05093 50.0186 8.2155L51.2233 8.77656C51.4603 8.87608 51.7195 9.27942 51.7103 9.54034V38.5306ZM111.088 36.2202C111.087 36.8828 110.544 37.4218 109.878 37.4224H52.6003V10.2792H109.877C110.544 10.2807 111.087 10.8212 111.088 11.4846L111.088 36.2202Z" fill="#FDB913"></path>
    </g>
    <path d="M62.6041 27.4744L64.1863 12.5176H68.4212L65.4833 34.8812H59.4915L56.6924 12.5176H60.9223L62.6041 27.4744Z" fill="#FDB913"></path>
    <path d="M69.4441 12.5171H75.3998L78.2361 34.8807H73.9681L73.287 28.9839H71.2786L70.4973 34.8807H66.6094L69.4441 12.5171ZM71.6898 25.5312H72.8885L72.3384 18.9108L71.6898 25.5312Z" fill="#FDB913"></path>
    <path d="M88.7824 12.5176V31.3369C88.79 32.8458 88.0944 33.8922 87.1135 34.4933C86.1351 35.0994 84.901 35.3072 83.7401 35.3081C82.5961 35.3072 81.3703 35.0994 80.3971 34.4933C79.421 33.8922 78.7249 32.8458 78.7325 31.3369V12.5176H82.9601V31.0616C82.9578 31.5834 83.0569 31.8373 83.1565 31.9351C83.2488 32.0369 83.4232 32.0961 83.7741 32.0968C84.1062 32.0961 84.2682 32.0392 84.3585 31.9389C84.4569 31.8391 84.5549 31.5836 84.5529 31.0618V12.5176H88.7824Z" fill="#FDB913"></path>
    <path d="M89.7979 34.8807V12.5176H94.0232L94.0223 31.4231H98.6177V34.8807H89.7979Z" fill="#FDB913"></path>
    <path d="M106.683 12.5176H106.992V15.9727L103.858 15.9718V34.8807H99.6334V15.9727H96.4668V12.5176H106.683Z" fill="#FDB913"></path>
    <path d="M11.6458 9.65232L16.6842 9.20801L13.1438 38.4131L6.12204 37.784L3.71387 10.3517L8.74572 9.90814L10.0504 28.1126L11.6458 9.65232Z" fill="#FDB913"></path>
    <path d="M17.5978 9.12761L24.6051 8.50977L27.97 39.7418L22.8848 39.286L22.079 31.0914L19.7885 30.9854L18.8417 38.9237L14.2217 38.5098L17.5978 9.12761ZM20.2677 26.4489L21.6149 26.4735L20.9977 17.9542L20.2677 26.4489Z" fill="#FDB913"></path>
    <path d="M32.8593 40.1795L28.5962 39.7974V8.15749L35.682 7.53401L38.2112 26.7379L38.185 7.31195L42.448 6.93604V41.0385L35.441 40.4107L32.8593 20.3956V40.1795Z" fill="#FDB913"></path>
  </g>
  <defs>
    <clipPath id="clip0_6799_238">
      <rect width="112" height="48" fill="white"></rect>
    </clipPath>
  </defs>
</svg>