<svg xmlns="http://www.w3.org/2000/svg" width="141" height="46" viewBox="0 0 141 46" fill="none">
  <path d="M42.811 8.89355C47.2609 8.89355 50.7389 11.5514 51.8642 12.7269L36.9801 27.4469C35.1415 29.3638 32.8371 31.7402 30.0751 34.0402C27.9268 35.8802 24.4419 36.8738 21.9425 36.8002C16.7254 36.6469 14.4237 34.6536 11.3548 31.7402C8.15048 28.5383 4.78994 24.8731 2.64453 22.7294C4.34848 24.4291 8.01499 27.8639 12.8892 27.7532C19.9477 27.5929 23.9373 22.3869 26.6993 19.6269C28.1043 18.2229 32.9905 12.8802 35.1387 11.3469C38.2402 9.13312 41.5988 8.89355 42.811 8.89355Z" fill="#D755E2"></path>
  <g style="mix-blend-mode:multiply">
    <path d="M9.05325 16.5601C4.60335 16.5601 1.12526 18.9112 0 20.0867L7.21191 27.4467C9.05037 29.3637 11.3549 31.8934 14.1169 34.1934C16.1117 35.8546 19.4432 36.8737 21.9426 36.8001C27.1597 36.6467 29.4614 34.9601 32.6838 31.7401C36.1955 28.3833 39.5599 24.8667 41.7051 22.7251C39.9994 24.4252 36.0276 28.0175 31.1493 27.9067C24.0909 27.7464 22.2495 24.3801 17.6462 19.9334C15.1449 17.5173 11.7427 16.5601 9.05325 16.5601Z" fill="#3DB8FD"></path>
  </g>
  <path d="M70.5844 29.7774L74.8808 16.744H79.4535L73.1622 33.7334H67.9451L61.6846 16.744H66.2879L70.5844 29.7774ZM97.6714 24.8707C97.6714 25.484 97.6306 26.036 97.5486 26.5267H85.1196C85.2221 27.7534 85.6517 28.7143 86.4085 29.4094C87.1656 30.1045 88.0964 30.452 89.2012 30.452C90.7971 30.452 91.9326 29.7672 92.6077 28.3974H97.2418C96.7507 30.0329 95.8098 31.3822 94.4184 32.4454C93.0272 33.488 91.3188 34.0094 89.2933 34.0094C87.6567 34.0094 86.1836 33.6515 84.8741 32.936C83.5851 32.2 82.5724 31.1675 81.8359 29.8387C81.1199 28.5098 80.7618 26.9765 80.7618 25.2387C80.7618 23.4805 81.1199 21.9369 81.8359 20.608C82.5522 19.2792 83.5545 18.2569 84.8434 17.5414C86.1323 16.8258 87.6158 16.468 89.2933 16.468C90.9097 16.468 92.3521 16.8156 93.6204 17.5107C94.9094 18.2058 95.9019 19.1974 96.5973 20.4854C97.3136 21.7529 97.6714 23.2147 97.6714 24.8707ZM93.2215 23.644C93.2012 22.54 92.8023 21.6609 92.0246 21.0067C91.2473 20.332 90.2959 19.9947 89.1705 19.9947C88.1069 19.9947 87.2065 20.3218 86.4699 20.976C85.7539 21.6098 85.3142 22.4992 85.1503 23.644H93.2215ZM99.7027 25.1774C99.7027 23.46 100.04 21.9369 100.715 20.608C101.411 19.2792 102.352 18.2569 103.539 17.5414C104.726 16.8258 106.045 16.468 107.498 16.468C108.603 16.468 109.656 16.7134 110.659 17.204C111.661 17.6743 112.459 18.308 113.052 19.1054V11.04H117.41V33.7334H113.052V31.2187C112.521 32.0568 111.774 32.7315 110.812 33.2427C109.851 33.7539 108.735 34.0094 107.467 34.0094C106.035 34.0094 104.726 33.6414 103.539 32.9054C102.352 32.1694 101.411 31.1368 100.715 29.808C100.04 28.4587 99.7027 26.9152 99.7027 25.1774ZM113.083 25.2387C113.083 24.196 112.878 23.3067 112.469 22.5707C112.06 21.8143 111.508 21.2418 110.812 20.8534C110.116 20.4445 109.37 20.24 108.572 20.24C107.774 20.24 107.037 20.4343 106.362 20.8227C105.687 21.2112 105.135 21.7836 104.705 22.54C104.296 23.276 104.091 24.1552 104.091 25.1774C104.091 26.1996 104.296 27.0992 104.705 27.876C105.135 28.6325 105.687 29.2152 106.362 29.624C107.058 30.0329 107.794 30.2374 108.572 30.2374C109.37 30.2374 110.116 30.0432 110.812 29.6547C111.508 29.2458 112.06 28.6734 112.469 27.9374C112.878 27.1809 113.083 26.2814 113.083 25.2387ZM120.502 25.1774C120.502 23.46 120.839 21.9369 121.514 20.608C122.21 19.2792 123.141 18.2569 124.307 17.5414C125.494 16.8258 126.813 16.468 128.266 16.468C129.535 16.468 130.639 16.7236 131.58 17.2347C132.542 17.7458 133.309 18.3898 133.882 19.1667V16.744H138.209V33.7334H133.882V31.2494C133.33 32.0467 132.562 32.7113 131.58 33.2427C130.619 33.7539 129.504 34.0094 128.235 34.0094C126.803 34.0094 125.494 33.6414 124.307 32.9054C123.141 32.1694 122.21 31.1368 121.514 29.808C120.839 28.4587 120.502 26.9152 120.502 25.1774ZM133.882 25.2387C133.882 24.196 133.678 23.3067 133.268 22.5707C132.859 21.8143 132.307 21.2418 131.611 20.8534C130.916 20.4445 130.169 20.24 129.371 20.24C128.573 20.24 127.836 20.4343 127.161 20.8227C126.486 21.2112 125.933 21.7836 125.504 22.54C125.095 23.276 124.89 24.1552 124.89 25.1774C124.89 26.1996 125.095 27.0992 125.504 27.876C125.933 28.6325 126.486 29.2152 127.161 29.624C127.857 30.0329 128.593 30.2374 129.371 30.2374C130.169 30.2374 130.916 30.0432 131.611 29.6547C132.307 29.2458 132.859 28.6734 133.268 27.9374C133.678 27.1809 133.882 26.2814 133.882 25.2387Z" fill="#17174F"></path>
</svg>