<svg width="106" height="94" viewBox="0 0 106 94" fill="none" xmlns="http://www.w3.org/2000/svg">
<path d="M100.414 14.548C97.5186 9.7577 93.2776 6.01532 88.2691 3.83083C82.5942 1.34581 76.2203 0.898508 69.8368 2.54052C63.9871 4.04543 58.2892 7.30944 53.2047 12.0445C48.1199 7.30902 42.4214 4.0448 36.5709 2.5401C30.1872 0.897455 23.8128 1.34518 18.1379 3.83189C13.1294 6.01704 8.88858 9.76018 5.9934 14.5512C2.96135 19.5515 1.41888 25.6325 1.53273 32.1359C2.03821 61.0474 43.3205 87.3374 51.591 92.3144C52.0818 92.6097 52.6383 92.7652 53.2048 92.7652C53.7714 92.7652 54.3279 92.6097 54.8187 92.3144C63.09 87.3368 104.376 61.0421 104.877 32.1308C104.99 25.6278 103.447 19.5475 100.414 14.548ZM98.4184 32.0097C98.2569 41.3576 92.2837 52.2561 81.146 63.5263C70.8316 73.963 59.0993 81.8295 53.2047 85.4899C47.3102 81.8302 35.5797 73.9647 25.2663 63.5276C14.128 52.2582 8.15479 41.3605 7.99128 32.0129C7.81283 21.806 12.5412 13.5938 20.6395 10.0451C23.2936 8.88858 26.1429 8.29868 29.0192 8.31019C36.4469 8.31019 44.304 12.0613 50.9016 19.0602C51.2022 19.3791 51.5606 19.6323 51.956 19.8052C52.3514 19.978 52.7758 20.067 53.2044 20.067C53.6331 20.067 54.0575 19.978 54.4529 19.8052C54.8482 19.6323 55.2067 19.3791 55.5072 19.0602C64.6732 9.33705 76.2693 5.88266 85.7672 10.0444C93.8663 13.5919 98.5952 21.8028 98.4184 32.0091V32.0097Z" fill="#074E15" stroke="#074E15" stroke-width="2"/>
<circle cx="85.7828" cy="66.4695" r="15.2876" fill="#CCFF90"/>
<path d="M85.6387 47.1436C75.0615 47.1436 66.457 55.748 66.457 66.3252C66.457 76.9024 75.0615 85.5069 85.6387 85.5069C96.2159 85.5069 104.82 76.9024 104.82 66.3252C104.82 55.748 96.2159 47.1436 85.6387 47.1436ZM94.0307 67.9236H87.2371V74.7172C87.2371 75.5997 86.5212 76.3156 85.6387 76.3156C84.7562 76.3156 84.0403 75.5997 84.0403 74.7172V67.9236H77.2467C76.3643 67.9236 75.6483 67.2077 75.6483 66.3252C75.6483 65.4428 76.3643 64.7268 77.2467 64.7268H84.0403V57.9332C84.0403 57.0508 84.7562 56.3349 85.6387 56.3349C86.5212 56.3349 87.2371 57.0508 87.2371 57.9332V64.7268H94.0307C94.9131 64.7268 95.629 65.4428 95.629 66.3252C95.629 67.2077 94.9131 67.9236 94.0307 67.9236Z" fill="#074E15"/>
</svg>
