<svg width="65" height="65" viewBox="0 0 65 65" fill="none" xmlns="http://www.w3.org/2000/svg">
<mask id="mask0_4969_14513" style="mask-type:luminance" maskUnits="userSpaceOnUse" x="0" y="0" width="65" height="65">
<path d="M65 0H0V65H65V0Z" fill="white"></path>
</mask>
<g mask="url(#mask0_4969_14513)">
<mask id="mask1_4969_14513" style="mask-type:luminance" maskUnits="userSpaceOnUse" x="0" y="0" width="65" height="65">
<path d="M0 7.62939e-06H65V65H0V7.62939e-06Z" fill="white"></path>
</mask>
<g mask="url(#mask1_4969_14513)">
<path d="M57.1635 26.0716C58.2471 26.8029 58.9595 28.0423 58.9595 29.4479V59.9781C58.9595 62.2263 57.137 64.0488 54.8889 64.0488H10.1113C7.86306 64.0488 6.04053 62.2263 6.04053 59.9781V29.4479C6.04053 28.0428 6.75248 26.804 7.83526 26.0725" stroke="black" stroke-width="2" stroke-miterlimit="10" stroke-linecap="round" stroke-linejoin="round"></path>
<path d="M12.1465 22.0112L8.62544 25.1259C7.25181 26.341 7.25181 28.4842 8.62544 29.6994L26.6945 45.6836" stroke="black" stroke-width="2" stroke-miterlimit="10" stroke-linecap="round" stroke-linejoin="round"></path>
<path d="M38.3594 45.6348L56.3745 29.6983C57.7482 28.4831 57.7482 26.3399 56.3745 25.1249L52.8523 22.0092" stroke="black" stroke-width="2" stroke-miterlimit="10" stroke-linecap="round" stroke-linejoin="round"></path>
<path d="M42.6768 49.6441L57.5275 62.7812" stroke="black" stroke-width="2" stroke-miterlimit="10" stroke-linecap="round" stroke-linejoin="round"></path>
<path d="M7.39355 62.8516L28.4542 44.2211C30.7642 42.1775 34.2355 42.1775 36.5455 44.2211L39.6247 46.9448" stroke="black" stroke-width="2" stroke-miterlimit="10" stroke-linecap="round" stroke-linejoin="round"></path>
<path d="M52.8535 32.5V0.952152H21.3056L12.1465 10.1112V32.5" stroke="black" stroke-width="2" stroke-miterlimit="10" stroke-linecap="round" stroke-linejoin="round"></path>
<path d="M22.3232 32.5L43.1856 11.6377" stroke="black" stroke-width="2" stroke-miterlimit="10" stroke-linecap="round" stroke-linejoin="round"></path>
<path d="M41.6589 20.2891L43.6942 11.1299L34.5352 13.1653" stroke="black" stroke-width="2" stroke-miterlimit="10" stroke-linecap="round" stroke-linejoin="round"></path>
<path d="M21.3056 0.952295V10.1113H12.1465" stroke="black" stroke-width="2" stroke-miterlimit="10" stroke-linecap="round" stroke-linejoin="round"></path>
</g>
</g>
</svg>