<svg width="65" height="65" viewBox="0 0 65 65" fill="none" xmlns="http://www.w3.org/2000/svg">
<mask id="mask0_5065_8851" style="mask-type:luminance" maskUnits="userSpaceOnUse" x="0" y="0" width="65" height="65">
<path d="M0 7.62939e-06H65V65H0V7.62939e-06Z" fill="white"></path>
</mask>
<g mask="url(#mask0_5065_8851)">
<path d="M42.8135 37.4271L47.8255 42.4392L63.7303 58.3438L58.3437 63.7305L42.439 47.8258L37.4268 42.8137" stroke="black" stroke-width="2" stroke-miterlimit="10" stroke-linecap="round" stroke-linejoin="round"></path>
<path d="M16.5674 27.9922C16.5674 25.8886 14.8624 24.1836 12.7588 24.1836C10.6552 24.1836 8.9502 25.8886 8.9502 27.9922C8.9502 30.0958 10.6552 31.8008 12.7588 31.8008C14.8624 31.8008 16.5674 30.0958 16.5674 27.9922Z" stroke="black" stroke-width="2" stroke-miterlimit="10" stroke-linecap="round" stroke-linejoin="round"></path>
<path d="M27.9932 16.5664C27.9932 14.4628 26.2882 12.7578 24.1846 12.7578C22.081 12.7578 20.376 14.4628 20.376 16.5664C20.376 18.67 22.081 20.375 24.1846 20.375C26.2882 20.375 27.9932 18.67 27.9932 16.5664Z" stroke="black" stroke-width="2" stroke-miterlimit="10" stroke-linecap="round" stroke-linejoin="round"></path>
<path d="M39.4189 27.9922C39.4189 25.8886 37.714 24.1836 35.6104 24.1836C34.5592 24.1836 33.607 24.6102 32.9177 25.2995C32.2283 25.9889 31.8018 26.941 31.8018 27.9922C31.8018 30.0958 33.5067 31.8008 35.6104 31.8008C37.714 31.8008 39.4189 30.0958 39.4189 27.9922Z" stroke="black" stroke-width="2" stroke-miterlimit="10" stroke-linecap="round" stroke-linejoin="round"></path>
<path d="M15.4531 25.3008L21.4923 19.2616" stroke="black" stroke-width="2" stroke-miterlimit="10" stroke-linecap="round" stroke-linejoin="round"></path>
<path d="M26.8789 19.2616L32.9181 25.3008" stroke="black" stroke-width="2" stroke-miterlimit="10" stroke-linecap="round" stroke-linejoin="round"></path>
<path d="M38.3047 25.3008L46.059 17.5465L51.961 11.6444" stroke="black" stroke-width="2" stroke-miterlimit="10" stroke-linecap="round" stroke-linejoin="round"></path>
<path d="M58.4619 8.94922C58.4619 11.0528 56.7569 12.7578 54.6533 12.7578C52.5497 12.7578 50.8447 11.0528 50.8447 8.94922C50.8447 6.84561 52.5497 5.14062 54.6533 5.14062C56.7569 5.14062 58.4619 6.84561 58.4619 8.94922Z" stroke="black" stroke-width="2" stroke-miterlimit="10" stroke-linecap="round" stroke-linejoin="round"></path>
<path d="M42.4395 47.8262L47.8261 42.4396" stroke="black" stroke-width="2" stroke-miterlimit="10" stroke-linecap="round" stroke-linejoin="round"></path>
<path d="M25.3906 1.26953C25.3906 1.97069 24.8221 2.53906 24.1211 2.53906C23.4201 2.53906 22.8516 1.97069 22.8516 1.26953C22.8516 0.568369 23.4201 2.38419e-07 24.1211 2.38419e-07C24.8221 2.38419e-07 25.3906 0.568369 25.3906 1.26953Z" fill="black"></path>
<path d="M29.7917 1.96565C37.562 3.93686 43.7492 9.90771 46.0586 17.5452C46.6946 19.6476 47.0361 21.8769 47.0361 24.1836C47.0361 29.1183 45.4708 33.6886 42.8111 37.4248C41.3283 39.5056 39.5065 41.3273 37.4258 42.8102C33.6895 45.4698 29.1192 47.0352 24.1846 47.0352C11.5642 47.0352 1.26953 36.804 1.26953 24.1836C1.26953 13.5406 8.59092 4.55169 18.4543 1.99612" stroke="black" stroke-width="2" stroke-miterlimit="10" stroke-linecap="round" stroke-linejoin="round"></path>
</g>
</svg>