<svg width="65" height="65" viewBox="0 0 65 65" fill="none" xmlns="http://www.w3.org/2000/svg">
<mask id="mask0_7008_323" style="mask-type:luminance" maskUnits="userSpaceOnUse" x="0" y="0" width="65" height="65">
<path d="M0 7.62939e-06H65V65H0V7.62939e-06Z" fill="white"></path>
</mask>
<g mask="url(#mask0_7008_323)">
<path d="M47.8613 32.5C47.8613 24.0161 40.9839 17.1387 32.5 17.1387C24.0161 17.1387 17.1387 24.0161 17.1387 32.5C17.1387 40.9839 24.0161 47.8613 32.5 47.8613C40.9839 47.8613 47.8613 40.9839 47.8613 32.5Z" stroke="black" stroke-width="2" stroke-miterlimit="10"></path>
<path d="M63.0957 37.2607V27.7393L58.4966 26.0217C57.8475 23.4086 56.8156 20.9469 55.4624 18.7002L57.5007 14.232L50.768 7.49925L46.2998 9.53762C44.0531 8.18442 41.5914 7.15254 38.9783 6.50343L37.2607 1.9043H27.7393L26.0217 6.50343C23.4086 7.15254 20.9469 8.18442 18.7002 9.53762L14.232 7.49925L7.49925 14.232L9.53761 18.7002C8.18442 20.9469 7.15254 23.4086 6.50343 26.0217L1.9043 27.7393V37.2607L6.50343 38.9783C7.15254 41.5914 8.18442 44.053 9.53761 46.2998L7.49925 50.768L14.232 57.5008L18.7002 55.4624C20.9469 56.8156 23.4086 57.8475 26.0217 58.4966L27.7393 63.0957H37.2607L38.9783 58.4966C41.5914 57.8475 44.0531 56.8156 46.2998 55.4624L50.768 57.5008L57.5007 50.768L55.4624 46.2998C56.8156 44.053 57.8475 41.5914 58.4966 38.9783L63.0957 37.2607Z" stroke="black" stroke-width="2" stroke-miterlimit="10"></path>
<path d="M39.2325 28.4598L31.1532 36.5391L25.7671 31.1528" stroke="black" stroke-width="2" stroke-miterlimit="10"></path>
</g>
</svg>