<svg width="65" height="65" viewBox="0 0 65 65" fill="none" xmlns="http://www.w3.org/2000/svg">
<mask id="mask0_4986_15432" style="mask-type:luminance" maskUnits="userSpaceOnUse" x="0" y="0" width="65" height="65">
<path d="M0 7.62939e-06H65V65H0V7.62939e-06Z" fill="white"></path>
</mask>
<g mask="url(#mask0_4986_15432)">
<path d="M50.0267 57.0381C45.5379 61.5269 39.4497 64.0488 33.1016 64.0488H56.3679C56.7376 64.0488 57.0373 63.749 57.0373 63.3793V40.1131C57.0373 46.4613 54.5155 52.5494 50.0267 57.0381Z" stroke="black" stroke-width="2" stroke-miterlimit="10" stroke-linecap="round" stroke-linejoin="round"></path>
<path d="M42.7163 54.7676C42.9124 53.9086 43.0159 53.0144 43.0159 52.0961V50.6962C43.0159 50.3264 43.3158 50.0266 43.6855 50.0266H45.0854C51.6862 50.0266 57.0372 44.6757 57.0372 38.0749V1.6217C57.0372 1.25202 56.7375 0.952283 56.3678 0.952283H8.63219C8.2625 0.952283 7.96289 1.25189 7.96289 1.6217V5.33382" stroke="black" stroke-width="2" stroke-miterlimit="10" stroke-linecap="round" stroke-linejoin="round"></path>
<path d="M7.96289 9.77815V63.3794C7.96289 63.7491 8.26263 64.0488 8.63231 64.0488H31.0643C35.1455 64.0488 38.749 62.0032 40.9052 58.8815" stroke="black" stroke-width="2" stroke-miterlimit="10" stroke-linecap="round" stroke-linejoin="round"></path>
<path d="M17.725 24.1924L18.6025 26.8929C18.6906 27.1645 18.9437 27.3482 19.2291 27.3482H22.0686C22.7069 27.3482 22.9723 28.1649 22.4559 28.54L20.1586 30.2092C19.9278 30.3769 19.8311 30.6742 19.9193 30.9456L20.7968 33.6463C20.9941 34.2533 20.2993 34.7581 19.7829 34.3829L17.4857 32.7137C17.2548 32.546 16.9421 32.546 16.7113 32.7137L14.414 34.3829C13.8977 34.7581 13.203 34.2533 13.4003 33.6463L14.2776 30.9456C14.3659 30.6742 14.2692 30.3769 14.0383 30.2092L11.7411 28.54C11.2248 28.1649 11.4901 27.3482 12.1283 27.3482H14.9679C15.2533 27.3482 15.5063 27.1645 15.5944 26.8929L16.4719 24.1924C16.6692 23.5855 17.5279 23.5855 17.725 24.1924Z" stroke="black" stroke-width="2" stroke-miterlimit="10" stroke-linecap="round" stroke-linejoin="round"></path>
<path d="M33.1265 24.1924L34.004 26.8929C34.0921 27.1645 34.3451 27.3482 34.6305 27.3482H37.4701C38.1083 27.3482 38.3736 28.1649 37.8574 28.54L35.5601 30.2092C35.3293 30.3769 35.2325 30.6742 35.3208 30.9456L36.1981 33.6463C36.3954 34.2533 35.7007 34.7581 35.1844 34.3829L32.8871 32.7137C32.6563 32.546 32.3436 32.546 32.1126 32.7137L29.8154 34.3829C29.2991 34.7581 28.6044 34.2533 28.8016 33.6463L29.6791 30.9456C29.7673 30.6742 29.6707 30.3769 29.4398 30.2092L27.1424 28.54C26.6261 28.1649 26.8916 27.3482 27.5298 27.3482H30.3693C30.6547 27.3482 30.9076 27.1645 30.9958 26.8929L31.8733 24.1924C32.0706 23.5855 32.9292 23.5855 33.1265 24.1924Z" stroke="black" stroke-width="2" stroke-miterlimit="10" stroke-linecap="round" stroke-linejoin="round"></path>
<path d="M48.5283 24.1924L49.4058 26.8929C49.4939 27.1645 49.7469 27.3482 50.0324 27.3482H52.872C53.5101 27.3482 53.7755 28.1649 53.2592 28.54L50.9619 30.2092C50.7311 30.3769 50.6344 30.6742 50.7226 30.9456L51.6 33.6463C51.7972 34.2533 51.1025 34.7581 50.5862 34.3829L48.289 32.7137C48.0581 32.546 47.7454 32.546 47.5146 32.7137L45.2172 34.3829C44.7009 34.7581 44.0062 34.2533 44.2035 33.6463L45.081 30.9456C45.1691 30.6742 45.0725 30.3769 44.8416 30.2092L42.5442 28.54C42.028 28.1649 42.2934 27.3482 42.9316 27.3482H45.7711C46.0565 27.3482 46.3094 27.1645 46.3978 26.8929L47.2751 24.1924C47.4724 23.5855 48.331 23.5855 48.5283 24.1924Z" stroke="black" stroke-width="2" stroke-miterlimit="10" stroke-linecap="round" stroke-linejoin="round"></path>
<path d="M25.4257 36.0557L26.3032 38.7563C26.3913 39.0277 26.6443 39.2115 26.9297 39.2115H29.7693C30.4076 39.2115 30.6729 40.0282 30.1566 40.4034L27.8593 42.0724C27.6285 42.2401 27.5317 42.5376 27.62 42.8089L28.4975 45.5095C28.6948 46.1165 27.9999 46.6213 27.4836 46.2463L25.1864 44.5771C24.9555 44.4094 24.6428 44.4094 24.412 44.5771L22.1147 46.2463C21.5983 46.6213 20.9037 46.1165 21.1009 45.5095L21.9783 42.8089C22.0665 42.5376 21.9699 42.2401 21.739 42.0724L19.4418 40.4034C18.9255 40.0282 19.1908 39.2115 19.829 39.2115H22.6686C22.9539 39.2115 23.2068 39.0277 23.2951 38.7563L24.1726 36.0557C24.3699 35.4488 25.2286 35.4488 25.4257 36.0557Z" stroke="black" stroke-width="2" stroke-miterlimit="10" stroke-linecap="round" stroke-linejoin="round"></path>
<path d="M40.8276 36.0557L41.705 38.7563C41.7932 39.0277 42.0462 39.2115 42.3316 39.2115H45.1712C45.8094 39.2115 46.0747 40.0282 45.5585 40.4034L43.2612 42.0724C43.0304 42.2401 42.9336 42.5376 43.0219 42.8089L43.8992 45.5095C44.0965 46.1165 43.4018 46.6213 42.8855 46.2463L40.5882 44.5771C40.3574 44.4094 40.0447 44.4094 39.8139 44.5771L37.5166 46.2463C37.0002 46.6213 36.3055 46.1165 36.5027 45.5095L37.3802 42.8089C37.4684 42.5376 37.3717 42.2401 37.1409 42.0724L34.8436 40.4034C34.3274 40.0282 34.5927 39.2115 35.2308 39.2115H38.0704C38.3558 39.2115 38.6087 39.0277 38.697 38.7563L39.5745 36.0557C39.7717 35.4488 40.6303 35.4488 40.8276 36.0557Z" stroke="black" stroke-width="2" stroke-miterlimit="10" stroke-linecap="round" stroke-linejoin="round"></path>
<path d="M38.5725 18.4805H15.9488C15.8913 18.4805 15.8447 18.4339 15.8447 18.3764V15.0793C15.8447 15.0218 15.8913 14.9752 15.9488 14.9752H47.2883C47.3459 14.9752 47.3926 15.0218 47.3926 15.0793V18.3764C47.3926 18.4339 47.3459 18.4805 47.2883 18.4805H43.0159" stroke="black" stroke-width="2" stroke-miterlimit="10" stroke-linecap="round" stroke-linejoin="round"></path>
<path d="M28.1133 6.21094H35.1239" stroke="black" stroke-width="2" stroke-miterlimit="10" stroke-linecap="round" stroke-linejoin="round"></path>
<path d="M21.103 9.7168H42.135" stroke="black" stroke-width="2" stroke-miterlimit="10" stroke-linecap="round" stroke-linejoin="round"></path>
<path d="M13.2207 53.5332H23.7366" stroke="black" stroke-width="2" stroke-miterlimit="10" stroke-linecap="round" stroke-linejoin="round"></path>
<path d="M16.7261 57.0391H23.7367" stroke="black" stroke-width="2" stroke-miterlimit="10" stroke-linecap="round" stroke-linejoin="round"></path>
</g>
</svg>