<svg width="65" height="65" viewBox="0 0 65 65" fill="none" xmlns="http://www.w3.org/2000/svg">
<mask id="mask0_4969_14549" style="mask-type:luminance" maskUnits="userSpaceOnUse" x="0" y="0" width="65" height="65">
<path d="M0 7.62939e-06H65V65H0V7.62939e-06Z" fill="white"></path>
</mask>
<g mask="url(#mask0_4969_14549)">
<path d="M63.0957 38.2129V26.7871L56.1143 25.0734C55.6752 23.6806 55.1051 22.3469 54.4383 21.0719L58.0842 14.9949L50.0051 6.91565L43.9282 10.5617C42.6531 9.89486 41.3196 9.32484 39.9265 8.88571L38.2129 1.9043H26.7871L25.0735 8.88571C23.6804 9.32484 22.3469 9.89486 21.0718 10.5617L14.9949 6.91565L6.91577 14.9949L10.5617 21.0719C9.89485 22.3469 9.32483 23.6806 8.8857 25.0734L1.9043 26.7871V38.2129L8.8857 39.9266C9.32483 41.3194 9.89485 42.6531 10.5617 43.9281L6.91577 50.0051L14.9949 58.0844L21.0718 54.4383C22.3469 55.1051 23.6804 55.6752 25.0735 56.1143L26.7871 63.0957H38.2129L39.9265 56.1143C41.3196 55.6752 42.6531 55.1051 43.9282 54.4383L50.0051 58.0844L58.0842 50.0051L54.4383 43.9281C55.1051 42.6531 55.6752 41.3194 56.1143 39.9266L63.0957 38.2129Z" stroke="black" stroke-width="2" stroke-miterlimit="10" stroke-linecap="round" stroke-linejoin="round"></path>
<path d="M38.2129 18.3771C43.7908 20.6417 47.7344 26.1191 47.7344 32.5C47.7344 40.9001 40.9001 47.7344 32.5 47.7344C24.0999 47.7344 17.2656 40.9001 17.2656 32.5C17.2656 26.1191 21.2092 20.6417 26.7871 18.3771V32.5L32.5 36.3086L38.2129 32.5V18.3771Z" stroke="black" stroke-width="2" stroke-miterlimit="10" stroke-linecap="round" stroke-linejoin="round"></path>
<path d="M26.7871 63.0957V46.6229" stroke="black" stroke-width="2" stroke-miterlimit="10" stroke-linecap="round" stroke-linejoin="round"></path>
<path d="M38.2129 63.0957V46.6229" stroke="black" stroke-width="2" stroke-miterlimit="10" stroke-linecap="round" stroke-linejoin="round"></path>
</g>
</svg>