<svg width="65" height="61" viewBox="0 0 65 61" fill="none" xmlns="http://www.w3.org/2000/svg">
<path d="M22.8714 48.5961H12.4884C11.8428 48.5961 11.3193 48.0727 11.3193 47.427C11.3193 43.9142 14.167 41.0664 17.6798 41.0664C21.1926 41.0664 24.0403 43.9141 24.0403 47.427C24.0404 48.0727 23.517 48.5961 22.8714 48.5961Z" stroke="black" stroke-width="2" stroke-miterlimit="10" stroke-linecap="round" stroke-linejoin="round"></path>
<path d="M17.6797 40.8427V38.9043" stroke="black" stroke-width="2" stroke-miterlimit="10" stroke-linecap="round" stroke-linejoin="round"></path>
<path d="M27.0154 54.0187H8.34438C7.55867 54.0187 6.92188 53.3818 6.92188 52.5962V35.4108C6.92188 34.6251 7.5588 33.9883 8.34438 33.9883H27.0154C27.8011 33.9883 28.4379 34.6252 28.4379 35.4108V52.5961C28.4379 53.3818 27.801 54.0187 27.0154 54.0187Z" stroke="black" stroke-width="2" stroke-miterlimit="10" stroke-linecap="round" stroke-linejoin="round"></path>
<path d="M35.8268 39.4111H52.2729C53.0587 39.4111 53.6955 38.7742 53.6955 37.9886V35.9186C53.6955 35.1329 53.0585 34.4961 52.2729 34.4961H35.8268C35.0411 34.4961 34.4043 35.133 34.4043 35.9186V37.9886C34.4043 38.7743 35.0412 39.4111 35.8268 39.4111Z" stroke="black" stroke-width="2" stroke-miterlimit="10" stroke-linecap="round" stroke-linejoin="round"></path>
<path d="M64.0479 21.0721V14.0918H0.952148V36.7372" stroke="black" stroke-width="2" stroke-miterlimit="10" stroke-linecap="round" stroke-linejoin="round"></path>
<path d="M0.952148 41.1809V54.546C0.952148 57.3555 3.22969 59.633 6.03916 59.633H58.9608C61.7703 59.633 64.0479 57.3555 64.0479 54.546V25.5156" stroke="black" stroke-width="2" stroke-miterlimit="10" stroke-linecap="round" stroke-linejoin="round"></path>
<path d="M58.9608 5.36719H6.03916C3.22969 5.36719 0.952148 7.64473 0.952148 10.4541V14.0901H64.0479V10.4541C64.0479 7.64473 61.7703 5.36719 58.9608 5.36719Z" stroke="black" stroke-width="2" stroke-miterlimit="10" stroke-linecap="round" stroke-linejoin="round"></path>
<path d="M34.4326 48.3652H56.8746" stroke="black" stroke-width="2" stroke-miterlimit="10" stroke-linecap="round" stroke-linejoin="round"></path>
<path d="M53.5742 52.5234H56.875" stroke="black" stroke-width="2" stroke-miterlimit="10" stroke-linecap="round" stroke-linejoin="round"></path>
<path d="M34.4326 44.207H51.0348" stroke="black" stroke-width="2" stroke-miterlimit="10" stroke-linecap="round" stroke-linejoin="round"></path>
<path d="M12.0993 19.6738L13.3784 21.5076C13.4639 21.6302 13.5882 21.7206 13.7313 21.764L15.8704 22.4137C16.314 22.5484 16.4879 23.0838 16.2083 23.4535L14.8595 25.2365C14.7693 25.3558 14.7218 25.502 14.7247 25.6514L14.7677 27.8867C14.7766 28.3502 14.3214 28.681 13.8832 28.5293L11.7707 27.7976C11.6295 27.7486 11.4758 27.7486 11.3345 27.7976L9.22204 28.5293C8.78392 28.681 8.32867 28.3502 8.33756 27.8867L8.38059 25.6514C8.38351 25.5019 8.33603 25.3558 8.24577 25.2365L6.89702 23.4535C6.61734 23.0837 6.79127 22.5484 7.23484 22.4137L9.374 21.764C9.51708 21.7206 9.64136 21.6302 9.72693 21.5076L11.006 19.6738C11.2712 19.2936 11.8341 19.2936 12.0993 19.6738Z" stroke="black" stroke-width="2" stroke-miterlimit="10" stroke-linecap="round" stroke-linejoin="round"></path>
<path d="M26.0641 19.6738L27.3432 21.5076C27.4288 21.6302 27.5531 21.7206 27.6961 21.764L29.8353 22.4137C30.2789 22.5484 30.4528 23.0838 30.1731 23.4535L28.8244 25.2365C28.7341 25.3558 28.6866 25.502 28.6895 25.6514L28.7326 27.8867C28.7415 28.3502 28.2862 28.681 27.8481 28.5293L25.7356 27.7976C25.5943 27.7486 25.4407 27.7486 25.2994 27.7976L23.1869 28.5293C22.7488 28.681 22.2935 28.3502 22.3024 27.8867L22.3454 25.6514C22.3484 25.5019 22.3009 25.3558 22.2106 25.2365L20.8619 23.4535C20.5822 23.0837 20.7561 22.5484 21.1997 22.4137L23.3388 21.764C23.4819 21.7206 23.6062 21.6302 23.6918 21.5076L24.9708 19.6738C25.236 19.2936 25.7989 19.2936 26.0641 19.6738Z" stroke="black" stroke-width="2" stroke-miterlimit="10" stroke-linecap="round" stroke-linejoin="round"></path>
<path d="M40.029 19.6738L41.308 21.5076C41.3936 21.6302 41.5179 21.7206 41.661 21.764L43.8001 22.4137C44.2437 22.5484 44.4176 23.0838 44.138 23.4535L42.7892 25.2365C42.6989 25.3558 42.6515 25.502 42.6544 25.6514L42.6974 27.8867C42.7063 28.3502 42.2511 28.681 41.8129 28.5293L39.7004 27.7976C39.5591 27.7486 39.4055 27.7486 39.2642 27.7976L37.1517 28.5293C36.7136 28.681 36.2584 28.3502 36.2672 27.8867L36.3103 25.6514C36.3132 25.5019 36.2657 25.3558 36.1755 25.2365L34.8267 23.4535C34.547 23.0837 34.721 22.5484 35.1645 22.4137L37.3037 21.764C37.4468 21.7206 37.571 21.6302 37.6566 21.5076L38.9357 19.6738C39.2009 19.2936 39.7638 19.2936 40.029 19.6738Z" stroke="black" stroke-width="2" stroke-miterlimit="10" stroke-linecap="round" stroke-linejoin="round"></path>
<path d="M53.9938 19.6738L55.2729 21.5076C55.3585 21.6302 55.4827 21.7206 55.6258 21.764L57.765 22.4137C58.2085 22.5484 58.3825 23.0838 58.1028 23.4535L56.754 25.2365C56.6638 25.3558 56.6163 25.502 56.6192 25.6514L56.6623 27.8867C56.6712 28.3502 56.2159 28.681 55.7778 28.5293L53.6653 27.7976C53.524 27.7486 53.3704 27.7486 53.2291 27.7976L51.1166 28.5293C50.6785 28.681 50.2232 28.3502 50.2321 27.8867L50.2751 25.6514C50.278 25.5019 50.2306 25.3558 50.1403 25.2365L48.7915 23.4535C48.5119 23.0837 48.6858 22.5484 49.1294 22.4137L51.2685 21.764C51.4116 21.7206 51.5359 21.6302 51.6215 21.5076L52.9005 19.6738C53.1657 19.2936 53.7286 19.2936 53.9938 19.6738Z" stroke="black" stroke-width="2" stroke-miterlimit="10" stroke-linecap="round" stroke-linejoin="round"></path>
</svg>