<svg width="65" height="65" viewBox="0 0 65 65" fill="none" xmlns="http://www.w3.org/2000/svg">
<mask id="mask0_4969_14483" style="mask-type:luminance" maskUnits="userSpaceOnUse" x="0" y="0" width="65" height="65">
<path d="M0 7.62939e-06H65V65H0V7.62939e-06Z" fill="white"></path>
</mask>
<g mask="url(#mask0_4969_14483)">
<path d="M14.5962 7.36207L16.3668 10.9498C16.4173 11.0521 16.515 11.1231 16.628 11.1396L20.5872 11.7148C20.8718 11.7562 20.9854 12.1058 20.7795 12.3065L17.9146 15.0992C17.8328 15.1788 17.7955 15.2937 17.8148 15.4062L18.4911 19.3495C18.5397 19.6329 18.2422 19.8491 17.9877 19.7152L14.4465 17.8535C14.3454 17.8003 14.2247 17.8003 14.1236 17.8535L10.5824 19.7152C10.3279 19.8491 10.0304 19.6329 10.079 19.3495L10.7553 15.4062C10.7746 15.2937 10.7374 15.1788 10.6557 15.0992L7.7907 12.3065C7.58479 12.1058 7.69841 11.7562 7.98291 11.7148L11.9422 11.1396C12.0552 11.1231 12.1528 11.0521 12.2033 10.9498L13.974 7.36207C14.1013 7.10423 14.4689 7.10423 14.5962 7.36207Z" stroke="black" stroke-width="2" stroke-miterlimit="10" stroke-linecap="round" stroke-linejoin="round"></path>
<path d="M32.811 7.36207L34.5816 10.9498C34.6321 11.0521 34.7299 11.1231 34.8429 11.1396L38.802 11.7148C39.0867 11.7562 39.2003 12.1058 38.9944 12.3065L36.1294 15.0992C36.0477 15.1788 36.0103 15.2937 36.0296 15.4062L36.7059 19.3495C36.7545 19.6329 36.4571 19.8491 36.2025 19.7152L32.6613 17.8535C32.5603 17.8003 32.4395 17.8003 32.3385 17.8535L28.7972 19.7152C28.5427 19.8491 28.2453 19.6329 28.2939 19.3495L28.9702 15.4062C28.9895 15.2937 28.9523 15.1788 28.8705 15.0992L26.0055 12.3065C25.7996 12.1058 25.9133 11.7562 26.1978 11.7148L30.157 11.1396C30.27 11.1231 30.3677 11.0521 30.4182 10.9498L32.1888 7.36207C32.3161 7.10423 32.6838 7.10423 32.811 7.36207Z" stroke="black" stroke-width="2" stroke-miterlimit="10" stroke-linecap="round" stroke-linejoin="round"></path>
<path d="M51.0263 7.36207L52.7969 10.9498C52.8475 11.0521 52.9452 11.1231 53.0582 11.1396L57.0174 11.7148C57.302 11.7562 57.4156 12.1058 57.2097 12.3065L54.3448 15.0992C54.263 15.1788 54.2257 15.2937 54.245 15.4062L54.9213 19.3495C54.9699 19.6329 54.6724 19.8491 54.4179 19.7152L50.8767 17.8535C50.7756 17.8003 50.6549 17.8003 50.5538 17.8535L47.0126 19.7152C46.758 19.8491 46.4606 19.6329 46.5092 19.3495L47.1855 15.4062C47.2048 15.2937 47.1676 15.1788 47.0858 15.0992L44.2209 12.3065C44.015 12.1058 44.1286 11.7562 44.4131 11.7148L48.3724 11.1396C48.4854 11.1231 48.583 11.0521 48.6335 10.9498L50.4041 7.36207C50.5315 7.10423 50.8991 7.10423 51.0263 7.36207Z" stroke="black" stroke-width="2" stroke-miterlimit="10" stroke-linecap="round" stroke-linejoin="round"></path>
<path d="M11.6797 0.952152H5.8759C3.15656 0.952152 0.952148 3.15657 0.952148 5.8759V21.0523C0.952148 23.7716 3.15656 25.976 5.8759 25.976H9.64844L14.3457 32.2461L19.043 25.976H59.124C61.8433 25.976 64.0478 23.7716 64.0478 21.0523V5.8759C64.0478 3.15657 61.8433 0.952152 59.124 0.952152H16.5039" stroke="black" stroke-width="2" stroke-miterlimit="10" stroke-linecap="round" stroke-linejoin="round"></path>
<path d="M19.0937 47.7969C19.0937 50.4612 16.9339 52.6211 14.2695 52.6211C11.6052 52.6211 9.44531 50.4612 9.44531 47.7969C9.44531 45.1325 11.6052 42.9727 14.2695 42.9727C16.9339 42.9727 19.0937 45.1325 19.0937 47.7969Z" stroke="black" stroke-width="2" stroke-miterlimit="10" stroke-linecap="round" stroke-linejoin="round"></path>
<path d="M5.56787 60.3651C6.07124 56.0057 9.77497 52.621 14.2694 52.621C18.8507 52.621 22.6106 56.1378 22.9965 60.6191" stroke="black" stroke-width="2" stroke-miterlimit="10" stroke-linecap="round" stroke-linejoin="round"></path>
<path d="M27.6123 50.7168C27.6123 58.0788 21.6442 64.0469 14.2822 64.0469C6.92021 64.0469 0.952148 58.0788 0.952148 50.7168C0.952148 43.3548 6.92021 37.3867 14.2822 37.3867C21.6442 37.3867 27.6123 43.3548 27.6123 50.7168Z" stroke="black" stroke-width="2" stroke-miterlimit="10" stroke-linecap="round" stroke-linejoin="round"></path>
<path d="M61.6992 43.418H35.5469C34.2498 43.418 33.1982 42.3664 33.1982 41.0693C33.1982 39.7723 34.2498 38.7207 35.5469 38.7207H61.6992C62.9963 38.7207 64.0479 39.7723 64.0479 41.0693C64.0479 42.3664 62.9963 43.418 61.6992 43.418Z" stroke="black" stroke-width="2" stroke-miterlimit="10" stroke-linecap="round" stroke-linejoin="round"></path>
<path d="M60.1758 48.3691H61.7627C63.0598 48.3691 64.1113 49.4207 64.1113 50.7178C64.1113 52.0149 63.0598 53.0664 61.7627 53.0664H35.6104C34.3133 53.0664 33.2617 52.0149 33.2617 50.7178C33.2617 49.4207 34.3133 48.3691 35.6104 48.3691H55.3516" stroke="black" stroke-width="2" stroke-miterlimit="10" stroke-linecap="round" stroke-linejoin="round"></path>
<path d="M38.8477 62.7129H35.6738C34.3767 62.7129 33.3252 61.6613 33.3252 60.3643C33.3252 59.0672 34.3767 58.0156 35.6738 58.0156H61.8262C63.1233 58.0156 64.1748 59.0672 64.1748 60.3643C64.1748 61.6613 63.1233 62.7129 61.8262 62.7129H43.5449" stroke="black" stroke-width="2" stroke-miterlimit="10" stroke-linecap="round" stroke-linejoin="round"></path>
</g>
</svg>