<svg width="38" height="38" viewBox="0 0 38 38" fill="none" xmlns="http://www.w3.org/2000/svg">
<rect x="0.5" y="0.5" width="37" height="37" rx="4.5" stroke="#0F9EB1"/>
<rect x="5" y="5" width="28" height="28" rx="3" fill="#0F9EB1"/>
<g clip-path="url(#clip0_5708_10140)">
<path d="M19.0746 18.5453H22.3406H23.3145V10.5625H20.6766V13.3028C20.6766 13.4762 20.536 13.6168 20.3626 13.6168H17.7867C17.6133 13.6168 17.4726 13.4762 17.4726 13.3028V10.5625H14.835V18.5453H15.8089H19.0746Z" fill="white"/>
<path d="M10.2812 27.1566H18.7607V19.1738H16.1231V21.9141C16.1231 22.0875 15.9825 22.2281 15.809 22.2281H13.233C13.0595 22.2281 12.9189 22.0875 12.9189 21.9141V19.1738H10.2812V27.1566Z" fill="white"/>
<path d="M18.1006 10.5625H20.0483V12.9888H18.1006V10.5625Z" fill="white"/>
<path d="M22.6553 21.6H24.6031V19.1738H23.6292H22.6553V21.6Z" fill="white"/>
<path d="M27.8683 19.1738H25.2305V21.9141C25.2305 22.0875 25.0899 22.2281 24.9164 22.2281H22.3406C22.1671 22.2281 22.0265 22.0875 22.0265 21.9141V19.1738H19.3887V27.1566H27.8683V19.1738Z" fill="white"/>
<path d="M13.5469 19.1738V21.6H15.4948V19.1738H14.5209H13.5469Z" fill="white"/>
</g>
<defs>
<clipPath id="clip0_5708_10140">
<rect width="18" height="18" fill="white" transform="translate(10 10)"/>
</clipPath>
</defs>
</svg>
